<?xml version="1.0" encoding="UTF-8" standalone="no"?>
<!-- Created with Inkscape (http://www.inkscape.org/) -->

<svg
   width="15.345833mm"
   height="26.385187mm"
   viewBox="0 0 15.345833 26.385187"
   version="1.1"
   id="svg5"
   inkscape:version="1.1.1 (3bf5ae0d25, 2021-09-20)"
   sodipodi:docname="alchemist.svg"
   inkscape:export-filename="/home/israel/bitmap.png"
   inkscape:export-xdpi="96"
   inkscape:export-ydpi="96"
   xmlns:inkscape="http://www.inkscape.org/namespaces/inkscape"
   xmlns:sodipodi="http://sodipodi.sourceforge.net/DTD/sodipodi-0.dtd"
   xmlns="http://www.w3.org/2000/svg"
   xmlns:svg="http://www.w3.org/2000/svg">
  <sodipodi:namedview
     id="namedview7"
     pagecolor="#ffffff"
     bordercolor="#666666"
     borderopacity="1.0"
     inkscape:pageshadow="2"
     inkscape:pageopacity="0.0"
     inkscape:pagecheckerboard="0"
     inkscape:document-units="px"
     showgrid="false"
     inkscape:zoom="0.31352196"
     inkscape:cx="-550.20069"
     inkscape:cy="607.61294"
     inkscape:window-width="1366"
     inkscape:window-height="699"
     inkscape:window-x="0"
     inkscape:window-y="40"
     inkscape:window-maximized="1"
     inkscape:current-layer="layer1"
     inkscape:snap-global="false"
     fit-margin-top="0"
     fit-margin-left="0"
     fit-margin-right="0"
     fit-margin-bottom="0" />
  <defs
     id="defs2" />
  <g
     inkscape:label="Layer 1"
     inkscape:groupmode="layer"
     id="layer1"
     transform="translate(-14.945456,-23.692045)">
    <g
       id="g7747"
       transform="matrix(0.10358174,0,0,0.10358174,14.685435,18.006518)"
       inkscape:export-filename="/home/israel/programming/rs/rust_hero/assets/heros/alchemist.png"
       inkscape:export-xdpi="96"
       inkscape:export-ydpi="96">
      <path
         id="path892"
         style="fill:#7239b3;stroke-width:17.4358;stroke-linecap:round;stroke-linejoin:round;paint-order:fill markers stroke"
         d="m 322.85352,390.34766 a 142.25553,57.978157 0 0 0 -142.25391,57.97656 142.25553,57.978157 0 0 0 0.0625,0.75586 c -0.33358,0.32353 -0.55469,0.7362 -0.55469,1.20312 v 165.66992 c -5.82567,37.10908 -20.73484,128.44355 -34.34961,179.76563 -20.85789,78.6257 -87.075767,149.61434 -79.769529,230.63085 0.868207,9.6273 6.467732,19.5049 14.228516,25.2676 20.473603,15.2023 49.346103,13.6263 74.666013,16.6562 38.43223,4.5992 77.42144,0.6951 116.09961,2.1739 54.52215,2.0845 109.10278,14.6657 163.41406,9.4414 27.75931,-2.6703 60.5626,-1.76 81.07032,-20.6582 12.70337,-11.7064 15.7317,-31.7694 16.84961,-49.0078 3.26513,-50.34853 -21.56105,-98.60747 -30.3125,-148.29692 C 489.38058,790.25252 471.88548,664.72796 464.61914,611.66992 V 452.90625 a 142.25553,57.978157 0 0 0 0.48828,-4.58203 142.25553,57.978157 0 0 0 -142.2539,-57.97656 z"
         transform="scale(0.26458333)" />
      <path
         id="path846"
         style="fill:#a3907c;stroke-width:12;stroke-linecap:round;stroke-linejoin:round;paint-order:fill markers stroke"
         d="m 325.81055,246.63867 a 43.589548,80.010312 0 0 0 -42.98047,66.95117 c -0.006,-0.0146 -0.01,-0.0303 -0.0156,-0.0449 -2.05845,-5.35819 -7.44348,-9.01982 -12.35156,-11.99609 -13.56765,-8.22745 -45.19531,-14.94922 -45.19531,-14.94922 0,0 29.34245,30.79291 36.88867,50.11328 2.06856,5.29607 -1.04367,12.07488 1.87695,16.95313 1.798,3.00314 5.31947,7.01054 8.6543,5.94726 7.96,-2.53797 8.55689,-21.21447 8.62891,-23.5332 0.0234,-0.75452 0.47718,-2.669 0.98437,-5.13867 a 43.589548,80.010312 0 0 0 43.50977,75.71679 43.589548,80.010312 0 0 0 43.54687,-76.55468 c 0.49182,2.38113 0.92442,4.21724 0.94727,4.95312 0.072,2.31873 0.66892,20.99328 8.6289,23.53125 3.33487,1.06328 6.8563,-2.94412 8.6543,-5.94727 2.92059,-4.87824 -0.19158,-11.65705 1.87695,-16.95312 7.54625,-19.32037 36.88868,-50.11133 36.88868,-50.11133 0,0 -31.62768,6.71982 -45.19532,14.94727 -4.9081,2.97627 -10.29311,6.63985 -12.35156,11.99804 -0.0264,0.0687 -0.0491,0.14113 -0.0742,0.21094 A 43.589548,80.010312 0 0 0 325.8106,246.63869 Z"
         transform="scale(0.26458333)" />
      <path
         id="path3160"
         style="opacity:0.5;fill:#000000;fill-opacity:1;stroke:none;stroke-width:0.999999px;stroke-linecap:butt;stroke-linejoin:miter;stroke-opacity:1"
         d="m 370.37695,300.86523 -53.08984,6.63477 -29.80078,-2.64258 -5.90039,1.26563 -1.90821,50.44726 27.24805,37.90821 c 0,0 12.695,-2.23458 13.58399,-7.29688 0.81243,-4.62637 -8.17641,-5.96264 -9.39844,-10.49805 -1.87363,-6.95369 7.74791,-14.79727 4.37109,-21.1582 -0.68726,-1.29459 -2.60384,-1.55366 -4.06445,-1.67578 -4.91611,-0.41099 -10.37896,6.10484 -14.42969,3.28906 -5.1753,-3.5975 -5.66041,-13.30001 -2.48437,-18.74414 2.49685,-4.27992 13.78906,-5.55273 13.78906,-5.55273 l 5.58398,11.98242 c 0,0 2.47303,10.96657 4.22461,11.96484 3.52668,2.00994 8.60174,2.90131 12.14453,0.91992 3.33013,-1.86244 5.23829,-10.17773 5.23829,-10.17773 l -13.96876,-0.43555 1.35157,-26.74023 7.67969,-0.0547 14.57617,12.84961 17.70312,1.12305 c 0,0 -2.55514,13.93789 -4.63086,20.69531 -1.88109,6.12384 -10.99769,12.8264 -7.05664,17.87695 1.9804,2.53793 7.07117,0.76602 9.57617,-1.25586 7.75614,-6.26022 10.0586,-28.16015 10.0586,-28.16015 z m 30.66993,0.39649 c 0,0 -11.11014,6.53354 -16.04102,10.63867 -2.8512,2.37373 -7.22196,4.33285 -7.73047,8.00781 -0.37955,2.74298 4.08343,4.55341 3.93164,7.31836 -0.18444,3.3598 -5.86494,4.95456 -5.72265,8.31641 0.1249,2.95151 2.70162,7.29008 5.62304,6.85156 4.63026,-0.69502 4.99276,-8.32615 5.33008,-12.99609 0.24076,-3.32987 -3.25816,-6.48268 -2.42969,-9.7168 2.07557,-8.10239 17.03907,-18.41992 17.03907,-18.41992 z m -150.47266,1.02539 c 0,0 14.9635,10.31558 17.03906,18.41797 0.82847,3.23412 -2.67025,6.38693 -2.42969,9.7168 0.33736,4.66992 0.69985,12.30106 5.33008,12.99609 2.92143,0.43852 5.49814,-3.90005 5.62305,-6.85156 0.14228,-3.36185 -5.53822,-4.95661 -5.72266,-8.31641 -0.15178,-2.76495 4.31119,-4.57538 3.93164,-7.31836 -0.50851,-3.67496 -4.87927,-5.63213 -7.73047,-8.00586 -4.93086,-4.10513 -16.04101,-10.63867 -16.04101,-10.63867 z m 88.33008,74.30469 -19.02149,0.49804 c 0,0 0.68873,2.25214 1.625,2.77149 4.11347,2.28162 9.72562,1.32892 14.10547,-0.38672 1.35761,-0.53178 3.29102,-2.88281 3.29102,-2.88281 z m -64.66211,17.47461 c 0,0 -9.68898,5.08333 -14.40625,7.84961 -12.24226,7.17909 -30.98424,9.41619 -36.03321,22.67968 -3.62727,9.5288 6.14669,19.46231 8.5,29.38282 6.93762,29.24579 12.51782,58.85692 16.52149,88.64648 5.70699,42.46326 -0.84769,57.58522 2.79297,86.05273 2.46139,19.24653 12.81445,56.78125 12.81445,56.78125 l 9.97656,-21.80468 24.92578,23.11718 4.32422,-28.66992 13.00977,33.64258 11.63867,-25.09961 9.32422,31.32422 6.43945,-26.5293 7.96485,21.0293 9.00586,-28.61523 8.05664,23.5332 c 0,0 10.54593,-33.78991 14.23437,-51.07422 5.67239,-26.58119 17.42637,-53.98998 12.08008,-80.63867 -2.95775,-14.74299 -14.95041,-26.12558 -23.37305,-38.58203 -23.91444,-35.36761 -48.8685,-70.23176 -76.94336,-102.39649 -6.42989,-7.3666 -20.85351,-20.6289 -20.85351,-20.6289 z"
         transform="scale(0.26458333)" />
      <path
         style="fill:#abacae;fill-opacity:1;stroke:none;stroke-width:0.264583px;stroke-linecap:butt;stroke-linejoin:miter;stroke-opacity:1"
         d="m 72.917345,87.748508 c -0.890805,3.299561 0.114478,8.785567 0.02024,13.176842 -0.07066,3.29248 -0.57447,6.57951 -0.439007,9.86996 0.108978,2.64714 1.063678,5.23567 1.004654,7.88439 -0.149762,6.72067 -2.788719,13.18092 -3.437749,19.87185 -0.677762,6.98714 -1.470051,14.10699 -0.465328,21.05465 0.651435,4.50467 4.071744,12.52011 4.156773,13.00651 0.08503,0.4864 3.984257,-9.3663 3.984257,-9.3663 l 3.344537,5.21219 2.364031,7.4653 2.252819,-10.16214 2.989379,9.07654 3.609819,-9.31275 4.160244,-2.79668 2.192261,10.49514 c 0,0 1.908695,-9.93129 2.659775,-14.9303 0.91637,-6.09911 2.38412,-17.8879 2.25108,-18.36525 -0.13305,-0.47735 -2.87189,-7.46528 -3.34381,-11.3958 -0.35612,-2.96605 0.0978,-7.3543 0.41593,-8.95239 0.31811,-1.59809 0.24048,-7.62842 0.3496,-11.44296 0.15996,-5.59199 1.25318,-11.240945 0.44725,-16.776863 -0.27211,-1.869108 -1.759782,-5.386245 -1.759782,-5.386245 -4.875022,0.477433 1.296042,10.765927 -1.767028,14.588408 -1.399555,1.74654 -4.092476,2.31179 -6.329455,2.2406 -1.461374,-0.0465 -2.60019,-1.43474 -4.033467,-1.7237 -0.67178,-0.13543 -1.384108,-0.12331 -2.055852,0.0123 -1.778265,0.359 -3.351742,2.77333 -5.028718,2.08133 -4.871601,-2.01024 -2.612082,-10.632291 -6.093452,-14.588757 -0.368349,-0.418617 -1.303665,-1.374204 -1.449001,-0.835875 z"
         id="path2286"
         sodipodi:nodetypes="sssssssccccccccssssssssssssss" />
      <path
         style="fill:#d4d4d4;fill-opacity:1;stroke:none;stroke-width:0.264583px;stroke-linecap:butt;stroke-linejoin:miter;stroke-opacity:1"
         d="m 73.245572,81.368801 2.640935,0.531784 c 0,0 -0.306813,5.082365 0.255016,7.861163 0.326869,1.616688 0.471779,3.322754 1.20899,4.798235 0.571404,1.143627 1.133052,2.960121 2.411288,2.982476 1.852983,0.03241 1.948728,-1.175849 3.645766,-1.920603 2.085421,-0.915198 4.842716,-0.916478 6.829372,0.196969 1.127925,0.63216 1.323896,-0.04955 2.117899,0.970939 0.34816,0.447472 0.587379,1.296344 1.152517,1.250892 1.721359,-0.138443 2.126339,-2.75716 2.85641,-4.322165 0.742476,-1.591597 0.222106,-4.405537 0.557198,-5.949537 0.335095,-1.544002 0.503036,-5.890513 0.503036,-5.890513 l 2.801761,-0.248913 c 0,0 0.0209,6.820486 -0.0491,10.22971 -0.0575,2.799391 -0.17266,5.597546 -0.304475,8.394422 -0.103647,2.19925 -0.04955,4.4176 -0.382432,6.59398 -0.554029,3.62224 -2.389859,7.00975 -2.673048,10.66316 -0.378625,4.88463 0.701106,9.77895 1.334212,14.63715 0.542684,4.16434 2.334723,8.22717 2.110013,12.4207 -0.19963,3.72551 -2.501928,7.07957 -3.042955,10.77099 -0.611504,4.17229 1.046805,8.62033 -0.198808,12.64902 -0.760214,2.45876 -4.257046,6.44116 -4.257046,6.44116 0,0 -0.136732,-11.2227 0.224743,-16.81731 0.2703,-4.18348 1.464747,-8.30037 1.451623,-12.49255 -0.01256,-4.01096 -1.312891,-7.93544 -1.46368,-11.94359 -0.174854,-4.64781 0.816045,-9.28986 0.651878,-13.93806 -0.119358,-3.37949 -0.640026,-6.73807 -1.187689,-10.07503 -0.564197,-3.4377 -0.485985,-7.16969 -2.158161,-10.225819 -0.48825,-0.892345 -1.217183,-1.797619 -2.17479,-2.14063 -1.558946,-0.558408 -1.133378,-0.634128 -2.558488,0.209195 -1.502435,0.889081 -2.463172,2.662387 -2.921201,4.347024 -1.911647,7.03105 -1.589832,14.78654 -1.062354,22.05371 0.241784,3.3311 1.122044,6.656 0.842309,9.98413 -0.468028,5.56835 -3.827137,14.86224 -4.177905,16.23499 -0.350769,1.37276 -0.129662,13.03624 0.152336,14.21079 0.281996,1.17454 1.115666,10.11756 1.115666,10.11756 0,0 -5.989159,-12.32763 -6.839145,-19.00715 -1.166409,-9.1661 2.166281,-18.37028 2.553583,-27.60217 0.396859,-9.45969 0.434726,-18.95898 -0.238455,-28.403034 -0.329992,-4.629449 -1.629805,-9.16338 -1.859161,-13.798905 -0.06221,-1.257292 0.132342,-3.77417 0.132342,-3.77417 z"
         id="path1376"
         sodipodi:nodetypes="ccsssssssssccsssssssscssssssssssssscssssc" />
      <path
         style="fill:#7239b3;stroke:none;stroke-width:0.264583px;stroke-linecap:butt;stroke-linejoin:miter;stroke-opacity:1"
         d="m 72.166633,73.472327 c 0,0 0.101681,-3.465632 0.616902,-5.097973 1.469542,-4.655853 2.653531,-10.518848 6.906726,-12.916108 2.605257,-1.46842 8.062854,0.354827 8.959053,0.477435 0.896202,0.122605 7.733926,1.384623 9.846392,4.272145 2.035934,2.782912 0.437479,6.897772 1.05116,10.290857 0.232054,1.283042 0.990704,3.784034 0.990704,3.784034 0,0 -6.579011,4.195239 -10.312604,4.425447 -6.255473,0.385704 -18.058333,-5.235837 -18.058333,-5.235837 z"
         id="path3606"
         sodipodi:nodetypes="cssssscsc" />
      <path
         style="opacity:0.5;fill:#000000;stroke:none;stroke-width:0.264583px;stroke-linecap:butt;stroke-linejoin:miter;stroke-opacity:1"
         d="m 72.842251,72.57884 9.775746,3.279738 17.247634,-1.099995 c 0,0 -0.355449,-1.913578 -0.563307,-2.864109 -0.181047,-0.827924 -0.595393,-2.471766 -0.595393,-2.471766 0,0 -0.389277,1.812707 -1.008773,1.642387 -0.831799,-0.228688 -0.03674,-2.58773 -0.03674,-2.58773 0,0 -0.856516,2.554551 -1.6989,2.48305 -1.378812,-0.117033 0.246827,-4.180675 0.246827,-4.180675 0,0 -1.518813,2.669916 -2.453032,3.310496 -2.510623,1.721496 -5.126601,1.065494 -8.092636,0.380354 -1.48402,-0.342802 -3.632858,-1.768441 -3.963381,-2.273776 -0.330526,-0.505333 -3.54416,-3.801962 -3.593518,-4.083796 -0.04936,-0.281837 1.682787,0.253854 1.682787,0.253854 0,0 -2.604051,-1.034774 -2.18585,-1.906458 0.358373,-0.74698 2.446478,0.438671 2.446478,0.438671 0,0 -2.713871,-1.344493 -2.256205,-2.321795 0.308582,-0.658947 2.176531,0.166182 2.176531,0.166182 0,0 -0.759896,-1.861102 -1.603555,-2.005557 -0.745377,-0.127627 -1.607954,0.513335 -1.925553,1.199634 -0.234252,0.506194 0.4759,1.147702 0.244734,1.655312 -0.198506,0.435893 -0.93743,0.380915 -1.210233,0.774597 -0.903959,1.304502 -0.760875,3.086432 -0.994897,4.656177 -0.139286,0.934285 0.01827,1.915421 -0.241937,2.823485 -0.281724,0.983141 -1.396826,2.73172 -1.396826,2.73172 z"
         id="path7139"
         sodipodi:nodetypes="cccscscscsssscscscssssssc" />
      <path
         style="fill:#d48e15;fill-opacity:1;stroke:none;stroke-width:0.264583px;stroke-linecap:butt;stroke-linejoin:miter;stroke-opacity:1"
         d="m 100.64859,79.559752 c -0.37708,0.751535 0.19332,1.948573 -0.45779,2.480604 -1.195036,0.976487 -3.086134,-0.118201 -4.629008,-0.08387 -6.277732,0.139687 -12.637794,2.380771 -18.800945,1.178692 -1.971281,-0.384484 -3.783515,-1.460508 -5.431041,-2.609175 -0.795666,-0.554744 -1.718361,-1.129131 -2.089367,-2.025335 -0.844009,-2.038795 0.295235,-5.990476 0.105704,-6.618923 -0.189532,-0.628449 0.978084,-0.828583 1.574866,-0.855321 2.737244,-0.122641 4.862953,2.702236 7.545286,3.261373 2.791803,0.581956 5.704513,0.09865 8.555398,0.02593 3.823861,-0.09754 7.724102,0.207977 11.458564,-0.619805 1.013109,-0.224566 1.852743,-1.22555 2.888443,-1.161151 0.61951,0.03852 1.22565,0.43092 1.62839,0.903229 0.59385,0.696428 1.11747,1.684353 0.93571,2.581365 -0.31977,1.578123 -2.5621,2.103193 -3.28421,3.542387 z"
         id="path3419"
         sodipodi:nodetypes="sssssssssssssss" />
      <path
         id="path4016"
         style="fill:#d48e15;stroke-width:17.4358;stroke-linecap:round;stroke-linejoin:round;paint-order:fill markers stroke"
         d="m 65.988281,1026.3496 c 0.868207,9.6273 6.467732,19.5049 14.228516,25.2676 20.473603,15.2023 49.346103,13.6263 74.666013,16.6562 38.43223,4.5992 77.42144,0.6951 116.09961,2.1739 54.52215,2.0845 109.10278,14.6657 163.41406,9.4414 27.75931,-2.6703 60.5626,-1.76 81.07032,-20.6582 12.70337,-11.7064 15.7317,-31.7694 16.84961,-49.0078 -37.58672,66.9705 -337.10875,42.0194 -466.328129,16.1269 z"
         transform="scale(0.26458333)"
         sodipodi:nodetypes="cscssscc" />
      <path
         style="opacity:0.5;fill:#000000;stroke:none;stroke-width:0.264583px;stroke-linecap:butt;stroke-linejoin:miter;stroke-opacity:1"
         d="m 26.898782,276.41153 c 0,0 -0.307444,-9.68382 0.429363,-14.44389 1.295363,-8.36857 3.718134,-16.60929 6.957793,-24.43332 4.427491,-10.69274 16.451265,-28.62931 16.880131,-30.33971 0.428868,-1.71041 6.27389,-58.53955 6.27389,-58.53955 0,0 1.924972,18.48264 1.684313,27.74481 -0.276556,10.64375 -1.022063,21.40643 -3.58867,31.73979 -3.941813,15.87005 -14.815905,29.60829 -17.937139,45.65991 -0.990116,5.09188 -0.152281,15.56102 -0.152281,15.56102 0,0 4.686385,-17.3942 6.423353,-18.60505 1.736969,-1.21085 16.243627,-29.47617 21.681246,-45.31294 1.51758,-4.41987 1.278774,-9.34898 2.993772,-13.69606 1.23634,-3.1338 5.16441,-8.68747 5.16441,-8.68747 0,0 -13.265522,48.11613 -16.325731,72.79479 -0.931354,7.51078 -0.593095,22.69717 -0.593095,22.69717 0,0 20.540427,-21.38075 20.325992,-27.81621 -0.214434,-6.43546 3.350234,-38.54374 8.928349,-56.92175 0.792475,-2.61094 3.440486,-7.42753 3.440486,-7.42753 0,0 -3.189379,39.20304 -4.249923,58.83828 -0.302473,5.60008 0.99976,14.00978 -0.602438,16.81393 -1.602197,2.80416 -6.070494,14.9879 -6.070494,14.9879 0,0 8.113043,-6.42288 10.896084,-10.67948 5.339591,-8.16679 8.33963,-17.82759 10.385023,-27.36825 3.094964,-14.43633 2.643154,-44.21417 2.643154,-44.21417 0,0 5.0322,37.42534 4.12395,39.73659 -0.90825,2.31125 -3.02791,21.59799 -2.60744,32.43707 0.17515,4.5151 2.12962,13.38715 2.12962,13.38715 0,0 7.29808,-11.57618 9.15609,-18.06705 2.27653,-7.95298 1.44363,-17.72814 2.19415,-24.72001 0.75051,-6.99187 -3.0283,-54.13985 -3.0283,-54.13985 0,0 7.85197,37.02766 8.40584,55.84381 0.42256,14.3551 -3.89582,42.90745 -3.89582,42.90745 l 14.80083,-3.1125 6.90453,-8.52641 c 0,0 3.79566,0.68896 5.10288,1.95797 2.91457,2.82938 5.64004,7.29087 4.70095,11.24286 -0.95061,4.00048 -5.86894,5.86655 -9.36961,8.02359 -14.78996,9.11326 -44.364525,18.86795 -47.557702,17.5935 -3.193177,-1.27444 -64.10712,5.94156 -85.079944,-13.64631 -4.8609879,-4.53999 -7.4205757,-13.07325 -5.0759797,-19.29769 1.9902786,-5.28379 14.0456327,-9.46769 14.0456327,-9.46769 l 0.697979,7.00165 z"
         id="path5652"
         sodipodi:nodetypes="cssscssscssscscsscsscsscsscsscscccssssssccc" />
      <path
         style="opacity:0.5;fill:#000000;stroke:none;stroke-width:0.264583px;stroke-linecap:butt;stroke-linejoin:miter;stroke-opacity:1"
         d="m 69.281137,77.148215 0.629129,-1.339101 1.303327,2.034093 0.458128,-1.803829 c 0,0 5.145267,2.449483 7.924994,2.796794 2.324552,0.29044 4.674084,-0.348896 6.999014,-0.636293 1.083209,-0.133901 3.234944,-0.506532 3.234944,-0.506532 0,0 -8.239148,-0.160171 -8.997058,-0.137234 -0.757912,0.02294 -5.010852,-1.186919 -7.263757,-2.376125 -0.816004,-0.430731 -2.194896,-1.686703 -2.194896,-1.686703 l -0.621249,2.218722 -0.727665,-1.891088 -0.960581,0.537974 -0.14358,2.113553 z"
         id="path6872"
         sodipodi:nodetypes="ccccsscsscccccc" />
    </g>
  </g>
</svg>
