<?xml version="1.0" encoding="UTF-8" standalone="no"?>
<!-- Created with Inkscape (http://www.inkscape.org/) -->

<svg
   width="64"
   height="128"
   viewBox="0 0 16.933334 33.866666"
   version="1.1"
   id="svg5"
   inkscape:version="1.1.1 (3bf5ae0d25, 2021-09-20)"
   sodipodi:docname="alchemist.svg"
   inkscape:export-filename="/home/israel/programming/rs/rust_hero/assets/heros/alchemist.png"
   inkscape:export-xdpi="96"
   inkscape:export-ydpi="96"
   xmlns:inkscape="http://www.inkscape.org/namespaces/inkscape"
   xmlns:sodipodi="http://sodipodi.sourceforge.net/DTD/sodipodi-0.dtd"
   xmlns="http://www.w3.org/2000/svg"
   xmlns:svg="http://www.w3.org/2000/svg"
   xmlns:serif="http://www.serif.com/">
  <sodipodi:namedview
     id="namedview7"
     pagecolor="#ffffff"
     bordercolor="#666666"
     borderopacity="1.0"
     inkscape:pageshadow="2"
     inkscape:pageopacity="0.0"
     inkscape:pagecheckerboard="0"
     inkscape:document-units="px"
     showgrid="false"
     inkscape:zoom="7.8659246"
     inkscape:cx="64.137406"
     inkscape:cy="48.118946"
     inkscape:window-width="1366"
     inkscape:window-height="699"
     inkscape:window-x="0"
     inkscape:window-y="40"
     inkscape:window-maximized="1"
     inkscape:current-layer="layer1"
     inkscape:snap-global="false"
     fit-margin-top="0"
     fit-margin-left="0"
     fit-margin-right="0"
     fit-margin-bottom="0"
     height="128mm"
     units="px" />
  <defs
     id="defs2" />
  <g
     inkscape:label="Layer 1"
     inkscape:groupmode="layer"
     id="layer1"
     transform="translate(-14.945456,-23.692045)">
    <path
       style="fill:#7a0000;fill-opacity:1;stroke:none;stroke-width:0.264583px;stroke-linecap:butt;stroke-linejoin:miter;stroke-opacity:1"
       d="m 26.570193,34.039576 c 0,0 0.726204,-0.545963 1.144933,-0.521878 0.614604,0.03535 0.966127,0.967124 1.581598,0.953639 0.28069,-0.0061 0.431588,-0.543167 0.701558,-0.466088 0.620458,0.177145 0.803733,1.761008 0.803733,1.761008 0,0 -0.207168,-0.272464 -0.316326,-0.208836 -0.192195,0.112027 0.0455,0.665833 0.0455,0.665833 0,0 -0.188164,-0.509831 -0.370735,-0.446143 -0.220047,0.07676 -0.01543,0.698987 -0.01543,0.698987 0,0 -0.228808,-0.340732 -0.330521,-0.51876 -0.187735,-0.328596 -0.149816,-0.912657 -0.515047,-1.011785 -0.207269,-0.05626 -0.328788,0.369055 -0.542487,0.347625 -0.509236,-0.05107 -0.60012,-0.970881 -1.1025,-1.068583 -0.349609,-0.06799 -0.99001,0.401886 -0.99001,0.401886 z"
       id="path5235"
       inkscape:transform-center-x="-1.9561957"
       inkscape:transform-center-y="0.74147667"
       sodipodi:nodetypes="cssscscscsssscc" />
    <path
       style="fill:#a10705;fill-opacity:1;stroke:none;stroke-width:0.264583px;stroke-linecap:butt;stroke-linejoin:miter;stroke-opacity:1"
       d="m 26.634082,34.004538 c 0,0 0.846357,-0.330343 1.24315,-0.194439 0.582405,0.199479 0.670152,1.191481 1.266538,1.344159 0.271986,0.06963 0.561862,-0.406951 0.801121,-0.260049 0.549876,0.337616 0.300063,1.912354 0.300063,1.912354 0,0 -0.126183,-0.318172 -0.248439,-0.286274 -0.215255,0.05616 -0.135401,0.653506 -0.135401,0.653506 0,0 -0.04399,-0.541662 -0.236965,-0.529467 -0.232588,0.0147 -0.203003,0.669037 -0.203003,0.669037 0,0 -0.12865,-0.389744 -0.178689,-0.588579 -0.09236,-0.367001 0.101371,-0.9193 -0.223699,-1.113078 -0.184476,-0.109974 -0.415991,0.266935 -0.616035,0.188776 -0.476697,-0.186254 -0.316642,-1.096583 -0.774183,-1.325903 -0.318405,-0.159583 -1.061646,0.120575 -1.061646,0.120575 z"
       id="path4746"
       inkscape:transform-center-x="-1.7043236"
       inkscape:transform-center-y="1.290297"
       sodipodi:nodetypes="cssscscscsssscc" />
    <ellipse
       style="opacity:1;fill:#7a0000;fill-opacity:1;stroke:none;stroke-width:0.0264583;stroke-linecap:round;stroke-linejoin:round;paint-order:fill markers stroke"
       id="path4360"
       cx="26.670382"
       cy="34.371227"
       rx="0.41870674"
       ry="0.42650026" />
    <g
       id="g2612"
       transform="matrix(1.154399,0,0,1.154399,-3.9532193,-4.0216567)">
      <path
         id="path892"
         style="fill:#7239b3;stroke-width:0.501954;stroke-linecap:round;stroke-linejoin:round;paint-order:fill markers stroke"
         d="m 24.421982,33.466889 a 4.3019637,1.5889494 0 0 0 -4.301915,1.588906 4.3019637,1.5889494 0 0 0 0.0019,0.02071 c -0.01009,0.0089 -0.01677,0.02018 -0.01677,0.03297 v 4.54035 c -0.176174,1.017012 -0.627044,3.520124 -1.038769,4.926657 -0.630766,2.154816 -2.633267,4.100331 -2.412319,6.320669 0.02626,0.263846 0.195592,0.534551 0.430286,0.692484 0.619144,0.416634 1.492281,0.373442 2.257983,0.45648 1.162232,0.126045 2.341309,0.01905 3.510979,0.05958 1.64881,0.05713 3.299389,0.401928 4.941821,0.258751 0.839472,-0.07318 1.83148,-0.04824 2.451656,-0.566159 0.384164,-0.320826 0.475744,-0.870672 0.509551,-1.343108 0.09874,-1.379851 -0.65203,-2.702436 -0.916684,-4.064225 -0.381743,-1.964277 -0.910814,-5.404404 -1.130556,-6.858512 V 35.18137 a 4.3019637,1.5889494 0 0 0 0.01477,-0.125575 4.3019637,1.5889494 0 0 0 -4.301914,-1.588906 z" />
      <path
         id="path846"
         style="fill:#a3907c;stroke-width:0.345464;stroke-linecap:round;stroke-linejoin:round;paint-order:fill markers stroke"
         d="m 24.511405,29.5284 a 1.3181959,2.1927626 0 0 0 -1.299776,1.834864 c -1.82e-4,-4e-4 -3.03e-4,-8.3e-4 -4.72e-4,-0.0012 -0.06225,-0.146847 -0.225099,-0.247198 -0.373525,-0.328765 -0.4103,-0.225482 -1.366756,-0.409699 -1.366756,-0.409699 0,0 0.887348,0.843911 1.115554,1.373405 0.06256,0.145144 -0.03156,0.330924 0.05676,0.464617 0.05437,0.0823 0.160867,0.192131 0.261716,0.162991 0.240719,-0.06956 0.25877,-0.581404 0.260948,-0.644951 7.07e-4,-0.02068 0.01443,-0.07315 0.02977,-0.14083 a 1.3181959,2.1927626 0 0 0 1.315783,2.075094 1.3181959,2.1927626 0 0 0 1.316906,-2.098057 c 0.01487,0.06526 0.02795,0.115577 0.02865,0.135745 0.0022,0.06355 0.02023,0.575342 0.260947,0.644897 0.100851,0.02914 0.207343,-0.08069 0.261716,-0.162991 0.08832,-0.133693 -0.0058,-0.319473 0.05676,-0.464617 0.228207,-0.529494 1.115554,-1.373351 1.115554,-1.373351 0,0 -0.956455,0.184163 -1.366756,0.409645 -0.148426,0.08157 -0.311275,0.181972 -0.373525,0.328818 -7.98e-4,0.0019 -0.0015,0.0039 -0.0022,0.0058 A 1.3181959,2.1927626 0 0 0 24.511455,29.52845 Z" />
      <path
         id="path3160"
         style="opacity:0.5;fill:#000000;fill-opacity:1;stroke:none;stroke-width:0.0287886px;stroke-linecap:butt;stroke-linejoin:miter;stroke-opacity:1"
         d="m 25.859142,31.014533 -1.605495,0.181833 -0.901208,-0.07242 -0.178434,0.03469 -0.05771,1.382558 0.824011,1.038912 c 0,0 0.383911,-0.06124 0.410795,-0.199978 0.02457,-0.12679 -0.247264,-0.163412 -0.284219,-0.28771 -0.05666,-0.190572 0.234305,-0.405534 0.132186,-0.579861 -0.02078,-0.03548 -0.07874,-0.04258 -0.122913,-0.04593 -0.148669,-0.01126 -0.313871,0.16731 -0.43637,0.09014 -0.156506,-0.09859 -0.171177,-0.3645 -0.07513,-0.513702 0.07551,-0.117295 0.416997,-0.152178 0.416997,-0.152178 l 0.168865,0.328391 c 0,0 0.07479,0.300549 0.127757,0.327908 0.106651,0.05508 0.260126,0.07951 0.367264,0.02521 0.100707,-0.05104 0.158412,-0.278931 0.158412,-0.278931 l -0.422431,-0.01194 0.04087,-0.732843 0.232242,-0.0015 0.4408,0.352156 0.535361,0.03078 c 0,0 -0.07727,0.381981 -0.140042,0.567175 -0.05689,0.16783 -0.332582,0.351521 -0.2134,0.489936 0.05989,0.06955 0.21384,0.02099 0.289594,-0.03442 0.234554,-0.171568 0.304183,-0.771757 0.304183,-0.771757 z m 0.927493,0.01087 c 0,0 -0.335983,0.179058 -0.485098,0.291563 -0.08622,0.06505 -0.2184,0.118746 -0.233778,0.219462 -0.01148,0.07517 0.123487,0.124791 0.118897,0.200567 -0.0056,0.09208 -0.177362,0.135785 -0.173059,0.22792 0.0038,0.08089 0.0817,0.199792 0.170047,0.187773 0.140024,-0.01905 0.150986,-0.228186 0.161187,-0.35617 0.0073,-0.09126 -0.09853,-0.177665 -0.07348,-0.266299 0.06277,-0.222054 0.51528,-0.504816 0.51528,-0.504816 z m -4.550459,0.0281 c 0,0 0.452513,0.282708 0.51528,0.504762 0.02505,0.08864 -0.08075,0.175041 -0.07348,0.266299 0.0102,0.127984 0.02116,0.337123 0.161188,0.356171 0.08835,0.01202 0.16627,-0.106885 0.170047,-0.187774 0.0043,-0.09213 -0.167482,-0.135841 -0.173059,-0.22792 -0.0046,-0.07578 0.130375,-0.125392 0.118897,-0.200566 -0.01538,-0.100716 -0.147555,-0.154355 -0.233778,-0.219409 -0.149115,-0.112505 -0.485098,-0.291563 -0.485098,-0.291563 z m 2.671199,2.036394 -0.575231,0.01365 c 0,0 0.02083,0.06172 0.04914,0.07596 0.124396,0.06253 0.294113,0.03642 0.426565,-0.0106 0.04106,-0.01457 0.09952,-0.07901 0.09952,-0.07901 z m -1.955454,0.478909 c 0,0 -0.293005,0.139314 -0.43566,0.215126 -0.37022,0.196751 -0.936998,0.258061 -1.089684,0.62156 -0.109693,0.261146 0.185882,0.533384 0.257049,0.805265 0.209801,0.80151 0.378553,1.613033 0.499628,2.429446 0.172586,1.163748 -0.02564,1.57818 0.08446,2.358361 0.07443,0.52747 0.387523,1.556147 0.387523,1.556147 l 0.301702,-0.597579 0.753783,0.633549 0.130769,-0.785728 0.39343,0.922009 0.351966,-0.68788 0.281975,0.858472 0.194736,-0.727062 0.240865,0.576329 0.272348,-0.784229 0.243641,0.64495 c 0,0 0.318921,-0.926046 0.430463,-1.39974 0.17154,-0.728484 0.526993,-1.479649 0.365315,-2.209983 -0.08945,-0.404046 -0.452117,-0.715998 -0.706827,-1.057379 -0.723199,-0.969285 -1.477837,-1.924772 -2.326851,-2.806278 -0.194447,-0.201889 -0.630634,-0.565356 -0.630634,-0.565356 z" />
      <path
         style="fill:#abacae;fill-opacity:1;stroke:none;stroke-width:0.0287886px;stroke-linecap:butt;stroke-linejoin:miter;stroke-opacity:1"
         d="m 22.992776,31.858164 c -0.101816,0.341774 0.01309,0.910024 0.0023,1.36488 -0.0081,0.341041 -0.06566,0.681517 -0.05018,1.022348 0.01246,0.274195 0.121576,0.54232 0.11483,0.816679 -0.01712,0.696139 -0.318743,1.365302 -0.392925,2.058361 -0.07747,0.72374 -0.168023,1.461226 -0.05319,2.180877 0.07446,0.466601 0.465389,1.296855 0.475107,1.347237 0.0097,0.05038 0.455389,-0.970178 0.455389,-0.970178 l 0.382271,0.539888 0.270202,0.773269 0.257491,-1.052612 0.341677,0.940163 0.412592,-0.964631 0.475503,-0.289684 0.25057,1.087104 c 0,0 0.218158,-1.0287 0.304004,-1.546506 0.104739,-0.631757 0.272498,-1.85286 0.257292,-1.902305 -0.01521,-0.04944 -0.328249,-0.773266 -0.382188,-1.180396 -0.0407,-0.307229 0.01118,-0.761772 0.04754,-0.927305 0.03636,-0.165533 0.02749,-0.790165 0.03996,-1.185281 0.01828,-0.579228 0.143235,-1.164357 0.05112,-1.737777 -0.0311,-0.193605 -0.201138,-0.557917 -0.201138,-0.557917 -0.5572,0.04945 0.148134,1.115154 -0.201966,1.511093 -0.159965,0.18091 -0.467758,0.239459 -0.723438,0.232085 -0.167031,-0.0048 -0.297194,-0.148612 -0.461013,-0.178543 -0.07678,-0.01403 -0.1582,-0.01277 -0.234978,0.0013 -0.203251,0.03719 -0.383095,0.287266 -0.574768,0.215587 -0.55681,-0.208224 -0.298554,-1.101311 -0.696464,-1.511128 -0.0421,-0.04336 -0.149005,-0.142343 -0.165617,-0.08658 z"
         id="path2286"
         sodipodi:nodetypes="sssssssccccccccssssssssssssss" />
      <path
         style="fill:#d4d4d4;fill-opacity:1;stroke:none;stroke-width:0.0287886px;stroke-linecap:butt;stroke-linejoin:miter;stroke-opacity:1"
         d="m 23.030292,31.197343 0.301851,0.05508 c 0,0 -0.03507,0.52644 0.02915,0.814273 0.03736,0.167459 0.05392,0.344177 0.138184,0.49701 0.06531,0.118458 0.129504,0.306614 0.275603,0.30893 0.21179,0.0034 0.222734,-0.121797 0.4167,-0.19894 0.238358,-0.0948 0.553509,-0.09493 0.780578,0.0204 0.128918,0.06548 0.151317,-0.0051 0.242069,0.100571 0.03979,0.04635 0.06714,0.134278 0.13173,0.12957 0.196746,-0.01434 0.243034,-0.285592 0.326479,-0.447698 0.08486,-0.16486 0.02539,-0.456333 0.06369,-0.616263 0.0383,-0.15993 0.0575,-0.61015 0.0575,-0.61015 l 0.320233,-0.02578 c 0,0 0.0024,0.706477 -0.0056,1.059611 -0.0066,0.289965 -0.01973,0.579803 -0.0348,0.869509 -0.01185,0.227802 -0.0057,0.457582 -0.04371,0.683015 -0.06332,0.375198 -0.273154,0.726083 -0.305521,1.104509 -0.04328,0.505959 0.08013,1.012921 0.152496,1.516142 0.06203,0.431349 0.266852,0.852184 0.241169,1.286557 -0.02282,0.385895 -0.285964,0.733314 -0.347801,1.115678 -0.06989,0.432173 0.119646,0.892909 -0.02272,1.310208 -0.08689,0.254682 -0.486568,0.667186 -0.486568,0.667186 0,0 -0.01563,-1.162467 0.02569,-1.741966 0.03089,-0.433332 0.167416,-0.859767 0.165916,-1.294 -0.0014,-0.415462 -0.150059,-0.821967 -0.167294,-1.237138 -0.01998,-0.481428 0.09327,-0.96226 0.07451,-1.443728 -0.01364,-0.350054 -0.07315,-0.697941 -0.13575,-1.04359 -0.06449,-0.356082 -0.05555,-0.742648 -0.246671,-1.059208 -0.05581,-0.09243 -0.139121,-0.1862 -0.248572,-0.22173 -0.178183,-0.05784 -0.129542,-0.06568 -0.292428,0.02167 -0.171724,0.09209 -0.281534,0.275775 -0.333885,0.450272 -0.218496,0.728289 -0.181713,1.531616 -0.121424,2.284362 0.02764,0.345041 0.128246,0.68944 0.09627,1.034173 -0.0535,0.57678 -0.437431,1.539457 -0.477523,1.681649 -0.04009,0.142193 -0.01482,1.350316 0.01741,1.471978 0.03223,0.121661 0.127517,1.047995 0.127517,1.047995 0,0 -0.684543,-1.276918 -0.781694,-1.968794 -0.133317,-0.94944 0.247599,-1.902825 0.291867,-2.859081 0.04536,-0.979851 0.04969,-1.963804 -0.02726,-2.942035 -0.03772,-0.479527 -0.186282,-0.949159 -0.212497,-1.429315 -0.0071,-0.130232 0.01513,-0.390935 0.01513,-0.390935 z"
         id="path1376"
         sodipodi:nodetypes="ccsssssssssccsssssssscssssssssssssscssssc" />
      <path
         style="fill:#7239b3;stroke:none;stroke-width:0.0287886px;stroke-linecap:butt;stroke-linejoin:miter;stroke-opacity:1"
         d="m 22.906972,30.379412 c 0,0 0.01162,-0.358976 0.07051,-0.528056 0.167965,-0.482262 0.303291,-1.089561 0.789419,-1.337873 0.297773,-0.152102 0.921561,0.03675 1.023994,0.04945 0.102433,0.0127 0.883965,0.143422 1.125414,0.442516 0.232701,0.288259 0.05,0.714484 0.120144,1.065945 0.02652,0.1329 0.113235,0.391957 0.113235,0.391957 0,0 -0.751962,0.43455 -1.178701,0.458396 -0.714982,0.03995 -2.064015,-0.542338 -2.064015,-0.542338 z"
         id="path3606"
         sodipodi:nodetypes="cssssscsc" />
      <path
         style="opacity:0.5;fill:#000000;stroke:none;stroke-width:0.0287886px;stroke-linecap:butt;stroke-linejoin:miter;stroke-opacity:1"
         d="m 22.984193,30.286864 1.11734,0.339721 1.971354,-0.11394 c 0,0 -0.04063,-0.198212 -0.06438,-0.296669 -0.02069,-0.08576 -0.06805,-0.25603 -0.06805,-0.25603 0,0 -0.04449,0.187763 -0.1153,0.170121 -0.09507,-0.02369 -0.0042,-0.268041 -0.0042,-0.268041 0,0 -0.0979,0.264604 -0.194179,0.257198 -0.157595,-0.01212 0.02821,-0.433041 0.02821,-0.433041 0,0 -0.173596,0.276554 -0.280374,0.342907 -0.286957,0.178315 -0.585956,0.110365 -0.924965,0.0394 -0.169619,-0.03551 -0.415225,-0.183178 -0.453003,-0.235521 -0.03778,-0.05234 -0.405087,-0.393814 -0.410729,-0.423007 -0.0056,-0.02919 0.192338,0.0263 0.192338,0.0263 0,0 -0.297635,-0.107184 -0.249836,-0.197475 0.04096,-0.07737 0.279625,0.04544 0.279625,0.04544 0,0 -0.310187,-0.139265 -0.257878,-0.240496 0.03527,-0.06826 0.248772,0.01721 0.248772,0.01721 0,0 -0.08685,-0.192777 -0.183282,-0.20774 -0.08519,-0.01322 -0.183785,0.05317 -0.220085,0.124261 -0.02677,0.05243 0.05439,0.118881 0.02797,0.17146 -0.02269,0.04515 -0.107145,0.03946 -0.138326,0.08023 -0.10332,0.135122 -0.08697,0.319698 -0.113714,0.482295 -0.01592,0.09678 0.0021,0.198402 -0.02765,0.292461 -0.0322,0.101836 -0.159654,0.282957 -0.159654,0.282957 z"
         id="path7139"
         sodipodi:nodetypes="cccscscscsssscscscssssssc" />
      <path
         style="fill:#d48e15;fill-opacity:1;stroke:none;stroke-width:0.0287886px;stroke-linecap:butt;stroke-linejoin:miter;stroke-opacity:1"
         d="m 26.162377,31.009959 c -0.0431,0.07784 0.0221,0.201836 -0.05232,0.256945 -0.136589,0.101146 -0.352736,-0.01224 -0.529082,-0.0087 -0.717527,0.01447 -1.444463,0.246605 -2.148894,0.122091 -0.225311,-0.03982 -0.432444,-0.151282 -0.620752,-0.270262 -0.09094,-0.05746 -0.196403,-0.116958 -0.238808,-0.209788 -0.09647,-0.211182 0.03374,-0.620504 0.01208,-0.6856 -0.02166,-0.0651 0.111793,-0.08583 0.180003,-0.08859 0.312859,-0.0127 0.555821,0.279902 0.862404,0.337818 0.319095,0.06028 0.652009,0.01022 0.977857,0.0027 0.437056,-0.0101 0.882843,0.02154 1.309681,-0.0642 0.115795,-0.02326 0.211763,-0.126945 0.33014,-0.120274 0.07081,0.004 0.140089,0.04464 0.186121,0.09356 0.06788,0.07214 0.127723,0.174468 0.106949,0.267382 -0.03655,0.163465 -0.292841,0.217852 -0.375376,0.366927 z"
         id="path3419"
         sodipodi:nodetypes="sssssssssssssss" />
      <path
         id="path4016"
         style="fill:#d48e15;stroke-width:0.501954;stroke-linecap:round;stroke-linejoin:round;paint-order:fill markers stroke"
         d="m 16.654094,50.897158 c 0.02626,0.263846 0.195592,0.534551 0.430286,0.692484 0.619144,0.416634 1.492281,0.373442 2.257983,0.45648 1.162232,0.126045 2.341309,0.01905 3.510979,0.05958 1.64881,0.05713 3.299389,0.401928 4.941821,0.258751 0.839472,-0.07318 1.83148,-0.04824 2.451656,-0.566159 0.384164,-0.320826 0.475744,-0.870672 0.509551,-1.343108 -1.136664,1.835394 -10.19454,1.151584 -14.102276,0.441974 z"
         sodipodi:nodetypes="cscssscc" />
      <path
         style="opacity:0.5;fill:#000000;stroke:none;stroke-width:0.0287886px;stroke-linecap:butt;stroke-linejoin:miter;stroke-opacity:1"
         d="m 22.577168,30.760167 0.07191,-0.138706 0.148966,0.210695 0.05236,-0.186844 c 0,0 0.588089,0.253722 0.905804,0.289697 0.265689,0.03008 0.534234,-0.03614 0.799967,-0.06591 0.123807,-0.01387 0.369745,-0.05247 0.369745,-0.05247 0,0 -0.941711,-0.01659 -1.028338,-0.01422 -0.08663,0.0024 -0.572726,-0.122943 -0.830226,-0.246123 -0.09327,-0.04462 -0.250871,-0.174712 -0.250871,-0.174712 l -0.07101,0.229819 -0.08317,-0.195882 -0.109792,0.05572 -0.01641,0.218925 z"
         id="path6872"
         sodipodi:nodetypes="ccccsscsscccccc" />
      <g
         style="clip-rule:evenodd;fill-rule:evenodd;stroke-linejoin:round;stroke-miterlimit:1.41421"
         id="g1402"
         transform="matrix(0.0011974,0,0,0.00108514,23.934921,30.461428)">
        <g
           id="Layer-1"
           serif:id="Layer 1">
          <g
             transform="translate(1009.4,506.362)"
             id="g1342">
            <path
               d="m 0,-7.203 -12.072,-25.006 c 0.063,-0.947 0.111,-1.898 0.111,-2.853 0,-28.346 -29.478,-54.471 -79.069,-75.389 v 17.393 c -4.836,-1.919 -9.871,-3.787 -15.117,-5.593 v -8.108 c -70.874,-25.56 -176.383,-41.778 -294.241,-41.778 -102.973,0 -196.529,12.38 -265.791,32.554 v 28.246 h -0.002 v -34.188 c -70.96,22.55 -114.954,53.877 -114.954,88.515 0,5.46 1.101,10.838 3.217,16.113 l -7.228,12.867 c 0,0 -5.792,7.512 4.406,23.362 8.994,13.977 54.048,68.685 77.827,97.335 10.214,14.687 17.141,23.734 17.746,22.859 0.955,-1.386 -6.351,-28.961 -26.635,-60.423 -9.466,-16.895 -20.768,-39.283 -27.554,-55.819 18.942,11.99 130.23,68.029 357.232,67.801 231.994,-0.232 335.115,-72.851 346.433,-82.737 -3.955,15.889 -17.468,48.033 -28.245,70.638 -17.706,32.331 -24.12,60.478 -23.296,61.87 0.524,0.878 6.565,-8.441 15.476,-23.543 C -51.025,87.37 -11.739,30.974 -3.889,16.608 5.007,0.323 0,-7.203 0,-7.203"
               style="fill:#a52b00;fill-rule:nonzero"
               id="path1340" />
          </g>
          <g
             transform="translate(1079.49,294.885)"
             id="g1346">
            <path
               d="m 0,204.135 -79.343,-58.446 c -0.745,-2.6 -1.49,-5.201 -2.26,-7.781 l 26.062,-37.754 c 2.66,-3.84 3.196,-8.832 1.469,-13.211 -1.731,-4.358 -5.515,-7.482 -9.99,-8.247 l -44.066,-7.479 c -1.709,-3.485 -3.498,-6.916 -5.294,-10.319 L -94.907,18.51 c 1.903,-4.317 1.505,-9.335 -1.022,-13.254 -2.517,-3.937 -6.786,-6.237 -11.338,-6.058 l -44.724,1.625 c -2.315,-3.016 -4.667,-6.003 -7.067,-8.937 l 10.278,-45.432 c 1.042,-4.612 -0.274,-9.443 -3.487,-12.794 -3.195,-3.339 -7.838,-4.722 -12.253,-3.639 l -43.562,10.709 c -2.82,-2.493 -5.688,-4.953 -8.588,-7.365 l 1.567,-46.641 c 0.168,-4.721 -2.033,-9.208 -5.812,-11.829 -3.777,-2.636 -8.57,-3.032 -12.701,-1.074 l -40.638,19.321 c -3.273,-1.878 -6.565,-3.737 -9.892,-5.537 l -7.181,-45.961 c -0.729,-4.656 -3.724,-8.612 -7.919,-10.418 -4.185,-1.817 -8.976,-1.228 -12.648,1.536 l -36.232,27.185 c -3.569,-1.185 -7.153,-2.32 -10.779,-3.407 l -15.617,-43.585 c -1.588,-4.443 -5.25,-7.706 -9.716,-8.624 -4.45,-0.909 -9.028,0.632 -12.114,4.08 l -30.499,34.119 c -3.685,-0.423 -7.377,-0.81 -11.076,-1.131 l -23.549,-39.676 c -2.384,-4.018 -6.597,-6.464 -11.139,-6.464 -4.529,0 -8.75,2.446 -11.118,6.464 l -23.555,39.676 c -3.701,0.321 -7.408,0.708 -11.088,1.131 l -30.499,-34.119 c -3.09,-3.448 -7.684,-4.989 -12.122,-4.08 -4.46,0.93 -8.128,4.181 -9.707,8.624 l -15.629,43.585 c -3.621,1.087 -7.205,2.23 -10.78,3.407 l -36.22,-27.185 c -3.683,-2.774 -8.478,-3.361 -12.668,-1.536 -4.181,1.806 -7.188,5.762 -7.913,10.418 l -7.186,45.961 c -3.322,1.8 -6.614,3.649 -9.895,5.537 l -40.634,-19.321 c -4.127,-1.966 -8.945,-1.562 -12.704,1.074 -3.773,2.621 -5.98,7.108 -5.81,11.829 l 1.562,46.641 c -2.894,2.412 -5.756,4.872 -8.591,7.365 l -43.554,-10.709 c -4.423,-1.074 -9.062,0.3 -12.265,3.639 -3.221,3.351 -4.526,8.182 -3.491,12.794 l 10.257,45.432 c -2.378,2.945 -4.733,5.921 -7.042,8.937 l -44.724,-1.625 c -4.513,-0.135 -8.821,2.121 -11.343,6.058 -2.527,3.919 -2.91,8.937 -1.029,13.254 l 18.528,42.388 c -1.799,3.403 -3.586,6.834 -5.309,10.319 l -44.063,7.479 c -4.479,0.754 -8.252,3.876 -9.994,8.247 -1.728,4.379 -1.167,9.371 1.474,13.211 l 26.066,37.754 c -0.201,0.667 -0.387,1.339 -0.587,2.008 l -73.696,78.285 c 0,0 -11.296,8.851 5.147,29.654 14.5,18.351 88.951,91.096 128.271,129.205 16.606,19.348 27.984,31.329 29.172,30.293 1.876,-1.645 -7.972,-36.847 -40.682,-78.149 -25.216,-37.056 -57.941,-94.049 -50.267,-100.618 0,0 8.729,-11.081 26.242,-19.057 0.641,0.512 -0.662,-0.507 0,0 0,0 369.595,170.491 712.429,2.884 39.164,-7.025 62.873,13.955 62.873,13.955 8.176,4.74 -12.996,63.344 -30.407,102.137 -23.679,44.05 -27.151,78.422 -25.144,79.614 1.268,0.757 9.883,-12.353 22.172,-33.217 C -67.814,332.649 -10.492,252.1 0,232.534 11.895,210.352 0,204.135 0,204.135"
               style="fill:#f74c00;fill-rule:nonzero"
               id="path1344" />
          </g>
          <g
             transform="translate(917.896,244.679)"
             id="g1350">
            <path
               d="m 0,232.466 c 0,0 53.179,-2.466 123.032,-73.462 l 9.898,-21.979 c 0,0 -108.417,-107.848 60.118,-182.291 0,0 -14.755,24.112 -10.426,117.272 0,0 50.815,-17.649 65.714,-99.94 0,0 74.12,97.724 -80.502,189.377 0,0 -72.54,116.289 -174.805,105.15 z"
               style="fill:#f74c00;fill-rule:nonzero"
               id="path1348" />
          </g>
          <g
             transform="translate(676.997,488.361)"
             id="g1354">
            <path
               d="m 0,-78.192 c 0,0 36.935,-40.443 73.871,0 0,0 29.022,53.927 0,80.887 0,0 -47.487,37.748 -73.871,0 0,0 -31.658,-29.659 0,-80.887"
               style="fill-rule:nonzero"
               id="path1352" />
          </g>
          <g
             transform="translate(719.761,425.169)"
             id="g1358">
            <path
               d="m 0,0.004 c 0,15.746 -9.282,28.514 -20.732,28.514 -11.448,0 -20.73,-12.768 -20.73,-28.514 0,-15.75 9.282,-28.518 20.73,-28.518 C -9.282,-28.514 0,-15.746 0,0.004"
               style="fill:#ffffff;fill-rule:nonzero"
               id="path1356" />
          </g>
          <g
             transform="translate(512.148,482.736)"
             id="g1362">
            <path
               d="m 0,-83.609 c 0,0 63.355,-28.052 80.648,34.562 0,0 18.114,72.98 -52.03,77.099 0,0 -89.444,-17.228 -28.618,-111.661"
               style="fill-rule:nonzero"
               id="path1360" />
          </g>
          <g
             transform="translate(543.968,426.204)"
             id="g1366">
            <path
               d="m 0,0.002 c 0,16.239 -9.572,29.409 -21.381,29.409 -11.804,0 -21.379,-13.17 -21.379,-29.409 0,-16.244 9.575,-29.411 21.379,-29.411 C -9.572,-29.409 0,-16.242 0,0.002"
               style="fill:#ffffff;fill-rule:nonzero"
               id="path1364" />
          </g>
          <g
             transform="translate(593.317,576.574)"
             id="g1370">
            <path
               d="m 0,-40.271 80.796,-6.484 c 0,0 -2.738,13.006 -13.279,22.769 0,0 -27.79,30.47 -59.673,-2.533 0,0 -5.217,-5.629 -7.844,-13.752"
               style="fill-rule:nonzero"
               id="path1368" />
          </g>
          <g
             transform="translate(269.796,270.778)"
             id="g1374">
            <path
               d="m 0,190.741 c -0.667,0 -1.321,0.049 -1.973,0.101 -26.234,-5.971 -99.973,-25.185 -119.464,-56.363 0,0 99.227,-112.872 -55.86,-185.019 l 18.057,124.878 c 0,0 -47.809,-31.949 -58.126,-101.346 0,0 -116.423,84.494 51.384,165.474 0,0 15.22,57.187 161.349,102.815 l 0.107,-0.435 c 1.471,0.272 2.977,0.435 4.526,0.435 13.808,0 25.003,-11.312 25.003,-25.271 0,-13.956 -11.195,-25.269 -25.003,-25.269"
               style="fill:#f74c00;fill-rule:nonzero"
               id="path1372" />
          </g>
        </g>
      </g>
      <g
         id="g1512"
         transform="matrix(1.1034483,0,0,1,-1.5460818,4.7625002)">
        <path
           id="path24718"
           style="opacity:0.75;fill:#9bdb4d;stroke-width:3.81442;stroke-linecap:round;stroke-linejoin:round;paint-order:fill markers stroke"
           d="m 24.046817,25.674542 a 0.45018687,0.75006095 89.230942 0 0 -0.02176,-0.0034 0.45018687,0.75006095 89.230942 0 1 0.03671,0.0072 0.45018687,0.75006095 89.230942 0 0 -0.01496,-0.0038 z m -0.08677,-0.01472 a 0.45018687,0.75006095 89.230942 0 0 -0.02329,-0.0021 0.45018687,0.75006095 89.230942 0 1 0.03031,0.0034 0.45018687,0.75006095 89.230942 0 0 -0.007,-0.0013 z m 0.155829,0.03202 a 0.45018687,0.75006095 89.230942 0 1 0.02674,0.008 0.45018687,0.75006095 89.230942 0 0 -0.02674,-0.008 z m -0.219153,-0.03772 a 0.45018687,0.75006095 89.230942 0 0 -0.04203,-0.0029 0.45018687,0.75006095 89.230942 0 1 0.04203,0.0029 z M 23.70081,25.6539 a 0.45018687,0.75006095 89.230942 0 0 -0.01935,0.0018 0.45018687,0.75006095 89.230942 0 1 0.01935,-0.0018 z m 0.637072,0.134267 a 0.45018687,0.75006095 89.230942 0 1 0.01163,0.0074 0.45018687,0.75006095 89.230942 0 0 -0.01163,-0.0074 z m 0.02139,0.01498 -0.167207,0.251061 -0.687275,0.02717 -0.313217,0.294226 a 0.45018687,0.75006095 89.230942 0 0 0.608967,0.174572 0.45018687,0.75006095 89.230942 0 0 0.739968,-0.462737 0.45018687,0.75006095 89.230942 0 0 -0.181236,-0.28429 z m -0.9121,-0.100293 a 0.45018687,0.75006095 89.230942 0 0 -0.02187,0.0071 0.45018687,0.75006095 89.230942 0 1 0.02187,-0.0071 z m -0.08177,0.03002 a 0.45018687,0.75006095 89.230942 0 0 -0.02049,0.0089 0.45018687,0.75006095 89.230942 0 1 0.02049,-0.0089 z m -0.191945,0.116664 a 0.45018687,0.75006095 89.230942 0 0 -0.01018,0.0092 0.45018687,0.75006095 89.230942 0 1 0.01018,-0.0092 z m -0.04764,0.04784 a 0.45018687,0.75006095 89.230942 0 0 -0.0096,0.01198 0.45018687,0.75006095 89.230942 0 1 0.0096,-0.01198 z m -0.06275,0.100013 a 0.45018687,0.75006095 89.230942 0 0 -0.0049,0.01283 0.45018687,0.75006095 89.230942 0 1 0.0049,-0.01283 z m -0.01677,0.05398 a 0.45018687,0.75006095 89.230942 0 0 -0.0023,0.01437 0.45018687,0.75006095 89.230942 0 1 0.0023,-0.01437 z m -1.66e-4,0.108748 a 0.45018687,0.75006095 89.230942 0 0 0.0019,0.0098 0.45018687,0.75006095 89.230942 0 1 -0.0019,-0.0098 z m 0.01639,0.05314 a 0.45018687,0.75006095 89.230942 0 0 0.0058,0.01373 0.45018687,0.75006095 89.230942 0 1 -0.0058,-0.01373 z" />
        <path
           id="path24720"
           style="opacity:0.75;fill:#d1ff82;stroke-width:3.81442;stroke-linecap:round;stroke-linejoin:round;paint-order:fill markers stroke"
           d="m 24.012322,25.668272 a 0.45018687,0.75006095 89.230942 0 0 -0.231791,-0.01837 0.45018687,0.75006095 89.230942 0 0 -0.739968,0.462736 0.45018687,0.75006095 89.230942 0 0 0.150303,0.263355 l 0.313925,-0.294625 0.687274,-0.02717 0.168038,-0.251965 a 0.45018687,0.75006095 89.230942 0 0 -0.347781,-0.133967 z" />
      </g>
      <path
         style="opacity:0.5;fill:#000000;stroke:none;stroke-width:0.0287886px;stroke-linecap:butt;stroke-linejoin:miter;stroke-opacity:1"
         d="m 17.732989,51.400208 c 0,0 -0.03514,-1.003067 0.04907,-1.496123 0.148057,-0.866831 0.424972,-1.720419 0.795256,-2.530846 0.506049,-1.107572 1.880332,-2.965474 1.92935,-3.14264 0.04902,-0.177167 0.717087,-6.063628 0.717087,-6.063628 0,0 0.220019,1.914464 0.192512,2.873855 -0.03161,1.102499 -0.116819,2.217316 -0.410174,3.287663 -0.450538,1.643848 -1.693415,3.066878 -2.050163,4.729533 -0.113167,0.527426 -0.01741,1.611838 -0.01741,1.611838 0,0 0.53564,-1.801722 0.73417,-1.927144 0.198531,-0.125422 1.856599,-3.053193 2.478104,-4.693593 0.173454,-0.457818 0.14616,-0.968384 0.342179,-1.418662 0.14131,-0.324604 0.590277,-0.899863 0.590277,-0.899863 0,0 -1.516211,4.983952 -1.865984,7.540211 -0.106451,0.77798 -0.06779,2.351012 -0.06779,2.351012 0,0 2.347711,-2.214655 2.323202,-2.881251 -0.02451,-0.666596 0.382922,-3.992428 1.020484,-5.896054 0.09058,-0.270446 0.393238,-0.769356 0.393238,-0.769356 0,0 -0.364537,4.060719 -0.485754,6.094571 -0.03457,0.580066 0.11427,1.451157 -0.06886,1.741616 -0.183126,0.29046 -0.69384,1.552473 -0.69384,1.552473 0,0 0.927298,-0.665293 1.245391,-1.106199 0.6103,-0.845931 0.953196,-1.846613 1.186978,-2.834851 0.353745,-1.49534 0.302105,-4.579781 0.302105,-4.579781 0,0 0.575166,3.876582 0.471355,4.115985 -0.10381,0.239404 -0.346081,2.237158 -0.298022,3.359888 0.02002,0.467682 0.243409,1.386665 0.243409,1.386665 0,0 0.834149,-1.199081 1.046514,-1.871417 0.260201,-0.823783 0.165003,-1.836311 0.250785,-2.560541 0.08578,-0.72423 -0.346126,-5.6079 -0.346126,-5.6079 0,0 0.897458,3.835389 0.960763,5.784399 0.0483,1.486926 -0.44528,4.444428 -0.44528,4.444428 l 1.691691,-0.322398 0.524113,-0.701282 c 0,0 0.115815,-0.562322 0.265226,-0.430872 0.333127,0.293073 -0.134569,1.02883 -0.241905,1.438184 -0.108652,0.414377 -0.665295,0.617829 -1.070919,0.831098 -1.031591,0.542389 -3.454533,0.326225 -5.186586,0.316574 -2.394198,-0.01334 -6.189095,-0.164383 -7.164042,-0.517463 -0.684397,-0.247856 -0.84815,-1.35415 -0.58017,-1.998889 0.227484,-0.547304 0.158189,-0.192779 0.158189,-0.192779 l 0.07978,0.725243 z"
         id="path5652"
         sodipodi:nodetypes="cssscssscssscscsscsscsscsscsscscccsssassccc" />
    </g>
    <path
       style="fill:#a10705;fill-opacity:1;stroke:none;stroke-width:0.264583px;stroke-linecap:butt;stroke-linejoin:miter;stroke-opacity:1"
       d="m 22.541712,33.795826 c 0.393231,-0.163969 0.747351,-0.415176 1.145206,-0.567582 0.236002,-0.0904 0.477679,-0.204897 0.7304,-0.203339 0.27336,0.0017 0.53845,0.116478 0.78728,0.229671 0.370262,0.168432 0.681529,0.444404 1.02739,0.658515 0.184366,0.114135 0.487029,0.12894 0.558395,0.333694 0.02783,0.07985 -0.124853,0.07573 -0.124853,0.07573 0,0 0.182585,-0.01023 0.184884,0.116039 0.0018,0.09995 -0.210163,0.07928 -0.210163,0.07928 0,0 0.234085,-0.06586 0.322522,0.178857 0.02872,0.07947 -0.09267,0.156887 -0.171875,0.186335 -0.434623,0.161594 -0.327902,-0.05491 -0.791584,-0.05185 -0.612049,0.004 -0.971776,0.354846 -1.583632,0.338923 -0.431459,-0.01123 -1.083534,-0.284032 -1.511885,-0.336937 -0.322237,-0.0398 -0.775458,0.06292 -0.895806,-0.238641 -0.06846,-0.171535 0.130097,-0.222569 0.130097,-0.222569 0,0 -0.22191,0.07807 -0.2028,-0.165266 0.01911,-0.243339 0.349397,-0.303683 0.606424,-0.410858 z"
       id="path3086"
       sodipodi:nodetypes="sssssscscssssssczs" />
    <path
       style="fill:#7a0000;stroke:none;stroke-width:0.264583px;stroke-linecap:butt;stroke-linejoin:miter;stroke-opacity:1;fill-opacity:1"
       d="m 22.190153,34.201552 2.214597,-0.588971 -1.366515,0.485719 1.903598,-0.371003 -0.370871,-0.186914 0.592997,0.03478 1.235091,0.668072 -0.988951,-0.385623 -2.11506,0.292485 2.247668,-0.112407 1.105987,0.480938 c 0,0 -1.287053,-0.37478 -1.394624,-0.368088 -0.107572,0.0067 -2.734472,0.130482 -2.734472,0.130482 l 1.24595,0.112735 1.873594,-0.03436 -1.417651,0.147579 -1.657315,-0.1111 c 0,0 1.758782,0.409583 1.835589,0.377913 0.07681,-0.03167 1.291642,-0.128149 1.242002,-0.11531 -0.04964,0.01284 -1.381443,0.265835 -1.381443,0.265835 l -1.718734,-0.295675 -0.463821,-0.05779 0.355485,-0.07461 -0.273522,-0.02411 0.272052,-0.134684 z"
       id="path5288" />
  </g>
</svg>
