<?xml version="1.0" encoding="UTF-8" standalone="no"?>
<!-- Created with Inkscape (http://www.inkscape.org/) -->

<svg
   width="64"
   height="128"
   viewBox="0 0 16.933333 33.866668"
   version="1.1"
   id="svg12297"
   inkscape:version="1.1.1 (3bf5ae0d25, 2021-09-20)"
   sodipodi:docname="bear.svg"
   inkscape:export-filename="/home/israel/programming/rs/rust_hero/assets/enemies/bear.png"
   inkscape:export-xdpi="96"
   inkscape:export-ydpi="96"
   xmlns:inkscape="http://www.inkscape.org/namespaces/inkscape"
   xmlns:sodipodi="http://sodipodi.sourceforge.net/DTD/sodipodi-0.dtd"
   xmlns="http://www.w3.org/2000/svg"
   xmlns:svg="http://www.w3.org/2000/svg">
  <sodipodi:namedview
     id="namedview12299"
     pagecolor="#ffffff"
     bordercolor="#666666"
     borderopacity="1.0"
     inkscape:pageshadow="2"
     inkscape:pageopacity="0.0"
     inkscape:pagecheckerboard="0"
     inkscape:document-units="px"
     showgrid="false"
     units="px"
     width="64px"
     inkscape:zoom="1.8694377"
     inkscape:cx="152.98718"
     inkscape:cy="75.15629"
     inkscape:window-width="1366"
     inkscape:window-height="699"
     inkscape:window-x="0"
     inkscape:window-y="40"
     inkscape:window-maximized="1"
     inkscape:current-layer="layer1"
     inkscape:snap-global="false"
     showguides="false" />
  <defs
     id="defs12294" />
  <g
     inkscape:label="Layer 1"
     inkscape:groupmode="layer"
     id="layer1">
    <g
       id="g4515"
       transform="matrix(0.93255264,0,0,0.93255264,0.53348333,1.776719)">
      <path
         style="fill:#57392d;fill-opacity:1;stroke:none;stroke-width:0.264583px;stroke-linecap:butt;stroke-linejoin:miter;stroke-opacity:1"
         d="m 12.179307,19.597616 0.534013,-0.0495 -0.07224,0.212339 0.525844,0.542624 -0.287793,0.158874 0.595547,2.199513 -0.346083,-0.243214 -0.05964,2.203643 -0.15236,-0.586912 0.174258,1.192947 -0.207458,0.04297 0.25145,0.347546 -0.082,-0.0083 0.231686,1.909322 -0.238607,-0.427699 0.165749,2.12372 -0.195525,-0.440833 -0.03651,1.5777 -0.205132,-0.365612 -0.0059,0.593688 0.41545,-0.05134 -0.07357,0.31967 1.247434,0.409355 -0.25832,0.08905 1.140036,0.889312 -0.657301,-0.223927 0.350521,0.543779 -0.346659,-0.0554 -0.250066,0.885883 -0.04128,-0.253915 -1.02778,0.750813 0.01814,-0.229454 -1.624345,0.656854 0.444631,-0.295558 -2.1542367,-0.431585 0.7253307,0.04011 -0.9580574,-0.425603 -0.3086727,0.120647 0.2274028,-0.379807 -0.372558,0.04799 0.2693553,-0.733682 -0.2934139,0.182065 0.2224196,-1.735063 -0.1441985,0.411821 -0.1515734,-1.370727 -0.1705203,0.701202 -0.018007,-2.178198 -0.249527,0.636775 0.1763001,-1.336339 -0.1697863,0.370197 0.31931,-1.36476 -0.28829,0.287914 0.5579933,-1.342477 -0.266673,0.213137 0.1643195,-0.443147 -0.2107962,-0.06351 0.3070624,-0.144664 -0.3494373,-0.111187 0.2811521,-0.02651 -0.065203,-0.28717 -0.1032299,0.142682 -0.042603,-0.643668 -0.1469372,0.286566 0.086514,-1.143059 -0.2709648,0.391085 0.2620862,-1.250576 z"
         id="path4332" />
      <path
         style="fill:#57392d;fill-opacity:1;stroke:none;stroke-width:0.264583px;stroke-linecap:butt;stroke-linejoin:miter;stroke-opacity:1"
         d="M 5.8002489,7.7921154 6.1809978,6.8865802 6.5560309,7.469311 7.1218996,6.6491391 7.7109589,7.3541937 8.3881629,6.616303 8.6381571,7.2964682 9.1370076,6.5623047 9.6284632,7.0643194 10.074515,6.6973692 l 0.26655,0.9051166 0.236288,-0.5977498 0.263963,0.6772926 0.104641,-0.392465 0.249254,0.9482088 1.429974,2.9627076 0.557134,0.949758 -0.357133,-0.261927 0.718769,2.628151 -0.306202,-0.259197 0.253561,1.704369 -0.264858,-0.325656 0.121891,1.586314 c 0,0 -0.289738,-0.425695 -0.302413,-0.348357 -0.01267,0.07734 0.108436,1.278486 0.108436,1.278486 l -0.317675,-0.118875 0.102049,1.016799 -0.251705,-0.322109 -0.02689,0.758707 -0.248341,-0.204207 0.136943,0.615867 -3.3500533,2.39288 L 8.675104,23.051431 8.3629203,22.706224 8.2554135,23.130371 7.6427464,22.589342 4.6585072,19.742818 4.4738291,18.902108 4.3885703,19.152784 4.1296115,18.431651 3.988442,18.809172 3.9595823,17.776725 3.7739615,18.040089 3.843376,16.852563 3.7169469,17.147869 3.7797183,15.911508 3.5636034,16.225498 3.709169,15.120826 3.4555404,15.272337 3.718322,14.107819 3.4964389,14.331907 3.8365428,13.438816 c 0,0 -0.2811057,0.360696 -0.2631384,0.305269 0.017968,-0.05543 0.420284,-1.164347 0.420284,-1.164347 l -0.1810345,0.13537 0.367252,-0.92528 c 0,0 -0.3902105,0.324578 -0.3111561,0.187588 0.079054,-0.13699 0.2724861,-0.413924 0.3993232,-0.734355 0.126837,-0.32043 1.5321759,-3.4509456 1.5321759,-3.4509456 z"
         id="path3943" />
      <g
         id="g3908"
         transform="matrix(1.3068762,0,0,1.3068762,-1.9644633,-2.3653905)">
        <g
           id="g2645">
          <g
             id="g2308"
             transform="translate(-0.02717483,-0.0295182)">
            <g
               id="g2622">
              <path
                 style="fill:#57392d;fill-opacity:1;stroke:none;stroke-width:0.264583px;stroke-linecap:butt;stroke-linejoin:miter;stroke-opacity:1"
                 d="M 7.1920274,2.466169 7.3202268,2.3561024 7.2726886,2.4927092 7.4051726,2.3671758 7.4232674,2.5188699 8.0473566,1.8395735 7.8737097,2.2300898 8.5813672,1.7967052 8.4513775,2.2221374 9.1643504,2.0370624 8.9606766,2.4503881 l 0.1071171,-0.090893 0.03403,0.094609 0.037669,-0.073349 0.072826,0.083255 0.1642078,-0.561285 0.03161,0.079981 0.2385552,-0.4300313 0.023588,0.1125456 0.4675053,-0.339682 -0.05405,0.1416365 0.438131,-0.076527 -0.04729,0.1061975 0.410651,0.2283226 h -0.0956 l 0.371747,0.4226686 -0.09808,-0.03372 0.190573,0.7861706 -0.06808,-0.1234599 -0.06574,0.6074918 -0.02694,-0.1419318 -0.200052,0.4599673 -0.01432,-0.079685 -0.09233,0.2013325 0.207442,-0.031922 -0.168744,0.099948 0.120681,0.043313 -0.1212,0.059184 0.346113,0.7743954 -0.159867,-0.1440902 0.263871,1.1863343 -0.0844,-0.090088 0.12871,0.7400118 L 11.229331,6.3308967 10.957035,7.2939899 10.928545,7.0909502 10.62706,7.6698141 10.55506,7.407962 9.7699523,8.2033332 9.558873,7.8056999 9.3817091,8.2833725 8.9785566,7.928216 8.7477838,8.3219509 8.1820853,7.9014859 7.8149344,8.2771572 7.7496061,7.9101171 7.4349721,8.2892968 c 0,0 -0.1399299,-0.3812855 -0.1606963,-0.3422385 -0.020767,0.039047 -0.2834304,0.3385658 -0.2834304,0.3385658 L 6.6692838,7.8529576 6.4753259,8.0621245 6.2992587,7.6977456 6.2213442,7.9844979 5.9294373,7.4901303 5.8263289,7.7841096 5.5685679,6.7425069 5.3748638,7.0488497 5.2439138,6.1569181 5.1202028,6.4666229 5.2566998,5.3772764 5.0989721,5.6048676 5.401194,4.6198669 5.2670212,4.7958215 5.5522431,4.1397654 c 0,0 -0.3798954,0.2377691 -0.2332559,0.1159978 C 5.4656267,4.1339919 5.7114103,3.8433008 5.7114103,3.8433008 L 5.6226963,3.8634753 5.7010437,3.7728468 5.5116055,3.7918835 5.6064512,3.6767401 5.4458972,3.4705254 5.4086258,3.5990458 5.2702623,3.0412238 5.1879909,3.1688693 5.257557,2.4872634 5.1386875,2.5842984 5.3683275,2.0805312 5.2019587,2.1757526 5.6094859,1.7178818 5.464245,1.7475617 5.8878657,1.5291616 5.762998,1.4266349 l 0.3432482,0.035671 -0.081208,-0.073771 0.3669702,0.061921 -0.0043,-0.1353053 0.3174741,0.2943882 -0.00365,-0.1427266 0.2238196,0.3639867 0.017198,-0.1851406 0.1429123,0.4285378 0.03717,-0.1397663 z"
                 id="path1665"
                 sodipodi:nodetypes="cccccccccccccccccccccccccccccccccccccccccccccccccccccccccsccccccccccccccccscccccccccccccccccccccccccccc" />
            </g>
            <path
               style="fill:#8a715e;fill-opacity:1;stroke:none;stroke-width:0.264583px;stroke-linecap:butt;stroke-linejoin:miter;stroke-opacity:1"
               d="m 6.0275331,1.9461731 c 0.17233,-0.056915 0.3956025,-0.05718 0.5421689,0.049849 0.1624957,0.1186612 0.2356257,0.5557413 0.2356257,0.5557413 l 0.054863,0.1572639 -0.1548712,0.0022 0.086074,0.2210239 -0.1812208,-0.027983 0.057827,0.098883 -0.3106499,-0.00744 0.054079,0.204629 -0.178295,-0.079175 0.010335,0.2847285 -0.2154381,-0.1404853 0.00304,0.1347335 c 0,0 -0.2529823,-0.3066613 -0.3469639,-0.4705441 C 5.5883342,2.762592 5.5902584,2.574593 5.6437217,2.3896525 5.7116329,2.1547341 5.7953316,2.0228611 6.0275331,1.9461731 Z"
               id="path1799"
               sodipodi:nodetypes="ssccccccccccccsss" />
            <path
               style="fill:#8a715e;fill-opacity:1;stroke:none;stroke-width:0.264583px;stroke-linecap:butt;stroke-linejoin:miter;stroke-opacity:1"
               d="M 10.390423,1.9461731 C 10.218094,1.8892581 9.9948207,1.8889931 9.8482547,1.9960221 9.685759,2.1146833 9.612629,2.5517634 9.612629,2.5517634 l -0.05486,0.1572639 0.154871,0.0022 -0.08607,0.2210239 0.1812207,-0.027983 -0.05783,0.098883 0.3106503,-0.00744 -0.05408,0.204629 0.178295,-0.079175 -0.01033,0.2847285 0.215438,-0.1404853 -0.003,0.1347335 c 0,0 0.252982,-0.3066613 0.346964,-0.4705441 0.09577,-0.1670058 0.09385,-0.3550048 0.04039,-0.5399453 -0.06791,-0.2349184 -0.15161,-0.3667914 -0.383812,-0.4434794 z"
               id="path2303"
               sodipodi:nodetypes="ssccccccccccccsss" />
          </g>
          <g
             id="g2619">
            <ellipse
               style="fill:#fafafa;fill-opacity:1;stroke:none;stroke-width:0.249126;stroke-linecap:round;stroke-linejoin:round;paint-order:fill markers stroke"
               id="path2332"
               cx="7.3099613"
               cy="4.2713919"
               rx="0.71652764"
               ry="0.83649534" />
            <path
               id="ellipse2432"
               style="stroke-width:0.684378;stroke-linecap:round;stroke-linejoin:round;paint-order:fill markers stroke"
               d="m 27.730469,14.992188 a 2.0775318,2.177226 0 0 0 -2.078125,2.177734 2.0775318,2.177226 0 0 0 2.078125,2.175781 2.0775318,2.177226 0 0 0 2.078125,-2.175781 2.0775318,2.177226 0 0 0 -2.078125,-2.177734 z m -1.205078,0.701171 a 0.53423804,0.5246736 0 0 1 0.535156,0.525391 0.53423804,0.5246736 0 0 1 -0.535156,0.523438 0.53423804,0.5246736 0 0 1 -0.533203,-0.523438 0.53423804,0.5246736 0 0 1 0.533203,-0.525391 z m 2.210937,0.347657 a 0.99985917,1.247426 0 0 1 1,1.248046 0.99985917,1.247426 0 0 1 -1,1.248047 0.99985917,1.247426 0 0 1 -1,-1.248047 0.99985917,1.247426 0 0 1 1,-1.248046 z m -1.982422,0.957031 a 0.66754254,0.8594835 0 0 1 0.667969,0.859375 0.66754254,0.8594835 0 0 1 -0.667969,0.859375 0.66754254,0.8594835 0 0 1 -0.667968,-0.859375 0.66754254,0.8594835 0 0 1 0.667968,-0.859375 z"
               transform="scale(0.26458334)" />
            <ellipse
               style="fill:#fafafa;fill-opacity:1;stroke:none;stroke-width:0.249126;stroke-linecap:round;stroke-linejoin:round;paint-order:fill markers stroke"
               id="ellipse2483"
               cx="9.0536718"
               cy="4.2713919"
               rx="0.71652764"
               ry="0.83649534" />
            <path
               id="ellipse2485"
               style="stroke-width:0.684378;stroke-linecap:round;stroke-linejoin:round;paint-order:fill markers stroke"
               d="m 34.320312,14.992188 a 2.0775318,2.177226 0 0 0 -2.076171,2.177734 2.0775318,2.177226 0 0 0 2.076171,2.175781 2.0775318,2.177226 0 0 0 2.078126,-2.175781 2.0775318,2.177226 0 0 0 -2.078126,-2.177734 z m -0.929687,0.701171 a 0.80897794,0.79006061 0 0 1 0.808594,0.791016 0.80897794,0.79006061 0 0 1 -0.808594,0.789063 0.80897794,0.79006061 0 0 1 -0.808594,-0.789063 0.80897794,0.79006061 0 0 1 0.808594,-0.791016 z m 1.861328,0.673829 a 1.0744875,1.0845045 0 0 1 1.074219,1.083984 1.0744875,1.0845045 0 0 1 -1.074219,1.085937 1.0744875,1.0845045 0 0 1 -1.074219,-1.085937 1.0744875,1.0845045 0 0 1 1.074219,-1.083984 z m -1.908203,1.083984 a 0.66754254,0.63214141 0 0 1 0.667969,0.632812 0.66754254,0.63214141 0 0 1 -0.667969,0.632813 0.66754254,0.63214141 0 0 1 -0.666016,-0.632813 0.66754254,0.63214141 0 0 1 0.666016,-0.632812 z"
               transform="scale(0.26458334)" />
          </g>
        </g>
        <path
           style="fill:#8a715e;fill-opacity:1;stroke:none;stroke-width:0.29904px;stroke-linecap:butt;stroke-linejoin:miter;stroke-opacity:1"
           d="M 7.4194673,5.5525191 C 7.5999761,5.3015855 7.9488165,5.0101646 7.9488165,5.0101646 c 0,0 0.1581155,-0.089597 0.237364,-0.092771 0.079248,-0.00318 0.2381268,0.073723 0.2381268,0.073723 0,0 0.3371184,0.2647528 0.5195688,0.4997357 0.2225821,0.2866698 0.5829575,0.643672 0.5612423,1.0059576 C 9.489532,6.7568447 9.369612,7.0239641 9.1886896,7.2113903 8.9788857,7.4287363 8.5418645,7.6774254 8.2405867,7.6995315 7.884882,7.7256312 7.6248611,7.5163622 7.3531277,7.2853471 7.1186658,7.0860184 6.9748724,6.7665417 6.937223,6.4611126 6.8966832,6.1322347 7.2259633,5.8215178 7.4194673,5.5525191 Z"
           id="path2680"
           sodipodi:nodetypes="scscsssssss" />
        <rect
           style="fill:#000000;fill-opacity:1;stroke:none;stroke-width:0.264583;stroke-linecap:round;stroke-linejoin:round;paint-order:fill markers stroke"
           id="rect3429"
           width="1.4339896"
           height="0.62082231"
           x="7.502934"
           y="5.876791"
           ry="0.21962489" />
        <rect
           style="fill:#fafafa;fill-opacity:1;stroke:none;stroke-width:0.0909949;stroke-linecap:round;stroke-linejoin:round;paint-order:fill markers stroke"
           id="rect3632"
           width="0.89087605"
           height="0.11819702"
           x="7.7960706"
           y="5.9212394"
           ry="0.041813906" />
      </g>
      <g
         id="g3892">
        <path
           style="fill:#57392d;fill-opacity:1;stroke:none;stroke-width:0.264583px;stroke-linecap:butt;stroke-linejoin:miter;stroke-opacity:1"
           d="m 5.6271688,7.7578511 c 0,0 -0.4053331,-0.3925763 -0.3878509,-0.3526459 0.017483,0.03993 0.1187889,0.3918565 0.1187889,0.3918565 L 5.140488,7.6426809 5.0896973,7.8212158 4.2109984,7.2879164 4.2319143,7.4304141 2.8710779,7.4068354 3.3251888,7.7121315 2.516519,8.5042864 2.7514897,8.4805479 2.2236667,9.1646158 2.5075326,9.247828 1.6392673,9.524749 1.9123149,9.6094513 0.62605708,10.268932 1.0483146,10.19674 0.14851473,11.017195 c 0,0 0.48179202,-0.230691 0.44735513,-0.196022 -0.0344369,0.03467 -0.82952792,1.285285 -0.82952792,1.285285 l 0.24657736,-0.141184 -0.44165903,0.978432 0.17445102,-0.08952 -0.26178237,1.493275 0.1782726,-0.142312 -0.23426931,0.639172 0.2034227,4.98e-4 -0.0748069,0.206953 0.15644666,-0.0039 -0.0303621,1.319437 0.0732504,-0.132271 0.15188576,1.748564 0.07340002,-0.504391 0.2965047,1.207195 0.0793302,-0.269337 0.0874686,0.411128 -0.10398536,0.07628 0.27159607,0.04932 -0.30740422,0.119668 0.12306103,0.04811 0.0102597,0.623384 0.0812143,-0.111791 0.0769291,1.214585 0.0884133,-0.256972 0.34825313,0.853006 0.034437,-0.346887 0.3502308,0.412972 0.086921,-0.05973 0.7237184,0.334219 -0.1434967,-0.201991 0.7471722,0.01734 -0.2113613,-0.09139 0.373733,0.08639 -0.041781,-0.313158 0.1263425,0.240237 0.2212498,-0.511753 0.063274,0.317063 c 0,0 0.2281974,-0.710775 0.2231996,-0.674579 -0.005,0.03619 0.1132998,0.236047 0.1132998,0.236047 l 0.1473952,-1.131843 0.1305983,0.13687 -0.293006,-0.588891 0.1484506,0.12354 -0.4177996,-0.511092 0.2468713,0.07424 -0.5020585,-0.384645 0.093527,-0.160791 c 0,0 -0.1487586,0.150771 -0.142731,0.08347 0.00604,-0.0673 0.076766,-0.156586 0.076766,-0.156586 l -0.062076,-0.0306 0.01511,-0.258288 c 0,0 0.1347299,0.299879 0.1378719,0.261308 0.00314,-0.03857 -0.099942,-0.633634 -0.099942,-0.633634 l 0.135072,0.13108 -0.1209299,-0.493443 0.1171947,0.110392 -0.1616462,-0.871439 0.070399,0.05199 -0.2120316,-0.834047 0.07036,0.153425 L 2.8833133,15.4037 3.0654058,15.5444 2.709447,14.957889 2.8880789,15.10052 2.4985243,14.577933 l 0.1836732,0.125024 -0.2491083,-0.274621 0.1316962,0.02359 -0.08705,-0.05086 0.1521504,-0.01312 -0.1007658,-0.116091 0.082904,-0.148609 -0.019596,0.126761 0.2220858,-0.464262 0.019234,0.122817 0.1349712,-0.457579 0.01158,0.229018 0.2968337,-0.990807 0.047875,0.20311 0.3251165,-1.22515 -0.00557,0.352575 L 4.1196159,11.35401 4.06041,11.597963 6.4989368,9.7172467 5.9050908,7.6491882 c 0,0 -0.4139533,-0.4087176 -0.3681987,-0.3111535 0.045754,0.097564 0.090274,0.4198124 0.090274,0.4198124 z"
           id="path3707"
           inkscape:transform-center-x="3.1622718"
           inkscape:transform-center-y="4.9251345" />
        <path
           style="fill:#57392d;fill-opacity:1;stroke:none;stroke-width:0.264583px;stroke-linecap:butt;stroke-linejoin:miter;stroke-opacity:1"
           d="m 11.386744,7.7578511 c 0,0 0.405334,-0.3925763 0.387852,-0.3526459 -0.01748,0.03993 -0.118789,0.3918565 -0.118789,0.3918565 l 0.217619,-0.1543808 0.05079,0.1785349 0.878699,-0.5332994 -0.02092,0.1424977 1.360837,-0.023579 -0.454111,0.3052961 0.80867,0.7921549 -0.234971,-0.023739 0.527824,0.6840679 -0.283867,0.083212 0.868266,0.276921 -0.273047,0.084702 1.286257,0.659481 -0.422257,-0.07219 0.8998,0.820455 c 0,0 -0.481792,-0.230691 -0.447355,-0.196022 0.03444,0.03467 0.829527,1.285285 0.829527,1.285285 l -0.246577,-0.141184 0.441659,0.978432 -0.174451,-0.08952 0.261783,1.493275 -0.178273,-0.142312 0.234269,0.639172 -0.203422,4.98e-4 0.07481,0.206953 -0.156446,-0.0039 0.03036,1.319437 -0.07325,-0.132271 -0.151885,1.748564 -0.0734,-0.504391 -0.296505,1.207195 -0.07933,-0.269337 -0.08747,0.411128 0.103986,0.07628 -0.271597,0.04932 0.307405,0.119668 -0.123061,0.04811 -0.01026,0.623384 -0.08121,-0.111791 -0.07693,1.214585 -0.08841,-0.256972 -0.348253,0.853006 -0.03444,-0.346887 -0.350231,0.412972 -0.08692,-0.05973 -0.723718,0.334219 0.143497,-0.201991 -0.747173,0.01734 0.211361,-0.09139 -0.373733,0.08639 0.04178,-0.313158 -0.126342,0.240237 -0.22125,-0.511753 -0.06327,0.317063 c 0,0 -0.228198,-0.710775 -0.2232,-0.674579 0.005,0.03619 -0.1133,0.236047 -0.1133,0.236047 l -0.147395,-1.131843 -0.130598,0.13687 0.293006,-0.588891 -0.148451,0.12354 0.4178,-0.511092 -0.246871,0.07424 0.502058,-0.384645 -0.09353,-0.160791 c 0,0 0.148759,0.150771 0.142731,0.08347 -0.006,-0.0673 -0.07677,-0.156586 -0.07677,-0.156586 l 0.06208,-0.0306 -0.01511,-0.258288 c 0,0 -0.13473,0.299879 -0.137872,0.261308 -0.0031,-0.03857 0.09994,-0.633634 0.09994,-0.633634 l -0.135072,0.13108 0.12093,-0.493443 -0.117195,0.110392 0.161647,-0.871439 -0.0704,0.05199 0.212031,-0.834047 -0.07036,0.153425 0.19383,-0.555883 -0.182092,0.1407 0.355959,-0.586511 -0.178632,0.142631 0.389555,-0.522587 -0.183673,0.125024 0.249108,-0.274621 -0.131696,0.02359 0.08705,-0.05086 -0.152151,-0.01312 0.100766,-0.116091 -0.0829,-0.148609 0.0196,0.126761 -0.222086,-0.464262 -0.01923,0.122817 -0.134971,-0.457579 -0.01158,0.229018 -0.296834,-0.990807 -0.04788,0.20311 -0.325116,-1.22515 0.0056,0.352575 -0.475062,-0.665719 0.05921,0.243953 -2.438529,-1.8807166 0.593847,-2.0680585 c 0,0 0.413953,-0.4087176 0.368199,-0.3111535 -0.04575,0.097564 -0.09027,0.4198124 -0.09027,0.4198124 z"
           id="path3888"
           inkscape:transform-center-x="-3.1622752"
           inkscape:transform-center-y="4.9251354" />
      </g>
      <path
         style="fill:#57392d;fill-opacity:1;stroke:none;stroke-width:0.264583px;stroke-linecap:butt;stroke-linejoin:miter;stroke-opacity:1"
         d="m 4.8891416,19.597616 -0.5340136,-0.0495 0.072236,0.212339 -0.5258443,0.542624 0.2877931,0.158874 -0.5955475,2.199513 0.346083,-0.243214 0.059635,2.203643 0.1523598,-0.586912 -0.174258,1.192947 0.2074587,0.04297 -0.2514505,0.347546 0.081997,-0.0083 -0.2316858,1.909322 0.2386071,-0.427699 -0.1657493,2.12372 0.1955255,-0.440833 0.03651,1.5777 0.2051315,-0.365612 0.00592,0.593688 -0.4154493,-0.05134 0.073565,0.31967 -1.2474338,0.409355 0.2583202,0.08905 -1.1400355,0.889312 0.6573009,-0.223927 -0.3505215,0.543779 0.3466587,-0.0554 0.2500665,0.885883 0.041276,-0.253915 1.0277793,0.750813 -0.018143,-0.229454 1.6243449,0.656854 -0.4446313,-0.295558 2.154236,-0.431585 -0.7253304,0.04011 0.9580571,-0.425603 0.3086727,0.120647 -0.2274028,-0.379807 0.372558,0.04799 -0.2693628,-0.733682 0.2934139,0.182065 -0.2224196,-1.735063 0.1441985,0.411821 0.1515734,-1.370727 0.1705203,0.701202 0.018007,-2.178198 0.249527,0.636775 -0.1763001,-1.336339 0.1697863,0.370197 -0.31931,-1.36476 0.28829,0.287914 -0.5579933,-1.342477 0.266673,0.213137 -0.1643195,-0.443147 0.2107962,-0.06351 -0.3070624,-0.144664 0.3494373,-0.111187 -0.2811521,-0.02651 0.065203,-0.28717 0.1032299,0.142682 0.042603,-0.643668 0.1469372,0.286566 -0.086514,-1.143059 0.2709648,0.391085 -0.2620862,-1.250576 z"
         id="path4184" />
    </g>
    <g
       transform="matrix(0.00133841,-8.3934106e-5,8.3934106e-5,0.00133841,7.9685079,7.8223054)"
       id="g1011"
       inkscape:transform-center-x="-0.082328894"
       inkscape:transform-center-y="-0.057016498">
	<g
   id="g841">
		<path
   inkscape:connector-curvature="0"
   id="path833"
   d="m 146.014,554.568 c 1.591,3.545 5.165,6.132 9.438,6.83 l 42.059,6.831 c 1.581,2.84 3.243,5.638 4.911,8.414 l -18.34,33.827 c -1.888,3.447 -1.577,7.5 0.781,10.702 2.349,3.221 6.4,5.152 10.76,5.091 l 42.82,-0.495 c 2.171,2.474 4.378,4.926 6.632,7.333 l -10.506,36.433 c -1.063,3.699 0.122,7.617 3.146,10.377 3.008,2.749 7.431,3.947 11.671,3.155 l 41.844,-7.838 c 2.662,2.061 5.372,4.098 8.109,6.094 l -2.189,37.566 c -0.23,3.802 1.81,7.46 5.388,9.639 3.576,2.194 8.159,2.604 12.14,1.1 l 39.174,-14.833 c 3.104,1.573 6.225,3.132 9.381,4.642 l 6.194,37.179 c 0.626,3.767 3.436,7.009 7.425,8.542 3.976,1.538 8.571,1.153 12.125,-1.009 l 35.074,-21.251 c 3.396,1.021 6.807,2.001 10.265,2.942 l 14.3,35.416 c 1.455,3.609 4.91,6.306 9.169,7.127 4.244,0.814 8.649,-0.345 11.652,-3.066 l 29.687,-26.946 c 3.522,0.409 7.048,0.789 10.584,1.114 l 21.947,32.409 c 2.226,3.281 6.218,5.33 10.565,5.413 4.334,0.083 8.41,-1.812 10.733,-5.008 l 23.126,-31.552 c 3.547,-0.188 7.099,-0.435 10.628,-0.709 l 28.682,28.058 c 2.905,2.835 7.279,4.161 11.538,3.509 4.282,-0.666 7.842,-3.222 9.418,-6.773 l 15.601,-34.846 c 3.479,-0.81 6.926,-1.668 10.365,-2.55 l 34.257,22.572 c 3.483,2.302 8.062,2.861 12.1,1.468 4.025,-1.379 6.964,-4.513 7.725,-8.252 l 7.556,-36.917 c 3.208,-1.389 6.385,-2.818 9.552,-4.281 l 38.6,16.313 c 3.92,1.661 8.535,1.422 12.17,-0.636 3.65,-2.042 5.828,-5.619 5.732,-9.426 l -0.802,-37.625 c 2.803,-1.892 5.578,-3.823 8.327,-5.78 l 41.521,9.426 c 4.218,0.946 8.677,-0.075 11.79,-2.709 3.135,-2.644 4.454,-6.513 3.53,-10.249 l -9.146,-36.808 c 2.32,-2.329 4.618,-4.687 6.875,-7.074 l 42.77,2.125 c 4.316,0.19 8.473,-1.549 10.943,-4.679 2.478,-3.11 2.918,-7.147 1.181,-10.665 l -17.104,-34.501 c 1.774,-2.712 3.535,-5.445 5.231,-8.222 l 42.278,-5.226 c 4.297,-0.526 7.954,-2.975 9.684,-6.465 1.72,-3.5 1.257,-7.533 -1.215,-10.677 L 921.479,528.24 c 0.203,-0.531 -1.999,-32.28 -21.526,-58.158 0,0 -0.169,-0.069 -0.475,-0.191 C 855.033,407.22 716.712,359.6 552.124,356.465 378.036,353.149 231.49,400.686 193.714,467.318 176.853,484.381 172.602,512.466 173.11,513.99 l -25.495,29.958 c -2.602,3.046 -3.19,7.059 -1.601,10.62 z"
   fill="#8f1f1d" />

		<path
   inkscape:connector-curvature="0"
   id="path835"
   d="m 1006.008,420.45 c -1.728,-4.947 -19.723,-3.687 -24.194,-4.556 l -65.68,0.586 c -1.701,-3.954 -3.489,-7.85 -5.283,-11.713 l 42.551,-65.735 c 1.905,-4.904 12.443,-11.779 9.923,-16.227 -2.512,-4.469 -18.607,1.506 -23.153,1.708 l -67.827,12.061 c -2.313,-3.422 -4.662,-6.814 -7.059,-10.144 l 38.03,-84.758 c 1.039,-5.237 12.658,-26.514 9.45,-30.318 -3.189,-3.792 -18.273,9.018 -22.681,10.249 l -73.744,46.76 c -2.816,-2.829 -5.681,-5.624 -8.575,-8.362 l 20.894,-73.414 c 0.168,-5.358 11.334,-30.76 7.561,-33.733 -3.771,-2.993 -16.667,8.452 -20.79,10.675 l -65.16,50.814 c -3.268,-2.13 -6.552,-4.242 -9.872,-6.284 l 15.496,-86.805 c -0.726,-5.287 5.608,-32.964 1.417,-35.016 -4.174,-2.061 -26.104,22.056 -29.768,25.194 l -51.029,65.23 c -3.562,-1.346 -7.138,-2.635 -10.763,-3.867 L 660.92,74.281 c -1.585,-5.042 -1.212,-22.872 -5.67,-23.913 -4.442,-1.033 -10.15,14.875 -13.23,18.788 l -44.103,87.736 c -3.682,-0.482 -7.366,-0.922 -11.061,-1.283 L 564.527,54.643 C 562.143,50.081 559.614,35 555.078,35 c -4.522,0 -8.035,18.07 -10.396,22.631 l -27.077,97.982 c -3.695,0.361 -7.396,0.801 -11.07,1.283 L 468.137,67.88 c -3.084,-3.914 -8.33,-23.237 -12.758,-22.205 -4.455,1.053 -3.621,15.455 -5.197,20.497 l -11.499,106.627 c -3.614,1.232 -7.193,2.532 -10.764,3.867 l -34.912,-44.734 c -3.677,-3.148 -24.165,-34.096 -28.351,-32.026 -4.172,2.051 -1.167,34.426 -1.89,39.712 l 1.271,68.443 c -3.32,2.042 -6.606,4.14 -9.883,6.284 l -63.681,-59.354 c -4.12,-2.232 -12.786,-11.533 -16.538,-8.541 -3.769,2.974 -0.643,16.419 -0.472,21.778 l 23.196,91.775 c -2.887,2.738 -5.745,5.533 -8.575,8.362 l -69.905,-43.344 c -4.418,-1.22 -18.065,-11.905 -21.263,-8.113 -3.218,3.804 4.164,7.809 5.197,13.047 l 36.995,96.478 c -2.376,3.342 -4.729,6.721 -7.034,10.144 L 118.07,298.04 c -4.506,-0.151 -16.917,-6.178 -19.435,-1.708 -2.522,4.447 8.045,10.896 9.923,15.8 l 85.012,92.637 c -1.798,3.863 -3.583,7.759 -5.3,11.713 l -82.547,-9.979 c -4.47,0.857 -16.217,-1.544 -17.956,3.415 -1.728,4.972 9.648,11.415 12.286,15.774 l 61.741,66.493 c -0.201,0.755 2.702,45.391 23.563,81.296 0,0 0.177,0.092 0.499,0.258 47.554,87.035 192.733,150.364 364.46,150.364 181.639,0 333.578,-70.85 371.705,-165.663 17.261,-24.474 21.158,-64.123 20.598,-66.255 l 50.158,-54.084 c 2.656,-4.362 14.956,-12.68 13.231,-17.651 z"
   fill="#8f1f1d" />

		<path
   inkscape:connector-curvature="0"
   id="path837"
   d="m 195.34,493.008 c 0,0 -94.761,13.599 -116.083,18.311 -21.321,4.711 -7.095,8.297 0,9.421 24.757,3.927 146.88,7.067 149.25,7.853 2.369,0.785 -33.167,-35.585 -33.167,-35.585 z"
   fill="#8f1f1d" />

		<path
   inkscape:connector-curvature="0"
   id="path839"
   d="m 896.038,499.622 c 0,0 94.762,13.6 116.083,18.311 21.32,4.712 7.095,8.298 0,9.422 -24.758,3.927 -146.88,7.067 -149.249,7.853 -2.37,0.784 33.166,-35.586 33.166,-35.586 z"
   fill="#8f1f1d" />

	</g>

	<g
   transform="translate(-48,14)"
   id="g847">
		<path
   inkscape:connector-curvature="0"
   id="path843"
   d="m 467.982,486.018 c 0,0 -41.096,-44.997 -82.191,0 0,0 -32.292,60.001 0,89.998 0,0 52.837,41.999 82.191,0 0,0 35.226,-33.002 0,-89.998 z" />

		<path
   inkscape:connector-curvature="0"
   id="path845"
   d="m 420.404,502.71 c 0,17.521 10.329,31.727 23.066,31.727 12.735,0 23.064,-14.205 23.064,-31.727 0,-17.522 -10.329,-31.728 -23.064,-31.728 -12.738,0 -23.066,14.206 -23.066,31.728 z"
   fill="#ffffff" />

	</g>

	<g
   transform="translate(-48,14)"
   id="g853">
		<path
   inkscape:connector-curvature="0"
   id="path849"
   d="m 698.226,469.498 c 0,0 -70.494,-31.212 -89.735,38.454 0,0 -20.153,81.201 57.891,85.784 -10e-4,0 99.518,-19.168 31.844,-124.238 z" />

		<path
   inkscape:connector-curvature="0"
   id="path851"
   d="m 662.819,499.628 c 0,18.068 10.65,32.723 23.79,32.723 13.133,0 23.786,-14.654 23.786,-32.723 0,-18.072 -10.653,-32.723 -23.786,-32.723 -13.139,0 -23.79,14.651 -23.79,32.723 z"
   fill="#ffffff" />

	</g>

	
	
	
	
	
	
	
	
	
	
	
</g>
  </g>
</svg>
