<?xml version="1.0" encoding="UTF-8" standalone="no"?>
<!-- Created with Inkscape (http://www.inkscape.org/) -->

<svg
   width="500"
   height="310"
   viewBox="0 0 132.29167 82.020832"
   version="1.1"
   id="svg947"
   inkscape:version="1.1 (c4e8f9ed74, 2021-05-24)"
   sodipodi:docname="cave.svg"
   inkscape:export-filename="/home/israel/programming/rs/rust_hero/assets/backgrounds/cave.png"
   inkscape:export-xdpi="96"
   inkscape:export-ydpi="96"
   xmlns:inkscape="http://www.inkscape.org/namespaces/inkscape"
   xmlns:sodipodi="http://sodipodi.sourceforge.net/DTD/sodipodi-0.dtd"
   xmlns="http://www.w3.org/2000/svg"
   xmlns:svg="http://www.w3.org/2000/svg">
  <sodipodi:namedview
     id="namedview949"
     pagecolor="#ffffff"
     bordercolor="#666666"
     borderopacity="1.0"
     inkscape:pageshadow="2"
     inkscape:pageopacity="0.0"
     inkscape:pagecheckerboard="0"
     inkscape:document-units="px"
     showgrid="false"
     units="px"
     height="310px"
     inkscape:zoom="0.37771776"
     inkscape:cx="-100.60422"
     inkscape:cy="38.388451"
     inkscape:window-width="1366"
     inkscape:window-height="699"
     inkscape:window-x="0"
     inkscape:window-y="40"
     inkscape:window-maximized="1"
     inkscape:current-layer="layer1" />
  <defs
     id="defs944" />
  <g
     inkscape:label="Layer 1"
     inkscape:groupmode="layer"
     id="layer1">
    <rect
       style="fill:#1a1a1a;stroke-width:3.1254;stroke-linecap:round;stroke-linejoin:round;paint-order:fill markers stroke"
       id="rect1030"
       width="132.29167"
       height="82.020836"
       x="0"
       y="0"
       ry="1.6454346" />
    <path
       style="fill:#000000;stroke:none;stroke-width:0.264583px;stroke-linecap:butt;stroke-linejoin:miter;stroke-opacity:1"
       d="m 59.129535,37.126629 1.011708,-9.502944 2.336594,7.06623 1.955694,-8.585772 4.866286,-2.757466 3.502252,11.607533 1.202018,-12.738313 3.099112,10.161422 3.545742,-10.160168 6.666683,0.708625 -0.705046,13.949994 2.772936,-11.185535 8.087519,2.997538 -0.426135,12.295751 2.835904,-10.978613 2.659318,12.174892 2.73664,12.341876 -2.6817,9.604629 L 97.521508,50.675603 93.612913,59.956062 87.318076,47.709841 85.350955,61.867573 78.004479,48.756202 74.187705,65.591155 61.135815,50.818039 58.108389,63.08414 53.967988,48.396945 49.747363,67.186764 46.045537,50.979479 41.438504,65.63846 35.929982,51.676265 30.323803,58.00499 32.792318,46.278127 32.67452,38.748808 l 4.467616,-6.020673 2.183935,6.548437 4.153257,-13.144475 5.197586,13.64244 2.03255,-10.21923 3.723783,12.962218 -0.436078,-14.861548 z"
       id="path11209" />
    <path
       style="fill:#333333;fill-opacity:1;stroke:none;stroke-width:0.264583px;stroke-linecap:butt;stroke-linejoin:miter;stroke-opacity:1"
       d="m 114.08743,62.908914 c -6.34908,-5.642938 -10.42249,-25.338063 -10.42249,-25.338063 0,0 -2.19132,27.196068 -6.237758,32.621001 -4.046442,5.424934 -1.581136,3.929914 -1.581136,3.929914 L 89.590531,44.914741 84.843626,72.000019 74.557884,74.33096 65.832975,46.352776 c 0,0 -2.003653,14.805601 -5.663299,21.577012 -1.922125,3.556492 -6.229126,9.094063 -6.229126,9.094063 L 43.960703,75.894464 41.070444,42.271156 c 0,0 -4.10569,19.546379 -12.324687,24.73041 -2.926587,1.845908 -9.396586,1.649554 -9.396586,1.649554 l -8.70505,-27.289883 -10.83275023,23.317646 0.78252,19.628037 H 132.88556 l 0.18863,-22.774302 -8.05416,-23.071668 -6.68412,24.621458 c 0,0 -1.50509,2.264779 -4.24848,-0.173494 z"
       id="path9065"
       sodipodi:nodetypes="sczcccccscccsccccccccs" />
    <path
       style="fill:#333333;fill-opacity:1;stroke:none;stroke-width:0.264583px;stroke-linecap:butt;stroke-linejoin:miter;stroke-opacity:1"
       d="m 21.116731,19.427521 8.103889,27.308542 c 0,0 -2.192295,-24.540882 1.568659,-30.280304 3.760954,-5.739422 8.251902,-7.6808239 8.251902,-7.6808239 L 43.29503,39.392177 48.041935,12.306901 c 0,0 10.5132,-1.295432 12.764035,2.402888 2.607886,4.284987 7.906197,22.075826 7.906197,22.075826 0,0 2.626273,-15.397974 3.764312,-19.783664 0.977448,-3.766813 6.468532,-9.7188818 6.468532,-9.7188818 l 10.576835,4.1895068 2.293271,30.563185 c 0,0 3.287609,-19.975978 10.706643,-25.392163 2.9773,-2.173548 11.01463,-0.987798 11.01463,-0.987798 L 122.24144,42.945679 133.07419,19.628037 132.29167,0 H 0 L -0.18862923,22.774302 7.8655271,45.845965 14.549647,21.224512 Z"
       id="path8866"
       sodipodi:nodetypes="cczcccscscccsccccccccc" />
    <path
       style="fill:#4d4d4d;fill-opacity:1;stroke:none;stroke-width:0.264583px;stroke-linecap:butt;stroke-linejoin:miter;stroke-opacity:1"
       d="M 131.77571,30.094031 127.35735,15.317659 120.83158,5.3629289 117.74202,21.224512 116.69396,45.369302 109.83527,4.8836339 103.44511,1.2641582 98.433582,6.242415 96.817562,22.472481 93.182431,3.6594335 84.986147,0.58835231 80.959676,4.3780659 78.294501,27.655977 72.34122,2.1375592 59.557408,1.8166135 53.346656,7.2830694 49.59851,32.335435 43.960703,5.9873607 35.80866,1.2323012 26.34835,0.86700153 23.24155,8.2473886 20.03333,35.699326 14.53539,5.6101395 5.65287,2.8126822 0.06058,7.4449786 0,0 h 132.29167 z"
       id="path8791" />
    <path
       style="fill:#666666;fill-opacity:1;stroke:none;stroke-width:0.264583px;stroke-linecap:butt;stroke-linejoin:miter;stroke-opacity:1"
       d="m 0.12193741,30.661277 c 0,0 2.69568389,-9.798057 4.99649269,-14.75816 1.5974854,-3.443873 3.5919664,-9.998827 5.5475479,-7.4403377 2.516113,3.2918327 3.883669,12.7617327 3.883669,12.7617327 l 2.022882,12.314096 c 0,0 2.295434,-23.7227659 5.883874,-28.6549741 3.58844,-4.93220825 4.010156,-3.93875432 6.390154,-3.6194757 2.379998,0.3192786 3.338163,1.4602563 5.011531,4.9782568 1.673368,3.5180005 1.61602,16.230066 1.61602,16.230066 0,0 2.809942,-11.728991 5.812665,-15.2825119 3.002723,-3.553521 3.685042,-7.07057366 6.01875,-6.60161679 2.333708,0.46895689 1.862825,-0.52472527 4.026471,3.78971359 2.163646,4.3144389 2.665175,23.2779111 2.665175,23.2779111 0,0 2.527527,-15.728075 7.566924,-19.8312488 5.039397,-4.1031741 7.870701,-7.20624542 11.170169,-6.0081147 3.299468,1.1981307 3.531564,0.5479948 6.210752,5.4664559 2.679188,4.9184616 3.748146,25.0523656 3.748146,25.0523656 0,0 3.272142,-15.951745 6.828686,-20.862859 3.556544,-4.9111138 3.935969,-9.3594794 6.961164,-10.2402748 3.025195,-0.88079539 7.00338,-1.92932423 9.46031,-0.36529967 2.45693,1.56402457 1.59446,1.63502937 3.1068,7.38038707 1.51234,5.7453574 3.20822,27.4519374 3.20822,27.4519374 L 117.75628,5.6101395 126.6388,2.8126822 132.23109,7.4449786 132.29167,0 H 0 Z"
       id="path8145"
       sodipodi:nodetypes="csscczzzczzzczzzczzzzccccccc" />
    <path
       style="fill:#4d4d4d;fill-opacity:1;stroke:none;stroke-width:0.264583px;stroke-linecap:butt;stroke-linejoin:miter;stroke-opacity:1"
       d="m 131.77571,51.787794 -4.41836,14.776372 -6.52577,9.95473 -3.08956,-15.861583 -1.04806,-24.144796 -6.85869,40.485674 -6.39016,3.619476 c 0,0 -1.02888,0.0232 -2.70225,-3.494798 C 99.069497,73.604868 96.817562,59.409344 96.817562,59.409344 L 93.182431,78.222391 84.986147,81.293473 80.959676,77.503759 78.294501,54.225848 72.34122,79.744266 59.557408,80.065211 53.346656,74.598756 49.59851,49.54639 c 0,0 -5.618757,20.891681 -8.624227,25.815169 -3.00547,4.923488 -5.165623,5.287965 -5.165623,5.287965 L 26.34835,81.014823 23.24155,73.634436 20.03333,46.182499 14.53539,76.271685 5.65287,79.069143 0.06058,74.436846 0,81.881825 h 132.29167 z"
       id="path8811"
       sodipodi:nodetypes="ccccccczccccccccczcccccccccc" />
    <path
       style="fill:#666666;fill-opacity:1;stroke:none;stroke-width:0.264583px;stroke-linecap:butt;stroke-linejoin:miter;stroke-opacity:1"
       d="m 0.51596,51.787794 4.41836,14.776372 c 0,0 2.705417,9.558896 6.52577,9.95473 3.820353,0.395834 7.889081,-7.867776 7.889081,-7.867776 l 7.13777,-12.32543 c 0,0 0.770804,16.704735 2.453123,20.329954 1.682319,3.625219 1.072259,2.652384 2.384152,2.564944 1.311893,-0.08744 1.32673,-0.349743 2.533872,-3.581178 1.207142,-3.231435 1.61602,-16.230066 1.61602,-16.230066 0,0 2.827129,15.379201 5.829852,18.932722 3.002723,3.553521 3.667855,3.420364 6.001563,2.951407 2.333708,-0.468957 0.836173,1.391558 2.999819,-2.922881 2.163645,-4.314439 3.691827,-24.144744 3.691827,-24.144744 0,0 3.397041,19.701246 8.436438,23.80442 5.039398,4.103173 7.001187,3.233074 10.300655,2.034943 3.299468,-1.198131 6.210752,-5.466455 6.210752,-5.466455 L 82.69316,49.54639 c 0,0 2.081263,21.43696 5.637807,26.348074 3.556544,4.911114 5.126848,3.874265 8.152043,4.75506 3.025195,0.880795 7.00338,1.929324 9.46031,0.365299 2.45693,-1.564025 1.59446,-1.635029 3.1068,-7.380387 1.51234,-5.745358 3.20822,-27.451937 3.20822,-27.451937 l 5.49794,30.089186 8.88252,2.797458 5.59229,-4.632297 0.0606,7.444979 H 0 Z"
       id="path8813"
       sodipodi:nodetypes="cczcczzzczzzczzcczzzzccccccc" />
  </g>
</svg>
