<?xml version="1.0" encoding="UTF-8" standalone="no"?>
<!-- Created with Inkscape (http://www.inkscape.org/) -->

<svg
   width="64"
   height="128"
   viewBox="0 0 16.933333 33.866668"
   version="1.1"
   id="svg12297"
   inkscape:version="1.1.1 (3bf5ae0d25, 2021-09-20)"
   sodipodi:docname="crocodile.svg"
   inkscape:export-filename="/home/israel/programming/rs/rust_hero/assets/enemies/crocodile.png"
   inkscape:export-xdpi="96"
   inkscape:export-ydpi="96"
   xmlns:inkscape="http://www.inkscape.org/namespaces/inkscape"
   xmlns:sodipodi="http://sodipodi.sourceforge.net/DTD/sodipodi-0.dtd"
   xmlns="http://www.w3.org/2000/svg"
   xmlns:svg="http://www.w3.org/2000/svg">
  <sodipodi:namedview
     id="namedview12299"
     pagecolor="#ffffff"
     bordercolor="#666666"
     borderopacity="1.0"
     inkscape:pageshadow="2"
     inkscape:pageopacity="0.0"
     inkscape:pagecheckerboard="0"
     inkscape:document-units="px"
     showgrid="false"
     units="px"
     width="64px"
     inkscape:zoom="4.50185"
     inkscape:cx="32.431112"
     inkscape:cy="69.860169"
     inkscape:window-width="1366"
     inkscape:window-height="699"
     inkscape:window-x="0"
     inkscape:window-y="40"
     inkscape:window-maximized="1"
     inkscape:current-layer="layer1"
     inkscape:snap-global="false"
     showguides="true" />
  <defs
     id="defs12294" />
  <g
     inkscape:label="Layer 1"
     inkscape:groupmode="layer"
     id="layer1">
    <g
       id="g81489">
      <path
         style="fill:#1d410d;fill-opacity:1;stroke:none;stroke-width:0.264583px;stroke-linecap:butt;stroke-linejoin:miter;stroke-opacity:1"
         d="m 10.02783,31.996307 1.926318,-3.383532 c 0,0 3.218752,-3.338062 3.972265,-5.458417 0.974122,-2.74114 1.287037,-5.922814 0.46936,-8.714617 C 15.894622,12.728657 14.893264,10.839784 13.272054,10.097734 9.9101729,8.5589552 5.0189892,8.6598158 2.2236933,11.079817 c -2.14794998,1.859568 -1.96242766,8.294215 -1.96242766,8.294215 0,0 0.79366046,-2.805515 1.88051086,-3.625234 2.218824,-1.67347 5.5008287,-2.427621 8.1710815,-1.657276 0.922483,0.266128 1.814706,1.066608 2.084101,1.988142 0.346963,1.186875 -0.17672,2.587715 -0.882302,3.6032 -1.14303,1.645069 -4.9719185,3.375641 -4.9719185,3.375641 z"
         id="path77422"
         sodipodi:nodetypes="ccaaaacaaaacc" />
    </g>
    <g
       id="g81486">
      <path
         style="fill:#206b00;stroke:none;stroke-width:0.264583px;stroke-linecap:butt;stroke-linejoin:miter;stroke-opacity:1"
         d="m 2.8605274,28.394023 c 0,0 -0.9106895,1.323359 -1.1271616,2.082385 -0.149303,0.523508 -0.097142,1.630254 -0.097142,1.630254 l -1.03773581,1.062704 c 0,0 1.42461321,0.404614 2.10382831,0.21585 C 3.9673391,33.033647 3.6928112,31.8295 3.6928112,31.8295 l 0.5625402,-1.923272 c 0,0 -0.018095,1.35584 0.4126981,1.791817 0.7564448,0.765548 2.061509,0.736118 3.1374221,0.762254 0.8450876,0.02053 1.8440544,0.06636 2.4904864,-0.478359 0.478884,-0.403535 0.785389,-2.143583 0.662046,-1.758188 -0.123343,0.385397 0.09849,2.17052 0.09849,2.17052 0,0 0.802388,0.566049 1.270769,0.647325 0.74584,0.129422 2.25252,-0.28878 2.25252,-0.28878 l -1.868818,-1.029368 c 0,0 0.641655,-1.426722 0.441417,-2.120325 -0.201309,-0.69731 -1.511597,-1.567156 -1.511597,-1.567156 0,0 -0.548328,-1.622264 -0.642232,-2.466706 -0.279997,-2.517904 -0.05225,-5.081037 0.252362,-7.596082 0.138992,-1.147609 0.715621,-3.393347 0.715621,-3.393347 0,0 2.127371,-1.219522 2.822708,-2.185087 0.563743,-0.78283 0.963373,-1.767415 0.95471,-2.7320674 -0.0095,-1.0566721 -1.099359,-2.9734194 -1.099359,-2.9734194 0,0 -1.070417,-0.6263137 -1.448045,-0.3085737 -1.112441,0.9360203 0.861197,3.0813513 0.166278,4.3583585 -0.51745,0.950883 -1.746823,1.377577 -2.792318,1.658421 -1.745443,0.468866 -5.4216274,-0.06009 -5.4216274,-0.06009 0,0 -2.1555798,-1.294807 -2.4748374,-2.3983039 C 2.3257365,8.7351666 4.479792,7.1362908 3.5599157,6.285101 2.8688507,5.6456374 0.87462838,7.1612246 0.87462838,7.1612246 c 0,0 -0.43737934,3.0906154 0.12733812,4.4701664 0.5294631,1.293428 2.8536803,3.071823 2.8536803,3.071823 0,0 -0.7198096,3.995211 -0.8820915,6.015221 -0.2049071,2.550589 -0.1130279,7.675588 -0.1130279,7.675588 z"
         id="path71435"
         sodipodi:nodetypes="caccsccaaascaccacaacaacaaacaacacac" />
      <path
         style="fill:#f9c440;stroke:none;stroke-width:0.264583px;stroke-linecap:butt;stroke-linejoin:miter;stroke-opacity:1"
         d="m 5.2329214,13.732126 5.1104026,-1.147497 c 0,0 -0.4633896,6.99255 -0.4830985,10.494299 -0.016862,2.995851 0.3122185,8.982272 0.3122185,8.982272 0,0 0.04601,0.850614 -2.6704167,0.831146 -2.8068597,-0.02012 -2.6787803,-1.055059 -2.6787803,-1.055059 0,0 -0.3318288,-5.307383 -0.4078347,-7.964661 -0.064335,-2.249247 -0.3122092,-4.516652 -0.040701,-6.750379 0.1406533,-1.15717 0.8582097,-3.390119 0.8582097,-3.390119 z"
         id="path73581"
         sodipodi:nodetypes="ccacscaacc" />
      <g
         id="g77357">
        <path
           style="fill:#7a0000;stroke:none;stroke-width:0.264583px;stroke-linecap:butt;stroke-linejoin:miter;stroke-opacity:1"
           d="M 1.2557253,7.782878 1.8659898,6.2491585 c 0,0 1.8993241,-1.6961221 1.8042839,-1.5824616 C 3.5752337,4.7803577 1.2557253,7.782878 1.2557253,7.782878 Z"
           id="path77199" />
        <path
           style="fill:#7a0000;stroke:none;stroke-width:0.264583px;stroke-linecap:butt;stroke-linejoin:miter;stroke-opacity:1"
           d="M 1.8115746,7.8648606 2.4218391,6.3311411 c 0,0 1.8993241,-1.6961221 1.8042839,-1.5824616 -0.09504,0.1136608 -2.4145484,3.1161811 -2.4145484,3.1161811 z"
           id="path77347" />
        <path
           style="fill:#7a0000;stroke:none;stroke-width:0.264583px;stroke-linecap:butt;stroke-linejoin:miter;stroke-opacity:1"
           d="M 2.2346247,8.1456753 2.8448892,6.6119558 c 0,0 1.8993241,-1.6961221 1.8042839,-1.5824616 -0.09504,0.1136608 -2.4145484,3.1161811 -2.4145484,3.1161811 z"
           id="path77349" />
        <path
           style="fill:#7a0000;stroke:none;stroke-width:0.264583px;stroke-linecap:butt;stroke-linejoin:miter;stroke-opacity:1"
           d="M 2.6699681,8.4146796 3.2802326,6.8809601 c 0,0 1.8993241,-1.6961221 1.8042839,-1.5824616 -0.09504,0.1136608 -2.4145484,3.1161811 -2.4145484,3.1161811 z"
           id="path77351" />
      </g>
      <g
         id="g77367"
         transform="matrix(-1,0,0,1,16.468407,-0.07165236)">
        <path
           style="fill:#7a0000;stroke:none;stroke-width:0.264583px;stroke-linecap:butt;stroke-linejoin:miter;stroke-opacity:1"
           d="M 1.2557253,7.782878 1.8659898,6.2491585 c 0,0 1.8993241,-1.6961221 1.8042839,-1.5824616 C 3.5752337,4.7803577 1.2557253,7.782878 1.2557253,7.782878 Z"
           id="path77359" />
        <path
           style="fill:#7a0000;stroke:none;stroke-width:0.264583px;stroke-linecap:butt;stroke-linejoin:miter;stroke-opacity:1"
           d="M 1.8115746,7.8648606 2.4218391,6.3311411 c 0,0 1.8993241,-1.6961221 1.8042839,-1.5824616 -0.09504,0.1136608 -2.4145484,3.1161811 -2.4145484,3.1161811 z"
           id="path77361" />
        <path
           style="fill:#7a0000;stroke:none;stroke-width:0.264583px;stroke-linecap:butt;stroke-linejoin:miter;stroke-opacity:1"
           d="M 2.2346247,8.1456753 2.8448892,6.6119558 c 0,0 1.8993241,-1.6961221 1.8042839,-1.5824616 -0.09504,0.1136608 -2.4145484,3.1161811 -2.4145484,3.1161811 z"
           id="path77363" />
        <path
           style="fill:#7a0000;stroke:none;stroke-width:0.264583px;stroke-linecap:butt;stroke-linejoin:miter;stroke-opacity:1"
           d="M 2.6699681,8.4146796 3.2802326,6.8809601 c 0,0 1.8993241,-1.6961221 1.8042839,-1.5824616 -0.09504,0.1136608 -2.4145484,3.1161811 -2.4145484,3.1161811 z"
           id="path77365" />
      </g>
      <g
         id="g77377"
         transform="matrix(-0.00373749,0.43787,0.43787,0.00373749,-1.6192163,31.551676)"
         inkscape:transform-center-x="0.71372713"
         inkscape:transform-center-y="0.71910458">
        <path
           style="fill:#7a0000;stroke:none;stroke-width:0.264583px;stroke-linecap:butt;stroke-linejoin:miter;stroke-opacity:1"
           d="M 1.2557253,7.782878 1.8659898,6.2491585 c 0,0 1.8993241,-1.6961221 1.8042839,-1.5824616 C 3.5752337,4.7803577 1.2557253,7.782878 1.2557253,7.782878 Z"
           id="path77369" />
        <path
           style="fill:#7a0000;stroke:none;stroke-width:0.264583px;stroke-linecap:butt;stroke-linejoin:miter;stroke-opacity:1"
           d="M 1.8115746,7.8648606 2.4218391,6.3311411 c 0,0 1.8993241,-1.6961221 1.8042839,-1.5824616 -0.09504,0.1136608 -2.4145484,3.1161811 -2.4145484,3.1161811 z"
           id="path77371" />
        <path
           style="fill:#7a0000;stroke:none;stroke-width:0.264583px;stroke-linecap:butt;stroke-linejoin:miter;stroke-opacity:1"
           d="M 2.2346247,8.1456753 2.8448892,6.6119558 c 0,0 1.8993241,-1.6961221 1.8042839,-1.5824616 -0.09504,0.1136608 -2.4145484,3.1161811 -2.4145484,3.1161811 z"
           id="path77373" />
        <path
           style="fill:#7a0000;stroke:none;stroke-width:0.264583px;stroke-linecap:butt;stroke-linejoin:miter;stroke-opacity:1"
           d="M 2.6699681,8.4146796 3.2802326,6.8809601 c 0,0 1.8993241,-1.6961221 1.8042839,-1.5824616 -0.09504,0.1136608 -2.4145484,3.1161811 -2.4145484,3.1161811 z"
           id="path77375" />
      </g>
      <g
         id="g77387"
         transform="matrix(0.00373749,0.43787,-0.43787,0.00373749,16.693137,31.396082)"
         inkscape:transform-center-x="-0.71372711"
         inkscape:transform-center-y="0.71910458">
        <path
           style="fill:#7a0000;stroke:none;stroke-width:0.264583px;stroke-linecap:butt;stroke-linejoin:miter;stroke-opacity:1"
           d="M 1.2557253,7.782878 1.8659898,6.2491585 c 0,0 1.8993241,-1.6961221 1.8042839,-1.5824616 C 3.5752337,4.7803577 1.2557253,7.782878 1.2557253,7.782878 Z"
           id="path77379" />
        <path
           style="fill:#7a0000;stroke:none;stroke-width:0.264583px;stroke-linecap:butt;stroke-linejoin:miter;stroke-opacity:1"
           d="M 1.8115746,7.8648606 2.4218391,6.3311411 c 0,0 1.8993241,-1.6961221 1.8042839,-1.5824616 -0.09504,0.1136608 -2.4145484,3.1161811 -2.4145484,3.1161811 z"
           id="path77381" />
        <path
           style="fill:#7a0000;stroke:none;stroke-width:0.264583px;stroke-linecap:butt;stroke-linejoin:miter;stroke-opacity:1"
           d="M 2.2346247,8.1456753 2.8448892,6.6119558 c 0,0 1.8993241,-1.6961221 1.8042839,-1.5824616 -0.09504,0.1136608 -2.4145484,3.1161811 -2.4145484,3.1161811 z"
           id="path77383" />
        <path
           style="fill:#7a0000;stroke:none;stroke-width:0.264583px;stroke-linecap:butt;stroke-linejoin:miter;stroke-opacity:1"
           d="M 2.6699681,8.4146796 3.2802326,6.8809601 c 0,0 1.8993241,-1.6961221 1.8042839,-1.5824616 -0.09504,0.1136608 -2.4145484,3.1161811 -2.4145484,3.1161811 z"
           id="path77385" />
      </g>
    </g>
    <g
       id="g81435">
      <path
         style="fill:#7a0000;stroke:none;stroke-width:0.264583px;stroke-linecap:butt;stroke-linejoin:miter;stroke-opacity:1"
         d="m 5.1708065,9.8730223 5.2421855,0.120782 c 0,0 -0.6473374,3.9882947 -1.2625933,5.7461147 C 8.9752739,16.24026 8.6648986,17.224678 8.0351952,17.549473 7.5119233,17.819372 6.7427618,17.787395 6.2727185,17.432827 5.5402683,16.880318 5.5164135,15.743036 5.3435468,14.842 5.0312783,13.214358 5.1708068,9.8730223 5.1708065,9.8730223 Z"
         id="path74467"
         sodipodi:nodetypes="ccsaaac" />
      <path
         style="fill:#fff394;stroke:none;stroke-width:0.264583px;stroke-linecap:butt;stroke-linejoin:miter;stroke-opacity:1"
         d="m 5.5744032,17.16394 0.3296828,-1.440674 0.2668537,1.66788 c 0,0 0.675209,-1.791611 0.661334,-1.671262 -0.013875,0.120349 0.433869,1.811819 0.433869,1.811819 l 0.857906,-1.80574 0.226201,1.519691 0.5324909,-1.875371 0.1355056,1.871886 L 8.555977,17.62159 6.8177732,18.051684 5.5058613,17.722706 Z"
         id="path75019" />
      <path
         style="fill:#183b09;fill-opacity:1;stroke:none;stroke-width:0.264583px;stroke-linecap:butt;stroke-linejoin:miter;stroke-opacity:1"
         d="m 5.5505912,17.307981 c 0,0 0.8879515,0.521817 1.3845512,0.565221 0.4838216,0.04229 1.0163152,-0.04438 1.4240031,-0.308316 0.2952609,-0.191151 0.6258674,-0.849558 0.6258674,-0.849558 l -0.056279,-0.548546 0.7932749,-3.446668 0.4644472,0.361448 -0.912598,4.311215 -0.54889,1.005967 -3.0809124,0.132563 -0.4147415,-0.997687 -0.2797631,-5.133619 0.2703857,0.395697 0.4889201,3.774623 z"
         id="path75258"
         sodipodi:nodetypes="caacccccccccccc" />
      <path
         style="fill:#3a9104;fill-opacity:1;stroke:none;stroke-width:0.264583px;stroke-linecap:butt;stroke-linejoin:miter;stroke-opacity:1"
         d="m 5.1817753,17.508459 c 0,0 1.1825241,0.632816 1.8320388,0.676467 0.5320947,0.03576 1.0668529,-0.149041 1.5614968,-0.348367 0.2428857,-0.09787 0.6711207,-0.408356 0.6711207,-0.408356 0,0 -0.094302,0.872646 -0.4149657,1.095453 -0.8706412,0.60495 -2.2875975,0.590076 -3.1804847,0.01847 C 5.3322984,18.338113 5.1817753,17.508459 5.1817753,17.508459 Z"
         id="path75976"
         sodipodi:nodetypes="caacaac" />
    </g>
    <g
       id="g81462">
      <path
         style="fill:#fff394;stroke:none;stroke-width:0.264583px;stroke-linecap:butt;stroke-linejoin:miter;stroke-opacity:1"
         d="m 3.7736733,9.6502868 c 0.00755,0.1873501 0.290131,2.2330602 0.290131,2.2330602 l 0.169567,-0.848966 0.2444983,2.223097 0.2556311,-1.331166 0.2739213,2.462547 0.2491015,-1.286984 0.253274,2.070018 0.3168708,-1.468629 0.2813024,1.589218 0.4089421,-1.562535 0.1690294,1.701393 0.6206672,-1.701557 0.4398942,1.912092 0.4049916,-1.955157 0.4648515,1.719139 0.1847424,-1.413748 c 0,0 0.5567633,1.546741 0.5550257,1.461494 -0.00175,-0.08525 0.3722132,-2.396057 0.3594622,-2.247209 -0.01275,0.148849 0.440403,1.369274 0.440403,1.369274 l 0.201434,-1.969903 0.385041,1.309432 0.236809,-2.015279 0.372272,1.038308 0.476498,-2.855278 z"
         id="path73400" />
      <path
         style="fill:#3a9104;stroke:none;stroke-width:0.264583px;stroke-linecap:butt;stroke-linejoin:miter;stroke-opacity:1"
         d="m 5.0323595,6.3071078 c 0,0 0.5270092,-1.2890934 1.1073191,-1.3602288 0.4976203,-0.060999 1.2031486,0.9025271 1.2031486,0.9025271 l 2.2835839,0.00206 c 0,0 0.6094029,-0.9145513 1.0463769,-0.8297017 0.494096,0.095941 0.746085,1.3127748 0.746085,1.3127748 0,0 0.79213,0.3936695 0.943548,0.7704227 0.350434,0.8719395 -0.01628,1.9169968 -0.342456,2.7982976 -0.552566,1.4929795 -2.6458913,3.9759415 -2.6458913,3.9759415 l -3.8394971,-0.0053 c 0,0 -1.5712172,-2.853183 -1.8095144,-4.4305636 C 3.6046284,8.6461256 3.5253211,7.7269549 3.9373115,7.0339235 4.161181,6.6573404 5.0323595,6.3071078 5.0323595,6.3071078 Z"
         id="path72624"
         sodipodi:nodetypes="caccacaaccaac" />
      <ellipse
         style="opacity:1;fill:#000000;fill-opacity:1;stroke:none;stroke-width:3.175;stroke-linecap:round;stroke-linejoin:round;paint-order:fill markers stroke"
         id="path73103"
         cx="0.8650859"
         cy="13.827465"
         rx="0.19875148"
         ry="0.78005856"
         transform="rotate(-21.378743)" />
      <ellipse
         style="opacity:1;fill:#000000;fill-opacity:1;stroke:none;stroke-width:3.175;stroke-linecap:round;stroke-linejoin:round;paint-order:fill markers stroke"
         id="ellipse73361"
         cx="-12.947428"
         cy="8.5221033"
         rx="0.19875148"
         ry="0.78005856"
         transform="matrix(-0.93119112,-0.36453133,-0.36453133,0.93119112,0,0)" />
      <g
         id="g81446">
        <rect
           style="opacity:1;fill:#1d410d;fill-opacity:1;stroke:none;stroke-width:3.175;stroke-linecap:round;stroke-linejoin:round;paint-order:fill markers stroke"
           id="rect77851"
           width="2.3620212"
           height="0.4859356"
           x="7.3060532"
           y="5.8741875"
           rx="0.42542091"
           ry="0.4859356" />
        <rect
           style="opacity:1;fill:#1d410d;fill-opacity:1;stroke:none;stroke-width:3.175;stroke-linecap:round;stroke-linejoin:round;paint-order:fill markers stroke"
           id="rect77933"
           width="2.3620212"
           height="0.4859356"
           x="7.2625241"
           y="6.4866223"
           rx="0.42542091"
           ry="0.4859356" />
        <rect
           style="opacity:1;fill:#1d410d;fill-opacity:1;stroke:none;stroke-width:3.175;stroke-linecap:round;stroke-linejoin:round;paint-order:fill markers stroke"
           id="rect77935"
           width="2.3620212"
           height="0.4859356"
           x="6.671442"
           y="9.7353783"
           rx="0.42542091"
           ry="0.4859356" />
        <rect
           style="opacity:1;fill:#1d410d;fill-opacity:1;stroke:none;stroke-width:3.175;stroke-linecap:round;stroke-linejoin:round;paint-order:fill markers stroke"
           id="rect77937"
           width="2.3620212"
           height="0.4859356"
           x="6.5007992"
           y="10.351992"
           rx="0.42542091"
           ry="0.4859356" />
        <rect
           style="opacity:1;fill:#1d410d;fill-opacity:1;stroke:none;stroke-width:3.175;stroke-linecap:round;stroke-linejoin:round;paint-order:fill markers stroke"
           id="rect77939"
           width="2.3620212"
           height="0.4859356"
           x="6.3787179"
           y="10.99965"
           rx="0.42542091"
           ry="0.4859356" />
        <rect
           style="opacity:1;fill:#1d410d;fill-opacity:1;stroke:none;stroke-width:3.175;stroke-linecap:round;stroke-linejoin:round;paint-order:fill markers stroke"
           id="rect81423"
           width="2.3620212"
           height="0.4859356"
           x="6.8065691"
           y="9.0871582"
           rx="0.42542091"
           ry="0.4859356" />
        <rect
           style="opacity:1;fill:#1d410d;fill-opacity:1;stroke:none;stroke-width:3.175;stroke-linecap:round;stroke-linejoin:round;paint-order:fill markers stroke"
           id="rect81425"
           width="2.3620212"
           height="0.4859356"
           x="7.0119948"
           y="8.4453917"
           rx="0.42542091"
           ry="0.4859356" />
        <rect
           style="opacity:1;fill:#1d410d;fill-opacity:1;stroke:none;stroke-width:3.175;stroke-linecap:round;stroke-linejoin:round;paint-order:fill markers stroke"
           id="rect81427"
           width="2.3620212"
           height="0.4859356"
           x="7.0981441"
           y="7.7895823"
           rx="0.42542091"
           ry="0.4859356" />
        <rect
           style="opacity:1;fill:#1d410d;fill-opacity:1;stroke:none;stroke-width:3.175;stroke-linecap:round;stroke-linejoin:round;paint-order:fill markers stroke"
           id="rect81429"
           width="2.3620212"
           height="0.4859356"
           x="7.2057652"
           y="7.1529603"
           rx="0.42542091"
           ry="0.4859356" />
      </g>
    </g>
    <g
       id="g26211"
       transform="matrix(0.84340812,0.24659672,-0.24659672,0.84340812,3.2165672,-1.9549655)">
      <path
         id="ellipse73363"
         style="stroke-width:4.24002;stroke-linecap:round;stroke-linejoin:round;paint-order:fill markers stroke"
         transform="matrix(-0.93119112,-0.36453133,-0.36453133,0.93119112,0,0)"
         d="m -11.608728,2.3066736 c 0,0.5753257 -0.565247,1.103479 -0.711835,1.1034803 -0.146588,9e-7 -0.265421,-0.4663938 -0.265421,-1.0417211 0,-0.5753273 0.118833,-1.041722 0.265421,-1.0417211 0.146588,1.3e-6 0.711835,0.4046361 0.711835,0.9799619 z"
         sodipodi:nodetypes="sssss" />
      <g
         transform="matrix(6.9881222e-4,-9.0335983e-4,9.0335983e-4,6.9881222e-4,9.6609711,6.7713321)"
         id="g25992"
         inkscape:transform-center-x="-0.11550485"
         inkscape:transform-center-y="-0.0011614275">
	<g
   id="g25978">
		<path
   inkscape:connector-curvature="0"
   id="path25970"
   d="m 146.014,554.568 c 1.591,3.545 5.165,6.132 9.438,6.83 l 42.059,6.831 c 1.581,2.84 3.243,5.638 4.911,8.414 l -18.34,33.827 c -1.888,3.447 -1.577,7.5 0.781,10.702 2.349,3.221 6.4,5.152 10.76,5.091 l 42.82,-0.495 c 2.171,2.474 4.378,4.926 6.632,7.333 l -10.506,36.433 c -1.063,3.699 0.122,7.617 3.146,10.377 3.008,2.749 7.431,3.947 11.671,3.155 l 41.844,-7.838 c 2.662,2.061 5.372,4.098 8.109,6.094 l -2.189,37.566 c -0.23,3.802 1.81,7.46 5.388,9.639 3.576,2.194 8.159,2.604 12.14,1.1 l 39.174,-14.833 c 3.104,1.573 6.225,3.132 9.381,4.642 l 6.194,37.179 c 0.626,3.767 3.436,7.009 7.425,8.542 3.976,1.538 8.571,1.153 12.125,-1.009 l 35.074,-21.251 c 3.396,1.021 6.807,2.001 10.265,2.942 l 14.3,35.416 c 1.455,3.609 4.91,6.306 9.169,7.127 4.244,0.814 8.649,-0.345 11.652,-3.066 l 29.687,-26.946 c 3.522,0.409 7.048,0.789 10.584,1.114 l 21.947,32.409 c 2.226,3.281 6.218,5.33 10.565,5.413 4.334,0.083 8.41,-1.812 10.733,-5.008 l 23.126,-31.552 c 3.547,-0.188 7.099,-0.435 10.628,-0.709 l 28.682,28.058 c 2.905,2.835 7.279,4.161 11.538,3.509 4.282,-0.666 7.842,-3.222 9.418,-6.773 l 15.601,-34.846 c 3.479,-0.81 6.926,-1.668 10.365,-2.55 l 34.257,22.572 c 3.483,2.302 8.062,2.861 12.1,1.468 4.025,-1.379 6.964,-4.513 7.725,-8.252 l 7.556,-36.917 c 3.208,-1.389 6.385,-2.818 9.552,-4.281 l 38.6,16.313 c 3.92,1.661 8.535,1.422 12.17,-0.636 3.65,-2.042 5.828,-5.619 5.732,-9.426 l -0.802,-37.625 c 2.803,-1.892 5.578,-3.823 8.327,-5.78 l 41.521,9.426 c 4.218,0.946 8.677,-0.075 11.79,-2.709 3.135,-2.644 4.454,-6.513 3.53,-10.249 l -9.146,-36.808 c 2.32,-2.329 4.618,-4.687 6.875,-7.074 l 42.77,2.125 c 4.316,0.19 8.473,-1.549 10.943,-4.679 2.478,-3.11 2.918,-7.147 1.181,-10.665 l -17.104,-34.501 c 1.774,-2.712 3.535,-5.445 5.231,-8.222 l 42.278,-5.226 c 4.297,-0.526 7.954,-2.975 9.684,-6.465 1.72,-3.5 1.257,-7.533 -1.215,-10.677 L 921.479,528.24 c 0.203,-0.531 -1.999,-32.28 -21.526,-58.158 0,0 -0.169,-0.069 -0.475,-0.191 C 855.033,407.22 716.712,359.6 552.124,356.465 378.036,353.149 231.49,400.686 193.714,467.318 176.853,484.381 172.602,512.466 173.11,513.99 l -25.495,29.958 c -2.602,3.046 -3.19,7.059 -1.601,10.62 z"
   fill="#8f1f1d" />

		<path
   inkscape:connector-curvature="0"
   id="path25972"
   d="m 1006.008,420.45 c -1.728,-4.947 -19.723,-3.687 -24.194,-4.556 l -65.68,0.586 c -1.701,-3.954 -3.489,-7.85 -5.283,-11.713 l 42.551,-65.735 c 1.905,-4.904 12.443,-11.779 9.923,-16.227 -2.512,-4.469 -18.607,1.506 -23.153,1.708 l -67.827,12.061 c -2.313,-3.422 -4.662,-6.814 -7.059,-10.144 l 38.03,-84.758 c 1.039,-5.237 12.658,-26.514 9.45,-30.318 -3.189,-3.792 -18.273,9.018 -22.681,10.249 l -73.744,46.76 c -2.816,-2.829 -5.681,-5.624 -8.575,-8.362 l 20.894,-73.414 c 0.168,-5.358 11.334,-30.76 7.561,-33.733 -3.771,-2.993 -16.667,8.452 -20.79,10.675 l -65.16,50.814 c -3.268,-2.13 -6.552,-4.242 -9.872,-6.284 l 15.496,-86.805 c -0.726,-5.287 5.608,-32.964 1.417,-35.016 -4.174,-2.061 -26.104,22.056 -29.768,25.194 l -51.029,65.23 c -3.562,-1.346 -7.138,-2.635 -10.763,-3.867 L 660.92,74.281 c -1.585,-5.042 -1.212,-22.872 -5.67,-23.913 -4.442,-1.033 -10.15,14.875 -13.23,18.788 l -44.103,87.736 c -3.682,-0.482 -7.366,-0.922 -11.061,-1.283 L 564.527,54.643 C 562.143,50.081 559.614,35 555.078,35 c -4.522,0 -8.035,18.07 -10.396,22.631 l -27.077,97.982 c -3.695,0.361 -7.396,0.801 -11.07,1.283 L 468.137,67.88 c -3.084,-3.914 -8.33,-23.237 -12.758,-22.205 -4.455,1.053 -3.621,15.455 -5.197,20.497 l -11.499,106.627 c -3.614,1.232 -7.193,2.532 -10.764,3.867 l -34.912,-44.734 c -3.677,-3.148 -24.165,-34.096 -28.351,-32.026 -4.172,2.051 -1.167,34.426 -1.89,39.712 l 1.271,68.443 c -3.32,2.042 -6.606,4.14 -9.883,6.284 l -63.681,-59.354 c -4.12,-2.232 -12.786,-11.533 -16.538,-8.541 -3.769,2.974 -0.643,16.419 -0.472,21.778 l 23.196,91.775 c -2.887,2.738 -5.745,5.533 -8.575,8.362 l -69.905,-43.344 c -4.418,-1.22 -18.065,-11.905 -21.263,-8.113 -3.218,3.804 4.164,7.809 5.197,13.047 l 36.995,96.478 c -2.376,3.342 -4.729,6.721 -7.034,10.144 L 118.07,298.04 c -4.506,-0.151 -16.917,-6.178 -19.435,-1.708 -2.522,4.447 8.045,10.896 9.923,15.8 l 85.012,92.637 c -1.798,3.863 -3.583,7.759 -5.3,11.713 l -82.547,-9.979 c -4.47,0.857 -16.217,-1.544 -17.956,3.415 -1.728,4.972 9.648,11.415 12.286,15.774 l 61.741,66.493 c -0.201,0.755 2.702,45.391 23.563,81.296 0,0 0.177,0.092 0.499,0.258 47.554,87.035 192.733,150.364 364.46,150.364 181.639,0 333.578,-70.85 371.705,-165.663 17.261,-24.474 21.158,-64.123 20.598,-66.255 l 50.158,-54.084 c 2.656,-4.362 14.956,-12.68 13.231,-17.651 z"
   fill="#8f1f1d" />

		<path
   inkscape:connector-curvature="0"
   id="path25974"
   d="m 195.34,493.008 c 0,0 -94.761,13.599 -116.083,18.311 -21.321,4.711 -7.095,8.297 0,9.421 24.757,3.927 146.88,7.067 149.25,7.853 2.369,0.785 -33.167,-35.585 -33.167,-35.585 z"
   fill="#8f1f1d" />

		<path
   inkscape:connector-curvature="0"
   id="path25976"
   d="m 896.038,499.622 c 0,0 94.762,13.6 116.083,18.311 21.32,4.712 7.095,8.298 0,9.422 -24.758,3.927 -146.88,7.067 -149.249,7.853 -2.37,0.784 33.166,-35.586 33.166,-35.586 z"
   fill="#8f1f1d" />

	</g>

	<g
   transform="translate(-48,14)"
   id="g25984">
		<path
   inkscape:connector-curvature="0"
   id="path25980"
   d="m 467.982,486.018 c 0,0 -41.096,-44.997 -82.191,0 0,0 -32.292,60.001 0,89.998 0,0 52.837,41.999 82.191,0 0,0 35.226,-33.002 0,-89.998 z" />

		<path
   inkscape:connector-curvature="0"
   id="path25982"
   d="m 420.404,502.71 c 0,17.521 10.329,31.727 23.066,31.727 12.735,0 23.064,-14.205 23.064,-31.727 0,-17.522 -10.329,-31.728 -23.064,-31.728 -12.738,0 -23.066,14.206 -23.066,31.728 z"
   fill="#ffffff" />

	</g>

	<g
   transform="translate(-48,14)"
   id="g25990">
		<path
   inkscape:connector-curvature="0"
   id="path25986"
   d="m 698.226,469.498 c 0,0 -70.494,-31.212 -89.735,38.454 0,0 -20.153,81.201 57.891,85.784 -10e-4,0 99.518,-19.168 31.844,-124.238 z" />

		<path
   inkscape:connector-curvature="0"
   id="path25988"
   d="m 662.819,499.628 c 0,18.068 10.65,32.723 23.79,32.723 13.133,0 23.786,-14.654 23.786,-32.723 0,-18.072 -10.653,-32.723 -23.786,-32.723 -13.139,0 -23.79,14.651 -23.79,32.723 z"
   fill="#ffffff" />

	</g>

	
	
	
	
	
	
	
	
	
	
	
</g>
    </g>
    <g
       id="g26507"
       transform="matrix(-0.84340812,0.24659672,0.24659672,0.84340812,13.501109,-1.9549655)">
      <path
         id="path26481"
         style="stroke-width:4.24002;stroke-linecap:round;stroke-linejoin:round;paint-order:fill markers stroke"
         transform="matrix(-0.93119112,-0.36453133,-0.36453133,0.93119112,0,0)"
         d="m -11.608728,2.3066736 c 0,0.5753257 -0.565247,1.103479 -0.711835,1.1034803 -0.146588,9e-7 -0.265421,-0.4663938 -0.265421,-1.0417211 0,-0.5753273 0.118833,-1.041722 0.265421,-1.0417211 0.146588,1.3e-6 0.711835,0.4046361 0.711835,0.9799619 z"
         sodipodi:nodetypes="sssss" />
      <g
         transform="matrix(6.9881222e-4,-9.0335983e-4,9.0335983e-4,6.9881222e-4,9.6609711,6.7713321)"
         id="g26505"
         inkscape:transform-center-x="-0.11550485"
         inkscape:transform-center-y="-0.0011614275">
	<g
   id="g26491">
		<path
   inkscape:connector-curvature="0"
   id="path26483"
   d="m 146.014,554.568 c 1.591,3.545 5.165,6.132 9.438,6.83 l 42.059,6.831 c 1.581,2.84 3.243,5.638 4.911,8.414 l -18.34,33.827 c -1.888,3.447 -1.577,7.5 0.781,10.702 2.349,3.221 6.4,5.152 10.76,5.091 l 42.82,-0.495 c 2.171,2.474 4.378,4.926 6.632,7.333 l -10.506,36.433 c -1.063,3.699 0.122,7.617 3.146,10.377 3.008,2.749 7.431,3.947 11.671,3.155 l 41.844,-7.838 c 2.662,2.061 5.372,4.098 8.109,6.094 l -2.189,37.566 c -0.23,3.802 1.81,7.46 5.388,9.639 3.576,2.194 8.159,2.604 12.14,1.1 l 39.174,-14.833 c 3.104,1.573 6.225,3.132 9.381,4.642 l 6.194,37.179 c 0.626,3.767 3.436,7.009 7.425,8.542 3.976,1.538 8.571,1.153 12.125,-1.009 l 35.074,-21.251 c 3.396,1.021 6.807,2.001 10.265,2.942 l 14.3,35.416 c 1.455,3.609 4.91,6.306 9.169,7.127 4.244,0.814 8.649,-0.345 11.652,-3.066 l 29.687,-26.946 c 3.522,0.409 7.048,0.789 10.584,1.114 l 21.947,32.409 c 2.226,3.281 6.218,5.33 10.565,5.413 4.334,0.083 8.41,-1.812 10.733,-5.008 l 23.126,-31.552 c 3.547,-0.188 7.099,-0.435 10.628,-0.709 l 28.682,28.058 c 2.905,2.835 7.279,4.161 11.538,3.509 4.282,-0.666 7.842,-3.222 9.418,-6.773 l 15.601,-34.846 c 3.479,-0.81 6.926,-1.668 10.365,-2.55 l 34.257,22.572 c 3.483,2.302 8.062,2.861 12.1,1.468 4.025,-1.379 6.964,-4.513 7.725,-8.252 l 7.556,-36.917 c 3.208,-1.389 6.385,-2.818 9.552,-4.281 l 38.6,16.313 c 3.92,1.661 8.535,1.422 12.17,-0.636 3.65,-2.042 5.828,-5.619 5.732,-9.426 l -0.802,-37.625 c 2.803,-1.892 5.578,-3.823 8.327,-5.78 l 41.521,9.426 c 4.218,0.946 8.677,-0.075 11.79,-2.709 3.135,-2.644 4.454,-6.513 3.53,-10.249 l -9.146,-36.808 c 2.32,-2.329 4.618,-4.687 6.875,-7.074 l 42.77,2.125 c 4.316,0.19 8.473,-1.549 10.943,-4.679 2.478,-3.11 2.918,-7.147 1.181,-10.665 l -17.104,-34.501 c 1.774,-2.712 3.535,-5.445 5.231,-8.222 l 42.278,-5.226 c 4.297,-0.526 7.954,-2.975 9.684,-6.465 1.72,-3.5 1.257,-7.533 -1.215,-10.677 L 921.479,528.24 c 0.203,-0.531 -1.999,-32.28 -21.526,-58.158 0,0 -0.169,-0.069 -0.475,-0.191 C 855.033,407.22 716.712,359.6 552.124,356.465 378.036,353.149 231.49,400.686 193.714,467.318 176.853,484.381 172.602,512.466 173.11,513.99 l -25.495,29.958 c -2.602,3.046 -3.19,7.059 -1.601,10.62 z"
   fill="#8f1f1d" />

		<path
   inkscape:connector-curvature="0"
   id="path26485"
   d="m 1006.008,420.45 c -1.728,-4.947 -19.723,-3.687 -24.194,-4.556 l -65.68,0.586 c -1.701,-3.954 -3.489,-7.85 -5.283,-11.713 l 42.551,-65.735 c 1.905,-4.904 12.443,-11.779 9.923,-16.227 -2.512,-4.469 -18.607,1.506 -23.153,1.708 l -67.827,12.061 c -2.313,-3.422 -4.662,-6.814 -7.059,-10.144 l 38.03,-84.758 c 1.039,-5.237 12.658,-26.514 9.45,-30.318 -3.189,-3.792 -18.273,9.018 -22.681,10.249 l -73.744,46.76 c -2.816,-2.829 -5.681,-5.624 -8.575,-8.362 l 20.894,-73.414 c 0.168,-5.358 11.334,-30.76 7.561,-33.733 -3.771,-2.993 -16.667,8.452 -20.79,10.675 l -65.16,50.814 c -3.268,-2.13 -6.552,-4.242 -9.872,-6.284 l 15.496,-86.805 c -0.726,-5.287 5.608,-32.964 1.417,-35.016 -4.174,-2.061 -26.104,22.056 -29.768,25.194 l -51.029,65.23 c -3.562,-1.346 -7.138,-2.635 -10.763,-3.867 L 660.92,74.281 c -1.585,-5.042 -1.212,-22.872 -5.67,-23.913 -4.442,-1.033 -10.15,14.875 -13.23,18.788 l -44.103,87.736 c -3.682,-0.482 -7.366,-0.922 -11.061,-1.283 L 564.527,54.643 C 562.143,50.081 559.614,35 555.078,35 c -4.522,0 -8.035,18.07 -10.396,22.631 l -27.077,97.982 c -3.695,0.361 -7.396,0.801 -11.07,1.283 L 468.137,67.88 c -3.084,-3.914 -8.33,-23.237 -12.758,-22.205 -4.455,1.053 -3.621,15.455 -5.197,20.497 l -11.499,106.627 c -3.614,1.232 -7.193,2.532 -10.764,3.867 l -34.912,-44.734 c -3.677,-3.148 -24.165,-34.096 -28.351,-32.026 -4.172,2.051 -1.167,34.426 -1.89,39.712 l 1.271,68.443 c -3.32,2.042 -6.606,4.14 -9.883,6.284 l -63.681,-59.354 c -4.12,-2.232 -12.786,-11.533 -16.538,-8.541 -3.769,2.974 -0.643,16.419 -0.472,21.778 l 23.196,91.775 c -2.887,2.738 -5.745,5.533 -8.575,8.362 l -69.905,-43.344 c -4.418,-1.22 -18.065,-11.905 -21.263,-8.113 -3.218,3.804 4.164,7.809 5.197,13.047 l 36.995,96.478 c -2.376,3.342 -4.729,6.721 -7.034,10.144 L 118.07,298.04 c -4.506,-0.151 -16.917,-6.178 -19.435,-1.708 -2.522,4.447 8.045,10.896 9.923,15.8 l 85.012,92.637 c -1.798,3.863 -3.583,7.759 -5.3,11.713 l -82.547,-9.979 c -4.47,0.857 -16.217,-1.544 -17.956,3.415 -1.728,4.972 9.648,11.415 12.286,15.774 l 61.741,66.493 c -0.201,0.755 2.702,45.391 23.563,81.296 0,0 0.177,0.092 0.499,0.258 47.554,87.035 192.733,150.364 364.46,150.364 181.639,0 333.578,-70.85 371.705,-165.663 17.261,-24.474 21.158,-64.123 20.598,-66.255 l 50.158,-54.084 c 2.656,-4.362 14.956,-12.68 13.231,-17.651 z"
   fill="#8f1f1d" />

		<path
   inkscape:connector-curvature="0"
   id="path26487"
   d="m 195.34,493.008 c 0,0 -94.761,13.599 -116.083,18.311 -21.321,4.711 -7.095,8.297 0,9.421 24.757,3.927 146.88,7.067 149.25,7.853 2.369,0.785 -33.167,-35.585 -33.167,-35.585 z"
   fill="#8f1f1d" />

		<path
   inkscape:connector-curvature="0"
   id="path26489"
   d="m 896.038,499.622 c 0,0 94.762,13.6 116.083,18.311 21.32,4.712 7.095,8.298 0,9.422 -24.758,3.927 -146.88,7.067 -149.249,7.853 -2.37,0.784 33.166,-35.586 33.166,-35.586 z"
   fill="#8f1f1d" />

	</g>

	<g
   transform="translate(-48,14)"
   id="g26497">
		<path
   inkscape:connector-curvature="0"
   id="path26493"
   d="m 467.982,486.018 c 0,0 -41.096,-44.997 -82.191,0 0,0 -32.292,60.001 0,89.998 0,0 52.837,41.999 82.191,0 0,0 35.226,-33.002 0,-89.998 z" />

		<path
   inkscape:connector-curvature="0"
   id="path26495"
   d="m 420.404,502.71 c 0,17.521 10.329,31.727 23.066,31.727 12.735,0 23.064,-14.205 23.064,-31.727 0,-17.522 -10.329,-31.728 -23.064,-31.728 -12.738,0 -23.066,14.206 -23.066,31.728 z"
   fill="#ffffff" />

	</g>

	<g
   transform="translate(-48,14)"
   id="g26503">
		<path
   inkscape:connector-curvature="0"
   id="path26499"
   d="m 698.226,469.498 c 0,0 -70.494,-31.212 -89.735,38.454 0,0 -20.153,81.201 57.891,85.784 -10e-4,0 99.518,-19.168 31.844,-124.238 z" />

		<path
   inkscape:connector-curvature="0"
   id="path26501"
   d="m 662.819,499.628 c 0,18.068 10.65,32.723 23.79,32.723 13.133,0 23.786,-14.654 23.786,-32.723 0,-18.072 -10.653,-32.723 -23.786,-32.723 -13.139,0 -23.79,14.651 -23.79,32.723 z"
   fill="#ffffff" />

	</g>

	
	
	
	
	
	
	
	
	
	
	
</g>
    </g>
  </g>
</svg>
