<?xml version="1.0" encoding="UTF-8" standalone="no"?>
<!-- Created with Inkscape (http://www.inkscape.org/) -->

<svg
   width="64"
   height="128"
   viewBox="0 0 16.933333 33.866668"
   version="1.1"
   id="svg12297"
   inkscape:version="1.1.1 (3bf5ae0d25, 2021-09-20)"
   sodipodi:docname="rabbit_v2.svg"
   inkscape:export-filename="/home/israel/programming/rs/rust_hero/assets/enemies/rabbit.png"
   inkscape:export-xdpi="96"
   inkscape:export-ydpi="96"
   xmlns:inkscape="http://www.inkscape.org/namespaces/inkscape"
   xmlns:sodipodi="http://sodipodi.sourceforge.net/DTD/sodipodi-0.dtd"
   xmlns="http://www.w3.org/2000/svg"
   xmlns:svg="http://www.w3.org/2000/svg">
  <sodipodi:namedview
     id="namedview12299"
     pagecolor="#ffffff"
     bordercolor="#666666"
     borderopacity="1.0"
     inkscape:pageshadow="2"
     inkscape:pageopacity="0.0"
     inkscape:pagecheckerboard="0"
     inkscape:document-units="px"
     showgrid="false"
     units="px"
     width="64px"
     inkscape:zoom="13.89952"
     inkscape:cx="47.699489"
     inkscape:cy="80.470404"
     inkscape:window-width="1366"
     inkscape:window-height="699"
     inkscape:window-x="0"
     inkscape:window-y="40"
     inkscape:window-maximized="1"
     inkscape:current-layer="layer1"
     inkscape:snap-global="false" />
  <defs
     id="defs12294" />
  <g
     inkscape:label="Layer 1"
     inkscape:groupmode="layer"
     id="layer1">
    <path
       style="fill:#8a715e;fill-opacity:1;stroke:none;stroke-width:0.264583px;stroke-linecap:butt;stroke-linejoin:miter;stroke-opacity:1"
       d="M 6.7130138,21.551975 5.770289,21.985774 6.2931232,21.954604 5.1435935,22.911487 5.599382,22.724589 4.4882341,24.782338 4.8836065,24.39174 4.5040506,25.696065 4.2512409,25.552911 l 0.02979,0.195701 -0.2959738,0.03523 0.2992805,0.171679 -0.8156167,0.236434 0.3989194,0.09421 -1.4659782,1.829378 0.4242731,-0.160217 -0.5334751,2.05587 0.3113627,-0.248122 0.1906738,1.517681 0.049921,-0.377921 0.3075479,0.858949 0.046759,-0.204532 0.097177,0.38816 c 0,0 -1.0149835,-0.161916 -1.5079095,-0.06148 -0.38405,0.07825 -0.83886609,0.181842 -1.06244329,0.50376 -0.10177443,0.14654 -0.10643101,0.3654 -0.045992,0.533266 0.042783,0.118828 0.1568903,0.205998 0.2657116,0.270094 0.24641729,0.14514 0.54280749,0.194654 0.82663929,0.229678 0.8957238,0.110529 1.8054889,-0.01992 2.7066752,-0.06892 0.6613113,-0.03596 1.3934825,0.142533 1.9799944,-0.165086 0.076525,-0.04014 0.1527193,-0.114691 0.1645917,-0.200284 0.014466,-0.104291 -0.1265547,-0.289408 -0.1265547,-0.289408 0,0 0.085802,0.158888 0.1465802,0.13314 0.1110713,-0.04705 0.011568,-0.361697 0.011568,-0.361697 0,0 0.0539,0.369852 0.07216,0.287838 0.018262,-0.08201 0.2691964,-0.598998 0.2691964,-0.598998 l 0.5374563,0.402889 0.062236,-0.117237 0.5012746,0.292523 0.4127606,-0.223647 0.1838579,0.20106 0.3844382,-0.266538 -0.045364,0.267396 0.3386551,-0.386401 -0.00682,0.207654 0.4027448,-0.342484 0.116022,0.47835 0.07808,-0.289879 0.08342,0.48559 0.173224,-0.128427 -0.09459,0.23634 c 0,0 -0.02318,0.187886 0.02315,0.262527 0.165954,0.267392 1.819384,0.07831 2.728811,0.123093 0.839936,0.04136 1.678366,0.143105 2.519275,0.134464 0.257822,-0.0026 0.771398,-0.05709 0.771398,-0.05709 0,0 0.158103,-0.41446 0.12363,-0.623524 -0.03804,-0.230678 -0.154329,-0.479927 -0.350073,-0.607768 -0.617255,-0.40313 -2.032562,-0.240364 -2.19861,-0.240364 -0.166048,0 -0.353429,-0.02692 -0.353429,-0.02692 l 0.37716,-0.164922 -0.289948,0.0271 0.164772,-0.309662 -0.02229,0.200091 0.274929,-0.865851 -0.0015,0.260632 0.165271,-0.934751 0.06924,0.309205 -0.05025,-1.549605 0.121464,0.192795 -0.336874,-1.16906 0.124251,0.09306 -0.515086,-0.983002 0.128049,0.07078 -0.639615,-0.682656 0.237351,0.04127 -0.960819,-0.529495 0.132357,-0.115234 -0.117057,0.0057 0.06165,-0.09706 -0.122686,0.0427 -0.127428,-0.626255 c 0,0 0.204209,0.349431 0.204209,0.261477 0,-0.08795 -0.424362,-1.121168 -0.424362,-1.121168 l 0.207517,0.151275 -0.702338,-1.33147 0.309031,0.239521 -0.81777,-1.037389 0.201345,0.06517 -0.805062,-0.881171 -1.9063379,-0.169443 z"
       id="path3354"
       sodipodi:nodetypes="cccccccccccccccccccccccsssssssscscsccccccccccccccccssscssscccccccccccccccccccccccsccccccccc" />
    <path
       style="opacity:0.5;fill:#000000;fill-opacity:1;stroke:none;stroke-width:0.264583px;stroke-linecap:butt;stroke-linejoin:miter;stroke-opacity:1"
       d="m 10.422129,21.724348 0.391045,0.726679 -0.0044,0.920931 -0.29379,-0.343785 -0.263461,1.177146 -0.234162,-0.395078 -0.2855367,0.931089 -0.289386,-0.414817 c 0,0 -0.1940594,0.564608 -0.1997535,0.637976 -0.00569,0.07337 -0.3449531,-0.178407 -0.3449531,-0.178407 L 8.5510328,25.320286 8.2986762,24.799802 c 0,0 -0.3927391,0.586548 -0.3988309,0.513053 -0.00609,-0.0735 -0.2965229,-0.55243 -0.2965229,-0.55243 L 7.3657635,25.028121 6.8995383,23.891062 6.8685649,24.003613 6.2453103,23.031526 6.1798023,23.419629 6.158739,22.398798 6.3760877,21.999633 c 0.00385,-0.266834 0.00724,0.0184 0.00434,-0.267748 3.0109741,-0.990234 2.1121778,-0.100895 4.0416993,-0.0075 z"
       id="path4043"
       sodipodi:nodetypes="ccccccccccccsccccccccccc" />
    <path
       style="fill:#8a715e;fill-opacity:1;stroke:none;stroke-width:0.264583px;stroke-linecap:butt;stroke-linejoin:miter;stroke-opacity:1"
       d="m 6.9607591,15.840749 0.2713757,-0.411176 -0.095953,0.392966 0.6043261,-0.522468 -0.03256,0.191203 1.1325148,-0.660062 -0.2470983,0.536435 0.5434933,-0.352082 -0.020225,0.414029 0.099105,-0.176344 0.2466523,0.574548 0.059064,-0.201791 0.070098,0.157758 0.1058452,-1.5446 0.130129,-1.572838 0.04734,0.253075 0.3310307,-1.548235 0.0092,0.203267 0.622365,-1.237209 0.312374,-0.240725 0.297186,-0.1865304 -0.154909,0.2176294 0.215793,-0.08032 -0.11579,0.145641 0.234776,-0.05785 -0.01071,0.407888 0.0884,-0.15068 0.037,1.249239 0.0659,-0.145461 -0.04387,1.196692 0.04991,-0.29002 -0.157441,1.491073 0.09608,-0.134961 -0.490643,2.121843 0.145036,-0.253083 -0.684024,1.651668 0.234166,-0.05653 -0.150091,0.126114 0.224322,0.110838 -0.203851,0.06018 0.20308,0.284711 -0.20984,-0.08974 0.251743,1.31496 -0.0965,-0.07032 0.03845,1.210716 -0.06436,-0.08385 0.04852,1.12955 -0.184497,-0.406776 -0.0044,0.920931 -0.29379,-0.343785 -0.263461,1.177146 -0.234162,-0.395078 -0.2855367,0.931089 -0.289386,-0.414817 c 0,0 -0.1940594,0.564608 -0.1997535,0.637976 -0.00569,0.07337 -0.3449531,-0.178407 -0.3449531,-0.178407 L 8.5515308,23.678377 8.2991742,23.157893 c 0,0 -0.3927391,0.586548 -0.3988309,0.513053 -0.00609,-0.0735 -0.2965229,-0.55243 -0.2965229,-0.55243 l -0.2375589,0.267696 -0.4662252,-1.137059 -0.044964,0.513052 -0.609264,-1.372588 -0.065508,0.388103 -0.3331215,-1.37519 -0.1746221,0.486443 -0.00945,-1.458058 c 0,0 -0.08308,0.20998 -0.066645,0.153158 0.016436,-0.05682 0.1831716,-1.00957 0.1831716,-1.00957 l -0.1011153,0.178435 0.23462,-1.192704 -0.1100301,0.07915 0.086776,-0.215244 -0.2168573,-0.08538 0.2519535,-0.05997 -0.3664194,-0.283771 0.3011829,0.05173 -0.6607884,-1.543048 0.1751857,0.231707 -0.4789652,-2.148412 0.1408261,0.328117 -0.1552724,-2.153802 0.1088073,0.235161 0.026788,-1.079826 c 0,0 0.094378,0.311143 0.1048639,0.13291 0.010485,-0.178233 0.1160441,-0.897444 0.1160441,-0.897444 l 0.025908,0.260613 0.3396851,-0.4174881 0.1652616,0.3887691 0.030572,-0.225246 0.320104,0.762724 0.036596,-0.17232 0.2913899,0.984605 0.020817,-0.218245 0.3337229,1.699765 0.045844,-0.276591 0.1020939,1.469471 0.091644,-0.239871 z"
       id="path2287"
       sodipodi:nodetypes="ccccccccccccccccccccccccccccccccccccccccccccccccccccccccccscccccccccsccccccccccccccccscccccccccccccc" />
    <g
       id="g2235"
       transform="translate(-0.37068869,7.4318807)">
      <g
         id="g1974"
         transform="translate(-0.23634877,0.11020973)">
        <ellipse
           style="fill:#fafafa;stroke-width:0.0264583;stroke-linecap:round;stroke-linejoin:round;paint-order:fill markers stroke"
           id="path1440"
           cx="7.7310209"
           cy="11.350837"
           rx="0.95249885"
           ry="1.2488192" />
        <path
           id="path1442"
           style="stroke-width:0.0393533;stroke-linecap:round;stroke-linejoin:round;paint-order:fill markers stroke"
           d="m 7.7310212,10.859803 a 0.6244048,0.77750016 0 0 0 -0.6242516,0.777213 0.6244048,0.77750016 0 0 0 0.6242516,0.77773 0.6244048,0.77750016 0 0 0 0.624251,-0.77773 0.6244048,0.77750016 0 0 0 -0.624251,-0.777213 z m 0.012919,0.149344 a 0.18452166,0.17373888 0 0 1 0.1850014,0.173633 0.18452166,0.17373888 0 0 1 -0.1850014,0.17415 0.18452166,0.17373888 0 0 1 -0.184485,-0.17415 0.18452166,0.17373888 0 0 1 0.184485,-0.173633 z m -0.2263429,0.380856 a 0.05148752,0.05578993 0 0 1 0.05116,0.05581 0.05148752,0.05578993 0 0 1 -0.050126,0.05581 0.13948133,0.14472529 0 0 1 0.013953,0.06253 0.13948133,0.14472529 0 0 1 -0.1395264,0.144694 0.13948133,0.14472529 0 0 1 -0.1395265,-0.144694 0.13948133,0.14472529 0 0 1 0.1395265,-0.144694 0.13948133,0.14472529 0 0 1 0.072864,0.02119 0.05148752,0.05578993 0 0 1 0.051676,-0.05064 z m 0.4402831,0.157613 a 0.31785884,0.31298238 0 0 1 0.3178101,0.312642 0.31785884,0.31298238 0 0 1 -0.3178101,0.31316 0.31785884,0.31298238 0 0 1 -0.289388,-0.185002 0.10498924,0.1103487 0 0 1 -0.1012857,0.08165 0.10498924,0.1103487 0 0 1 -0.1054201,-0.110071 0.10498924,0.1103487 0 0 1 0.1054201,-0.110588 0.10498924,0.1103487 0 0 1 0.073897,0.03256 0.31785884,0.31298238 0 0 1 -0.00103,-0.0217 0.31785884,0.31298238 0 0 1 0.3178098,-0.312642 z" />
      </g>
      <g
         id="g1970"
         transform="translate(0.01287958,0.11020973)">
        <ellipse
           style="fill:#fafafa;stroke-width:0.0264583;stroke-linecap:round;stroke-linejoin:round;paint-order:fill markers stroke"
           id="ellipse1771"
           cx="9.9280767"
           cy="11.350837"
           rx="0.95249885"
           ry="1.2488192" />
        <path
           id="ellipse1773"
           style="stroke-width:0.148737;stroke-linecap:round;stroke-linejoin:round;paint-order:fill markers stroke"
           d="m 37.523438,41.044922 a 2.3599551,2.9385832 0 0 0 -2.359376,2.9375 2.3599551,2.9385832 0 0 0 2.359376,2.939453 2.3599551,2.9385832 0 0 0 2.359374,-2.939453 2.3599551,2.9385832 0 0 0 -2.359374,-2.9375 z m 0.15625,0.175781 a 0.87754137,0.52379698 0 0 1 0.878906,0.523438 0.87754137,0.52379698 0 0 1 -0.878906,0.523437 0.87754137,0.52379698 0 0 1 -0.876954,-0.523437 0.87754137,0.52379698 0 0 1 0.876954,-0.523438 z m -1.384766,1.162109 a 0.46188004,0.45662261 0 0 1 0.0332,0 0.46188004,0.45662261 0 0 1 0.462891,0.455079 0.46188004,0.45662261 0 0 1 -0.462891,0.457031 0.46188004,0.45662261 0 0 1 -0.460937,-0.457031 0.46188004,0.45662261 0 0 1 0.427734,-0.455079 z m 2.085937,0.572266 a 1.2013562,1.5273253 0 0 1 1.201172,1.527344 1.2013562,1.5273253 0 0 1 -1.201172,1.527344 1.2013562,1.5273253 0 0 1 -1.09375,-0.896485 0.61596242,0.63155815 0 0 1 -0.603515,0.50586 0.61596242,0.63155815 0 0 1 -0.615235,-0.63086 0.61596242,0.63155815 0 0 1 0.615235,-0.630859 0.61596242,0.63155815 0 0 1 0.501953,0.263672 1.2013562,1.5273253 0 0 1 -0.0059,-0.138672 1.2013562,1.5273253 0 0 1 1.201171,-1.527344 z"
           transform="scale(0.26458334)" />
      </g>
    </g>
    <g
       id="g3104"
       transform="translate(-0.37068869,6.902714)">
      <g
         id="g841"
         transform="matrix(0.00138833,0,0,0.00138833,7.9602182,13.644542)">
        <path
           inkscape:connector-curvature="0"
           id="path833"
           d="m 146.014,554.568 c 1.591,3.545 5.165,6.132 9.438,6.83 l 42.059,6.831 c 1.581,2.84 3.243,5.638 4.911,8.414 l -18.34,33.827 c -1.888,3.447 -1.577,7.5 0.781,10.702 2.349,3.221 6.4,5.152 10.76,5.091 l 42.82,-0.495 c 2.171,2.474 4.378,4.926 6.632,7.333 l -10.506,36.433 c -1.063,3.699 0.122,7.617 3.146,10.377 3.008,2.749 7.431,3.947 11.671,3.155 l 41.844,-7.838 c 2.662,2.061 5.372,4.098 8.109,6.094 l -2.189,37.566 c -0.23,3.802 1.81,7.46 5.388,9.639 3.576,2.194 8.159,2.604 12.14,1.1 l 39.174,-14.833 c 3.104,1.573 6.225,3.132 9.381,4.642 l 6.194,37.179 c 0.626,3.767 3.436,7.009 7.425,8.542 3.976,1.538 8.571,1.153 12.125,-1.009 l 35.074,-21.251 c 3.396,1.021 6.807,2.001 10.265,2.942 l 14.3,35.416 c 1.455,3.609 4.91,6.306 9.169,7.127 4.244,0.814 8.649,-0.345 11.652,-3.066 l 29.687,-26.946 c 3.522,0.409 7.048,0.789 10.584,1.114 l 21.947,32.409 c 2.226,3.281 6.218,5.33 10.565,5.413 4.334,0.083 8.41,-1.812 10.733,-5.008 l 23.126,-31.552 c 3.547,-0.188 7.099,-0.435 10.628,-0.709 l 28.682,28.058 c 2.905,2.835 7.279,4.161 11.538,3.509 4.282,-0.666 7.842,-3.222 9.418,-6.773 l 15.601,-34.846 c 3.479,-0.81 6.926,-1.668 10.365,-2.55 l 34.257,22.572 c 3.483,2.302 8.062,2.861 12.1,1.468 4.025,-1.379 6.964,-4.513 7.725,-8.252 l 7.556,-36.917 c 3.208,-1.389 6.385,-2.818 9.552,-4.281 l 38.6,16.313 c 3.92,1.661 8.535,1.422 12.17,-0.636 3.65,-2.042 5.828,-5.619 5.732,-9.426 l -0.802,-37.625 c 2.803,-1.892 5.578,-3.823 8.327,-5.78 l 41.521,9.426 c 4.218,0.946 8.677,-0.075 11.79,-2.709 3.135,-2.644 4.454,-6.513 3.53,-10.249 l -9.146,-36.808 c 2.32,-2.329 4.618,-4.687 6.875,-7.074 l 42.77,2.125 c 4.316,0.19 8.473,-1.549 10.943,-4.679 2.478,-3.11 2.918,-7.147 1.181,-10.665 l -17.104,-34.501 c 1.774,-2.712 3.535,-5.445 5.231,-8.222 l 42.278,-5.226 c 4.297,-0.526 7.954,-2.975 9.684,-6.465 1.72,-3.5 1.257,-7.533 -1.215,-10.677 L 921.479,528.24 c 0.203,-0.531 -1.999,-32.28 -21.526,-58.158 0,0 -0.169,-0.069 -0.475,-0.191 C 855.033,407.22 716.712,359.6 552.124,356.465 378.036,353.149 231.49,400.686 193.714,467.318 176.853,484.381 172.602,512.466 173.11,513.99 l -25.495,29.958 c -2.602,3.046 -3.19,7.059 -1.601,10.62 z"
           fill="#8f1f1d" />
        <path
           inkscape:connector-curvature="0"
           id="path835"
           d="m 1006.008,420.45 c -1.728,-4.947 -19.723,-3.687 -24.194,-4.556 l -65.68,0.586 c -1.701,-3.954 -3.489,-7.85 -5.283,-11.713 l 42.551,-65.735 c 1.905,-4.904 12.443,-11.779 9.923,-16.227 -2.512,-4.469 -18.607,1.506 -23.153,1.708 l -67.827,12.061 c -2.313,-3.422 -4.662,-6.814 -7.059,-10.144 l 38.03,-84.758 c 1.039,-5.237 12.658,-26.514 9.45,-30.318 -3.189,-3.792 -18.273,9.018 -22.681,10.249 l -73.744,46.76 c -2.816,-2.829 -5.681,-5.624 -8.575,-8.362 l 20.894,-73.414 c 0.168,-5.358 11.334,-30.76 7.561,-33.733 -3.771,-2.993 -16.667,8.452 -20.79,10.675 l -65.16,50.814 c -3.268,-2.13 -6.552,-4.242 -9.872,-6.284 l 15.496,-86.805 c -0.726,-5.287 5.608,-32.964 1.417,-35.016 -4.174,-2.061 -26.104,22.056 -29.768,25.194 l -51.029,65.23 c -3.562,-1.346 -7.138,-2.635 -10.763,-3.867 L 660.92,74.281 c -1.585,-5.042 -1.212,-22.872 -5.67,-23.913 -4.442,-1.033 -10.15,14.875 -13.23,18.788 l -44.103,87.736 c -3.682,-0.482 -7.366,-0.922 -11.061,-1.283 L 564.527,54.643 C 562.143,50.081 559.614,35 555.078,35 c -4.522,0 -8.035,18.07 -10.396,22.631 l -27.077,97.982 c -3.695,0.361 -7.396,0.801 -11.07,1.283 L 468.137,67.88 c -3.084,-3.914 -8.33,-23.237 -12.758,-22.205 -4.455,1.053 -3.621,15.455 -5.197,20.497 l -11.499,106.627 c -3.614,1.232 -7.193,2.532 -10.764,3.867 l -34.912,-44.734 c -3.677,-3.148 -24.165,-34.096 -28.351,-32.026 -4.172,2.051 -1.167,34.426 -1.89,39.712 l 1.271,68.443 c -3.32,2.042 -6.606,4.14 -9.883,6.284 l -63.681,-59.354 c -4.12,-2.232 -12.786,-11.533 -16.538,-8.541 -3.769,2.974 -0.643,16.419 -0.472,21.778 l 23.196,91.775 c -2.887,2.738 -5.745,5.533 -8.575,8.362 l -69.905,-43.344 c -4.418,-1.22 -18.065,-11.905 -21.263,-8.113 -3.218,3.804 4.164,7.809 5.197,13.047 l 36.995,96.478 c -2.376,3.342 -4.729,6.721 -7.034,10.144 L 118.07,298.04 c -4.506,-0.151 -16.917,-6.178 -19.435,-1.708 -2.522,4.447 8.045,10.896 9.923,15.8 l 85.012,92.637 c -1.798,3.863 -3.583,7.759 -5.3,11.713 l -82.547,-9.979 c -4.47,0.857 -16.217,-1.544 -17.956,3.415 -1.728,4.972 9.648,11.415 12.286,15.774 l 61.741,66.493 c -0.201,0.755 2.702,45.391 23.563,81.296 0,0 0.177,0.092 0.499,0.258 47.554,87.035 192.733,150.364 364.46,150.364 181.639,0 333.578,-70.85 371.705,-165.663 17.261,-24.474 21.158,-64.123 20.598,-66.255 l 50.158,-54.084 c 2.656,-4.362 14.956,-12.68 13.231,-17.651 z"
           fill="#8f1f1d" />
        <path
           inkscape:connector-curvature="0"
           id="path837"
           d="m 195.34,493.008 c 0,0 -94.761,13.599 -116.083,18.311 -21.321,4.711 -7.095,8.297 0,9.421 24.757,3.927 146.88,7.067 149.25,7.853 2.369,0.785 -33.167,-35.585 -33.167,-35.585 z"
           fill="#8f1f1d" />
        <path
           inkscape:connector-curvature="0"
           id="path839"
           d="m 896.038,499.622 c 0,0 94.762,13.6 116.083,18.311 21.32,4.712 7.095,8.298 0,9.422 -24.758,3.927 -146.88,7.067 -149.249,7.853 -2.37,0.784 33.166,-35.586 33.166,-35.586 z"
           fill="#8f1f1d" />
      </g>
      <g
         transform="matrix(0.00138833,0,0,0.00138833,7.8935784,13.663979)"
         id="g847">
        <path
           inkscape:connector-curvature="0"
           id="path843"
           d="m 467.982,486.018 c 0,0 -41.096,-44.997 -82.191,0 0,0 -32.292,60.001 0,89.998 0,0 52.837,41.999 82.191,0 0,0 35.226,-33.002 0,-89.998 z" />
        <path
           inkscape:connector-curvature="0"
           id="path845"
           d="m 420.404,502.71 c 0,17.521 10.329,31.727 23.066,31.727 12.735,0 23.064,-14.205 23.064,-31.727 0,-17.522 -10.329,-31.728 -23.064,-31.728 -12.738,0 -23.066,14.206 -23.066,31.728 z"
           fill="#ffffff" />
      </g>
      <g
         transform="matrix(0.00138833,0,0,0.00138833,7.8935784,13.663979)"
         id="g853">
        <path
           inkscape:connector-curvature="0"
           id="path849"
           d="m 698.226,469.498 c 0,0 -70.494,-31.212 -89.735,38.454 0,0 -20.153,81.201 57.891,85.784 -10e-4,0 99.518,-19.168 31.844,-124.238 z" />
        <path
           inkscape:connector-curvature="0"
           id="path851"
           d="m 662.819,499.628 c 0,18.068 10.65,32.723 23.79,32.723 13.133,0 23.786,-14.654 23.786,-32.723 0,-18.072 -10.653,-32.723 -23.786,-32.723 -13.139,0 -23.79,14.651 -23.79,32.723 z"
           fill="#ffffff" />
      </g>
    </g>
    <path
       style="fill:#a3907c;fill-opacity:1;stroke:none;stroke-width:0.264583px;stroke-linecap:butt;stroke-linejoin:miter;stroke-opacity:1"
       d="m 6.1737077,16.592247 c 0.031361,-0.249194 0.1165892,-0.928416 0.1165892,-0.928416 l 0.1294387,0.51732 0.010819,-0.745826 0.2371257,0.751866 -0.062598,-0.711232 0.2049071,0.631407 c 0,0 -0.101125,-0.976416 -0.1740281,-1.461617 C 6.4993317,13.73642 6.4103414,12.811325 6.1427184,11.931595 6.0399499,11.593775 6.0251882,11.137401 5.7196269,10.960437 c -0.082845,-0.04798 -0.2188435,-0.03721 -0.2854693,0.03154 -0.2108484,0.217564 -0.075333,0.603153 -0.071455,0.9061 0.012702,0.992338 0.1197343,1.987062 0.3099538,2.961082 0.1152629,0.590204 0.5010513,1.733085 0.5010513,1.733085 z"
       id="path2581"
       sodipodi:nodetypes="cccccccssssssc" />
    <path
       style="fill:#a3907c;fill-opacity:1;stroke:none;stroke-width:0.264583px;stroke-linecap:butt;stroke-linejoin:miter;stroke-opacity:1"
       d="m 9.8380263,16.179452 c 0.04991,-0.217449 0.1737227,-0.683665 0.1737227,-0.683665 0,0 0.08199,0.983866 0.09097,0.941062 0.009,-0.0428 0.242721,-0.862401 0.242721,-0.862401 l -0.0016,0.968628 0.324201,-0.837562 c 0,0 -0.03336,0.536341 -0.03518,0.590343 -0.0018,0.054 0.173588,-0.162301 0.173588,-0.162301 l -0.04547,0.394327 0.21079,-0.870639 c 0,0 0.292427,-2.291683 0.310454,-2.435575 0.01803,-0.143893 0.329758,-1.61164 -0.09175,-2.221055 -0.04725,-0.06831 -0.153006,-0.130252 -0.22931,-0.09746 -0.580106,0.249329 -0.48684,1.168164 -0.662102,1.774771 -0.164448,0.569178 -0.285426,1.152584 -0.3626027,1.739995 -0.07661,0.583081 -0.09843,1.761528 -0.09843,1.761528 z"
       id="path2763"
       sodipodi:nodetypes="ccccccccccsssssc" />
    <g
       id="g3110"
       transform="translate(-0.33091508,7.4318807)">
      <rect
         style="fill:#fafafa;stroke-width:0.0152956;stroke-linecap:round;stroke-linejoin:round;paint-order:fill markers stroke"
         id="rect2032"
         width="0.67710114"
         height="1.012439"
         x="7.9550018"
         y="14.307915"
         ry="0.11287174" />
      <rect
         style="fill:#fafafa;stroke-width:0.0152956;stroke-linecap:round;stroke-linejoin:round;paint-order:fill markers stroke"
         id="rect3106"
         width="0.67710114"
         height="1.012439"
         x="8.7161064"
         y="14.307915"
         ry="0.11287174" />
    </g>
    <path
       style="fill:#a3907c;fill-opacity:1;stroke:none;stroke-width:0.264583;stroke-linecap:butt;stroke-linejoin:miter;stroke-miterlimit:4;stroke-dasharray:none;stroke-opacity:1"
       d="m 6.5520902,25.745338 -0.071503,-0.904351 0.2000388,0.335017 0.042518,-1.10916 0.3731847,0.312176 0.3479327,-0.733186 0.3527898,0.630832 0.4650817,-0.297054 0.2474505,0.372515 0.4186315,-0.620982 0.2540397,0.478036 0.3651398,-0.339492 0.1750219,0.439031 0.3509967,-0.428222 0.378584,0.86873 0.202501,-0.288091 -0.172019,1.118293 0.412936,-0.277094 -0.05301,0.609715 0.172757,-0.08981 -0.516205,2.045501 0.255099,-0.212621 -0.233672,0.896375 0.08849,0.253483 -0.190388,0.0082 0.16099,0.727668 c 0,0 -0.262413,-0.191727 -0.267205,-0.101056 -0.0048,0.09067 -0.200204,1.764337 -0.200204,1.764337 l -0.1411107,-0.138831 -0.190437,1.078008 -0.0074,0.04589 -0.4045342,0.33695 0.00193,-0.200705 -0.3359923,0.388384 0.041288,-0.270203 L 8.6941035,32.718003 8.508406,32.51313 8.1051172,32.730824 7.5973395,32.441813 7.5326205,32.56378 6.9982055,32.15301 6.9048825,31.134443 6.7905891,31.374154 6.6158197,29.845391 l -0.054382,0.275706 0.051892,-0.747894 -0.137496,0.01981 0.1095377,-0.171444 -0.034891,-0.247771 0.101369,0.04284 -0.2870145,-1.826868 c 0,0 0.1672792,0.242561 0.1145728,0.08874 -0.052706,-0.153817 -0.1094089,-1.68827 -0.1094089,-1.68827 z"
       id="path3811" />
    <path
       id="path4695"
       style="opacity:0.5;fill:#000000;fill-opacity:1;stroke:none;stroke-width:0.264583px;stroke-linecap:butt;stroke-linejoin:miter;stroke-opacity:1"
       d="m 10.837413,23.563713 c -0.283858,0.159952 -0.515486,0.409586 -0.784448,0.30179 l -0.8314742,1.12448 0.1757001,-0.11834 -0.1901693,2.050521 0.2020549,-0.289388 c 0,0 0.122048,1.737298 -0.044442,2.581755 -0.1333413,0.676323 -0.065406,1.863818 -0.7518922,1.926497 -0.791419,0.07226 -1.0306939,-1.26478 -1.2547036,-2.027266 -0.2331448,-0.79358 -0.042892,-2.480986 -0.042892,-2.480986 l 0.2020549,0.289388 -0.1901692,-2.050521 0.1756997,0.11834 -0.8314738,-1.12448 C 6.4022966,23.973299 6.1706687,23.724181 5.8868108,23.56423 l -0.7968507,0.754992 0.2697509,0.112655 -0.3348633,2.32854 0.1167887,-0.145211 -0.1307412,2.711463 0.1496457,-0.27655 0.077731,2.451611 -0.2728516,0.715202 -0.1280488,1.127931 0.2270456,-5.03e-4 0.8957744,0.235281 0.083716,0.04444 1.2552204,-1.228866 0.2475302,0.173633 0.047241,-0.122709 0.5020752,0.283456 0.4119613,-0.211016 0.1889392,0.196367 0.3905483,-0.275907 -0.057746,0.2683 0.3389892,-0.376175 -5.556e-4,0.19452 0.3960172,-0.09632 1.8920521,0.939412 0.215084,-0.0011 -0.112449,-1.150711 -0.272852,-0.715202 0.06378,-2.487248 0.163596,0.312187 -0.130742,-2.711462 0.116789,0.145211 -0.334863,-2.328541 0.228847,0.02512 -0.755947,-0.892769 z"
       sodipodi:nodetypes="ccccccsssccccccccccccccccccccccccccccccccccccccccc" />
    <path
       style="fill:#8a715e;fill-opacity:1;stroke:none;stroke-width:0.264583px;stroke-linecap:butt;stroke-linejoin:miter;stroke-opacity:1"
       d="m 5.6308391,24.1919 -0.4046906,2.645392 0.1165781,-0.144997 -0.1303388,2.711336 0.199521,-0.310415 0.029118,2.610148 0.06387,-0.29479 -0.338138,0.885425 -0.1096939,1.056903 0.6588175,0.350343 1.3590474,-0.135314 0.3108759,-0.899163 -0.3737551,-1.291608 0.2953435,0.326388 -0.378787,-2.674877 0.1051345,0.376787 -0.046516,-2.693568 0.202346,0.289243 -0.079074,-2.236436 0.175273,0.11837 L 6.7074785,23.877224 5.8598731,23.485425 5.291043,24.396312 Z"
       id="path4594" />
    <path
       style="fill:#8a715e;fill-opacity:1;stroke:none;stroke-width:0.264583px;stroke-linecap:butt;stroke-linejoin:miter;stroke-opacity:1"
       d="m 11.093385,24.1919 0.404691,2.645392 -0.116578,-0.144997 0.130338,2.711336 -0.199521,-0.310415 -0.02912,2.610148 -0.06387,-0.29479 0.338138,0.885425 0.109694,1.056903 -0.658818,0.350343 -1.3590477,-0.135314 -0.3108754,-0.899163 0.3737554,-1.291608 -0.2953438,0.326388 0.3787868,-2.674877 -0.105134,0.376787 0.04652,-2.693568 -0.2023463,0.289243 0.079074,-2.236436 -0.175273,0.11837 0.578292,-1.003843 0.847606,-0.391799 0.56883,0.910887 z"
       id="path6362" />
  </g>
</svg>
