<?xml version="1.0" encoding="UTF-8" standalone="no"?>
<!-- Created with Inkscape (http://www.inkscape.org/) -->

<svg
   width="64"
   height="128"
   viewBox="0 0 16.933333 33.866668"
   version="1.1"
   id="svg12297"
   inkscape:version="1.1.1 (3bf5ae0d25, 2021-09-20)"
   sodipodi:docname="rabbit_v2.svg"
   inkscape:export-filename="/home/israel/programming/rs/rust_hero/assets/enemies/rabbit.png"
   inkscape:export-xdpi="96"
   inkscape:export-ydpi="96"
   xmlns:inkscape="http://www.inkscape.org/namespaces/inkscape"
   xmlns:sodipodi="http://sodipodi.sourceforge.net/DTD/sodipodi-0.dtd"
   xmlns="http://www.w3.org/2000/svg"
   xmlns:svg="http://www.w3.org/2000/svg">
  <sodipodi:namedview
     id="namedview12299"
     pagecolor="#ffffff"
     bordercolor="#666666"
     borderopacity="1.0"
     inkscape:pageshadow="2"
     inkscape:pageopacity="0.0"
     inkscape:pagecheckerboard="0"
     inkscape:document-units="px"
     showgrid="false"
     units="px"
     width="64px"
     inkscape:zoom="4.0954161"
     inkscape:cx="38.579719"
     inkscape:cy="71.909665"
     inkscape:window-width="1366"
     inkscape:window-height="699"
     inkscape:window-x="0"
     inkscape:window-y="40"
     inkscape:window-maximized="1"
     inkscape:current-layer="layer1"
     inkscape:snap-global="false" />
  <defs
     id="defs12294" />
  <g
     inkscape:label="Layer 1"
     inkscape:groupmode="layer"
     id="layer1">
    <g
       id="g7518"
       transform="translate(-0.37068869,7.4318807)">
      <path
         style="fill:#8a715e;fill-opacity:1;stroke:none;stroke-width:0.264583px;stroke-linecap:butt;stroke-linejoin:miter;stroke-opacity:1"
         d="m 7.0837025,14.120094 -0.9427248,0.433799 0.5228342,-0.03117 -1.1495297,0.956883 0.4557885,-0.186898 -1.1111479,2.057749 0.3953724,-0.390598 -0.3795559,1.304325 -0.2528097,-0.143154 0.02979,0.195701 -0.2959738,0.03523 0.2992805,0.171679 -0.8156167,0.236434 0.3989194,0.09421 -1.4659782,1.829378 0.4242731,-0.160217 -0.5334751,2.05587 0.3113627,-0.248122 0.1906738,1.517681 0.049921,-0.377921 0.3075479,0.858949 0.046759,-0.204532 0.097177,0.38816 c 0,0 -1.0149835,-0.161916 -1.5079095,-0.06148 -0.38405,0.07825 -0.8388661,0.181842 -1.0624433,0.50376 -0.10177443,0.14654 -0.10643101,0.3654 -0.045992,0.533266 0.042783,0.118828 0.1568903,0.205998 0.2657116,0.270094 0.2464173,0.14514 0.5428075,0.194654 0.8266393,0.229678 0.8957238,0.110529 1.8054889,-0.01992 2.7066752,-0.06892 0.6613113,-0.03596 1.3934825,0.142533 1.9799944,-0.165086 0.076525,-0.04014 0.1527193,-0.114691 0.1645917,-0.200284 0.014466,-0.104291 -0.1265547,-0.289408 -0.1265547,-0.289408 0,0 0.085802,0.158888 0.1465802,0.13314 0.1110713,-0.04705 0.011568,-0.361697 0.011568,-0.361697 0,0 0.0539,0.369852 0.07216,0.287838 0.018262,-0.08201 0.2691964,-0.598998 0.2691964,-0.598998 l 0.5374563,0.402889 0.062236,-0.117237 0.5012746,0.292523 0.4127606,-0.223647 0.1838579,0.20106 0.3844382,-0.266538 -0.045364,0.267396 0.3386551,-0.386401 -0.00682,0.207654 0.4027448,-0.342484 0.116022,0.47835 0.07808,-0.289879 0.08342,0.48559 0.173224,-0.128427 -0.09459,0.23634 c 0,0 -0.02318,0.187886 0.02315,0.262527 0.165954,0.267392 1.819384,0.07831 2.728811,0.123093 0.839936,0.04136 1.678366,0.143105 2.519275,0.134464 0.257822,-0.0026 0.771398,-0.05709 0.771398,-0.05709 0,0 0.158103,-0.41446 0.12363,-0.623524 -0.03804,-0.230678 -0.154329,-0.479927 -0.350073,-0.607768 -0.617255,-0.40313 -2.032562,-0.240364 -2.19861,-0.240364 -0.166048,0 -0.353429,-0.02692 -0.353429,-0.02692 l 0.37716,-0.164922 -0.289948,0.0271 0.164772,-0.309662 -0.02229,0.200091 0.274929,-0.865851 -0.0015,0.260632 0.165271,-0.934751 0.06924,0.309205 -0.05025,-1.549605 0.121464,0.192795 -0.336874,-1.16906 0.124251,0.09306 -0.515086,-0.983002 0.128049,0.07078 -0.639615,-0.682656 0.237351,0.04127 -0.960819,-0.529495 0.132357,-0.115234 -0.117057,0.0057 0.06165,-0.09706 -0.122686,0.0427 -0.127428,-0.626255 c 0,0 0.204209,0.349431 0.204209,0.261477 0,-0.08795 -0.424362,-1.121168 -0.424362,-1.121168 l 0.207517,0.151275 -0.702338,-1.33147 0.309031,0.239521 -0.81777,-1.037389 0.201345,0.06517 -0.805062,-0.881171 -1.9063382,-0.169443 z"
         id="path3354"
         sodipodi:nodetypes="cccccccccccccccccccccccsssssssscscsccccccccccccccccssscssscccccccccccccccccccccccsccccccccc" />
      <path
         style="opacity:0.5;fill:#000000;fill-opacity:1;stroke:none;stroke-width:0.264583px;stroke-linecap:butt;stroke-linejoin:miter;stroke-opacity:1"
         d="m 10.792818,14.292467 0.391045,0.726679 -0.0044,0.920931 -0.29379,-0.343785 -0.263461,1.177146 -0.234162,-0.395078 -0.285537,0.931089 -0.289386,-0.414817 c 0,0 -0.1940594,0.564608 -0.1997535,0.637976 -0.00569,0.07337 -0.3449531,-0.178407 -0.3449531,-0.178407 L 8.9217215,17.888405 8.6693649,17.367921 c 0,0 -0.3927391,0.586548 -0.3988309,0.513053 -0.00609,-0.0735 -0.2965229,-0.55243 -0.2965229,-0.55243 L 7.7364522,17.59624 7.270227,16.459181 7.2392536,16.571732 6.615999,15.599645 6.550491,15.987748 6.5294277,14.966917 6.7467764,14.567752 c 0.00385,-0.266834 0.00724,0.0184 0.00434,-0.267748 3.0109741,-0.990234 2.1121778,-0.100895 4.0416996,-0.0075 z"
         id="path4043"
         sodipodi:nodetypes="ccccccccccccsccccccccccc" />
      <path
         style="fill:#8a715e;fill-opacity:1;stroke:none;stroke-width:0.264583px;stroke-linecap:butt;stroke-linejoin:miter;stroke-opacity:1"
         d="M 7.3314478,8.4088681 7.6028235,7.9976919 7.5068705,8.3906579 8.1111966,7.8681902 8.0786367,8.0593935 9.2111515,7.3993308 8.9640532,7.9357659 9.5075465,7.5836845 l -0.020225,0.414029 0.099105,-0.1763442 0.2466523,0.5745477 0.059064,-0.2017911 0.070098,0.1577586 0.1058452,-1.5446002 0.130129,-1.5728381 0.04734,0.2530755 0.331031,-1.5482353 0.0092,0.2032669 0.622365,-1.2372094 0.312374,-0.2407246 0.297186,-0.1865304 -0.154909,0.2176296 0.215793,-0.080318 -0.11579,0.1456411 0.234776,-0.057855 -0.01071,0.4078878 0.0884,-0.1506802 0.037,1.2492392 0.0659,-0.1454611 -0.04387,1.1966922 0.04991,-0.2900203 -0.157441,1.4910729 0.09608,-0.1349603 -0.490643,2.1218422 0.145036,-0.2530829 -0.684024,1.6516686 0.234166,-0.056529 -0.150091,0.1261134 0.224322,0.1108379 -0.203851,0.06018 0.20308,0.284711 -0.20984,-0.08974 0.251743,1.31496 -0.0965,-0.07032 0.03845,1.210716 -0.06436,-0.08385 0.04852,1.12955 -0.184497,-0.406776 -0.0044,0.920931 -0.29379,-0.343785 -0.263461,1.177146 -0.234162,-0.395078 -0.285537,0.931089 -0.289386,-0.414817 c 0,0 -0.1940594,0.564608 -0.1997535,0.637976 -0.00569,0.07337 -0.3449531,-0.178407 -0.3449531,-0.178407 L 8.9222195,16.246496 8.6698629,15.726012 c 0,0 -0.3927391,0.586548 -0.3988309,0.513053 -0.00609,-0.0735 -0.2965229,-0.55243 -0.2965229,-0.55243 L 7.7369502,15.954331 7.270725,14.817272 7.225761,15.330324 6.616497,13.957736 6.550989,14.345839 6.2178675,12.970649 6.0432454,13.457092 6.0337954,11.999034 c 0,0 -0.08308,0.20998 -0.066645,0.153158 0.016436,-0.05682 0.1831716,-1.00957 0.1831716,-1.00957 l -0.1011153,0.178435 0.23462,-1.192704 -0.1100301,0.07915 L 6.2605721,9.9922594 6.0437148,9.906884 6.2956683,9.8469177 5.9292489,9.5631465 6.2304318,9.6148797 5.5696434,8.0718315 5.7448291,8.3035388 5.2658639,6.1551258 5.40669,6.4832435 5.2514176,4.3294415 5.3602249,4.5646024 5.3870132,3.4847766 c 0,0 0.094378,0.3111424 0.1048639,0.1329095 0.010485,-0.1782326 0.1160441,-0.8974439 0.1160441,-0.8974439 l 0.025908,0.2606132 0.3396851,-0.4174882 0.1652616,0.388769 0.030572,-0.2252458 0.320104,0.7627239 0.036596,-0.1723202 0.2913899,0.9846056 0.020817,-0.2182456 0.3337229,1.6997654 0.045844,-0.2765909 0.1020939,1.469471 0.091644,-0.2398715 z"
         id="path2287"
         sodipodi:nodetypes="ccccccccccccccccccccccccccccccccccccccccccccccccccccccccccscccccccccsccccccccccccccccscccccccccccccc" />
      <g
         id="g2235">
        <g
           id="g1974"
           transform="translate(-0.23634877,0.11020973)">
          <ellipse
             style="fill:#fafafa;stroke-width:0.0264583;stroke-linecap:round;stroke-linejoin:round;paint-order:fill markers stroke"
             id="path1440"
             cx="7.7310209"
             cy="11.350837"
             rx="0.95249885"
             ry="1.2488192" />
          <path
             id="path1442"
             style="stroke-width:0.0393533;stroke-linecap:round;stroke-linejoin:round;paint-order:fill markers stroke"
             d="m 7.7310212,10.859803 a 0.6244048,0.77750016 0 0 0 -0.6242516,0.777213 0.6244048,0.77750016 0 0 0 0.6242516,0.77773 0.6244048,0.77750016 0 0 0 0.624251,-0.77773 0.6244048,0.77750016 0 0 0 -0.624251,-0.777213 z m 0.012919,0.149344 a 0.18452166,0.17373888 0 0 1 0.1850014,0.173633 0.18452166,0.17373888 0 0 1 -0.1850014,0.17415 0.18452166,0.17373888 0 0 1 -0.184485,-0.17415 0.18452166,0.17373888 0 0 1 0.184485,-0.173633 z m -0.2263429,0.380856 a 0.05148752,0.05578993 0 0 1 0.05116,0.05581 0.05148752,0.05578993 0 0 1 -0.050126,0.05581 0.13948133,0.14472529 0 0 1 0.013953,0.06253 0.13948133,0.14472529 0 0 1 -0.1395264,0.144694 0.13948133,0.14472529 0 0 1 -0.1395265,-0.144694 0.13948133,0.14472529 0 0 1 0.1395265,-0.144694 0.13948133,0.14472529 0 0 1 0.072864,0.02119 0.05148752,0.05578993 0 0 1 0.051676,-0.05064 z m 0.4402831,0.157613 a 0.31785884,0.31298238 0 0 1 0.3178101,0.312642 0.31785884,0.31298238 0 0 1 -0.3178101,0.31316 0.31785884,0.31298238 0 0 1 -0.289388,-0.185002 0.10498924,0.1103487 0 0 1 -0.1012857,0.08165 0.10498924,0.1103487 0 0 1 -0.1054201,-0.110071 0.10498924,0.1103487 0 0 1 0.1054201,-0.110588 0.10498924,0.1103487 0 0 1 0.073897,0.03256 0.31785884,0.31298238 0 0 1 -0.00103,-0.0217 0.31785884,0.31298238 0 0 1 0.3178098,-0.312642 z" />
        </g>
        <g
           id="g1970"
           transform="translate(0.01287958,0.11020973)">
          <ellipse
             style="fill:#fafafa;stroke-width:0.0264583;stroke-linecap:round;stroke-linejoin:round;paint-order:fill markers stroke"
             id="ellipse1771"
             cx="9.9280767"
             cy="11.350837"
             rx="0.95249885"
             ry="1.2488192" />
          <path
             id="ellipse1773"
             style="stroke-width:0.148737;stroke-linecap:round;stroke-linejoin:round;paint-order:fill markers stroke"
             d="m 37.523438,41.044922 a 2.3599551,2.9385832 0 0 0 -2.359376,2.9375 2.3599551,2.9385832 0 0 0 2.359376,2.939453 2.3599551,2.9385832 0 0 0 2.359374,-2.939453 2.3599551,2.9385832 0 0 0 -2.359374,-2.9375 z m 0.15625,0.175781 a 0.87754137,0.52379698 0 0 1 0.878906,0.523438 0.87754137,0.52379698 0 0 1 -0.878906,0.523437 0.87754137,0.52379698 0 0 1 -0.876954,-0.523437 0.87754137,0.52379698 0 0 1 0.876954,-0.523438 z m -1.384766,1.162109 a 0.46188004,0.45662261 0 0 1 0.0332,0 0.46188004,0.45662261 0 0 1 0.462891,0.455079 0.46188004,0.45662261 0 0 1 -0.462891,0.457031 0.46188004,0.45662261 0 0 1 -0.460937,-0.457031 0.46188004,0.45662261 0 0 1 0.427734,-0.455079 z m 2.085937,0.572266 a 1.2013562,1.5273253 0 0 1 1.201172,1.527344 1.2013562,1.5273253 0 0 1 -1.201172,1.527344 1.2013562,1.5273253 0 0 1 -1.09375,-0.896485 0.61596242,0.63155815 0 0 1 -0.603515,0.50586 0.61596242,0.63155815 0 0 1 -0.615235,-0.63086 0.61596242,0.63155815 0 0 1 0.615235,-0.630859 0.61596242,0.63155815 0 0 1 0.501953,0.263672 1.2013562,1.5273253 0 0 1 -0.0059,-0.138672 1.2013562,1.5273253 0 0 1 1.201171,-1.527344 z"
             transform="scale(0.26458334)" />
        </g>
      </g>
      <g
         id="g3104"
         transform="translate(0,-0.52916667)">
        <g
           id="g841"
           transform="matrix(0.00138833,0,0,0.00138833,7.9602182,13.644542)">
          <path
             inkscape:connector-curvature="0"
             id="path833"
             d="m 146.014,554.568 c 1.591,3.545 5.165,6.132 9.438,6.83 l 42.059,6.831 c 1.581,2.84 3.243,5.638 4.911,8.414 l -18.34,33.827 c -1.888,3.447 -1.577,7.5 0.781,10.702 2.349,3.221 6.4,5.152 10.76,5.091 l 42.82,-0.495 c 2.171,2.474 4.378,4.926 6.632,7.333 l -10.506,36.433 c -1.063,3.699 0.122,7.617 3.146,10.377 3.008,2.749 7.431,3.947 11.671,3.155 l 41.844,-7.838 c 2.662,2.061 5.372,4.098 8.109,6.094 l -2.189,37.566 c -0.23,3.802 1.81,7.46 5.388,9.639 3.576,2.194 8.159,2.604 12.14,1.1 l 39.174,-14.833 c 3.104,1.573 6.225,3.132 9.381,4.642 l 6.194,37.179 c 0.626,3.767 3.436,7.009 7.425,8.542 3.976,1.538 8.571,1.153 12.125,-1.009 l 35.074,-21.251 c 3.396,1.021 6.807,2.001 10.265,2.942 l 14.3,35.416 c 1.455,3.609 4.91,6.306 9.169,7.127 4.244,0.814 8.649,-0.345 11.652,-3.066 l 29.687,-26.946 c 3.522,0.409 7.048,0.789 10.584,1.114 l 21.947,32.409 c 2.226,3.281 6.218,5.33 10.565,5.413 4.334,0.083 8.41,-1.812 10.733,-5.008 l 23.126,-31.552 c 3.547,-0.188 7.099,-0.435 10.628,-0.709 l 28.682,28.058 c 2.905,2.835 7.279,4.161 11.538,3.509 4.282,-0.666 7.842,-3.222 9.418,-6.773 l 15.601,-34.846 c 3.479,-0.81 6.926,-1.668 10.365,-2.55 l 34.257,22.572 c 3.483,2.302 8.062,2.861 12.1,1.468 4.025,-1.379 6.964,-4.513 7.725,-8.252 l 7.556,-36.917 c 3.208,-1.389 6.385,-2.818 9.552,-4.281 l 38.6,16.313 c 3.92,1.661 8.535,1.422 12.17,-0.636 3.65,-2.042 5.828,-5.619 5.732,-9.426 l -0.802,-37.625 c 2.803,-1.892 5.578,-3.823 8.327,-5.78 l 41.521,9.426 c 4.218,0.946 8.677,-0.075 11.79,-2.709 3.135,-2.644 4.454,-6.513 3.53,-10.249 l -9.146,-36.808 c 2.32,-2.329 4.618,-4.687 6.875,-7.074 l 42.77,2.125 c 4.316,0.19 8.473,-1.549 10.943,-4.679 2.478,-3.11 2.918,-7.147 1.181,-10.665 l -17.104,-34.501 c 1.774,-2.712 3.535,-5.445 5.231,-8.222 l 42.278,-5.226 c 4.297,-0.526 7.954,-2.975 9.684,-6.465 1.72,-3.5 1.257,-7.533 -1.215,-10.677 L 921.479,528.24 c 0.203,-0.531 -1.999,-32.28 -21.526,-58.158 0,0 -0.169,-0.069 -0.475,-0.191 C 855.033,407.22 716.712,359.6 552.124,356.465 378.036,353.149 231.49,400.686 193.714,467.318 176.853,484.381 172.602,512.466 173.11,513.99 l -25.495,29.958 c -2.602,3.046 -3.19,7.059 -1.601,10.62 z"
             fill="#8f1f1d" />
          <path
             inkscape:connector-curvature="0"
             id="path835"
             d="m 1006.008,420.45 c -1.728,-4.947 -19.723,-3.687 -24.194,-4.556 l -65.68,0.586 c -1.701,-3.954 -3.489,-7.85 -5.283,-11.713 l 42.551,-65.735 c 1.905,-4.904 12.443,-11.779 9.923,-16.227 -2.512,-4.469 -18.607,1.506 -23.153,1.708 l -67.827,12.061 c -2.313,-3.422 -4.662,-6.814 -7.059,-10.144 l 38.03,-84.758 c 1.039,-5.237 12.658,-26.514 9.45,-30.318 -3.189,-3.792 -18.273,9.018 -22.681,10.249 l -73.744,46.76 c -2.816,-2.829 -5.681,-5.624 -8.575,-8.362 l 20.894,-73.414 c 0.168,-5.358 11.334,-30.76 7.561,-33.733 -3.771,-2.993 -16.667,8.452 -20.79,10.675 l -65.16,50.814 c -3.268,-2.13 -6.552,-4.242 -9.872,-6.284 l 15.496,-86.805 c -0.726,-5.287 5.608,-32.964 1.417,-35.016 -4.174,-2.061 -26.104,22.056 -29.768,25.194 l -51.029,65.23 c -3.562,-1.346 -7.138,-2.635 -10.763,-3.867 L 660.92,74.281 c -1.585,-5.042 -1.212,-22.872 -5.67,-23.913 -4.442,-1.033 -10.15,14.875 -13.23,18.788 l -44.103,87.736 c -3.682,-0.482 -7.366,-0.922 -11.061,-1.283 L 564.527,54.643 C 562.143,50.081 559.614,35 555.078,35 c -4.522,0 -8.035,18.07 -10.396,22.631 l -27.077,97.982 c -3.695,0.361 -7.396,0.801 -11.07,1.283 L 468.137,67.88 c -3.084,-3.914 -8.33,-23.237 -12.758,-22.205 -4.455,1.053 -3.621,15.455 -5.197,20.497 l -11.499,106.627 c -3.614,1.232 -7.193,2.532 -10.764,3.867 l -34.912,-44.734 c -3.677,-3.148 -24.165,-34.096 -28.351,-32.026 -4.172,2.051 -1.167,34.426 -1.89,39.712 l 1.271,68.443 c -3.32,2.042 -6.606,4.14 -9.883,6.284 l -63.681,-59.354 c -4.12,-2.232 -12.786,-11.533 -16.538,-8.541 -3.769,2.974 -0.643,16.419 -0.472,21.778 l 23.196,91.775 c -2.887,2.738 -5.745,5.533 -8.575,8.362 l -69.905,-43.344 c -4.418,-1.22 -18.065,-11.905 -21.263,-8.113 -3.218,3.804 4.164,7.809 5.197,13.047 l 36.995,96.478 c -2.376,3.342 -4.729,6.721 -7.034,10.144 L 118.07,298.04 c -4.506,-0.151 -16.917,-6.178 -19.435,-1.708 -2.522,4.447 8.045,10.896 9.923,15.8 l 85.012,92.637 c -1.798,3.863 -3.583,7.759 -5.3,11.713 l -82.547,-9.979 c -4.47,0.857 -16.217,-1.544 -17.956,3.415 -1.728,4.972 9.648,11.415 12.286,15.774 l 61.741,66.493 c -0.201,0.755 2.702,45.391 23.563,81.296 0,0 0.177,0.092 0.499,0.258 47.554,87.035 192.733,150.364 364.46,150.364 181.639,0 333.578,-70.85 371.705,-165.663 17.261,-24.474 21.158,-64.123 20.598,-66.255 l 50.158,-54.084 c 2.656,-4.362 14.956,-12.68 13.231,-17.651 z"
             fill="#8f1f1d" />
          <path
             inkscape:connector-curvature="0"
             id="path837"
             d="m 195.34,493.008 c 0,0 -94.761,13.599 -116.083,18.311 -21.321,4.711 -7.095,8.297 0,9.421 24.757,3.927 146.88,7.067 149.25,7.853 2.369,0.785 -33.167,-35.585 -33.167,-35.585 z"
             fill="#8f1f1d" />
          <path
             inkscape:connector-curvature="0"
             id="path839"
             d="m 896.038,499.622 c 0,0 94.762,13.6 116.083,18.311 21.32,4.712 7.095,8.298 0,9.422 -24.758,3.927 -146.88,7.067 -149.249,7.853 -2.37,0.784 33.166,-35.586 33.166,-35.586 z"
             fill="#8f1f1d" />
        </g>
        <g
           transform="matrix(0.00138833,0,0,0.00138833,7.8935784,13.663979)"
           id="g847">
          <path
             inkscape:connector-curvature="0"
             id="path843"
             d="m 467.982,486.018 c 0,0 -41.096,-44.997 -82.191,0 0,0 -32.292,60.001 0,89.998 0,0 52.837,41.999 82.191,0 0,0 35.226,-33.002 0,-89.998 z" />
          <path
             inkscape:connector-curvature="0"
             id="path845"
             d="m 420.404,502.71 c 0,17.521 10.329,31.727 23.066,31.727 12.735,0 23.064,-14.205 23.064,-31.727 0,-17.522 -10.329,-31.728 -23.064,-31.728 -12.738,0 -23.066,14.206 -23.066,31.728 z"
             fill="#ffffff" />
        </g>
        <g
           transform="matrix(0.00138833,0,0,0.00138833,7.8935784,13.663979)"
           id="g853">
          <path
             inkscape:connector-curvature="0"
             id="path849"
             d="m 698.226,469.498 c 0,0 -70.494,-31.212 -89.735,38.454 0,0 -20.153,81.201 57.891,85.784 -10e-4,0 99.518,-19.168 31.844,-124.238 z" />
          <path
             inkscape:connector-curvature="0"
             id="path851"
             d="m 662.819,499.628 c 0,18.068 10.65,32.723 23.79,32.723 13.133,0 23.786,-14.654 23.786,-32.723 0,-18.072 -10.653,-32.723 -23.786,-32.723 -13.139,0 -23.79,14.651 -23.79,32.723 z"
             fill="#ffffff" />
        </g>
      </g>
      <path
         style="fill:#a3907c;fill-opacity:1;stroke:none;stroke-width:0.264583px;stroke-linecap:butt;stroke-linejoin:miter;stroke-opacity:1"
         d="M 6.5443964,9.1603668 C 6.575757,8.9111727 6.6609856,8.2319505 6.6609856,8.2319505 L 6.7904243,8.7492707 6.8012433,8.0034444 7.038369,8.7553104 6.975771,8.0440783 7.1806781,8.6754853 c 0,0 -0.101125,-0.9764163 -0.1740281,-1.4616168 C 6.8700204,6.3045396 6.7810301,5.3794445 6.5134071,4.4997146 6.4106386,4.1618942 6.3958769,3.7055198 6.0903156,3.5285559 6.0074706,3.4805767 5.8714721,3.4913508 5.8048463,3.5600989 5.5939979,3.7776636 5.7295135,4.1632527 5.7333913,4.4661989 5.7460934,5.4585377 5.8531256,6.4532614 6.0433451,7.427281 6.158608,8.0174852 6.5443964,9.1603668 6.5443964,9.1603668 Z"
         id="path2581"
         sodipodi:nodetypes="cccccccssssssc" />
      <path
         style="fill:#a3907c;fill-opacity:1;stroke:none;stroke-width:0.264583px;stroke-linecap:butt;stroke-linejoin:miter;stroke-opacity:1"
         d="m 10.208715,8.7475718 c 0.04991,-0.2174494 0.173723,-0.6836651 0.173723,-0.6836651 0,0 0.08199,0.9838659 0.09097,0.9410619 0.009,-0.042804 0.242721,-0.8624015 0.242721,-0.8624015 l -0.0016,0.9686285 0.324201,-0.8375618 c 0,0 -0.03336,0.5363403 -0.03518,0.5903423 -0.0018,0.054002 0.173588,-0.1623007 0.173588,-0.1623007 l -0.04547,0.3943273 0.21079,-0.870639 c 0,0 0.292427,-2.2916833 0.310454,-2.4355754 0.01803,-0.1438929 0.329758,-1.6116403 -0.09175,-2.2210554 -0.04725,-0.068307 -0.153006,-0.1302514 -0.22931,-0.097456 -0.580106,0.249329 -0.48684,1.1681647 -0.662102,1.7747711 -0.164448,0.5691783 -0.285426,1.1525848 -0.362603,1.739995 -0.07661,0.5830812 -0.09843,1.7615288 -0.09843,1.7615288 z"
         id="path2763"
         sodipodi:nodetypes="ccccccccccsssssc" />
      <g
         id="g3110"
         transform="translate(0.03977361)">
        <rect
           style="fill:#fafafa;stroke-width:0.0152956;stroke-linecap:round;stroke-linejoin:round;paint-order:fill markers stroke"
           id="rect2032"
           width="0.67710114"
           height="1.012439"
           x="7.9550018"
           y="14.307915"
           ry="0.11287174" />
        <rect
           style="fill:#fafafa;stroke-width:0.0152956;stroke-linecap:round;stroke-linejoin:round;paint-order:fill markers stroke"
           id="rect3106"
           width="0.67710114"
           height="1.012439"
           x="8.7161064"
           y="14.307915"
           ry="0.11287174" />
      </g>
      <path
         style="fill:#a3907c;fill-opacity:1;stroke:none;stroke-width:0.264583;stroke-linecap:butt;stroke-linejoin:miter;stroke-miterlimit:4;stroke-dasharray:none;stroke-opacity:1"
         d="m 6.9227789,18.313457 -0.071503,-0.904351 0.2000388,0.335017 0.042518,-1.10916 0.3731847,0.312176 0.3479327,-0.733186 0.3527898,0.630832 0.4650817,-0.297054 0.2474505,0.372515 0.4186315,-0.620982 0.2540397,0.478036 0.3651398,-0.339492 0.1750219,0.439031 0.350997,-0.428222 0.378584,0.86873 0.202501,-0.288091 -0.172019,1.118293 0.412936,-0.277094 -0.05301,0.609715 0.172757,-0.08981 -0.516205,2.045501 0.255099,-0.212621 -0.233672,0.896375 0.08849,0.253483 -0.190388,0.0082 0.16099,0.727668 c 0,0 -0.262413,-0.191727 -0.267205,-0.101056 -0.0048,0.09067 -0.200204,1.764337 -0.200204,1.764337 l -0.141111,-0.138831 -0.190437,1.078008 -0.0074,0.04589 -0.4045342,0.33695 0.00193,-0.200705 -0.3359923,0.388384 0.041288,-0.270203 -0.3817073,0.274382 -0.1856975,-0.204873 -0.4032888,0.217694 -0.5077777,-0.289011 -0.064719,0.121967 -0.534415,-0.41077 -0.093323,-1.018567 -0.1142934,0.239711 -0.1747694,-1.528763 -0.054382,0.275706 0.051892,-0.747894 -0.137496,0.01981 0.1095377,-0.171444 -0.034891,-0.247771 0.101369,0.04284 -0.2870145,-1.826868 c 0,0 0.1672792,0.242561 0.1145728,0.08874 -0.052706,-0.153817 -0.1094089,-1.68827 -0.1094089,-1.68827 z"
         id="path3811" />
      <path
         id="path4695"
         style="opacity:0.5;fill:#000000;fill-opacity:1;stroke:none;stroke-width:0.999999px;stroke-linecap:butt;stroke-linejoin:miter;stroke-opacity:1"
         d="m 42.361328,60.970703 c -1.072849,0.604543 -1.948294,1.548043 -2.964844,1.140625 l -3.142578,4.25 0.664063,-0.447266 -0.71875,7.75 0.763672,-1.09375 c 0,0 0.461284,6.566166 -0.167969,9.757813 -0.503967,2.556181 -0.247202,7.044353 -2.841797,7.28125 -2.99119,0.273108 -3.895536,-4.780272 -4.742187,-7.662109 -0.881177,-2.999357 -0.16211,-9.376954 -0.16211,-9.376954 l 0.763672,1.09375 -0.71875,-7.75 0.664062,0.447266 -3.142578,-4.25 c -1.01655,0.407418 -1.891994,-0.53413 -2.964843,-1.138672 l -3.011719,2.853516 1.019531,0.425781 -1.265625,8.800781 0.441406,-0.548828 -0.49414,10.248047 0.56559,-1.045229 0.293785,9.265932 -1.03125,2.703125 -0.483964,4.263047 0.858125,-0.0019 3.385604,0.889252 0.316407,0.167969 4.74414,-4.644532 0.935547,0.65625 0.178547,-0.463784 1.897607,1.071332 1.557019,-0.797543 0.714101,0.742176 1.476088,-1.0428 -0.218253,1.014048 1.281219,-1.421764 -0.0021,0.735193 1.496758,-0.364054 7.151064,3.550534 0.812913,-0.0043 -0.425003,-4.349145 -1.03125,-2.703125 0.241061,-9.400624 0.618314,1.179921 -0.494141,-10.248047 0.441407,0.548828 -1.265625,-8.800781 0.864935,0.09495 -2.857123,-3.374244 z"
         transform="scale(0.26458334)"
         sodipodi:nodetypes="ccccccsssccccccccccccccccccccccccccccccccccccccccc" />
      <path
         style="fill:#8a715e;fill-opacity:1;stroke:none;stroke-width:0.264583px;stroke-linecap:butt;stroke-linejoin:miter;stroke-opacity:1"
         d="m 6.0015278,16.760019 -0.4046906,2.645392 0.1165781,-0.144997 -0.1303388,2.711336 0.199521,-0.310415 0.029118,2.610148 0.06387,-0.29479 -0.338138,0.885425 -0.1096939,1.056903 0.6588175,0.350343 1.3590474,-0.135314 0.3108759,-0.899163 -0.3737551,-1.291608 0.2953435,0.326388 -0.378787,-2.674877 0.1051345,0.376787 -0.046516,-2.693568 0.202346,0.289243 -0.079074,-2.236436 0.175273,0.11837 -0.5782921,-1.003843 -0.8476054,-0.391799 -0.5688301,0.910887 z"
         id="path4594" />
      <path
         style="fill:#8a715e;fill-opacity:1;stroke:none;stroke-width:0.264583px;stroke-linecap:butt;stroke-linejoin:miter;stroke-opacity:1"
         d="m 11.464074,16.760019 0.404691,2.645392 -0.116578,-0.144997 0.130338,2.711336 -0.199521,-0.310415 -0.02912,2.610148 -0.06387,-0.29479 0.338138,0.885425 0.109694,1.056903 -0.658818,0.350343 L 10.01998,26.13405 9.7091046,25.234887 10.08286,23.943279 9.7875162,24.269667 10.166303,21.59479 l -0.105134,0.376787 0.04652,-2.693568 -0.2023463,0.289243 0.079074,-2.236436 -0.175273,0.11837 0.5782923,-1.003843 0.847606,-0.391799 0.56883,0.910887 z"
         id="path6362" />
    </g>
  </g>
</svg>
