<?xml version="1.0" encoding="UTF-8" standalone="no"?>
<!-- Created with Inkscape (http://www.inkscape.org/) -->

<svg
   width="64"
   height="128"
   viewBox="0 0 16.933333 33.866668"
   version="1.1"
   id="svg12297"
   inkscape:version="1.1 (c4e8f9ed74, 2021-05-24)"
   sodipodi:docname="rat.svg"
   inkscape:export-filename="/home/israel/programming/rs/rust_hero/assets/enemies/rat.png"
   inkscape:export-xdpi="96"
   inkscape:export-ydpi="96"
   xmlns:inkscape="http://www.inkscape.org/namespaces/inkscape"
   xmlns:sodipodi="http://sodipodi.sourceforge.net/DTD/sodipodi-0.dtd"
   xmlns="http://www.w3.org/2000/svg"
   xmlns:svg="http://www.w3.org/2000/svg">
  <sodipodi:namedview
     id="namedview12299"
     pagecolor="#ffffff"
     bordercolor="#666666"
     borderopacity="1.0"
     inkscape:pageshadow="2"
     inkscape:pageopacity="0.0"
     inkscape:pagecheckerboard="0"
     inkscape:document-units="px"
     showgrid="false"
     units="px"
     width="64px"
     inkscape:zoom="16.254777"
     inkscape:cx="46.817006"
     inkscape:cy="122.82543"
     inkscape:window-width="1366"
     inkscape:window-height="699"
     inkscape:window-x="0"
     inkscape:window-y="40"
     inkscape:window-maximized="1"
     inkscape:current-layer="layer1"
     inkscape:snap-global="false" />
  <defs
     id="defs12294" />
  <g
     inkscape:label="Layer 1"
     inkscape:groupmode="layer"
     id="layer1">
    <rect
       style="fill:#57392d;fill-opacity:1;stroke:none;stroke-width:2.9868;stroke-linecap:round;stroke-linejoin:round;paint-order:fill markers stroke"
       id="rect23529"
       width="5.6461387"
       height="1.4249208"
       x="10.111624"
       y="33.264248"
       ry="0.7124604"
       rx="0.37648228" />
    <path
       id="path22302"
       style="fill:#57392d;stroke-width:7.45974;stroke-linecap:round;stroke-linejoin:round;paint-order:fill markers stroke"
       inkscape:transform-center-x="4.1615977"
       inkscape:transform-center-y="3.5093756"
       d="M 8.7976098,21.496866 A 4.0338247,5.1077847 0 0 0 5.6609815,23.396383 1.2105221,3.4392125 48.893624 0 0 4.3923883,23.904592 1.2105221,3.4392125 48.893624 0 0 1.7915954,26.196348 1.2105221,3.4392125 48.893624 0 0 1.4395117,27.414827 0.62701893,0.61099089 48.893624 0 0 1.3135842,27.19349 0.62701893,0.61099089 48.893624 0 0 0.44076366,27.1225 a 0.62701893,0.61099089 48.893624 0 0 -0.0478654,0.874426 0.62701893,0.61099089 48.893624 0 0 0.85322464,0.08577 1.2105221,3.4392125 48.893624 0 0 -0.00386,0.01349 l 2.5683477,-2.285653 1.2383962,-1.080665 a 4.0338247,5.1077847 0 0 0 -0.1747568,0.698706 3.3613981,4.2563322 0 0 0 -2.4144713,4.083977 3.3613981,4.2563322 0 0 0 3.3611778,4.256165 3.3613981,4.2563322 0 0 0 2.8796329,-2.060461 4.0338247,5.1077847 0 0 0 0.097016,0.0042 4.0338247,5.1077847 0 0 0 0.1339588,-0.0029 3.3613981,4.2563322 0 0 0 2.8764208,2.059175 3.3613981,4.2563322 0 0 0 3.361499,-4.256166 3.3613981,4.2563322 0 0 0 -2.451093,-4.097147 4.0338247,5.1077847 0 0 0 -0.11886,-0.471587 l 0.993287,0.866717 2.568347,2.285652 a 3.4392125,1.2105221 41.106376 0 0 -0.0039,-0.01349 0.61099089,0.62701893 41.106376 0 0 0.853225,-0.08577 0.61099089,0.62701893 41.106376 0 0 -0.04787,-0.874427 0.61099089,0.62701893 41.106376 0 0 -0.872821,0.07099 0.61099089,0.62701893 41.106376 0 0 -0.125927,0.221338 3.4392125,1.2105221 41.106376 0 0 -0.352084,-1.218479 3.4392125,1.2105221 41.106376 0 0 -2.600793,-2.291757 3.4392125,1.2105221 41.106376 0 0 -1.050468,-0.459379 4.0338247,5.1077847 0 0 0 -3.1629709,-1.948346 z" />
    <ellipse
       style="fill:#715344;stroke-width:1.19772;stroke-linecap:round;stroke-linejoin:round;paint-order:fill markers stroke"
       id="ellipse21571"
       cx="15.460381"
       cy="7.780653"
       rx="0.72171605"
       ry="6.2484455"
       inkscape:transform-center-x="3.2582667"
       inkscape:transform-center-y="-10.392348"
       transform="rotate(17.676982)" />
    <ellipse
       style="fill:#fe9ab8;stroke-width:0.911892;stroke-linecap:round;stroke-linejoin:round;paint-order:fill markers stroke"
       id="ellipse21573"
       cx="15.492213"
       cy="8.5386515"
       rx="0.54948515"
       ry="4.7573113"
       inkscape:transform-center-x="2.4807113"
       inkscape:transform-center-y="-7.9123094"
       transform="rotate(17.676982)" />
    <ellipse
       style="fill:#715344;stroke-width:1.19772;stroke-linecap:round;stroke-linejoin:round;paint-order:fill markers stroke"
       id="ellipse20520"
       cx="-1.5254242"
       cy="13.193997"
       rx="0.72171605"
       ry="6.248445"
       inkscape:transform-center-x="3.2582667"
       inkscape:transform-center-y="-10.392348"
       transform="matrix(-0.95278354,0.30365033,0.30365033,0.95278354,0,0)" />
    <ellipse
       style="fill:#fe9ab8;stroke-width:0.911892;stroke-linecap:round;stroke-linejoin:round;paint-order:fill markers stroke"
       id="ellipse21343"
       cx="-1.4935915"
       cy="13.951995"
       rx="0.54948515"
       ry="4.7573109"
       inkscape:transform-center-x="2.4807113"
       inkscape:transform-center-y="-7.9123094"
       transform="matrix(-0.95278354,0.30365033,0.30365033,0.95278354,0,0)" />
    <ellipse
       style="fill:#3d211b;stroke-width:1.25588;stroke-linecap:round;stroke-linejoin:round;paint-order:fill markers stroke"
       id="ellipse20498"
       cx="8.6597605"
       cy="22.852251"
       rx="2.4378667"
       ry="2.0338161" />
    <path
       style="fill:#3d211b;fill-opacity:1;stroke:none;stroke-width:0.164477px;stroke-linecap:butt;stroke-linejoin:miter;stroke-opacity:1"
       d="m 6.261528,25.211398 0.5647708,1.391984 0.4422721,-0.767024 0.5960199,0.563105 0.3501452,-0.941835 1.0716929,1.140388 0.8659081,-1.303443 0.316806,0.789998 0.710941,-0.827019 0.385395,0.776435 0.36279,-0.422394 0.560416,0.308252 -0.233688,-1.770428 0.699424,0.16918 -1.285946,-1.074723 -5.8837952,-0.526546 -1.1181535,1.214015 1.2005732,0.356811 -0.9227194,0.770696 1.2086975,-0.163514 z"
       id="path22339" />
    <path
       id="path19915"
       style="fill:#715344;stroke-width:1.97372;stroke-linecap:round;stroke-linejoin:round;paint-order:fill markers stroke"
       d="m 8.9306048,14.428852 c -0.079426,0.0065 -0.1388731,0.358854 -0.8336286,0.971764 l -0.4127989,0.538405 0.00514,0.0019 a 3.3313445,3.6760361 0 0 0 -2.3768855,3.520515 3.3313445,3.6760361 0 0 0 0.1085805,0.90623 l -0.4118351,0.315782 c -0.8005351,0.907436 -1.1565402,0.730435 -0.8779603,0.930645 0.2785798,0.200209 0.6848926,-0.08352 0.6848926,-0.08352 0,0 -0.1231582,0.958503 -0.3687883,0.96566 -0.2456302,0.0072 -0.6079019,0.07054 -0.08513,0.230011 0.5227721,0.159469 1.2428937,-0.499535 1.2428937,-0.499535 l -0.5734208,0.808572 0.5094932,-0.123358 0.8130691,-0.201099 a 1.4247153,1.6575645 0 0 0 0.3768195,0.06682 1.4247153,1.6575645 0 0 0 0.3742494,-0.05847 3.3313445,3.6760361 0 0 0 1.5384384,0.41826 3.3313445,3.6760361 0 0 0 1.5483973,-0.421794 1.4247153,1.6575645 0 0 0 0.441068,0.08256 1.4247153,1.6575645 0 0 0 0.320923,-0.0469 l 0.643131,0.158695 0.509493,0.123679 -0.49311,-0.695173 a 1.4247153,1.6575645 0 0 0 0.0257,-0.02441 c 0.218824,0.173834 0.735515,0.532985 1.136883,0.41055 0.522772,-0.15947 0.1605,-0.223177 -0.08513,-0.230332 -0.24563,-0.0072 -0.368788,-0.965339 -0.368788,-0.965339 0,0 0.405991,0.283411 0.684571,0.0832 0.27858,-0.20021 -0.07742,-0.02321 -0.87796,-0.930644 l -0.16255,-0.124643 a 1.4247153,1.6575645 0 0 0 -0.08738,-0.220373 3.3313445,3.6760361 0 0 0 0.09605,-0.87507 3.3313445,3.6760361 0 0 0 -1.727972,-3.211478 l 0.07838,-0.317389 0.123679,-0.509814 -0.7745197,0.549648 a 3.3313445,3.6760361 0 0 0 -0.00964,-0.0039 C 9.777285,15.838389 10.282176,15.219061 10.14008,14.75324 9.98061,14.230468 9.9172238,14.59274 9.9100686,14.83837 c -0.00716,0.24563 -0.9656599,0.36911 -0.9656599,0.36911 0,0 0.2837326,-0.406313 0.083523,-0.684893 -0.046924,-0.06529 -0.073023,-0.09579 -0.097337,-0.0938 z" />
    <ellipse
       style="fill:#ff8c82;stroke-width:0.253007;stroke-linecap:round;stroke-linejoin:round;paint-order:fill markers stroke"
       id="ellipse21092"
       cx="8.6674471"
       cy="19.139433"
       rx="0.60209703"
       ry="0.1987347" />
    <g
       id="g21150"
       transform="matrix(0.62164541,0,0,0.62164541,3.3708318,12.598724)">
      <path
         style="fill:#ffe16b;stroke-width:12;stroke-linecap:round;stroke-linejoin:round;paint-order:fill markers stroke"
         id="path20544"
         sodipodi:type="arc"
         sodipodi:cx="7.1799836"
         sodipodi:cy="8.1765575"
         sodipodi:rx="0.84278238"
         sodipodi:ry="0.92457747"
         sodipodi:start="0"
         sodipodi:end="3.1694481"
         sodipodi:arc-type="slice"
         d="M 8.022766,8.1765575 A 0.84278238,0.92457747 0 0 1 7.5945798,8.981523 0.84278238,0.92457747 0 0 1 6.7451119,8.9685427 0.84278238,0.92457747 0 0 1 6.3375282,8.1508064 l 0.8424554,0.025751 z" />
      <path
         style="fill:#000000;stroke-width:12;stroke-linecap:round;stroke-linejoin:round;paint-order:fill markers stroke"
         id="path20568"
         sodipodi:type="arc"
         sodipodi:cx="7.1477733"
         sodipodi:cy="8.1770077"
         sodipodi:rx="0.49039629"
         sodipodi:ry="0.75063217"
         sodipodi:start="0"
         sodipodi:end="3.1694481"
         sodipodi:arc-type="slice"
         d="M 7.6381696,8.1770077 A 0.49039629,0.75063217 0 0 1 7.3890175,8.830531 0.49039629,0.75063217 0 0 1 6.8947311,8.8199928 0.49039629,0.75063217 0 0 1 6.6575672,8.1561012 l 0.4902061,0.020907 z" />
      <path
         id="ellipse21101"
         style="fill:#fafafa;stroke-width:0.443645;stroke-linecap:round;stroke-linejoin:round;paint-order:fill markers stroke"
         d="m 27.929688,31.103516 a 0.60943335,0.60369221 0 0 0 -0.609376,0.603515 0.60943335,0.60369221 0 0 0 0.195313,0.441407 0.28982679,0.28709646 0 0 0 -0.224609,0.28125 0.28982679,0.28709646 0 0 0 0.291015,0.287109 0.28982679,0.28709646 0 0 0 0.289063,-0.287109 0.28982679,0.28709646 0 0 0 -0.0293,-0.126954 0.60943335,0.60369221 0 0 0 0.08789,0.0078 0.60943335,0.60369221 0 0 0 0.609374,-0.603516 0.60943335,0.60369221 0 0 0 -0.609374,-0.603515 z"
         transform="scale(0.26458334)" />
      <ellipse
         style="fill:#fafafa;stroke-width:0.0558226;stroke-linecap:round;stroke-linejoin:round;paint-order:fill markers stroke"
         id="ellipse21121"
         cx="6.7871943"
         cy="8.3256016"
         rx="0.076683335"
         ry="0.075960942" />
    </g>
    <g
       id="g21160"
       transform="matrix(0.62164541,0,0,0.62164541,5.0171406,12.619128)">
      <path
         style="fill:#ffe16b;stroke-width:12;stroke-linecap:round;stroke-linejoin:round;paint-order:fill markers stroke"
         id="path21152"
         sodipodi:type="arc"
         sodipodi:cx="7.1799836"
         sodipodi:cy="8.1765575"
         sodipodi:rx="0.84278238"
         sodipodi:ry="0.92457747"
         sodipodi:start="0"
         sodipodi:end="3.1694481"
         sodipodi:arc-type="slice"
         d="M 8.022766,8.1765575 A 0.84278238,0.92457747 0 0 1 7.5945798,8.981523 0.84278238,0.92457747 0 0 1 6.7451119,8.9685427 0.84278238,0.92457747 0 0 1 6.3375282,8.1508064 l 0.8424554,0.025751 z" />
      <path
         style="fill:#000000;stroke-width:12;stroke-linecap:round;stroke-linejoin:round;paint-order:fill markers stroke"
         id="path21154"
         sodipodi:type="arc"
         sodipodi:cx="7.1477733"
         sodipodi:cy="8.1770077"
         sodipodi:rx="0.49039629"
         sodipodi:ry="0.75063217"
         sodipodi:start="0"
         sodipodi:end="3.1694481"
         sodipodi:arc-type="slice"
         d="M 7.6381696,8.1770077 A 0.49039629,0.75063217 0 0 1 7.3890175,8.830531 0.49039629,0.75063217 0 0 1 6.8947311,8.8199928 0.49039629,0.75063217 0 0 1 6.6575672,8.1561012 l 0.4902061,0.020907 z" />
      <path
         id="path21156"
         style="fill:#fafafa;stroke-width:0.443645;stroke-linecap:round;stroke-linejoin:round;paint-order:fill markers stroke"
         d="m 27.929688,31.103516 a 0.60943335,0.60369221 0 0 0 -0.609376,0.603515 0.60943335,0.60369221 0 0 0 0.195313,0.441407 0.28982679,0.28709646 0 0 0 -0.224609,0.28125 0.28982679,0.28709646 0 0 0 0.291015,0.287109 0.28982679,0.28709646 0 0 0 0.289063,-0.287109 0.28982679,0.28709646 0 0 0 -0.0293,-0.126954 0.60943335,0.60369221 0 0 0 0.08789,0.0078 0.60943335,0.60369221 0 0 0 0.609374,-0.603516 0.60943335,0.60369221 0 0 0 -0.609374,-0.603515 z"
         transform="scale(0.26458334)" />
      <ellipse
         style="fill:#fafafa;stroke-width:0.0558226;stroke-linecap:round;stroke-linejoin:round;paint-order:fill markers stroke"
         id="ellipse21158"
         cx="6.7871943"
         cy="8.3256016"
         rx="0.076683335"
         ry="0.075960942" />
    </g>
    <g
       id="g21099"
       transform="matrix(0.62164541,0,0,0.62164541,3.3708318,12.598724)">
      <path
         style="fill:#fe9ab8;stroke-width:3.175;stroke-linecap:round;stroke-linejoin:round;paint-order:fill markers stroke"
         id="path19917"
         sodipodi:type="arc"
         sodipodi:cx="8.5233545"
         sodipodi:cy="11.145998"
         sodipodi:rx="3.2614756"
         sodipodi:ry="5.860857"
         sodipodi:start="0"
         sodipodi:end="3.169451"
         sodipodi:arc-type="slice"
         d="m 11.78483,11.145998 a 3.2614756,5.860857 0 0 1 -1.657036,5.102644 3.2614756,5.860857 0 0 1 -3.2873507,-0.08229 3.2614756,5.860857 0 0 1 -1.5772988,-5.183607 l 3.26021,0.163253 z" />
      <path
         style="fill:#910e38;stroke-width:3.175;stroke-linecap:round;stroke-linejoin:round;paint-order:fill markers stroke"
         id="path20733"
         sodipodi:type="arc"
         sodipodi:cx="8.4993114"
         sodipodi:cy="11.203115"
         sodipodi:rx="3.0893242"
         sodipodi:ry="5.5515022"
         sodipodi:start="0"
         sodipodi:end="3.169451"
         sodipodi:arc-type="slice"
         d="M 11.588636,11.203115 A 3.0893242,5.5515022 0 0 1 10.019063,16.036426 3.0893242,5.5515022 0 0 1 6.9052298,15.958479 3.0893242,5.5515022 0 0 1 5.4111859,11.04848 l 3.0881255,0.154635 z" />
      <rect
         style="fill:#fafafa;stroke-width:1.37122;stroke-linecap:round;stroke-linejoin:round;paint-order:fill markers stroke"
         id="rect19941"
         width="1.7477517"
         height="2.1854937"
         x="6.6821589"
         y="11.110722"
         ry="0.34135261" />
      <rect
         style="fill:#fafafa;stroke-width:1.37122;stroke-linecap:round;stroke-linejoin:round;paint-order:fill markers stroke"
         id="rect20067"
         width="1.7877561"
         height="2.1213601"
         x="8.6176138"
         y="11.138228"
         ry="0.34135261" />
      <ellipse
         style="fill:#ff8c82;stroke-width:0.980137;stroke-linecap:round;stroke-linejoin:round;paint-order:fill markers stroke"
         id="ellipse20071"
         cx="8.448842"
         cy="15.705639"
         rx="1.7975156"
         ry="0.99902004" />
    </g>
    <path
       id="path22300"
       style="fill:#715344;stroke-width:7.45974;stroke-linecap:round;stroke-linejoin:round;paint-order:fill markers stroke"
       d="m 7.2357166,32.597458 a 0.61099087,0.62701891 0 0 1 0.6110062,0.627069 0.61099087,0.62701891 0 0 1 -0.5865917,0.625784 3.4392125,1.2105221 0 0 1 0.011886,0.0077 L 3.8340642,33.824289 H 0.39482543 a 3.4392125,1.2105221 0 0 1 1.74756787,-1.053681 3.4392125,1.2105221 0 0 1 3.4665441,0.01703 3.4392125,1.2105221 0 0 1 1.0665295,0.686499 0.61099087,0.62701891 0 0 1 -0.050757,-0.249606 0.61099087,0.62701891 0 0 1 0.6110063,-0.627069 z" />
    <g
       id="g23674"
       transform="translate(-0.67725214,0.01921004)">
      <rect
         style="fill:#3d211b;fill-opacity:1;stroke:none;stroke-width:2.42658;stroke-linecap:round;stroke-linejoin:round;paint-order:fill markers stroke"
         id="rect23634"
         width="3.7267227"
         height="1.4249208"
         x="12.764973"
         y="33.264248"
         ry="0.7124604"
         rx="0.2484964" />
      <path
         id="path23279"
         style="fill:#57392d;stroke-width:12;stroke-linecap:round;stroke-linejoin:round;paint-order:fill markers stroke"
         d="m 13.305157,33.293972 a 0.42234819,0.8771152 0 0 0 -0.422197,0.876951 0.42234819,0.8771152 0 0 0 0.422197,0.876948 0.42234819,0.8771152 0 0 0 0.422196,-0.876948 0.42234819,0.8771152 0 0 0 -0.422196,-0.876951 z m 0.90072,0 a 0.42234819,0.8771152 0 0 0 -0.422197,0.876951 0.42234819,0.8771152 0 0 0 0.422197,0.876948 0.42234819,0.8771152 0 0 0 0.422196,-0.876948 0.42234819,0.8771152 0 0 0 -0.422196,-0.876951 z m 0.90072,0 a 0.42234819,0.8771152 0 0 0 -0.422197,0.876951 0.42234819,0.8771152 0 0 0 0.422197,0.876948 0.42234819,0.8771152 0 0 0 0.422196,-0.876948 0.42234819,0.8771152 0 0 0 -0.422196,-0.876951 z m 0.90072,0 a 0.42234819,0.8771152 0 0 0 -0.422196,0.876951 0.42234819,0.8771152 0 0 0 0.422196,0.876948 0.42234819,0.8771152 0 0 0 0.422713,-0.876948 0.42234819,0.8771152 0 0 0 -0.422713,-0.876951 z" />
    </g>
  </g>
</svg>
