<?xml version="1.0" encoding="UTF-8" standalone="no"?>
<!-- Created with Inkscape (http://www.inkscape.org/) -->

<svg
   width="64"
   height="128"
   viewBox="0 0 16.933333 33.866668"
   version="1.1"
   id="svg12297"
   inkscape:version="1.1 (c4e8f9ed74, 2021-05-24)"
   sodipodi:docname="rat.svg"
   inkscape:export-filename="/home/israel/programming/rs/rust_hero/assets/enemies/rat.png"
   inkscape:export-xdpi="96"
   inkscape:export-ydpi="96"
   xmlns:inkscape="http://www.inkscape.org/namespaces/inkscape"
   xmlns:sodipodi="http://sodipodi.sourceforge.net/DTD/sodipodi-0.dtd"
   xmlns="http://www.w3.org/2000/svg"
   xmlns:svg="http://www.w3.org/2000/svg">
  <sodipodi:namedview
     id="namedview12299"
     pagecolor="#ffffff"
     bordercolor="#666666"
     borderopacity="1.0"
     inkscape:pageshadow="2"
     inkscape:pageopacity="0.0"
     inkscape:pagecheckerboard="0"
     inkscape:document-units="px"
     showgrid="false"
     units="px"
     width="64px"
     inkscape:zoom="1.7873108"
     inkscape:cx="-15.945744"
     inkscape:cy="79.728718"
     inkscape:window-width="1366"
     inkscape:window-height="699"
     inkscape:window-x="0"
     inkscape:window-y="40"
     inkscape:window-maximized="1"
     inkscape:current-layer="layer1"
     inkscape:snap-global="false" />
  <defs
     id="defs12294" />
  <g
     inkscape:label="Layer 1"
     inkscape:groupmode="layer"
     id="layer1">
    <g
       id="g14785"
       inkscape:transform-center-x="1.0879398"
       inkscape:transform-center-y="2.1530462"
       transform="matrix(0.88921382,0.34103582,-0.34103583,0.88921379,3.7623129,-0.35782352)">
      <rect
         style="fill:#f4679d;stroke-width:3.175;stroke-linecap:round;stroke-linejoin:round;paint-order:fill markers stroke"
         id="rect14777"
         width="3.2052763"
         height="1.9158373"
         x="-19.123514"
         y="26.255638"
         ry="0.76349539"
         transform="matrix(-0.98428631,-0.17657992,-0.17657992,0.98428631,0,0)" />
      <path
         id="path14779"
         style="fill:#fe9ab8;stroke-width:1.27948;stroke-linecap:round;stroke-linejoin:round;paint-order:fill markers stroke"
         inkscape:transform-center-x="0.58346747"
         inkscape:transform-center-y="-1.6064418"
         d="m 11.090566,28.453404 c 0.03983,-0.0082 0.08381,-0.0011 0.128617,0.02355 0.143399,0.07895 0.240872,0.306906 0.218188,0.511551 l -0.334474,3.014336 c -0.02269,0.204647 -0.156451,0.306063 -0.29985,0.227116 -0.143399,-0.07895 -0.240486,-0.307527 -0.217802,-0.512173 l 0.333971,-3.014215 c 0.01559,-0.140695 0.08373,-0.23219 0.17135,-0.250169 z m 0.733704,0.1672 c 0.03983,-0.0082 0.08381,-0.0011 0.128617,0.02355 0.143399,0.07895 0.240486,0.307526 0.217802,0.512172 l -0.33397,3.014219 c -0.02268,0.204645 -0.15657,0.305558 -0.299969,0.226611 -0.143399,-0.07895 -0.240368,-0.307023 -0.217684,-0.511669 l 0.333971,-3.014216 c 0.0156,-0.140693 0.08361,-0.232692 0.171233,-0.250671 z m 0.780407,0.105877 c 0.03983,-0.0082 0.08381,-0.0011 0.128618,0.02355 0.143399,0.07895 0.240368,0.307023 0.217684,0.511669 l -0.333971,3.014219 c -0.02268,0.204644 -0.156452,0.306062 -0.299851,0.227115 -0.143398,-0.07895 -0.240871,-0.306907 -0.218187,-0.511552 l 0.334356,-3.014837 c 0.0156,-0.140693 0.08373,-0.232189 0.171351,-0.250167 z m 0.781091,0.08608 c 0.03983,-0.0082 0.08381,-0.0011 0.128618,0.02355 0.143399,0.07895 0.240486,0.307526 0.2178,0.512171 l -0.333969,3.01422 c -0.02268,0.204644 -0.15657,0.305559 -0.299969,0.226611 -0.143399,-0.07895 -0.240368,-0.307025 -0.217683,-0.511669 l 0.333971,-3.014215 c 0.0156,-0.140693 0.08361,-0.232692 0.171233,-0.250672 z" />
      <path
         id="path14781"
         style="fill:#d4d4d4;stroke-width:1.27948;stroke-linecap:round;stroke-linejoin:round;paint-order:fill markers stroke"
         inkscape:transform-center-x="0.58346747"
         inkscape:transform-center-y="-1.6064418"
         d="m 10.780107,30.619063 c 0.03983,-0.0082 0.08381,-0.0011 0.128617,0.02355 0.143399,0.07895 0.240872,0.306905 0.218188,0.511551 l -0.0052,0.515012 c -0.02269,0.204646 -0.297225,1.542016 -0.440624,1.463068 -0.143399,-0.07895 -0.120713,-1.345191 -0.09803,-1.549837 l 0.0257,-0.713176 c 0.0156,-0.140694 0.08373,-0.232189 0.171351,-0.250168 z m 0.733703,0.167199 c 0.03983,-0.0082 0.08381,-0.0011 0.128618,0.02355 0.143399,0.07895 0.240486,0.307528 0.217802,0.512173 l -0.0089,0.483686 c -0.02268,0.204646 -0.293191,1.572717 -0.43659,1.49377 -0.143399,-0.07895 -0.122085,-1.537705 -0.0994,-1.74235 l 0.0272,-0.52016 c 0.01559,-0.140695 0.08361,-0.232693 0.171232,-0.250672 z m 0.780409,0.105876 c 0.03983,-0.0082 0.08381,-0.0011 0.128617,0.02355 0.143399,0.07895 0.240369,0.307024 0.217684,0.51167 l 0.0033,0.223093 c -0.02268,0.204644 -0.305228,1.833812 -0.448627,1.754866 -0.143399,-0.07895 -0.132839,-1.799247 -0.110155,-2.003891 l 0.03783,-0.259123 c 0.01559,-0.140694 0.08373,-0.232189 0.17135,-0.250169 z m 0.781091,0.08608 c 0.03983,-0.0082 0.08381,-0.0011 0.128617,0.02355 0.143399,0.07895 0.240486,0.307528 0.217802,0.512173 l 0.0076,0.47791 c -0.02268,0.204645 -0.30961,1.578493 -0.453008,1.499546 -0.143399,-0.07895 -0.137827,-1.661221 -0.115142,-1.865867 l 0.04293,-0.396644 c 0.0156,-0.140694 0.08361,-0.232691 0.171233,-0.250671 z"
         sodipodi:nodetypes="scccsccsscccsccsscccsccsscccsccs" />
      <rect
         style="fill:#fe9ab8;stroke-width:3.26828;stroke-linecap:round;stroke-linejoin:round;paint-order:fill markers stroke"
         id="rect14783"
         width="3.3899217"
         height="1.9194881"
         x="-19.382698"
         y="25.884218"
         ry="0.76495028"
         transform="matrix(-0.98596336,-0.1669618,-0.18671449,0.98241422,0,0)" />
    </g>
    <g
       id="g14775"
       inkscape:transform-center-x="-1.0879398"
       inkscape:transform-center-y="2.1530463"
       transform="matrix(-0.88921382,0.34103581,0.34103582,0.88921379,13.477271,-0.61050886)">
      <rect
         style="fill:#f4679d;stroke-width:3.175;stroke-linecap:round;stroke-linejoin:round;paint-order:fill markers stroke"
         id="rect14729"
         width="3.2052763"
         height="1.9158373"
         x="-19.123514"
         y="26.255638"
         ry="0.76349539"
         transform="matrix(-0.98428631,-0.17657992,-0.17657992,0.98428631,0,0)" />
      <path
         id="path14731"
         style="fill:#fe9ab8;stroke-width:1.27948;stroke-linecap:round;stroke-linejoin:round;paint-order:fill markers stroke"
         inkscape:transform-center-x="0.58346747"
         inkscape:transform-center-y="-1.6064418"
         d="m 11.090566,28.453404 c 0.03983,-0.0082 0.08381,-0.0011 0.128617,0.02355 0.143399,0.07895 0.240872,0.306906 0.218188,0.511551 l -0.334474,3.014336 c -0.02269,0.204647 -0.156451,0.306063 -0.29985,0.227116 -0.143399,-0.07895 -0.240486,-0.307527 -0.217802,-0.512173 l 0.333971,-3.014215 c 0.01559,-0.140695 0.08373,-0.23219 0.17135,-0.250169 z m 0.733704,0.1672 c 0.03983,-0.0082 0.08381,-0.0011 0.128617,0.02355 0.143399,0.07895 0.240486,0.307526 0.217802,0.512172 l -0.33397,3.014219 c -0.02268,0.204645 -0.15657,0.305558 -0.299969,0.226611 -0.143399,-0.07895 -0.240368,-0.307023 -0.217684,-0.511669 l 0.333971,-3.014216 c 0.0156,-0.140693 0.08361,-0.232692 0.171233,-0.250671 z m 0.780407,0.105877 c 0.03983,-0.0082 0.08381,-0.0011 0.128618,0.02355 0.143399,0.07895 0.240368,0.307023 0.217684,0.511669 l -0.333971,3.014219 c -0.02268,0.204644 -0.156452,0.306062 -0.299851,0.227115 -0.143398,-0.07895 -0.240871,-0.306907 -0.218187,-0.511552 l 0.334356,-3.014837 c 0.0156,-0.140693 0.08373,-0.232189 0.171351,-0.250167 z m 0.781091,0.08608 c 0.03983,-0.0082 0.08381,-0.0011 0.128618,0.02355 0.143399,0.07895 0.240486,0.307526 0.2178,0.512171 l -0.333969,3.01422 c -0.02268,0.204644 -0.15657,0.305559 -0.299969,0.226611 -0.143399,-0.07895 -0.240368,-0.307025 -0.217683,-0.511669 l 0.333971,-3.014215 c 0.0156,-0.140693 0.08361,-0.232692 0.171233,-0.250672 z" />
      <path
         id="path14733"
         style="fill:#d4d4d4;stroke-width:1.27948;stroke-linecap:round;stroke-linejoin:round;paint-order:fill markers stroke"
         inkscape:transform-center-x="0.58346747"
         inkscape:transform-center-y="-1.6064418"
         d="m 10.780107,30.619063 c 0.03983,-0.0082 0.08381,-0.0011 0.128617,0.02355 0.143399,0.07895 0.240872,0.306905 0.218188,0.511551 l -0.0052,0.515012 c -0.02269,0.204646 -0.297225,1.542016 -0.440624,1.463068 -0.143399,-0.07895 -0.120713,-1.345191 -0.09803,-1.549837 l 0.0257,-0.713176 c 0.0156,-0.140694 0.08373,-0.232189 0.171351,-0.250168 z m 0.733703,0.167199 c 0.03983,-0.0082 0.08381,-0.0011 0.128618,0.02355 0.143399,0.07895 0.240486,0.307528 0.217802,0.512173 l -0.0089,0.483686 c -0.02268,0.204646 -0.293191,1.572717 -0.43659,1.49377 -0.143399,-0.07895 -0.122085,-1.537705 -0.0994,-1.74235 l 0.0272,-0.52016 c 0.01559,-0.140695 0.08361,-0.232693 0.171232,-0.250672 z m 0.780409,0.105876 c 0.03983,-0.0082 0.08381,-0.0011 0.128617,0.02355 0.143399,0.07895 0.240369,0.307024 0.217684,0.51167 l 0.0033,0.223093 c -0.02268,0.204644 -0.305228,1.833812 -0.448627,1.754866 -0.143399,-0.07895 -0.132839,-1.799247 -0.110155,-2.003891 l 0.03783,-0.259123 c 0.01559,-0.140694 0.08373,-0.232189 0.17135,-0.250169 z m 0.781091,0.08608 c 0.03983,-0.0082 0.08381,-0.0011 0.128617,0.02355 0.143399,0.07895 0.240486,0.307528 0.217802,0.512173 l 0.0076,0.47791 c -0.02268,0.204645 -0.30961,1.578493 -0.453008,1.499546 -0.143399,-0.07895 -0.137827,-1.661221 -0.115142,-1.865867 l 0.04293,-0.396644 c 0.0156,-0.140694 0.08361,-0.232691 0.171233,-0.250671 z"
         sodipodi:nodetypes="scccsccsscccsccsscccsccsscccsccs" />
      <rect
         style="fill:#fe9ab8;stroke-width:3.26828;stroke-linecap:round;stroke-linejoin:round;paint-order:fill markers stroke"
         id="rect14751"
         width="3.3899217"
         height="1.9194881"
         x="-19.382698"
         y="25.884218"
         ry="0.76495028"
         transform="matrix(-0.98596336,-0.1669618,-0.18671449,0.98241422,0,0)" />
    </g>
    <path
       style="fill:#f4679d;fill-opacity:1;stroke:none;stroke-width:0.251981px;stroke-linecap:butt;stroke-linejoin:miter;stroke-opacity:1"
       d="m 6.2644084,25.242662 c 0,0 -1.9281307,-4.341314 -2.8562083,-6.527483 C 2.2905972,16.082567 0.1426528,13.640953 0.14247099,10.780937 0.14236032,9.0400963 0.98605171,7.589189 2.129649,5.9512506 3.2732463,4.3133122 4.6680453,1.6208922 7.1146118,1.3802056 9.5611784,1.1395191 12.819586,4.0834642 13.940261,5.5274492 c 1.120674,1.4439849 1.180511,2.1028437 0.866994,2.8513408 -0.313517,0.7484972 -1.673346,0.8760456 -1.673346,0.8760456 0,0 1.004754,-0.6281468 1.087295,-1.3803096 C 14.303745,7.1223632 14.111953,6.4534352 13.014213,5.3669397 11.916474,4.2804443 9.1487722,2.3209661 7.1430574,2.6150283 5.1373424,2.9090906 3.9331053,4.8935546 2.9092801,6.3997921 1.885455,7.9060295 0.94403548,9.5825911 1.0965155,11.325494 c 0.3756807,4.294168 6.505772,11.176048 6.505772,11.176048 L 8.054903,24.89461 Z"
       id="path14229"
       sodipodi:nodetypes="csszzzzczzzzsccc" />
    <path
       id="path12400"
       style="fill:#4d4d4d;stroke-width:2.21546;stroke-linecap:round;stroke-linejoin:round;paint-order:fill markers stroke"
       d="m 8.557295,10.247334 a 5.9425242,7.7531621 0 0 0 -2.397264,0.661943 6.4384386,3.9109484 0 0 0 -4.0346484,3.625671 6.4384386,3.9109484 0 0 0 0.6471776,1.703824 5.9425242,7.7531621 0 0 0 -0.1579802,1.761406 5.9425242,7.7531621 0 0 0 0.2180225,2.069492 7.9688943,4.7967993 0 0 0 -2.21910564,2.972588 4.7331932,3.7929061 55.635631 0 0 0.36960487,5.201538 4.7331932,3.7929061 55.635631 0 0 5.80294417,1.766326 4.7331932,3.7929061 55.635631 0 0 1.2815596,-1.822923 7.9688943,4.7967993 0 0 0 0.4916582,0.01182 7.9688943,4.7967993 0 0 0 0.3233427,-0.0049 3.7929061,4.7331932 34.364369 0 0 1.2643346,1.764852 3.7929061,4.7331932 34.364369 0 0 5.802452,-1.765837 3.7929061,4.7331932 34.364369 0 0 0.574831,-4.852601 7.9688943,4.7967993 0 0 0 -2.242237,-3.273292 5.9425242,7.7531621 0 0 0 0.217531,-2.067032 5.9425242,7.7531621 0 0 0 -0.153551,-1.749594 6.4384386,3.9109484 0 0 0 0.656528,-1.715636 6.4384386,3.9109484 0 0 0 -4.055318,-3.633054 5.9425242,7.7531621 0 0 0 -2.389882,-0.654559 z" />
    <ellipse
       style="fill:#333333;stroke-width:1.07509;stroke-linecap:round;stroke-linejoin:round;paint-order:fill markers stroke"
       id="ellipse12554"
       cx="8.5054731"
       cy="12.541948"
       rx="3.792906"
       ry="2.3732622" />
    <ellipse
       style="fill:#4d4d4d;stroke-width:0.764417;stroke-linecap:round;stroke-linejoin:round;paint-order:fill markers stroke"
       id="ellipse12718"
       cx="5.1160293"
       cy="4.1748495"
       rx="2.7559438"
       ry="1.6512593" />
    <ellipse
       style="fill:#4d4d4d;stroke-width:0.764417;stroke-linecap:round;stroke-linejoin:round;paint-order:fill markers stroke"
       id="ellipse12720"
       cx="12.289115"
       cy="3.951195"
       rx="2.7559438"
       ry="1.6512593" />
    <ellipse
       style="fill:#fe9ab8;stroke-width:0.393621;stroke-linecap:round;stroke-linejoin:round;paint-order:fill markers stroke"
       id="ellipse12850"
       cx="11.916636"
       cy="6.5261164"
       rx="1.8469476"
       ry="0.65332198"
       transform="rotate(-8.2951146)" />
    <ellipse
       style="fill:#fe9ab8;stroke-width:0.393621;stroke-linecap:round;stroke-linejoin:round;paint-order:fill markers stroke"
       id="ellipse12932"
       cx="-5.2286468"
       cy="4.1862793"
       rx="1.8469476"
       ry="0.65332198"
       transform="matrix(-0.98953809,-0.14427183,-0.14427183,0.98953809,0,0)" />
    <ellipse
       style="fill:#4d4d4d;stroke-width:1.51828;stroke-linecap:round;stroke-linejoin:round;paint-order:fill markers stroke"
       id="ellipse12530"
       cx="8.544714"
       cy="7.8556662"
       rx="3.792906"
       ry="4.7331929" />
    <ellipse
       style="fill:#fe9ab8;stroke-width:0.33276;stroke-linecap:round;stroke-linejoin:round;paint-order:fill markers stroke"
       id="ellipse12722"
       cx="8.6608782"
       cy="11.076344"
       rx="1.3727363"
       ry="0.62820292" />
    <ellipse
       style="fill:#fe9ab8;stroke-width:0.33276;stroke-linecap:round;stroke-linejoin:round;paint-order:fill markers stroke"
       id="ellipse12760"
       cx="6.967052"
       cy="7.356071"
       rx="1.3727363"
       ry="0.62820292" />
    <ellipse
       style="fill:#fe9ab8;stroke-width:0.33276;stroke-linecap:round;stroke-linejoin:round;paint-order:fill markers stroke"
       id="ellipse12762"
       cx="10.155235"
       cy="7.3917356"
       rx="1.3727363"
       ry="0.62820292" />
    <g
       id="g12846"
       transform="matrix(0.95236897,0,0,0.95236894,0.09083322,1.8684754)">
      <g
         id="g12825">
        <ellipse
           style="fill:#000000;stroke-width:0.271303;stroke-linecap:round;stroke-linejoin:round;paint-order:fill markers stroke"
           id="ellipse12764"
           cx="10.59333"
           cy="5.7864046"
           rx="0.86903936"
           ry="0.65962136" />
        <ellipse
           style="fill:#fafafa;stroke-width:0.129721;stroke-linecap:round;stroke-linejoin:round;paint-order:fill markers stroke"
           id="ellipse12784"
           cx="10.942523"
           cy="5.4909158"
           rx="0.36338753"
           ry="0.36064085" />
        <ellipse
           style="fill:#fafafa;stroke-width:0.0697877;stroke-linecap:round;stroke-linejoin:round;paint-order:fill markers stroke"
           id="ellipse12804"
           cx="10.434513"
           cy="5.5308332"
           rx="0.20314248"
           ry="0.18671568" />
        <ellipse
           style="fill:#fafafa;stroke-width:0.0697877;stroke-linecap:round;stroke-linejoin:round;paint-order:fill markers stroke"
           id="ellipse12806"
           cx="10.476316"
           cy="6.0386348"
           rx="0.20314248"
           ry="0.18671568" />
        <ellipse
           style="fill:#fafafa;stroke-width:0.0697877;stroke-linecap:round;stroke-linejoin:round;paint-order:fill markers stroke"
           id="ellipse12808"
           cx="11.009717"
           cy="6.0896626"
           rx="0.20314248"
           ry="0.18671568" />
      </g>
      <g
         id="g12832">
        <ellipse
           style="fill:#000000;stroke-width:0.271303;stroke-linecap:round;stroke-linejoin:round;paint-order:fill markers stroke"
           id="ellipse12810"
           cx="7.1376877"
           cy="5.7638245"
           rx="0.86903936"
           ry="0.65962136" />
        <ellipse
           style="fill:#fafafa;stroke-width:0.0972111;stroke-linecap:round;stroke-linejoin:round;paint-order:fill markers stroke"
           id="ellipse12812"
           cx="7.4165735"
           cy="5.3588076"
           rx="0.29308063"
           ry="0.25111297" />
        <ellipse
           style="fill:#fafafa;stroke-width:0.0472352;stroke-linecap:round;stroke-linejoin:round;paint-order:fill markers stroke"
           id="ellipse12814"
           cx="6.5479445"
           cy="5.6418142"
           rx="0.13638161"
           ry="0.12740874" />
        <ellipse
           style="fill:#fafafa;stroke-width:0.0697877;stroke-linecap:round;stroke-linejoin:round;paint-order:fill markers stroke"
           id="ellipse12816"
           cx="7.0206738"
           cy="6.0160546"
           rx="0.20314248"
           ry="0.18671568" />
        <ellipse
           style="fill:#fafafa;stroke-width:0.0444549;stroke-linecap:round;stroke-linejoin:round;paint-order:fill markers stroke"
           id="ellipse12818"
           cx="7.6421709"
           cy="6.120018"
           rx="0.11504601"
           ry="0.13377987" />
      </g>
    </g>
    <g
       id="g14746"
       transform="matrix(0.95236897,0,0,0.95236894,0.09083322,1.8684754)">
      <path
         id="rect12956"
         style="fill:#fe9ab8;stroke-width:3.175;stroke-linecap:round;stroke-linejoin:round;paint-order:fill markers stroke"
         d="m 3.1064048,12.214611 c -0.4275517,-0.09451 -0.848158,0.173797 -0.9426736,0.601348 l -1.39218213,6.297692 c -0.0713959,0.322967 0.064245,0.641497 0.31910673,0.818889 0.025288,0.03071 0.053334,0.05994 0.083893,0.08735 0.3259636,0.292372 0.8234801,0.265148 1.115852,-0.06082 l 3.4470353,-3.842911 c 0.1234598,0.04053 0.2589829,0.05141 0.3961402,0.02512 L 7.7628574,15.828787 C 8.1929014,15.746347 8.4726615,15.333744 8.3902223,14.9037 L 8.2258847,14.045462 C 8.1434452,13.615417 7.7308422,13.335657 7.3007981,13.418097 l -1.6296742,0.311876 c -0.3904472,0.07485 -0.656913,0.422106 -0.6410035,0.807226 L 2.8696638,16.946081 3.7072486,13.157173 C 3.8017641,12.729621 3.5339563,12.309126 3.1064048,12.214611 Z" />
      <rect
         style="fill:#f4679d;stroke-width:3.175;stroke-linecap:round;stroke-linejoin:round;paint-order:fill markers stroke"
         id="rect13275"
         width="3.2052763"
         height="1.9158373"
         x="2.1613333"
         y="15.231682"
         ry="0.76349539"
         transform="rotate(-10.851952)" />
      <path
         id="rect13081"
         style="fill:#fe9ab8;stroke-width:1.27948;stroke-linecap:round;stroke-linejoin:round;paint-order:fill markers stroke"
         inkscape:transform-center-x="0.58346747"
         inkscape:transform-center-y="-1.6064418"
         d="m 8.0772759,13.749121 c -0.039921,-0.0077 -0.083814,-1.14e-4 -0.1283284,0.02508 -0.1424501,0.08065 -0.2372051,0.309749 -0.2120889,0.51411 l 0.3702941,3.010146 c 0.025116,0.204362 0.1600801,0.30418 0.3025299,0.223534 0.1424501,-0.08065 0.2368122,-0.310365 0.2116956,-0.514726 l -0.3697898,-3.01003 c -0.017267,-0.1405 -0.086486,-0.231178 -0.1743125,-0.248114 z m -0.7316636,0.175913 c -0.039921,-0.0077 -0.083814,-1.14e-4 -0.1283284,0.02508 -0.1424498,0.08065 -0.2368119,0.310364 -0.2116956,0.514726 l 0.3697895,3.010034 c 0.025116,0.204361 0.1601917,0.303676 0.3026419,0.223029 0.1424498,-0.08065 0.2367,-0.30986 0.211584,-0.514222 L 7.5198135,14.173651 C 7.5025463,14.033153 7.4334386,13.941969 7.3456123,13.925034 Z m -0.7790937,0.115149 c -0.039921,-0.0077 -0.083814,-1.14e-4 -0.1283283,0.02508 -0.1424499,0.08065 -0.2367003,0.30986 -0.211584,0.514222 l 0.3697895,3.010034 c 0.025116,0.20436 0.1600801,0.30418 0.3025303,0.223533 0.1424496,-0.08065 0.2372045,-0.309749 0.2120888,-0.51411 L 6.7408315,14.288295 C 6.7235642,14.147797 6.654345,14.057119 6.5665186,14.040183 Z m -0.7800121,0.09536 c -0.039921,-0.0077 -0.083814,-1.14e-4 -0.1283283,0.02508 -0.1424498,0.08065 -0.2368119,0.310364 -0.2116954,0.514725 l 0.369789,3.010035 c 0.025116,0.20436 0.160192,0.303676 0.3026419,0.223028 0.1424501,-0.08065 0.2367005,-0.309861 0.211584,-0.514221 L 5.9607076,14.384165 C 5.9434403,14.243667 5.8743326,14.152483 5.7865065,14.135547 Z" />
      <path
         id="path13575"
         style="fill:#d4d4d4;stroke-width:1.27948;stroke-linecap:round;stroke-linejoin:round;paint-order:fill markers stroke"
         inkscape:transform-center-x="0.58346747"
         inkscape:transform-center-y="-1.6064418"
         d="m 8.4134653,15.910935 c -0.039921,-0.0077 -0.083814,-1.14e-4 -0.1283284,0.02508 -0.1424499,0.08065 -0.2372049,0.309748 -0.2120889,0.51411 l 0.01133,0.51491 c 0.025121,0.204362 0.3155408,1.538372 0.4579907,1.457725 0.1424499,-0.08065 0.1047083,-1.346532 0.079591,-1.550894 L 8.587778,16.159047 C 8.5705108,16.018549 8.5012915,15.92787 8.4134653,15.910935 Z m -0.7316634,0.175911 c -0.03992,-0.0077 -0.083814,-1.14e-4 -0.1283283,0.02508 -0.1424501,0.08065 -0.2368122,0.310365 -0.2116957,0.514726 l 0.014607,0.483547 c 0.025115,0.204362 0.3118711,1.56912 0.4543213,1.488473 0.1424498,-0.08065 0.1037915,-1.539048 0.078675,-1.743409 l -0.033379,-0.5198 c -0.017267,-0.1405 -0.086375,-0.231682 -0.174201,-0.248619 z m -0.7790936,0.11515 c -0.039921,-0.0077 -0.083814,-1.14e-4 -0.1283284,0.02508 -0.1424501,0.08065 -0.2367005,0.309861 -0.2115842,0.514223 l -6.461e-4,0.223116 c 0.025116,0.20436 0.3270134,1.830053 0.4694633,1.749407 0.1424499,-0.08065 0.1114339,-1.800699 0.086318,-2.005059 l -0.04091,-0.258655 C 7.0597536,16.309611 6.9905344,16.218932 6.9027083,16.201996 Z m -0.7800124,0.09536 c -0.039921,-0.0077 -0.083814,-1.14e-4 -0.1283283,0.02508 -0.14245,0.08065 -0.2368121,0.310365 -0.2116956,0.514726 l -0.00188,0.477966 c 0.025116,0.20436 0.3283581,1.5747 0.4708077,1.494053 0.1424502,-0.08065 0.1180629,-1.662743 0.092947,-1.867103 l -0.04765,-0.3961 C 6.2796299,16.405479 6.210522,16.314297 6.1226959,16.29736 Z"
         sodipodi:nodetypes="scccsccsscccsccsscccsccsscccsccs" />
      <path
         id="path14170"
         style="fill:#fe9ab8;stroke-width:3.175;stroke-linecap:round;stroke-linejoin:round;paint-order:fill markers stroke"
         d="m 14.297038,12.216717 c 0.426398,-0.09959 0.850165,0.163699 0.949758,0.590096 l 1.466972,6.280692 c 0.07523,0.322095 -0.05661,0.642215 -0.309347,0.822625 -0.02492,0.03101 -0.05262,0.06057 -0.08285,0.08834 -0.322464,0.296228 -0.820269,0.274921 -1.116497,-0.04754 l -3.492489,-3.80165 c -0.122969,0.042 -0.258353,0.05449 -0.395813,0.02983 L 9.6838921,15.886009 C 9.2528982,15.80869 8.9682514,15.399442 9.045571,14.968449 l 0.1541204,-0.860133 c 0.07732,-0.430995 0.486567,-0.715641 0.9175606,-0.638321 l 1.633268,0.292474 c 0.39131,0.0702 0.661886,0.414265 0.650557,0.799548 l 2.188949,2.38302 -0.882581,-3.77868 c -0.09959,-0.426398 0.163196,-0.850047 0.589593,-0.94964 z" />
      <g
         id="g14727">
        <rect
           style="fill:#f4679d;stroke-width:3.175;stroke-linecap:round;stroke-linejoin:round;paint-order:fill markers stroke"
           id="rect14172"
           width="3.2052763"
           height="1.9158373"
           x="-14.819457"
           y="12.150833"
           ry="0.76349539"
           transform="matrix(-0.98428631,-0.17657992,-0.17657992,0.98428631,0,0)" />
        <path
           id="path14174"
           style="fill:#fe9ab8;stroke-width:1.27948;stroke-linecap:round;stroke-linejoin:round;paint-order:fill markers stroke"
           inkscape:transform-center-x="0.58346747"
           inkscape:transform-center-y="-1.6064418"
           d="m 9.3447661,13.810228 c 0.039827,-0.0082 0.083807,-0.0011 0.1286176,0.02355 0.143399,0.07895 0.2408716,0.306906 0.2181873,0.511551 l -0.3344732,3.014336 c -0.022685,0.204647 -0.1564517,0.306063 -0.2998505,0.227116 -0.143399,-0.07895 -0.2404861,-0.307527 -0.2178014,-0.512173 l 0.3339704,-3.014215 c 0.015595,-0.140695 0.083731,-0.23219 0.1713498,-0.250169 z m 0.7337039,0.1672 c 0.03983,-0.0082 0.08381,-0.0011 0.128617,0.02355 0.143399,0.07895 0.240486,0.307526 0.217802,0.512172 l -0.33397,3.014219 C 10.068239,17.732014 9.9343494,17.832927 9.7909503,17.75398 9.6475516,17.67503 9.5505824,17.446957 9.5732665,17.242311 l 0.3339708,-3.014216 c 0.015595,-0.140693 0.083614,-0.232692 0.1712327,-0.250671 z m 0.780408,0.105877 c 0.03983,-0.0082 0.08381,-0.0011 0.128617,0.02355 0.143399,0.07895 0.240368,0.307023 0.217684,0.511669 l -0.33397,3.014219 c -0.02268,0.204644 -0.156452,0.306062 -0.299851,0.227115 -0.143398,-0.07895 -0.240871,-0.306907 -0.218187,-0.511552 l 0.334356,-3.014837 c 0.0156,-0.140693 0.08373,-0.232189 0.171351,-0.250167 z m 0.781091,0.08608 c 0.03983,-0.0082 0.08381,-0.0011 0.128617,0.02355 0.143399,0.07895 0.240486,0.307526 0.217801,0.512171 l -0.333969,3.01422 c -0.02268,0.204644 -0.15657,0.305559 -0.299969,0.226611 -0.143399,-0.07895 -0.240368,-0.307025 -0.217683,-0.511669 l 0.33397,-3.014215 c 0.0156,-0.140693 0.08361,-0.232692 0.171233,-0.250672 z" />
        <path
           id="path14176"
           style="fill:#d4d4d4;stroke-width:1.27948;stroke-linecap:round;stroke-linejoin:round;paint-order:fill markers stroke"
           inkscape:transform-center-x="0.58346747"
           inkscape:transform-center-y="-1.6064418"
           d="m 9.0343073,15.975887 c 0.039827,-0.0082 0.083807,-0.0011 0.1286176,0.02355 0.1433988,0.07895 0.2408714,0.306905 0.2181873,0.511551 L 9.3759056,17.026 c -0.022688,0.204646 -0.2972252,1.542016 -0.4406239,1.463068 -0.1433988,-0.07895 -0.120713,-1.345191 -0.098028,-1.549837 l 0.025703,-0.713176 c 0.015595,-0.140694 0.083731,-0.232189 0.1713506,-0.250168 z m 0.7337035,0.167199 c 0.039826,-0.0082 0.083807,-0.0011 0.1286175,0.02355 0.1433987,0.07895 0.2404857,0.307528 0.2178017,0.512173 l -0.0089,0.483686 c -0.02268,0.204646 -0.2931903,1.572717 -0.4365894,1.49377 -0.1433988,-0.07895 -0.1220855,-1.537705 -0.099401,-1.74235 l 0.027195,-0.52016 c 0.015595,-0.140695 0.083614,-0.232693 0.1712323,-0.250672 z m 0.7804082,0.105876 c 0.03983,-0.0082 0.08381,-0.0011 0.128617,0.02355 0.143399,0.07895 0.240369,0.307024 0.217684,0.51167 l 0.0033,0.223093 c -0.02268,0.204644 -0.305228,1.833812 -0.448627,1.754866 -0.143399,-0.07895 -0.132839,-1.799247 -0.110155,-2.003891 l 0.03783,-0.259123 c 0.01559,-0.140694 0.08373,-0.232189 0.17135,-0.250169 z m 0.781091,0.08608 c 0.03983,-0.0082 0.08381,-0.0011 0.128617,0.02355 0.143399,0.07895 0.240486,0.307528 0.217802,0.512173 l 0.0076,0.47791 c -0.02268,0.204645 -0.30961,1.578493 -0.453008,1.499546 -0.143399,-0.07895 -0.137827,-1.661221 -0.115142,-1.865867 l 0.04293,-0.396644 c 0.0156,-0.140694 0.08361,-0.232691 0.171233,-0.250671 z"
           sodipodi:nodetypes="scccsccsscccsccsscccsccsscccsccs" />
      </g>
    </g>
    <ellipse
       style="fill:#333333;stroke-width:1.11438;stroke-linecap:round;stroke-linejoin:round;paint-order:fill markers stroke"
       id="ellipse14942"
       cx="8.897727"
       cy="26.623018"
       rx="5.5979242"
       ry="1.7276989" />
  </g>
</svg>
