<?xml version="1.0" encoding="UTF-8" standalone="no"?>
<!-- Created with Inkscape (http://www.inkscape.org/) -->

<svg
   width="64"
   height="128"
   viewBox="0 0 16.933333 33.866668"
   version="1.1"
   id="svg12297"
   inkscape:version="1.1.1 (3bf5ae0d25, 2021-09-20)"
   sodipodi:docname="rat.svg"
   inkscape:export-filename="/home/israel/programming/rs/rust_hero/assets/enemies/rat.png"
   inkscape:export-xdpi="96"
   inkscape:export-ydpi="96"
   xmlns:inkscape="http://www.inkscape.org/namespaces/inkscape"
   xmlns:sodipodi="http://sodipodi.sourceforge.net/DTD/sodipodi-0.dtd"
   xmlns="http://www.w3.org/2000/svg"
   xmlns:svg="http://www.w3.org/2000/svg">
  <sodipodi:namedview
     id="namedview12299"
     pagecolor="#ffffff"
     bordercolor="#666666"
     borderopacity="1.0"
     inkscape:pageshadow="2"
     inkscape:pageopacity="0.0"
     inkscape:pagecheckerboard="0"
     inkscape:document-units="px"
     showgrid="false"
     units="px"
     width="64px"
     inkscape:zoom="6.9597142"
     inkscape:cx="41.093641"
     inkscape:cy="71.195452"
     inkscape:window-width="1366"
     inkscape:window-height="699"
     inkscape:window-x="0"
     inkscape:window-y="40"
     inkscape:window-maximized="1"
     inkscape:current-layer="layer1"
     inkscape:snap-global="false" />
  <defs
     id="defs12294" />
  <g
     inkscape:label="Layer 1"
     inkscape:groupmode="layer"
     id="layer1">
    <g
       id="g9557"
       transform="matrix(0.80436924,0,0,0.80436924,1.7267828,6.4811536)">
      <path
         style="fill:#fe9ab8;fill-opacity:1;stroke:none;stroke-width:0.264583px;stroke-linecap:butt;stroke-linejoin:miter;stroke-opacity:1"
         d="m 9.4108451,25.375075 1.4387009,1.232981 c 0,0 -1.4824977,2.400853 -2.6028757,3.262978 -1.1203778,0.862125 -1.956423,2.069833 -3.943733,1.734096 -1.98731,-0.335736 -4.60900606,-2.539411 -5.7013512,-5.300542 -1.0923452,-2.761133 -0.011956,-7.180911 0.68533719,-10.008019 0.6972931,-2.827108 1.59763749,-4.503058 3.00135161,-6.8072367 1.4037142,-2.3041785 3.7728795,-5.8119363 5.494849,-6.8081696 1.721969,-0.996233 3.1480231,-0.4991222 3.1480231,-0.4991222 0,0 -1.6442194,0.6042441 -3.1328498,1.9861701 -1.4886304,1.3819265 -3.9236734,4.7371643 -5.0584008,6.8033004 -1.1347275,2.066137 -1.4755312,3.056405 -2.02297091,5.29215 -0.54743963,2.235744 -1.66475046,5.760774 -0.93581547,8.091187 0.72893493,2.330413 2.95205748,4.392668 4.29664948,4.884581 1.3445905,0.491917 1.0437938,0.23287 2.0623229,-0.307275 1.018529,-0.540144 3.2707627,-3.557079 3.2707627,-3.557079 z"
         id="path6016"
         sodipodi:nodetypes="cczzzzzzczzzzzzc"
         inkscape:transform-center-x="4.1623609"
         inkscape:transform-center-y="-11.575373" />
      <path
         style="fill:#485a6c;fill-opacity:1;stroke:none;stroke-width:0.264583px;stroke-linecap:butt;stroke-linejoin:miter;stroke-opacity:1"
         d="m 5.6192186,15.69321 -2.0332952,0.685756 0.6600087,0.361164 -1.7912277,0.645993 0.7477907,0.235186 -1.5001617,1.511549 0.9755728,-0.361096 -1.75337682,2.887013 1.00831432,-0.558747 -0.93808818,3.67031 0.99556578,-1.028434 -0.435213,3.428106 0.6993736,-1.29644 0.2484161,2.972531 0.7254244,-0.840021 1.1744952,3.184578 0.543029,-0.999003 1.5232854,1.972464 0.4991216,-1.107319 1.6299837,1.926514 1.3156396,-1.290127 1.2824371,1.293902 0.912408,-1.844087 0.704959,1.325697 1.450971,-2.982098 0.31028,1.23488 0.79405,-2.812648 0.971132,1.17721 -0.05129,-1.947325 0.481147,0.360153 -0.659524,-2.024721 0.59531,0.528302 -0.353159,-1.73719 0.380513,0.110703 -0.287794,-1.69744 0.269587,0.340637 -0.277357,-2.05114 0.387754,0.105894 -1.242265,-2.948274 0.724271,0.380283 -1.566363,-2.286017 0.782463,-0.08728 -1.909338,-0.492222 0.612339,-0.318143 -1.922545,0.155747 0.213676,-0.84765 -1.508013,0.33905 L 9.0222635,14.19136 9.2400812,15.217782 6.4052419,13.9399 6.9795595,15.22738 5.466409,14.387009 6.1530192,15.463241 5.172332,14.867467 Z"
         id="path3886" />
      <ellipse
         style="opacity:1;fill:#667885;stroke-width:0.0264583;stroke-linecap:round;stroke-linejoin:round;paint-order:fill markers stroke"
         id="ellipse1502"
         cx="8.935914"
         cy="24.456436"
         rx="4.2551165"
         ry="5.314497" />
      <path
         style="opacity:0.5;fill:#000000;fill-opacity:1;stroke:none;stroke-width:0.264583px;stroke-linecap:butt;stroke-linejoin:miter;stroke-opacity:1"
         d="m 13.020533,15.452379 0.498306,0.957376 0.18146,1.081145 -0.730141,-0.100769 0.279001,1.493213 -0.959972,-0.611587 0.228262,0.836858 -1.176031,0.02336 -0.212767,1.035967 -0.595459,-0.633296 -0.6791006,0.911776 -0.5032706,-0.615402 -0.8348951,0.800126 -0.090804,-0.889553 -1.0769722,0.489138 -0.010681,-0.885432 -1.1810759,0.461803 0.2209882,-1.144725 -1.0595544,0.454934 0.3046995,-1.29151 -1.1330076,0.170883 0.5209768,-1.708972 0.5823699,-0.562709 c 5.257611,-3.718949 3.5745185,-2.191673 7.427668,-0.272624 z"
         id="path4180"
         sodipodi:nodetypes="cccccccccccccccccccccccc" />
      <g
         id="g3823">
        <path
           style="fill:#485a6c;fill-opacity:1;stroke:none;stroke-width:0.264583px;stroke-linecap:butt;stroke-linejoin:miter;stroke-opacity:1"
           d="M 5.1805884,8.4820543 4.9239703,6.9061903 5.6665539,8.3622594 5.6240795,7.3416027 6.2152913,8.0735585 7.3143334,7.1075986 8.9998833,6.5531943 11.814518,5.6115256 l -1.028961,0.98396 1.821262,0.051881 -1.473852,0.7301511 1.664397,0.00737 -0.132819,0.4336495 0.419807,-0.284438 -0.101733,0.6515167 0.235463,1.0788446 0.411446,2.9206045 0.380337,0.776407 -0.297387,-0.03535 0.261741,1.339138 -0.597413,-0.304708 0.323493,1.41365 -0.730141,-0.100769 0.279001,1.493213 -0.959972,-0.611587 0.228262,0.836858 -1.176031,0.02336 -0.212767,1.035967 -0.595459,-0.633296 -0.6791006,0.911776 -0.5032706,-0.615402 -0.8348951,0.800126 -0.090804,-0.889553 -1.0769722,0.489138 -0.010681,-0.885432 -1.1810759,0.461803 0.2209882,-1.144725 -1.0595544,0.454934 0.3046995,-1.29151 -1.1330076,0.170883 0.5209768,-1.708972 -1.0031809,0.495619 0.4976936,-1.82545 -0.7388196,0.528237 0.7000439,-1.344853 -0.9727634,0.311806 1.205687,-1.959156 -0.8459275,0.4755 z"
           id="path3230" />
        <g
           id="g3801">
          <g
             id="g3189"
             transform="rotate(14.466458,8.1576748,-4.1146766)">
            <path
               style="fill:#f4679d;fill-opacity:1;stroke:none;stroke-width:0.264583px;stroke-linecap:butt;stroke-linejoin:miter;stroke-opacity:1"
               d="m 16.067393,6.8501082 c 0.11019,-0.387577 0.344497,-0.7294641 0.544912,-1.079023 0.297492,-0.5188762 0.66303,-0.9960629 0.973595,-1.5072215 0.389057,-0.6403479 1.113794,-1.9524747 1.113794,-1.9524747 0,0 0.244425,1.1738665 0.266068,1.770153 0.04115,1.133869 -0.049,2.264691 -0.260587,3.3938575 -0.153237,0.8177921 -0.398514,2.1929693 -1.23555,2.7479745 -0.09898,0.06563 -0.255513,0.0711 -0.356184,0.0081 C 16.3497,9.7535338 16.141309,8.6620458 15.987388,7.7743319 c -0.05283,-0.3046819 -0.0046,-0.6267871 0.08,-0.9242277 z"
               id="path2328"
               sodipodi:nodetypes="aaacasaaaa" />
            <ellipse
               style="opacity:0.5;fill:#000000;stroke-width:0.00838538;stroke-linecap:round;stroke-linejoin:round;paint-order:fill markers stroke"
               id="ellipse2131"
               cx="18.863262"
               cy="2.5490091"
               rx="0.69102079"
               ry="3.287025"
               transform="rotate(12.346469)" />
          </g>
          <g
             id="g3195"
             transform="matrix(-0.96829405,0.24981319,0.24981319,0.96829405,19.13932,-2.1683545)">
            <path
               style="fill:#f4679d;fill-opacity:1;stroke:none;stroke-width:0.264583px;stroke-linecap:butt;stroke-linejoin:miter;stroke-opacity:1"
               d="m 16.067393,6.8501082 c 0.11019,-0.387577 0.344497,-0.7294641 0.544912,-1.079023 0.297492,-0.5188762 0.66303,-0.9960629 0.973595,-1.5072215 0.389057,-0.6403479 1.113794,-1.9524747 1.113794,-1.9524747 0,0 0.244425,1.1738665 0.266068,1.770153 0.04115,1.133869 -0.049,2.264691 -0.260587,3.3938575 -0.153237,0.8177921 -0.398514,2.1929693 -1.23555,2.7479745 -0.09898,0.06563 -0.255513,0.0711 -0.356184,0.0081 C 16.3497,9.7535338 16.141309,8.6620458 15.987388,7.7743319 c -0.05283,-0.3046819 -0.0046,-0.6267871 0.08,-0.9242277 z"
               id="path3191"
               sodipodi:nodetypes="aaacasaaaa" />
            <ellipse
               style="opacity:0.5;fill:#000000;stroke-width:0.00838538;stroke-linecap:round;stroke-linejoin:round;paint-order:fill markers stroke"
               id="ellipse3193"
               cx="18.863262"
               cy="2.5490091"
               rx="0.69102079"
               ry="3.287025"
               transform="rotate(12.346469)" />
          </g>
          <g
             id="g3781"
             transform="translate(-0.04063867)">
            <ellipse
               style="opacity:1;fill:#bc245d;stroke-width:0.00560579;stroke-linecap:round;stroke-linejoin:round;paint-order:fill markers stroke"
               id="path1282"
               cx="9.2256727"
               cy="13.953679"
               rx="1.3702829"
               ry="0.74081957" />
            <g
               id="g3768">
              <g
                 id="g3760">
                <ellipse
                   style="fill:#fafafa;stroke-width:0.0264583;stroke-linecap:round;stroke-linejoin:round;paint-order:fill markers stroke"
                   id="path1600"
                   cx="7.3817592"
                   cy="11.97578"
                   rx="1.4017467"
                   ry="1.3130605" />
                <path
                   id="path1646"
                   style="stroke-width:0.0445278;stroke-linecap:round;stroke-linejoin:round;paint-order:fill markers stroke"
                   d="m 7.5946846,11.284855 a 0.98863287,0.99057412 0 0 0 -0.9890869,0.990637 0.98863287,0.99057412 0 0 0 0.9890869,0.990637 0.98863287,0.99057412 0 0 0 0.9885701,-0.990637 0.98863287,0.99057412 0 0 0 -0.050126,-0.304891 0.35630822,0.34723354 0 0 1 5.167e-4,0.01654 0.35630822,0.34723354 0 0 1 -0.3560506,0.347266 0.35630822,0.34723354 0 0 1 -0.3565673,-0.347266 0.35630822,0.34723354 0 0 1 0.3565673,-0.347265 0.35630822,0.34723354 0 0 1 0.2402954,0.09147 0.98863287,0.99057412 0 0 0 -0.8232055,-0.446484 z M 7.2329497,11.671911 A 0.35630822,0.34723354 0 0 1 7.589517,12.019177 0.35630822,0.34723354 0 0 1 7.2329497,12.366442 0.35630822,0.34723354 0 0 1 6.8768988,12.019177 0.35630822,0.34723354 0 0 1 7.2329497,11.671911 Z m 0.4061767,0.781865 A 0.35630822,0.34723354 0 0 1 7.9951769,12.801041 0.35630822,0.34723354 0 0 1 7.6391264,13.14779 0.35630822,0.34723354 0 0 1 7.282559,12.801041 0.35630822,0.34723354 0 0 1 7.6391264,12.453776 Z" />
              </g>
              <g
                 id="g3756">
                <ellipse
                   style="fill:#fafafa;stroke-width:0.0264583;stroke-linecap:round;stroke-linejoin:round;paint-order:fill markers stroke"
                   id="ellipse1887"
                   cx="11.069586"
                   cy="11.93817"
                   rx="1.4017467"
                   ry="1.3130605" />
                <path
                   id="ellipse1889"
                   style="stroke-width:0.0445278;stroke-linecap:round;stroke-linejoin:round;paint-order:fill markers stroke"
                   d="m 10.897742,11.226846 a 0.98863287,0.99057412 0 0 0 -0.9885704,0.990638 0.98863287,0.99057412 0 0 0 0.9885704,0.990637 0.98863287,0.99057412 0 0 0 0.98857,-0.990637 0.98863287,0.99057412 0 0 0 -0.04961,-0.309542 0.35630822,0.34723354 0 0 1 5.17e-4,0.02119 0.35630822,0.34723354 0 0 1 -0.356567,0.347266 0.35630822,0.34723354 0 0 1 -0.356051,-0.347266 0.35630822,0.34723354 0 0 1 0.356051,-0.347266 0.35630822,0.34723354 0 0 1 0.246497,0.09664 0.98863287,0.99057412 0 0 0 -0.829407,-0.451652 z m -0.341065,0.147795 a 0.26116944,0.26466949 0 0 1 0.260966,0.264583 0.26116944,0.26466949 0 0 1 -0.260966,0.264584 0.26116944,0.26466949 0 0 1 -0.261483,-0.264584 0.26116944,0.26466949 0 0 1 0.261483,-0.264583 z m 0.251664,0.83199 a 0.49006473,0.44180594 0 0 1 0.49041,0.441834 0.49006473,0.44180594 0 0 1 -0.49041,0.441834 0.49006473,0.44180594 0 0 1 -0.489892,-0.441834 0.49006473,0.44180594 0 0 1 0.489892,-0.441834 z" />
              </g>
            </g>
            <g
               id="g3752"
               transform="translate(0.01480308)">
              <rect
                 style="opacity:1;fill:#fafafa;fill-opacity:1;stroke:none;stroke-width:0.0210837;stroke-linecap:round;stroke-linejoin:round;paint-order:fill markers stroke"
                 id="rect3418"
                 width="0.82866114"
                 height="1.5637774"
                 x="8.3241739"
                 y="14.916883"
                 ry="0.25481841" />
              <rect
                 style="opacity:1;fill:#fafafa;fill-opacity:1;stroke:none;stroke-width:0.0210837;stroke-linecap:round;stroke-linejoin:round;paint-order:fill markers stroke"
                 id="rect3748"
                 width="0.82866114"
                 height="1.5637774"
                 x="9.2689037"
                 y="14.916883"
                 ry="0.25481841" />
            </g>
          </g>
        </g>
      </g>
      <g
         id="g8580">
        <path
           style="fill:#f4679d;fill-opacity:1;stroke:none;stroke-width:0.264583px;stroke-linecap:butt;stroke-linejoin:miter;stroke-opacity:1"
           d="m 13.570254,29.419542 -0.884199,-0.930046 0.634656,0.27526 -0.417937,-0.670784 -0.380044,-0.300157 c 0,0 0.741305,-1.026443 1.231019,-1.415113 0.404887,-0.321346 0.861352,-0.636484 1.370533,-0.725539 0.394597,-0.06902 0.799846,0.319559 0.799846,0.319559 0,0 0.242946,1.255122 0.254974,1.960272 0.01018,0.59665 0.197937,1.185318 0.175162,1.78162 -0.02872,0.751954 -0.389008,1.444243 -0.389008,1.444243 0,0 1.310382,0.09173 1.894199,0.360553 0.370251,0.170487 0.638306,0.83553 0.638306,0.83553 0,0 -0.544873,0.399091 -1.018689,0.495102 -0.654254,0.132574 -1.35898,0.174057 -2.002649,-0.0029 -0.431928,-0.118745 -0.984574,-0.271451 -1.155988,-0.68531 -0.117976,-0.284839 0.229106,-0.896089 0.229106,-0.896089 l -0.303316,-1.231788 -0.01514,-0.829097 c -0.165742,0.244069 -0.319943,0.389858 -0.590483,0.530209 l -0.729263,-0.323286 z"
           id="path6388"
           sodipodi:nodetypes="cccccsscsscscssscccccc" />
        <g
           id="g8572">
          <path
             style="fill:#0e141f;fill-opacity:1;stroke:none;stroke-width:0.264583px;stroke-linecap:butt;stroke-linejoin:miter;stroke-opacity:1"
             d="m 16.520835,32.532604 c 0.302117,0.181837 0.495238,0.934768 0.495238,0.934768 0,0 0.05386,-0.831662 -0.155002,-1.161878 -0.06082,-0.09616 -0.198508,-0.174842 -0.286368,-0.185775 -0.08786,-0.01093 -0.145444,0.308587 -0.05387,0.412885 0,10e-7 1e-6,0 2e-6,0 z"
             id="path8010"
             sodipodi:nodetypes="scssss" />
          <path
             style="fill:#0e141f;fill-opacity:1;stroke:none;stroke-width:0.264583px;stroke-linecap:butt;stroke-linejoin:miter;stroke-opacity:1"
             d="m 17.965578,32.214752 c 0.302117,0.181837 0.495238,0.934768 0.495238,0.934768 0,0 0.05386,-0.831662 -0.155002,-1.161878 -0.06082,-0.09616 -0.198508,-0.174842 -0.286368,-0.185775 -0.08786,-0.01093 -0.145444,0.308587 -0.05387,0.412885 0,1e-6 1e-6,0 2e-6,0 z"
             id="path8560"
             sodipodi:nodetypes="scssss" />
          <path
             style="fill:#0e141f;fill-opacity:1;stroke:none;stroke-width:0.264583px;stroke-linecap:butt;stroke-linejoin:miter;stroke-opacity:1"
             d="m 17.598719,32.40962 c 0.302117,0.181837 0.495238,0.934768 0.495238,0.934768 0,0 0.05386,-0.831662 -0.155002,-1.161878 -0.06082,-0.09616 -0.198508,-0.174842 -0.286368,-0.185775 -0.08786,-0.01093 -0.145444,0.308587 -0.05387,0.412885 0,1e-6 1e-6,0 2e-6,0 z"
             id="path8562"
             sodipodi:nodetypes="scssss" />
          <path
             style="fill:#0e141f;fill-opacity:1;stroke:none;stroke-width:0.264583px;stroke-linecap:butt;stroke-linejoin:miter;stroke-opacity:1"
             d="m 17.05538,32.520454 c 0.302117,0.181837 0.495238,0.934768 0.495238,0.934768 0,0 0.05386,-0.831662 -0.155002,-1.161878 -0.06082,-0.09616 -0.198508,-0.174842 -0.286368,-0.185775 -0.08786,-0.01093 -0.145444,0.308587 -0.05387,0.412885 0,10e-7 10e-7,0 2e-6,0 z"
             id="path8564"
             sodipodi:nodetypes="scssss" />
        </g>
      </g>
      <g
         id="g8594"
         transform="matrix(-1,0,0,1,17.791316,0)">
        <path
           style="fill:#f4679d;fill-opacity:1;stroke:none;stroke-width:0.264583px;stroke-linecap:butt;stroke-linejoin:miter;stroke-opacity:1"
           d="m 13.570254,29.419542 -0.884199,-0.930046 0.634656,0.27526 -0.417937,-0.670784 -0.380044,-0.300157 c 0,0 0.741305,-1.026443 1.231019,-1.415113 0.404887,-0.321346 0.861352,-0.636484 1.370533,-0.725539 0.394597,-0.06902 0.799846,0.319559 0.799846,0.319559 0,0 0.242946,1.255122 0.254974,1.960272 0.01018,0.59665 0.197937,1.185318 0.175162,1.78162 -0.02872,0.751954 -0.389008,1.444243 -0.389008,1.444243 0,0 1.310382,0.09173 1.894199,0.360553 0.370251,0.170487 0.638306,0.83553 0.638306,0.83553 0,0 -0.544873,0.399091 -1.018689,0.495102 -0.654254,0.132574 -1.35898,0.174057 -2.002649,-0.0029 -0.431928,-0.118745 -0.984574,-0.271451 -1.155988,-0.68531 -0.117976,-0.284839 0.229106,-0.896089 0.229106,-0.896089 l -0.303316,-1.231788 -0.01514,-0.829097 c -0.165742,0.244069 -0.319943,0.389858 -0.590483,0.530209 l -0.729263,-0.323286 z"
           id="path8582"
           sodipodi:nodetypes="cccccsscsscscssscccccc" />
        <g
           id="g8592">
          <path
             style="fill:#0e141f;fill-opacity:1;stroke:none;stroke-width:0.264583px;stroke-linecap:butt;stroke-linejoin:miter;stroke-opacity:1"
             d="m 16.520835,32.532604 c 0.302117,0.181837 0.495238,0.934768 0.495238,0.934768 0,0 0.05386,-0.831662 -0.155002,-1.161878 -0.06082,-0.09616 -0.198508,-0.174842 -0.286368,-0.185775 -0.08786,-0.01093 -0.145444,0.308587 -0.05387,0.412885 0,10e-7 1e-6,0 2e-6,0 z"
             id="path8584"
             sodipodi:nodetypes="scssss" />
          <path
             style="fill:#0e141f;fill-opacity:1;stroke:none;stroke-width:0.264583px;stroke-linecap:butt;stroke-linejoin:miter;stroke-opacity:1"
             d="m 17.965578,32.214752 c 0.302117,0.181837 0.495238,0.934768 0.495238,0.934768 0,0 0.05386,-0.831662 -0.155002,-1.161878 -0.06082,-0.09616 -0.198508,-0.174842 -0.286368,-0.185775 -0.08786,-0.01093 -0.145444,0.308587 -0.05387,0.412885 0,1e-6 1e-6,0 2e-6,0 z"
             id="path8586"
             sodipodi:nodetypes="scssss" />
          <path
             style="fill:#0e141f;fill-opacity:1;stroke:none;stroke-width:0.264583px;stroke-linecap:butt;stroke-linejoin:miter;stroke-opacity:1"
             d="m 17.598719,32.40962 c 0.302117,0.181837 0.495238,0.934768 0.495238,0.934768 0,0 0.05386,-0.831662 -0.155002,-1.161878 -0.06082,-0.09616 -0.198508,-0.174842 -0.286368,-0.185775 -0.08786,-0.01093 -0.145444,0.308587 -0.05387,0.412885 0,1e-6 1e-6,0 2e-6,0 z"
             id="path8588"
             sodipodi:nodetypes="scssss" />
          <path
             style="fill:#0e141f;fill-opacity:1;stroke:none;stroke-width:0.264583px;stroke-linecap:butt;stroke-linejoin:miter;stroke-opacity:1"
             d="m 17.05538,32.520454 c 0.302117,0.181837 0.495238,0.934768 0.495238,0.934768 0,0 0.05386,-0.831662 -0.155002,-1.161878 -0.06082,-0.09616 -0.198508,-0.174842 -0.286368,-0.185775 -0.08786,-0.01093 -0.145444,0.308587 -0.05387,0.412885 0,10e-7 10e-7,0 2e-6,0 z"
             id="path8590"
             sodipodi:nodetypes="scssss" />
        </g>
      </g>
      <path
         id="path8865"
         style="opacity:0.5;fill:#000000;fill-opacity:1;stroke:none;stroke-width:0.344247px;stroke-linecap:butt;stroke-linejoin:miter;stroke-opacity:1"
         d="m 4.4746623,20.1936 c 0,0 -1.1440211,1.127997 -1.5781981,1.796273 -0.4059041,0.624757 -0.93431,2.030367 -0.93431,2.030367 l 0.086816,0.377238 c 0,0 0.4864731,0.127696 0.734322,0.119889 0.8144151,-0.02564 1.6003424,-0.317316 2.3828006,-0.544669 0.1871167,-0.05437 0.5508707,-0.195337 0.5508707,-0.195337 0,0 0.4709141,0.357546 0.762744,0.459403 0.3070836,0.107182 0.6499942,0.265436 0.9425782,0.198438 0.00665,0.04073 0.019504,0.077 0.040824,0.101285 0.3021174,0.181837 0.4950603,0.93431 0.4950603,0.93431 0,0 0.053833,-0.83147 -0.1550292,-1.161686 -0.01657,-0.0262 -0.038661,-0.05131 -0.064079,-0.0739 0.054963,-0.06554 0.098262,-0.141603 0.1322917,-0.224276 0.2330003,0.270962 0.3767211,0.829924 0.3767211,0.829924 0,0 0.053833,-0.831471 -0.1550291,-1.161687 -0.027783,-0.04393 -0.071586,-0.08392 -0.1193726,-0.115755 0.00421,-0.04255 0.0071,-0.08547 0.0093,-0.128157 0.3180656,0.164092 0.6593911,0.662492 0.6593911,0.662492 0,0 -0.2338819,-0.79987 -0.5431192,-1.038697 -0.032766,-0.02531 -0.074078,-0.0451 -0.1178221,-0.05891 -0.00348,-0.07386 -0.00915,-0.151262 -0.020154,-0.22841 0.3374954,0.111402 0.7379394,0.696082 0.7379394,0.696082 0,0 -0.2338822,-0.799869 -0.5431193,-1.038697 -0.09005,-0.06955 -0.2464977,-0.09626 -0.3327963,-0.07648 -0.00764,0.0018 -0.014163,0.0058 -0.019637,0.01189 -0.024153,-0.0271 -0.051383,-0.05073 -0.082682,-0.0708 -0.295638,-0.18957 -0.6726272,0.07755 -1.0061403,0.187586 -0.2923019,0.09644 -0.8350912,0.38964 -0.8350912,0.38964 0,0 -2.1797362,0.411534 -2.1177001,0.314193 0.06204,-0.09734 1.8401977,-2.693893 1.8401977,-2.693893 L 4.9506,20.944458 5.1573057,20.340878 4.5056658,20.826636 Z m 9.1203737,0 -0.03101,0.633036 -0.652156,-0.485758 0.207222,0.60358 -0.65164,-0.453202 c 0,0 1.778158,2.596553 1.840198,2.693893 0.06204,0.09734 -2.1177,-0.314193 -2.1177,-0.314193 0,0 -0.542789,-0.2932 -0.835091,-0.38964 -0.333513,-0.110032 -0.710502,-0.377156 -1.00614,-0.187586 -0.0313,0.02007 -0.05853,0.04369 -0.08268,0.0708 -0.0055,-0.0061 -0.012,-0.01013 -0.01964,-0.01189 -0.0863,-0.01978 -0.242746,0.0069 -0.332796,0.07648 -0.3092373,0.238828 -0.5431192,1.038697 -0.5431192,1.038697 0,0 0.400444,-0.58468 0.7379392,-0.696082 -0.01101,0.07715 -0.01667,0.154546 -0.02015,0.22841 -0.04374,0.01381 -0.08506,0.03361 -0.1178218,0.05891 -0.3092374,0.238827 -0.5431195,1.038697 -0.5431195,1.038697 0,0 0.3413257,-0.4984 0.6593913,-0.662492 0.0022,0.04269 0.0051,0.08561 0.0093,0.128157 -0.04779,0.03184 -0.09159,0.07183 -0.1193728,0.115755 -0.2088623,0.330216 -0.1550292,1.161687 -0.1550292,1.161687 0,0 0.1437212,-0.558962 0.376721,-0.829924 0.03403,0.08267 0.07733,0.15874 0.132292,0.224276 -0.02542,0.02259 -0.04803,0.0477 -0.0646,0.0739 -0.208862,0.330216 -0.154512,1.161686 -0.154512,1.161686 0,0 0.192942,-0.752473 0.49506,-0.93431 0.02132,-0.02428 0.03417,-0.06056 0.04082,-0.101285 0.292583,0.067 0.634977,-0.09126 0.942061,-0.198438 0.29183,-0.101857 0.763261,-0.459403 0.763261,-0.459403 0,0 0.363753,0.140967 0.55087,0.195337 0.782459,0.227353 1.568386,0.519029 2.382801,0.544669 0.247849,0.0078 0.734322,-0.119889 0.734322,-0.119889 l 0.08682,-0.377238 c 0,0 -0.528405,-1.40561 -0.93431,-2.030367 C 14.739057,21.321597 13.595036,20.1936 13.595036,20.1936 Z" />
      <g
         id="g8863">
        <g
           id="g8833"
           transform="translate(0.52916667)">
          <path
             style="fill:#f4679d;fill-opacity:1;stroke:none;stroke-width:0.344247px;stroke-linecap:butt;stroke-linejoin:miter;stroke-opacity:1"
             d="m 9.5565344,22.526781 c 0.010018,-0.268647 0.036886,-0.617241 0.2631887,-0.762354 0.2956379,-0.18957 0.6725169,0.07783 1.0060299,0.187862 0.292302,0.09644 0.834821,0.389465 0.834821,0.389465 0,0 2.179777,0.411609 2.117741,0.314268 -0.06204,-0.09734 -1.840086,-2.694092 -1.840086,-2.694092 l 0.651851,0.453286 -0.20713,-0.603482 0.65186,0.485761 0.03091,-0.632929 c 0,0 1.144021,1.12761 1.578198,1.795886 0.405904,0.624757 0.934506,2.030371 0.934506,2.030371 l -0.08694,0.377435 c 0,0 -0.486357,0.127611 -0.734206,0.119804 -0.814415,-0.02564 -1.600545,-0.317323 -2.383003,-0.544677 -0.187117,-0.05437 -0.550938,-0.195412 -0.550938,-0.195412 0,0 -0.470956,0.35799 -0.762786,0.459847 -0.391424,0.136619 -0.840809,0.355898 -1.1703671,0.08639 C 9.5606316,23.524706 9.5401537,22.963346 9.5565344,22.526782 Z"
             id="path5138"
             sodipodi:nodetypes="ssscscccccsccsscszs" />
          <g
             id="g8825">
            <path
               style="fill:#0e141f;fill-opacity:1;stroke:none;stroke-width:0.264583px;stroke-linecap:butt;stroke-linejoin:miter;stroke-opacity:1"
               d="m 10.077365,24.007083 c -0.3021174,0.181837 -0.4952387,0.934768 -0.4952387,0.934768 0,0 -0.05386,-0.831662 0.1550023,-1.161878 0.06082,-0.09616 0.198508,-0.174842 0.2863684,-0.185775 0.08786,-0.01093 0.145444,0.308587 0.05387,0.412885 0,10e-7 -1e-6,0 -2e-6,0 z"
               id="path8566"
               sodipodi:nodetypes="scssss" />
            <path
               style="fill:#0e141f;fill-opacity:1;stroke:none;stroke-width:0.264583px;stroke-linecap:butt;stroke-linejoin:miter;stroke-opacity:1"
               d="m 9.7877038,23.377105 c -0.3021174,0.181837 -0.4952387,0.934768 -0.4952387,0.934768 0,0 -0.05386,-0.831662 0.1550023,-1.161878 0.06082,-0.09616 0.198508,-0.174842 0.2863684,-0.185775 0.08786,-0.01093 0.145444,0.308587 0.05387,0.412885 0,1e-6 -10e-7,0 -2e-6,0 z"
               id="path8596"
               sodipodi:nodetypes="scssss" />
            <path
               style="fill:#0e141f;fill-opacity:1;stroke:none;stroke-width:0.264583px;stroke-linecap:butt;stroke-linejoin:miter;stroke-opacity:1"
               d="m 9.6264226,22.229871 c -0.346098,0.0675 -0.7851718,0.708913 -0.7851718,0.708913 0,0 0.2339351,-0.799898 0.5431723,-1.038725 0.09005,-0.06955 0.2463483,-0.09637 0.3326468,-0.07659 0.086297,0.01979 0.031086,0.339726 -0.090645,0.406398 -3e-7,1e-6 -9e-7,0 -1.9e-6,-10e-7 z"
               id="path8600"
               sodipodi:nodetypes="scssss"
               inkscape:transform-center-x="0.34642572"
               inkscape:transform-center-y="0.36460236" />
            <path
               style="fill:#0e141f;fill-opacity:1;stroke:none;stroke-width:0.264583px;stroke-linecap:butt;stroke-linejoin:miter;stroke-opacity:1"
               d="m 9.6831014,22.859846 c -0.346098,0.0675 -0.7851718,0.708913 -0.7851718,0.708913 0,0 0.2339351,-0.799898 0.5431723,-1.038725 0.09005,-0.06955 0.2463483,-0.09637 0.3326468,-0.07659 0.086297,0.01979 0.031086,0.339726 -0.090645,0.406398 -3e-7,1e-6 -9e-7,0 -1.9e-6,-1e-6 z"
               id="path8819"
               sodipodi:nodetypes="scssss"
               inkscape:transform-center-x="0.34642572"
               inkscape:transform-center-y="0.36460236" />
          </g>
        </g>
        <g
           id="g8847"
           transform="matrix(-1,0,0,1,17.540504,0)">
          <path
             style="fill:#f4679d;fill-opacity:1;stroke:none;stroke-width:0.344247px;stroke-linecap:butt;stroke-linejoin:miter;stroke-opacity:1"
             d="m 9.5565344,22.526781 c 0.010018,-0.268647 0.036886,-0.617241 0.2631887,-0.762354 0.2956379,-0.18957 0.6725169,0.07783 1.0060299,0.187862 0.292302,0.09644 0.834821,0.389465 0.834821,0.389465 0,0 2.179777,0.411609 2.117741,0.314268 -0.06204,-0.09734 -1.840086,-2.694092 -1.840086,-2.694092 l 0.651851,0.453286 -0.20713,-0.603482 0.65186,0.485761 0.03091,-0.632929 c 0,0 1.144021,1.12761 1.578198,1.795886 0.405904,0.624757 0.934506,2.030371 0.934506,2.030371 l -0.08694,0.377435 c 0,0 -0.486357,0.127611 -0.734206,0.119804 -0.814415,-0.02564 -1.600545,-0.317323 -2.383003,-0.544677 -0.187117,-0.05437 -0.550938,-0.195412 -0.550938,-0.195412 0,0 -0.470956,0.35799 -0.762786,0.459847 -0.391424,0.136619 -0.840809,0.355898 -1.1703671,0.08639 C 9.5606316,23.524706 9.5401537,22.963346 9.5565344,22.526782 Z"
             id="path8835"
             sodipodi:nodetypes="ssscscccccsccsscszs" />
          <g
             id="g8845">
            <path
               style="fill:#0e141f;fill-opacity:1;stroke:none;stroke-width:0.264583px;stroke-linecap:butt;stroke-linejoin:miter;stroke-opacity:1"
               d="m 10.077365,24.007083 c -0.3021174,0.181837 -0.4952387,0.934768 -0.4952387,0.934768 0,0 -0.05386,-0.831662 0.1550023,-1.161878 0.06082,-0.09616 0.198508,-0.174842 0.2863684,-0.185775 0.08786,-0.01093 0.145444,0.308587 0.05387,0.412885 0,10e-7 -1e-6,0 -2e-6,0 z"
               id="path8837"
               sodipodi:nodetypes="scssss" />
            <path
               style="fill:#0e141f;fill-opacity:1;stroke:none;stroke-width:0.264583px;stroke-linecap:butt;stroke-linejoin:miter;stroke-opacity:1"
               d="m 9.7877038,23.377105 c -0.3021174,0.181837 -0.4952387,0.934768 -0.4952387,0.934768 0,0 -0.05386,-0.831662 0.1550023,-1.161878 0.06082,-0.09616 0.198508,-0.174842 0.2863684,-0.185775 0.08786,-0.01093 0.145444,0.308587 0.05387,0.412885 0,1e-6 -10e-7,0 -2e-6,0 z"
               id="path8839"
               sodipodi:nodetypes="scssss" />
            <path
               style="fill:#0e141f;fill-opacity:1;stroke:none;stroke-width:0.264583px;stroke-linecap:butt;stroke-linejoin:miter;stroke-opacity:1"
               d="m 9.6264226,22.229871 c -0.346098,0.0675 -0.7851718,0.708913 -0.7851718,0.708913 0,0 0.2339351,-0.799898 0.5431723,-1.038725 0.09005,-0.06955 0.2463483,-0.09637 0.3326468,-0.07659 0.086297,0.01979 0.031086,0.339726 -0.090645,0.406398 -3e-7,1e-6 -9e-7,0 -1.9e-6,-10e-7 z"
               id="path8841"
               sodipodi:nodetypes="scssss"
               inkscape:transform-center-x="0.34642572"
               inkscape:transform-center-y="0.36460236" />
            <path
               style="fill:#0e141f;fill-opacity:1;stroke:none;stroke-width:0.264583px;stroke-linecap:butt;stroke-linejoin:miter;stroke-opacity:1"
               d="m 9.6831014,22.859846 c -0.346098,0.0675 -0.7851718,0.708913 -0.7851718,0.708913 0,0 0.2339351,-0.799898 0.5431723,-1.038725 0.09005,-0.06955 0.2463483,-0.09637 0.3326468,-0.07659 0.086297,0.01979 0.031086,0.339726 -0.090645,0.406398 -3e-7,1e-6 -9e-7,0 -1.9e-6,-1e-6 z"
               id="path8843"
               sodipodi:nodetypes="scssss"
               inkscape:transform-center-x="0.34642572"
               inkscape:transform-center-y="0.36460236" />
          </g>
        </g>
      </g>
      <path
         style="opacity:0.5;fill:#000000;fill-opacity:1;stroke:none;stroke-width:0.264583px;stroke-linecap:butt;stroke-linejoin:miter;stroke-opacity:1"
         d="m 4.399995,30.702066 -0.6793458,-1.85405 0.5595742,-0.170534 0.040274,-1.55897 0.7389471,0.0741 -0.3492182,-1.345921 1.8688966,1.615593 1.0961724,-1.116321 0.5260846,1.5546 1.5363338,-1.400405 0.4411303,1.670164 c 0,0 1.66008,-2.222882 1.530808,-2.056244 -0.129272,0.166638 -0.0013,1.597329 -0.0013,1.597329 l 1.247334,-0.948314 -0.06181,1.004808 0.802432,-0.159168 -0.144658,1.37809 0.474849,-0.06392 -1.07374,2.90893 -0.991025,-1.572104 -0.914737,2.17773 L 9.7721756,31.219001 8.5706124,32.523304 6.700631,30.376898 c 0,0 -0.2973821,1.497769 -0.3379951,1.354111 -0.040613,-0.143658 -1.3740345,-1.88948 -1.3740345,-1.88948 z"
         id="path9400" />
    </g>
    <g
       transform="matrix(6.9416331e-4,0,0,6.9416331e-4,8.3673856,17.733754)"
       id="g1011">
	<g
   id="g841">
		<path
   inkscape:connector-curvature="0"
   id="path833"
   d="m 146.014,554.568 c 1.591,3.545 5.165,6.132 9.438,6.83 l 42.059,6.831 c 1.581,2.84 3.243,5.638 4.911,8.414 l -18.34,33.827 c -1.888,3.447 -1.577,7.5 0.781,10.702 2.349,3.221 6.4,5.152 10.76,5.091 l 42.82,-0.495 c 2.171,2.474 4.378,4.926 6.632,7.333 l -10.506,36.433 c -1.063,3.699 0.122,7.617 3.146,10.377 3.008,2.749 7.431,3.947 11.671,3.155 l 41.844,-7.838 c 2.662,2.061 5.372,4.098 8.109,6.094 l -2.189,37.566 c -0.23,3.802 1.81,7.46 5.388,9.639 3.576,2.194 8.159,2.604 12.14,1.1 l 39.174,-14.833 c 3.104,1.573 6.225,3.132 9.381,4.642 l 6.194,37.179 c 0.626,3.767 3.436,7.009 7.425,8.542 3.976,1.538 8.571,1.153 12.125,-1.009 l 35.074,-21.251 c 3.396,1.021 6.807,2.001 10.265,2.942 l 14.3,35.416 c 1.455,3.609 4.91,6.306 9.169,7.127 4.244,0.814 8.649,-0.345 11.652,-3.066 l 29.687,-26.946 c 3.522,0.409 7.048,0.789 10.584,1.114 l 21.947,32.409 c 2.226,3.281 6.218,5.33 10.565,5.413 4.334,0.083 8.41,-1.812 10.733,-5.008 l 23.126,-31.552 c 3.547,-0.188 7.099,-0.435 10.628,-0.709 l 28.682,28.058 c 2.905,2.835 7.279,4.161 11.538,3.509 4.282,-0.666 7.842,-3.222 9.418,-6.773 l 15.601,-34.846 c 3.479,-0.81 6.926,-1.668 10.365,-2.55 l 34.257,22.572 c 3.483,2.302 8.062,2.861 12.1,1.468 4.025,-1.379 6.964,-4.513 7.725,-8.252 l 7.556,-36.917 c 3.208,-1.389 6.385,-2.818 9.552,-4.281 l 38.6,16.313 c 3.92,1.661 8.535,1.422 12.17,-0.636 3.65,-2.042 5.828,-5.619 5.732,-9.426 l -0.802,-37.625 c 2.803,-1.892 5.578,-3.823 8.327,-5.78 l 41.521,9.426 c 4.218,0.946 8.677,-0.075 11.79,-2.709 3.135,-2.644 4.454,-6.513 3.53,-10.249 l -9.146,-36.808 c 2.32,-2.329 4.618,-4.687 6.875,-7.074 l 42.77,2.125 c 4.316,0.19 8.473,-1.549 10.943,-4.679 2.478,-3.11 2.918,-7.147 1.181,-10.665 l -17.104,-34.501 c 1.774,-2.712 3.535,-5.445 5.231,-8.222 l 42.278,-5.226 c 4.297,-0.526 7.954,-2.975 9.684,-6.465 1.72,-3.5 1.257,-7.533 -1.215,-10.677 L 921.479,528.24 c 0.203,-0.531 -1.999,-32.28 -21.526,-58.158 0,0 -0.169,-0.069 -0.475,-0.191 C 855.033,407.22 716.712,359.6 552.124,356.465 378.036,353.149 231.49,400.686 193.714,467.318 176.853,484.381 172.602,512.466 173.11,513.99 l -25.495,29.958 c -2.602,3.046 -3.19,7.059 -1.601,10.62 z"
   fill="#8f1f1d" />

		<path
   inkscape:connector-curvature="0"
   id="path835"
   d="m 1006.008,420.45 c -1.728,-4.947 -19.723,-3.687 -24.194,-4.556 l -65.68,0.586 c -1.701,-3.954 -3.489,-7.85 -5.283,-11.713 l 42.551,-65.735 c 1.905,-4.904 12.443,-11.779 9.923,-16.227 -2.512,-4.469 -18.607,1.506 -23.153,1.708 l -67.827,12.061 c -2.313,-3.422 -4.662,-6.814 -7.059,-10.144 l 38.03,-84.758 c 1.039,-5.237 12.658,-26.514 9.45,-30.318 -3.189,-3.792 -18.273,9.018 -22.681,10.249 l -73.744,46.76 c -2.816,-2.829 -5.681,-5.624 -8.575,-8.362 l 20.894,-73.414 c 0.168,-5.358 11.334,-30.76 7.561,-33.733 -3.771,-2.993 -16.667,8.452 -20.79,10.675 l -65.16,50.814 c -3.268,-2.13 -6.552,-4.242 -9.872,-6.284 l 15.496,-86.805 c -0.726,-5.287 5.608,-32.964 1.417,-35.016 -4.174,-2.061 -26.104,22.056 -29.768,25.194 l -51.029,65.23 c -3.562,-1.346 -7.138,-2.635 -10.763,-3.867 L 660.92,74.281 c -1.585,-5.042 -1.212,-22.872 -5.67,-23.913 -4.442,-1.033 -10.15,14.875 -13.23,18.788 l -44.103,87.736 c -3.682,-0.482 -7.366,-0.922 -11.061,-1.283 L 564.527,54.643 C 562.143,50.081 559.614,35 555.078,35 c -4.522,0 -8.035,18.07 -10.396,22.631 l -27.077,97.982 c -3.695,0.361 -7.396,0.801 -11.07,1.283 L 468.137,67.88 c -3.084,-3.914 -8.33,-23.237 -12.758,-22.205 -4.455,1.053 -3.621,15.455 -5.197,20.497 l -11.499,106.627 c -3.614,1.232 -7.193,2.532 -10.764,3.867 l -34.912,-44.734 c -3.677,-3.148 -24.165,-34.096 -28.351,-32.026 -4.172,2.051 -1.167,34.426 -1.89,39.712 l 1.271,68.443 c -3.32,2.042 -6.606,4.14 -9.883,6.284 l -63.681,-59.354 c -4.12,-2.232 -12.786,-11.533 -16.538,-8.541 -3.769,2.974 -0.643,16.419 -0.472,21.778 l 23.196,91.775 c -2.887,2.738 -5.745,5.533 -8.575,8.362 l -69.905,-43.344 c -4.418,-1.22 -18.065,-11.905 -21.263,-8.113 -3.218,3.804 4.164,7.809 5.197,13.047 l 36.995,96.478 c -2.376,3.342 -4.729,6.721 -7.034,10.144 L 118.07,298.04 c -4.506,-0.151 -16.917,-6.178 -19.435,-1.708 -2.522,4.447 8.045,10.896 9.923,15.8 l 85.012,92.637 c -1.798,3.863 -3.583,7.759 -5.3,11.713 l -82.547,-9.979 c -4.47,0.857 -16.217,-1.544 -17.956,3.415 -1.728,4.972 9.648,11.415 12.286,15.774 l 61.741,66.493 c -0.201,0.755 2.702,45.391 23.563,81.296 0,0 0.177,0.092 0.499,0.258 47.554,87.035 192.733,150.364 364.46,150.364 181.639,0 333.578,-70.85 371.705,-165.663 17.261,-24.474 21.158,-64.123 20.598,-66.255 l 50.158,-54.084 c 2.656,-4.362 14.956,-12.68 13.231,-17.651 z"
   fill="#8f1f1d" />

		<path
   inkscape:connector-curvature="0"
   id="path837"
   d="m 195.34,493.008 c 0,0 -94.761,13.599 -116.083,18.311 -21.321,4.711 -7.095,8.297 0,9.421 24.757,3.927 146.88,7.067 149.25,7.853 2.369,0.785 -33.167,-35.585 -33.167,-35.585 z"
   fill="#8f1f1d" />

		<path
   inkscape:connector-curvature="0"
   id="path839"
   d="m 896.038,499.622 c 0,0 94.762,13.6 116.083,18.311 21.32,4.712 7.095,8.298 0,9.422 -24.758,3.927 -146.88,7.067 -149.249,7.853 -2.37,0.784 33.166,-35.586 33.166,-35.586 z"
   fill="#8f1f1d" />

	</g>

	<g
   transform="translate(-48,14)"
   id="g847">
		<path
   inkscape:connector-curvature="0"
   id="path843"
   d="m 467.982,486.018 c 0,0 -41.096,-44.997 -82.191,0 0,0 -32.292,60.001 0,89.998 0,0 52.837,41.999 82.191,0 0,0 35.226,-33.002 0,-89.998 z" />

		<path
   inkscape:connector-curvature="0"
   id="path845"
   d="m 420.404,502.71 c 0,17.521 10.329,31.727 23.066,31.727 12.735,0 23.064,-14.205 23.064,-31.727 0,-17.522 -10.329,-31.728 -23.064,-31.728 -12.738,0 -23.066,14.206 -23.066,31.728 z"
   fill="#ffffff" />

	</g>

	<g
   transform="translate(-48,14)"
   id="g853">
		<path
   inkscape:connector-curvature="0"
   id="path849"
   d="m 698.226,469.498 c 0,0 -70.494,-31.212 -89.735,38.454 0,0 -20.153,81.201 57.891,85.784 -10e-4,0 99.518,-19.168 31.844,-124.238 z" />

		<path
   inkscape:connector-curvature="0"
   id="path851"
   d="m 662.819,499.628 c 0,18.068 10.65,32.723 23.79,32.723 13.133,0 23.786,-14.654 23.786,-32.723 0,-18.072 -10.653,-32.723 -23.786,-32.723 -13.139,0 -23.79,14.651 -23.79,32.723 z"
   fill="#ffffff" />

	</g>

	
	
	
	
	
	
	
	
	
	
	
</g>
    <g
       transform="matrix(6.9416331e-4,0,0,6.9416331e-4,9.1442828,17.71664)"
       id="g9750">
	<g
   id="g9736">
		<path
   inkscape:connector-curvature="0"
   id="path9728"
   d="m 146.014,554.568 c 1.591,3.545 5.165,6.132 9.438,6.83 l 42.059,6.831 c 1.581,2.84 3.243,5.638 4.911,8.414 l -18.34,33.827 c -1.888,3.447 -1.577,7.5 0.781,10.702 2.349,3.221 6.4,5.152 10.76,5.091 l 42.82,-0.495 c 2.171,2.474 4.378,4.926 6.632,7.333 l -10.506,36.433 c -1.063,3.699 0.122,7.617 3.146,10.377 3.008,2.749 7.431,3.947 11.671,3.155 l 41.844,-7.838 c 2.662,2.061 5.372,4.098 8.109,6.094 l -2.189,37.566 c -0.23,3.802 1.81,7.46 5.388,9.639 3.576,2.194 8.159,2.604 12.14,1.1 l 39.174,-14.833 c 3.104,1.573 6.225,3.132 9.381,4.642 l 6.194,37.179 c 0.626,3.767 3.436,7.009 7.425,8.542 3.976,1.538 8.571,1.153 12.125,-1.009 l 35.074,-21.251 c 3.396,1.021 6.807,2.001 10.265,2.942 l 14.3,35.416 c 1.455,3.609 4.91,6.306 9.169,7.127 4.244,0.814 8.649,-0.345 11.652,-3.066 l 29.687,-26.946 c 3.522,0.409 7.048,0.789 10.584,1.114 l 21.947,32.409 c 2.226,3.281 6.218,5.33 10.565,5.413 4.334,0.083 8.41,-1.812 10.733,-5.008 l 23.126,-31.552 c 3.547,-0.188 7.099,-0.435 10.628,-0.709 l 28.682,28.058 c 2.905,2.835 7.279,4.161 11.538,3.509 4.282,-0.666 7.842,-3.222 9.418,-6.773 l 15.601,-34.846 c 3.479,-0.81 6.926,-1.668 10.365,-2.55 l 34.257,22.572 c 3.483,2.302 8.062,2.861 12.1,1.468 4.025,-1.379 6.964,-4.513 7.725,-8.252 l 7.556,-36.917 c 3.208,-1.389 6.385,-2.818 9.552,-4.281 l 38.6,16.313 c 3.92,1.661 8.535,1.422 12.17,-0.636 3.65,-2.042 5.828,-5.619 5.732,-9.426 l -0.802,-37.625 c 2.803,-1.892 5.578,-3.823 8.327,-5.78 l 41.521,9.426 c 4.218,0.946 8.677,-0.075 11.79,-2.709 3.135,-2.644 4.454,-6.513 3.53,-10.249 l -9.146,-36.808 c 2.32,-2.329 4.618,-4.687 6.875,-7.074 l 42.77,2.125 c 4.316,0.19 8.473,-1.549 10.943,-4.679 2.478,-3.11 2.918,-7.147 1.181,-10.665 l -17.104,-34.501 c 1.774,-2.712 3.535,-5.445 5.231,-8.222 l 42.278,-5.226 c 4.297,-0.526 7.954,-2.975 9.684,-6.465 1.72,-3.5 1.257,-7.533 -1.215,-10.677 L 921.479,528.24 c 0.203,-0.531 -1.999,-32.28 -21.526,-58.158 0,0 -0.169,-0.069 -0.475,-0.191 C 855.033,407.22 716.712,359.6 552.124,356.465 378.036,353.149 231.49,400.686 193.714,467.318 176.853,484.381 172.602,512.466 173.11,513.99 l -25.495,29.958 c -2.602,3.046 -3.19,7.059 -1.601,10.62 z"
   fill="#8f1f1d" />

		<path
   inkscape:connector-curvature="0"
   id="path9730"
   d="m 1006.008,420.45 c -1.728,-4.947 -19.723,-3.687 -24.194,-4.556 l -65.68,0.586 c -1.701,-3.954 -3.489,-7.85 -5.283,-11.713 l 42.551,-65.735 c 1.905,-4.904 12.443,-11.779 9.923,-16.227 -2.512,-4.469 -18.607,1.506 -23.153,1.708 l -67.827,12.061 c -2.313,-3.422 -4.662,-6.814 -7.059,-10.144 l 38.03,-84.758 c 1.039,-5.237 12.658,-26.514 9.45,-30.318 -3.189,-3.792 -18.273,9.018 -22.681,10.249 l -73.744,46.76 c -2.816,-2.829 -5.681,-5.624 -8.575,-8.362 l 20.894,-73.414 c 0.168,-5.358 11.334,-30.76 7.561,-33.733 -3.771,-2.993 -16.667,8.452 -20.79,10.675 l -65.16,50.814 c -3.268,-2.13 -6.552,-4.242 -9.872,-6.284 l 15.496,-86.805 c -0.726,-5.287 5.608,-32.964 1.417,-35.016 -4.174,-2.061 -26.104,22.056 -29.768,25.194 l -51.029,65.23 c -3.562,-1.346 -7.138,-2.635 -10.763,-3.867 L 660.92,74.281 c -1.585,-5.042 -1.212,-22.872 -5.67,-23.913 -4.442,-1.033 -10.15,14.875 -13.23,18.788 l -44.103,87.736 c -3.682,-0.482 -7.366,-0.922 -11.061,-1.283 L 564.527,54.643 C 562.143,50.081 559.614,35 555.078,35 c -4.522,0 -8.035,18.07 -10.396,22.631 l -27.077,97.982 c -3.695,0.361 -7.396,0.801 -11.07,1.283 L 468.137,67.88 c -3.084,-3.914 -8.33,-23.237 -12.758,-22.205 -4.455,1.053 -3.621,15.455 -5.197,20.497 l -11.499,106.627 c -3.614,1.232 -7.193,2.532 -10.764,3.867 l -34.912,-44.734 c -3.677,-3.148 -24.165,-34.096 -28.351,-32.026 -4.172,2.051 -1.167,34.426 -1.89,39.712 l 1.271,68.443 c -3.32,2.042 -6.606,4.14 -9.883,6.284 l -63.681,-59.354 c -4.12,-2.232 -12.786,-11.533 -16.538,-8.541 -3.769,2.974 -0.643,16.419 -0.472,21.778 l 23.196,91.775 c -2.887,2.738 -5.745,5.533 -8.575,8.362 l -69.905,-43.344 c -4.418,-1.22 -18.065,-11.905 -21.263,-8.113 -3.218,3.804 4.164,7.809 5.197,13.047 l 36.995,96.478 c -2.376,3.342 -4.729,6.721 -7.034,10.144 L 118.07,298.04 c -4.506,-0.151 -16.917,-6.178 -19.435,-1.708 -2.522,4.447 8.045,10.896 9.923,15.8 l 85.012,92.637 c -1.798,3.863 -3.583,7.759 -5.3,11.713 l -82.547,-9.979 c -4.47,0.857 -16.217,-1.544 -17.956,3.415 -1.728,4.972 9.648,11.415 12.286,15.774 l 61.741,66.493 c -0.201,0.755 2.702,45.391 23.563,81.296 0,0 0.177,0.092 0.499,0.258 47.554,87.035 192.733,150.364 364.46,150.364 181.639,0 333.578,-70.85 371.705,-165.663 17.261,-24.474 21.158,-64.123 20.598,-66.255 l 50.158,-54.084 c 2.656,-4.362 14.956,-12.68 13.231,-17.651 z"
   fill="#8f1f1d" />

		<path
   inkscape:connector-curvature="0"
   id="path9732"
   d="m 195.34,493.008 c 0,0 -94.761,13.599 -116.083,18.311 -21.321,4.711 -7.095,8.297 0,9.421 24.757,3.927 146.88,7.067 149.25,7.853 2.369,0.785 -33.167,-35.585 -33.167,-35.585 z"
   fill="#8f1f1d" />

		<path
   inkscape:connector-curvature="0"
   id="path9734"
   d="m 896.038,499.622 c 0,0 94.762,13.6 116.083,18.311 21.32,4.712 7.095,8.298 0,9.422 -24.758,3.927 -146.88,7.067 -149.249,7.853 -2.37,0.784 33.166,-35.586 33.166,-35.586 z"
   fill="#8f1f1d" />

	</g>

	<g
   transform="translate(-48,14)"
   id="g9742">
		<path
   inkscape:connector-curvature="0"
   id="path9738"
   d="m 467.982,486.018 c 0,0 -41.096,-44.997 -82.191,0 0,0 -32.292,60.001 0,89.998 0,0 52.837,41.999 82.191,0 0,0 35.226,-33.002 0,-89.998 z" />

		<path
   inkscape:connector-curvature="0"
   id="path9740"
   d="m 420.404,502.71 c 0,17.521 10.329,31.727 23.066,31.727 12.735,0 23.064,-14.205 23.064,-31.727 0,-17.522 -10.329,-31.728 -23.064,-31.728 -12.738,0 -23.066,14.206 -23.066,31.728 z"
   fill="#ffffff" />

	</g>

	<g
   transform="translate(-48,14)"
   id="g9748">
		<path
   inkscape:connector-curvature="0"
   id="path9744"
   d="m 698.226,469.498 c 0,0 -70.494,-31.212 -89.735,38.454 0,0 -20.153,81.201 57.891,85.784 -10e-4,0 99.518,-19.168 31.844,-124.238 z" />

		<path
   inkscape:connector-curvature="0"
   id="path9746"
   d="m 662.819,499.628 c 0,18.068 10.65,32.723 23.79,32.723 13.133,0 23.786,-14.654 23.786,-32.723 0,-18.072 -10.653,-32.723 -23.786,-32.723 -13.139,0 -23.79,14.651 -23.79,32.723 z"
   fill="#ffffff" />

	</g>

	
	
	
	
	
	
	
	
	
	
	
</g>
  </g>
</svg>
