<?xml version="1.0" encoding="UTF-8" standalone="no"?>
<!-- Created with Inkscape (http://www.inkscape.org/) -->

<svg
   width="64"
   height="128"
   viewBox="0 0 16.933333 33.866668"
   version="1.1"
   id="svg12297"
   inkscape:version="1.1 (c4e8f9ed74, 2021-05-24)"
   sodipodi:docname="wolf.svg"
   inkscape:export-filename="/home/israel/programming/rs/rust_hero/assets/enemies/rabbit.png"
   inkscape:export-xdpi="96"
   inkscape:export-ydpi="96"
   xmlns:inkscape="http://www.inkscape.org/namespaces/inkscape"
   xmlns:sodipodi="http://sodipodi.sourceforge.net/DTD/sodipodi-0.dtd"
   xmlns="http://www.w3.org/2000/svg"
   xmlns:svg="http://www.w3.org/2000/svg">
  <sodipodi:namedview
     id="namedview12299"
     pagecolor="#ffffff"
     bordercolor="#666666"
     borderopacity="1.0"
     inkscape:pageshadow="2"
     inkscape:pageopacity="0.0"
     inkscape:pagecheckerboard="0"
     inkscape:document-units="px"
     showgrid="false"
     units="px"
     width="64px"
     inkscape:zoom="4.6168642"
     inkscape:cx="-12.346042"
     inkscape:cy="70.935593"
     inkscape:window-width="1366"
     inkscape:window-height="699"
     inkscape:window-x="0"
     inkscape:window-y="40"
     inkscape:window-maximized="1"
     inkscape:current-layer="layer1"
     inkscape:snap-global="false"
     showguides="false" />
  <defs
     id="defs12294" />
  <g
     inkscape:label="Layer 1"
     inkscape:groupmode="layer"
     id="layer1">
    <path
       style="fill:#0e141f;fill-opacity:1;stroke:none;stroke-width:0.203873px;stroke-linecap:butt;stroke-linejoin:miter;stroke-opacity:1"
       d="m 2.6120304,23.091937 c 0,0 -1.8410036,-1.872643 -1.81512761,-2.110455 C 0.82277877,20.74367 0.17470873,18.18833 0.17470873,18.18833 L 0.71987892,18.861984 3.275799e-8,16.791714 0.40028551,17.345902 0.06703005,15.400683 0.51430415,16.32229 0.06928751,14.776071 0.54249944,15.24605 0.03349982,13.215023 0.49585055,13.853523 0.19081757,11.957664 0.77916996,13.160737 0.34385865,10.902483 0.9098098,12.047962 0.62872063,10.026264 1.1409507,11.0797 0.96662851,8.8471239 1.516609,10.126734 1.1861724,8.1024908 1.8642478,9.3716698 1.6705426,7.5629893 2.0261695,8.1777184 2.5501758,7.0489549 2.3243757,8.0809697 3.3904672,6.8909329 3.0456606,8.1249128 4.3317907,7.3833476 3.5367787,8.9071171 4.7641873,8.3906248 3.445671,9.7308156 2.7995582,10.785328 3.5672378,10.065365 2.9399632,11.484721 2.5442715,12.93993 l 0.8698537,-1.173288 -0.7514348,2.628845 -0.069048,1.316303 0.4612305,-1.484129 -0.045274,1.643502 0.00443,0.875789 0.3645479,-1.049533 -0.3650502,2.625313 0.5204512,-1.077792 -0.07053,2.1119 0.3468702,-0.855833 0.854737,3.689822 -0.1628088,0.969666 z"
       id="path31861" />
    <path
       style="mix-blend-mode:screen;fill:#0e141f;fill-opacity:1;stroke:none;stroke-width:0.203873px;stroke-linecap:butt;stroke-linejoin:miter;stroke-opacity:1"
       d="m 3.1035099,24.812713 3.2407024,0.325777 5.6351967,0.547042 2.937143,-0.215109 -1.254899,7.439622 -3.070235,0.17302 -0.328223,-2.103039 2.185287,-0.116949 0.179443,-1.975292 -1.077976,0.879538 L 10.843326,28.765491 9.8681802,29.51005 9.0587272,28.643196 8.1292453,29.29787 7.2741284,28.520902 6.2593739,29.138033 5.4895297,28.398607 5.1836755,30.718638 7.0417507,30.980209 6.9806843,32.837335 3.9345541,32.619419 Z"
       id="path30833"
       sodipodi:nodetypes="cccccccccccccccccccccc" />
    <path
       id="path32342"
       style="fill:#000000;fill-opacity:1;stroke:none;stroke-width:0.264583px;stroke-linecap:butt;stroke-linejoin:miter;stroke-opacity:1"
       d="m 11.759259,31.198307 0.101803,0.928624 -0.426847,1.739945 0.03617,-1.91461 z m -0.561206,0.163296 0.05891,0.712102 -0.441833,1.636593 0.06718,-1.584399 z m -0.526066,0.207224 0.01705,0.463537 -0.49506,1.588534 0.242363,-1.830379 z m 1.592668,0.01964 0.186035,0.315225 -0.314193,2.062406 -0.03669,-1.879471 z" />
    <path
       id="path32453"
       style="fill:#000000;fill-opacity:1;stroke:none;stroke-width:0.264583px;stroke-linecap:butt;stroke-linejoin:miter;stroke-opacity:1"
       d="M 5.6598523,31.33047 5.781026,32.256765 6.6080659,33.845983 6.119179,31.994489 Z m 0.583918,0.02564 0.1115307,0.705777 0.8171054,1.485258 -0.4407561,-1.523341 z m 0.5601897,0.07665 0.09329,0.454372 0.8574264,1.425954 -0.6692437,-1.720797 z m -1.5426409,0.39653 -0.1060294,0.350333 0.7940159,1.92919 -0.4097749,-1.834623 z" />
    <path
       id="path24822"
       style="fill:#273445;stroke-width:9.24652;stroke-linecap:round;stroke-linejoin:round;paint-order:fill markers stroke"
       d="m 8.6720921,17.391686 c -1.2338005,5.5e-4 -2.409476,0.40006 -3.2352913,1.099402 l 0.00916,-0.03265 c -0.2096747,0 -1.4226265,0.35067 -2.10722,0.54114 0.6078361,-0.08456 1.447784,-0.06064 0.9751665,0.105918 -0.6046819,0.213088 -2.6753798,1.563871 -2.4174096,1.413176 0.2579703,-0.150695 1.339112,-0.275946 1.339112,-0.275946 l -1.6516909,1.613863 -0.75695863,3.3874 1.06276833,6.047308 -0.085213,0.353989 0.029864,0.927384 1.3618088,0.433628 2.3509121,-0.317357 -0.4065517,-1.693898 -1.37694,-0.697628 -0.4455743,-4.828847 0.4310119,0.18663 0.2742662,1.351171 c 0,0 0.942278,-0.506341 0.9433595,-0.508424 l 1.1753237,1.690658 c 0,0 0.7770712,-1.740433 0.6863473,-1.536127 -0.090724,0.204304 0.8137724,0.802585 0.9511904,1.046972 0.1374181,0.244389 1.1685054,-0.863451 1.1685054,-0.863451 l 0.6605965,0.624316 0.7897877,-0.643426 0.875043,1.216421 1.452994,-1.455782 0.456326,1.013392 c 0,0 0.395981,-1.279947 0.479022,-1.488034 0.01183,-0.02965 0.0338,-0.124767 0.06172,-0.257629 0.05626,0.09049 0.05694,0.07566 0.05694,0.07566 l 0.661394,-0.124634 -0.445575,4.829245 -1.376541,0.69723 -0.40695,1.6939 2.350912,0.317754 1.361809,-0.433628 0.02986,-0.927781 -0.08521,-0.353991 1.063167,-6.047308 -0.756959,-3.387002 -1.652089,-1.613863 c 0,0 1.081141,0.124853 1.339112,0.275548 0.25797,0.150695 -1.812728,-1.200088 -2.41741,-1.413175 -0.472719,-0.166591 0.367699,-0.190543 0.975565,-0.105919 -0.684573,-0.190462 -1.897932,-0.540742 -2.107618,-0.540742 l 0.043,0.156887 c -0.797761,-0.965472 -2.188873,-1.55129 -3.6848469,-1.551745 z m 5.7494609,1.9356 c -1.891217,-0.474849 -1.586099,-0.07883 0,0 z M 3.3387392,18.999576 c -0.169849,0.02363 -0.3227814,0.05524 -0.4224792,0.09517 -0.1562634,0.06258 0.066153,0.004 0.4224792,-0.09517 z"
       sodipodi:nodetypes="cccccscccccccccccccccssccccccscccccccccccccsccccccccscs" />
    <path
       id="ellipse28760"
       style="fill:#7a0000;stroke-width:3.10191;stroke-linecap:round;stroke-linejoin:round;paint-order:fill markers stroke"
       d="m 11.464299,18.413704 a 1.7103533,0.95335173 39.835831 0 1 0.108308,1.641066 1.7103533,0.95335173 39.835831 0 1 -2.0454785,-0.882931 1.7103533,0.95335173 39.835831 0 1 -0.1083077,-1.641065 1.7103533,0.95335173 39.835831 0 1 2.0454782,0.88293 z" />
    <path
       id="path24824"
       style="fill:#485a6c;stroke-width:2.44648;stroke-linecap:round;stroke-linejoin:round;paint-order:fill markers stroke"
       d="M 10.017915,11.788857 C 9.6098313,11.98505 9.4568844,12.117699 9.0475927,12.739485 L 8.7475392,12.96747 c -0.00721,0.0041 -0.014397,0.0084 -0.02155,0.01284 L 8.4269921,12.395186 7.9372847,13.28892 7.735166,12.839674 7.3242526,13.772908 6.6139912,12.827591 6.305943,14.020795 c -0.1156943,-0.03506 -0.2291805,-0.0427 -0.3322213,-0.02237 -0.00444,-0.0039 -0.00889,-0.0077 -0.013345,-0.0116 -0.6551641,-0.56237 -1.1983694,-0.563321 -1.6165607,-0.65874 -0.028871,0.07512 -0.063162,0.208721 -0.035086,0.30825 0.136772,0.484851 0.2436052,0.601373 0.9304636,1.190932 0.226548,0.205331 0.3324228,0.406322 0.4814502,0.622055 0.1693398,0.245136 0.4674783,0.761823 0.4674783,0.761823 l -0.3519478,-0.15812 -5.005e-4,0.364181 0.4048003,0.281236 -0.2854535,0.04859 0.3144903,0.453396 -0.3013877,0.999896 0.3006147,-0.19435 -0.3883407,0.882498 0.3737394,-0.34887 -0.4546131,1.040834 0.5513611,-0.465168 -0.6758522,1.52062 0.7576945,-0.616057 -0.3384912,0.928179 0.9042946,-0.703171 0.3881633,0.846264 0.5323538,-0.777136 0.2151599,0.968976 c 0,0 0.6386945,-0.886026 0.6693905,-0.939879 0.030697,-0.05386 0.1499572,1.049047 0.1499572,1.049047 l 0.4868551,-0.662901 0.2590929,0.77024 0.444557,-0.801058 0.216667,0.899146 0.615728,-1.031884 0.231792,0.930898 0.506955,-0.748246 c 0,0 0.119777,0.589138 0.109881,0.651617 -0.0099,0.06248 0.401279,-0.591866 0.401279,-0.591866 l 0.181592,-0.762433 0.03006,-0.589803 c 0.04477,-0.08875 0.05143,-0.165583 0.01915,-0.220965 -0.03519,-0.05965 -0.114086,-0.09127 -0.225335,-0.09031 -0.168474,-0.21522 -0.447082,-0.512407 -0.756718,-0.807177 -0.01141,-0.01079 -0.02284,-0.02155 -0.03427,-0.03228 0.991853,-0.01728 1.673401,-0.515058 1.673401,-0.515058 0,0 0.114258,-0.302914 0.02723,-0.877324 -0.256933,-0.363879 -1.054968,-0.578192 -1.571409,-0.711741 0.02231,-0.287281 -0.0125,-0.57885 -0.102217,-0.856027 -0.05625,-0.165868 -0.131653,-0.32446 -0.224448,-0.472053 l 1.497891,-0.542421 c 0,0 -1.962297,-0.348411 -2.217231,-0.333347 0.218141,-0.05133 1.932086,-0.533601 1.932086,-0.533601 l -2.187882,-0.162418 0.712576,-0.647716 -0.774387,0.198746 c 0.222797,-0.54276 0.150684,-0.630065 0.09915,-0.941345 -0.0089,-0.05383 -0.05711,-0.144468 -0.0687,-0.148587 -0.01282,0.003 -0.152716,-0.0052 -0.21899,0.02666 z m -0.5889653,6.206979 c 0.083309,0.01443 0.1671836,0.02321 0.2511055,0.02629 0.3069438,0.110175 0.6469048,0.191778 0.9959298,0.23906 0.09216,0.01119 0.184415,0.01992 0.276305,0.02615 0.101407,0.104402 0.209516,0.211261 0.320067,0.316364 0.240177,0.228672 0.481134,0.438829 0.68009,0.593157 -0.107254,0.03532 -0.219168,0.08693 -0.326237,0.150457 -0.06858,0.0413 -0.133919,0.08678 -0.193689,0.134838 l -0.436787,-0.0023 C 10.811025,19.278443 10.552982,19.074403 10.263956,18.901218 9.9547189,18.71695 9.6311831,18.58047 9.3534862,18.517148 c 0.033222,-0.144429 0.056752,-0.292296 0.070246,-0.441443 0.00206,-0.02662 0.00379,-0.05326 0.00521,-0.0799 z"
       sodipodi:nodetypes="cccccccccccccacacccccccccccccccccccsccccccccsccccccccccccccccccacaccccccccccccccc" />
    <path
       style="fill:#fff394;fill-opacity:1;stroke:none;stroke-width:0.203873px;stroke-linecap:butt;stroke-linejoin:miter;stroke-opacity:1"
       d="m 13.056504,17.802105 -0.259858,0.766346 -4.62e-4,-0.413206 -0.299663,0.557951 0.08345,-0.507798 -0.290779,0.565346 0.07357,-0.459008 -0.470191,0.640064 0.09762,-0.436371 -0.290521,0.460591 0.07954,-0.457605 -0.331707,0.47952 0.106299,-0.572081 -0.33883,0.5704 0.06662,-0.536088 -0.295033,0.491293 0.06499,-0.618592 -0.324903,0.454312 0.08136,-0.388817 c 0,0 -0.231361,0.336166 -0.247177,0.36408 -0.01581,0.02792 -0.02952,0.04897 -0.02952,0.04897 l 0.0025,-0.555595 -0.295113,0.396693 0.0011,-0.407338 -0.213861,0.401892 -0.0078,-0.410433 c 0,0 -0.204856,0.247296 -0.2279096,0.284802 -0.023054,0.03751 0.05532,-0.37308 0.05532,-0.37308 l -0.2728031,0.339115 -0.019951,-0.429347 -0.1341309,0.367647 0.013335,-0.477991 c 0,0 1.2026549,0.281196 1.8160769,0.324323 0.282456,0.01988 0.570327,0.01985 0.848905,-0.03086 0.218127,-0.0397 0.566798,-0.179229 0.630578,-0.211589 0.114817,-0.06817 0.328949,-0.227552 0.328949,-0.227552 z"
       id="path26313"
       sodipodi:nodetypes="ccccccccccccccccccccccccccscccccaaccc" />
    <path
       style="fill:#fff394;fill-opacity:1;stroke:none;stroke-width:0.203873px;stroke-linecap:butt;stroke-linejoin:miter;stroke-opacity:1"
       d="m 9.3545974,18.514487 0.1288637,-0.114434 0.040956,0.165621 0.1750651,-0.07481 0.00974,0.130957 0.1930105,-0.07238 -0.00766,0.157708 0.1612498,-0.04929 0.0064,0.130162 0.151682,-0.08183 0.01691,0.165861 0.180271,-0.104166 0.04088,0.26396 0.284982,-0.183091 -0.0019,0.34288 0.413334,-0.36585 -0.124815,0.648376 0.383899,-0.630614 -0.08001,0.673058 0.328164,-0.717664 -0.02345,0.486081 0.199417,-0.408704 0.0014,0.393061 0.321762,-0.57352 -0.0639,0.449158 0.322154,-0.492002 -0.0722,0.50841 -0.172442,0.07058 c 0,0 -0.342734,0.237342 -0.533805,0.316698 -0.136253,0.0566 -0.28132,0.102459 -0.428648,0.110287 -0.0988,0.0053 -0.204216,-8.19e-4 -0.293672,-0.04309 -0.196939,-0.09305 -0.308467,-0.310005 -0.483828,-0.439201 C 10.190726,19.001564 9.928246,18.861285 9.6654048,18.726714 9.5657122,18.67567 9.4208688,18.6842 9.3577306,18.59169 c -0.01452,-0.02127 -0.00313,-0.0772 -0.00313,-0.0772 z"
       id="path27605"
       sodipodi:nodetypes="ccccccccccccccccccccccccccccssssssc" />
    <g
       id="g29154"
       transform="matrix(0.66760689,-0.1739334,0.30910668,0.46301869,0.01782426,14.371828)">
      <path
         id="path28806"
         style="fill:#0e141f;stroke-width:3.97909;stroke-linecap:round;stroke-linejoin:round;paint-order:fill markers stroke"
         transform="rotate(98.036337)"
         d="m 10.01791,-14.636173 c 0,0.243863 -0.2631691,0.140217 -0.431304,0.140217 -0.1681348,0 -0.304435,-0.19769 -0.304435,-0.441552 0,-0.243862 0.1388852,-0.645934 0.2867671,-0.683159 0.3662043,-0.09218 0.4489719,0.740632 0.4489719,0.984494 z"
         sodipodi:nodetypes="sssss" />
      <path
         id="path28802"
         style="fill:#7a0000;stroke-width:12;stroke-linecap:round;stroke-linejoin:round;paint-order:fill markers stroke"
         d="m 50.904297,41.929688 c -1.600475,-6.1e-5 -2.55249,0.400825 -2.896485,0.705078 -3.3e-5,0.002 0.148636,-0.16946 0,0.0059 -0.148636,0.175319 -0.447041,0.70741 -0.447265,1.169922 2.81e-4,0.800214 0.488052,1.448827 1.089844,1.449219 0.602554,10e-4 1.091516,-0.64799 1.091797,-1.449219 -4.21e-4,-0.18549 0.190751,-0.371331 0.138281,-0.543198 0.09092,0.01095 -0.03421,0.02291 0.06094,0.03148 -0.02571,0.122033 -0.03885,0.2482 -0.03906,0.375 -2.91e-4,0.768981 -0.130152,1.596683 0.443913,1.59669 0.574065,-6e-6 1.336087,0.513283 1.634212,-1.59669 1.93e-4,-0.128762 0.0981,-0.212641 0.07199,-0.336562 0.08241,-0.0082 -0.07644,-0.02083 0.0025,-0.03084 -0.05284,0.173085 0.04859,0.317318 0.04854,0.504122 2.81e-4,0.800214 -0.291275,1.311869 0.310516,1.312261 0.601792,-3.92e-4 1.401562,-0.739621 1.401843,-1.539835 4.5e-5,-0.486389 0.18412,-0.630582 -0.02095,-0.981411 -0.19306,-0.330277 -1.344286,-0.671576 -2.890625,-0.671874 z"
         transform="scale(0.26458334)"
         sodipodi:nodetypes="cczccccccsccccccscc" />
    </g>
    <path
       id="path32197"
       style="fill:#511a23;fill-opacity:1;stroke:none;stroke-width:0.999999px;stroke-linecap:butt;stroke-linejoin:miter;stroke-opacity:1"
       d="M 14.597656 117.78516 L 14.212891 121.29492 L 15.826172 127.87109 L 15.689453 120.63477 L 14.597656 117.78516 z M 16.71875 118.40234 L 16.496094 121.09375 L 18.166016 127.2793 L 17.912109 121.29102 L 16.71875 118.40234 z M 18.707031 119.18555 L 18.642578 120.9375 L 20.513672 126.94141 L 19.597656 120.02344 L 18.707031 119.18555 z M 12.6875 119.25977 L 11.984375 120.45117 L 13.171875 128.24609 L 13.310547 121.14258 L 12.6875 119.25977 z "
       transform="scale(0.26458334)" />
    <path
       id="path32340"
       style="fill:#511a23;fill-opacity:1;stroke:none;stroke-width:0.264583px;stroke-linecap:butt;stroke-linejoin:miter;stroke-opacity:1"
       d="m 13.756221,31.754476 0.101803,0.928624 -0.426847,1.739945 0.03617,-1.91461 z m -0.561206,0.163296 0.05891,0.712102 -0.441833,1.636593 0.06718,-1.584399 z m -0.526066,0.207224 0.01705,0.463537 -0.49506,1.588534 0.242363,-1.830379 z m 1.592668,0.01964 0.186035,0.315225 -0.314193,2.062406 -0.03669,-1.879471 z" />
    <path
       style="opacity:0.604;fill:#000000;fill-opacity:1;stroke:none;stroke-width:0.272283px;stroke-linecap:butt;stroke-linejoin:miter;stroke-opacity:1"
       d="m 11.269592,25.084888 c 0,0 1.578004,0.217028 1.504191,0.175679 -0.07381,-0.04135 -0.88272,-0.477635 -0.88272,-0.477635 l 1.759671,0.156313 c 0,0 -0.497506,-0.815214 -0.421675,-0.708088 0.07583,0.10713 2.010042,-0.0086 2.010042,-0.0086 l -1.567475,-0.420331 1.452369,-0.08127 -0.551592,-0.254012 1.055829,-0.234662 -0.800295,-0.128051 0.986331,-0.367678 -1.369202,0.359433 0.111108,0.27963 -0.720339,0.07788 0.135996,0.179247 -1.465853,0.271932 0.327327,0.15952 -1.976021,0.206083 0.01479,0.699725 -0.4309,-0.03057 0.02323,0.389492 -1.0037115,0.382331 0.8026665,-0.179638 -0.15564,0.269851 0.587329,-0.367854 0.42559,0.143114 z"
       id="path34174"
       inkscape:transform-center-x="2.3952261"
       inkscape:transform-center-y="1.1889986" />
    <path
       style="opacity:0.604;fill:#000000;fill-opacity:1;stroke:none;stroke-width:0.272283px;stroke-linecap:butt;stroke-linejoin:miter;stroke-opacity:1"
       d="m 6.538651,24.810467 c 0,0 -1.578004,0.217028 -1.504191,0.175679 0.07381,-0.04135 0.88272,-0.477635 0.88272,-0.477635 l -1.759671,0.156313 c 0,0 0.497506,-0.815214 0.421675,-0.708088 -0.07583,0.10713 -2.010042,-0.0086 -2.010042,-0.0086 L 4.136617,23.527805 2.684248,23.446535 3.23584,23.192523 2.180011,22.957861 2.980306,22.82981 1.993975,22.462132 l 1.369202,0.359433 -0.111108,0.27963 0.720339,0.07788 -0.135996,0.179247 1.465853,0.271932 -0.327327,0.15952 1.976021,0.206083 -0.01479,0.699725 0.4309,-0.03057 -0.02323,0.389492 1.003711,0.382331 -0.802666,-0.179638 0.15564,0.269851 -0.587329,-0.367854 -0.42559,0.143114 z"
       id="path34176"
       inkscape:transform-center-x="-2.3952263"
       inkscape:transform-center-y="1.1889986" />
    <path
       id="ellipse32665"
       style="opacity:0.608331;stroke-width:73.8383;stroke-linecap:round;stroke-linejoin:round;paint-order:fill markers stroke"
       d="m 37.673828,45.466797 c 0,0 -1.677185,0.786414 -2.253906,1.474609 -0.388886,0.464054 -0.712891,1.669922 -0.712891,1.669922 l -0.04102,-0.414062 -0.482422,0.476562 0.121094,-0.457031 -0.466797,0.539062 -1.060547,0.4375 -0.0918,-0.02148 -0.25,-0.453125 -0.138672,0.357422 -0.585937,-0.142578 -1.601563,3.357422 -0.845703,-1.820313 -1.054688,3.287109 -3.117187,-2.621093 -0.535156,2.394531 -1.935547,-0.490234 4.421875,3.77539 -0.550781,1.833985 c -0.484825,-0.998948 -1.548133,-2.300072 -3.181641,-3.822266 -2.894675,-2.697419 -5.002561,-3.025331 -6.628906,-3.378906 0.381544,2.088574 0.419784,2.019382 3.314453,4.716797 1.727594,1.609869 2.983196,3.67788 4.164062,4.560546 l -1.023437,-0.230468 1.335937,0.759765 -0.0059,0.04297 -0.744141,0.269531 -1.302734,-0.429687 1.287109,1.75 -0.0918,0.832031 0.601563,1.369141 -1.207031,2.859375 1.099609,-0.123047 -0.771484,1.734375 c -3.352224,0.836341 -6.027651,2.207199 -7.646485,3.917969 l -0.322265,-0.492188 -0.416016,1.421875 c -0.0092,0.01366 -0.0183,0.02733 -0.02734,0.04102 l -1.24414,-0.628907 0.501953,2.242188 c -0.0027,0.01237 -0.0053,0.02474 -0.0078,0.03711 l -2.263672,1.941407 0.896485,1.433593 -3.0234378,0.482422 3.9902348,0.888672 -2.085938,0.958985 4.841797,0.269531 c 0.06216,0.05366 0.125317,0.107051 0.189453,0.160156 l -5.464844,1.466797 c 0,0 7.236216,0.4318 7.589844,0.03711 l 0.01172,0.0078 c -0.186321,0.347662 -1.59961,2.664062 -1.59961,2.664062 l 6.513672,-0.580078 c 0.02536,0.0072 0.05075,0.01435 0.07617,0.02148 -0.117037,0.06313 -3.001977,1.618313 -3.27539,1.771485 -0.278979,0.15628 5.685546,-0.664063 5.685546,-0.664063 l 0.5625,1.859375 1.609376,-0.541015 1.957031,1.226562 -0.3125,0.75 3.033203,-0.677734 -0.587891,1.019531 2.21875,-1.390625 1.609375,0.541016 0.5625,-1.859375 c 0,0 5.964525,0.820342 5.685547,0.664062 -0.278967,-0.156283 -3.335937,-1.804687 -3.335937,-1.804687 l 6.65039,0.589844 c 0,0 -0.818811,-1.342651 -1.289062,-2.132813 0.285214,-0.122822 0.562046,-0.25049 0.830078,-0.382813 2.12237,0.06626 6.46289,-0.191406 6.46289,-0.191406 l -4.253906,-1.142578 c 0.251328,-0.188222 0.487826,-0.381721 0.708985,-0.580078 l 3.109375,-0.173828 -2.0625,-0.951172 c 0.0046,-0.0059 0.0091,-0.01172 0.01367,-0.01758 l 3.955078,-0.878906 -3.025391,-0.484375 1.517578,-1.980469 -1.939453,-2.324219 c -0.0811,-0.153195 -0.169669,-0.305587 -0.265625,-0.457031 L 49.527344,73.0625 47.615234,73.398438 C 43.278778,75.239033 42.488873,77.135573 35.31122,70.384 l 0.223936,-1.837125 1.552735,0.257813 7.197265,1.232421 4.251953,-1.757812 1.19336,-1.048828 -0.01172,-3.003907 -0.140625,1.117188 -4.019531,1.027344 1.767578,1.255859 -4.646484,0.228516 -8.0625,-1.035157 -0.953126,-1.115234 c 0.610383,-0.74546 1.921425,-2.372432 1.878907,-2.566406 -0.05481,-0.250025 0.337888,-0.169564 0.283203,-0.878906 l 0.707031,0.238281 0.341797,-0.583985 c 0,0 0.7847,0.540023 0.910156,-0.308593 0.233846,-0.01461 0.469379,-0.03157 0.705078,-0.05078 h 0.0078 c 0.410882,0.643888 0.912109,1.300781 0.912109,1.300781 l 0.994141,-1.50586 c 0.04117,-0.0052 0.08219,-0.01036 0.123047,-0.01563 l 1.470703,1.269532 0.216797,-1.564454 C 42.272993,61.026121 42.329467,61.0131 42.384766,61 l 1.283203,0.451172 0.0098,-0.882813 c 0.128395,-0.07711 0.194084,-0.151338 0.195313,-0.220703 l 0.02148,-0.01953 -0.80664,-3.306641 c -0.01965,-0.04671 -0.07066,-0.09052 -0.152344,-0.130859 l -0.169922,-0.146484 -0.322266,-0.59961 4.22461,-1.501953 -6.529297,0.611328 -0.431641,-1.029297 0.07617,-1.353515 5.234375,-1.445313 -6.023437,-0.716797 -0.515625,-0.125 2.412109,-2.238281 -2.720703,0.951172 -0.675781,0.240234 -0.40625,-0.0098 0.224609,-0.515625 -0.451172,0.103515 0.853516,-0.998046 c 0,0 -0.881074,0.29678 -1.210938,0.519531 0.241319,-0.282864 0.767149,-0.972788 0.923828,-1.371094 0.221552,-0.563221 0.246094,-1.798828 0.246094,-1.798828 z m -7.613281,43.181641 0.623047,0.140624 -0.226563,0.544922 z"
       transform="scale(0.26458334)"
       sodipodi:nodetypes="csccccccccccccccccccscsccccccccccccccccccccccccccccccccsccccccccccsccccccccccccccccccccccccccccccscccccccccccccccccccccccccccccccccccsccccc" />
    <g
       id="g59870">
      <g
         id="g26270"
         transform="matrix(0.77028113,0.020129,-0.020129,0.77028113,2.5295476,7.7907765)">
        <path
           id="path25963"
           style="fill:#ffe16b;stroke-width:1.91926;stroke-linecap:round;stroke-linejoin:round;paint-order:fill markers stroke"
           d="m 9.968485,10.634682 c 1e-6,0.06343 -0.111055,0.123749 -0.510048,0.123749 -0.3989932,0 -0.6311058,-0.01322 -0.6311046,-0.07665 -1.2e-6,-0.06343 0.2454435,-0.179348 0.6444367,-0.179348 0.398993,0 0.4967169,0.06882 0.4967159,0.132245 z"
           sodipodi:nodetypes="ssssss" />
        <path
           id="path26143"
           style="stroke-width:4.26875;stroke-linecap:round;stroke-linejoin:round;paint-order:fill markers stroke"
           d="m 9.9293698,10.648051 c -4e-7,0.06268 -0.2166765,0.109716 -0.4685639,0.109716 -0.2518874,0 -0.4585339,-0.01229 -0.4585344,-0.07498 5e-7,-0.06268 0.2010464,-0.187804 0.4529338,-0.187804 0.2518874,0 0.4741641,0.09038 0.4741645,0.153063 z"
           sodipodi:nodetypes="ssssss" />
        <path
           id="ellipse26247"
           style="fill:#fafafa;stroke-width:1.49633;stroke-linecap:round;stroke-linejoin:round;paint-order:fill markers stroke"
           d="m 9.671637,10.607553 a 0.10222288,0.06221862 0 0 1 -0.1022229,0.06222 0.10222288,0.06221862 0 0 1 -0.1022228,-0.06222 0.10222288,0.06221862 0 0 1 0.1022228,-0.06222 0.10222288,0.06221862 0 0 1 0.1022229,0.06222 z" />
      </g>
      <g
         id="g48939"
         transform="matrix(-0.76298196,0.10768807,0.10768807,0.76298196,17.077989,6.8894092)">
        <path
           id="path48933"
           style="fill:#ffe16b;stroke-width:1.91926;stroke-linecap:round;stroke-linejoin:round;paint-order:fill markers stroke"
           d="m 9.968485,10.634682 c 1e-6,0.06343 -0.111055,0.123749 -0.510048,0.123749 -0.3989932,0 -0.4871162,0.0157 -0.487115,-0.04773 -1.2e-6,-0.06343 0.104221,-0.268583 0.5032142,-0.268583 0.398993,0 0.4939498,0.129137 0.4939488,0.192564 z"
           sodipodi:nodetypes="ssssss" />
        <path
           id="path48935"
           style="stroke-width:4.26875;stroke-linecap:round;stroke-linejoin:round;paint-order:fill markers stroke"
           d="m 9.9293698,10.648051 c -4e-7,0.06268 -0.2166765,0.109716 -0.4685639,0.109716 -0.2518874,0 -0.4091439,-0.0097 -0.4091444,-0.07242 5e-7,-0.06268 0.1644417,-0.239475 0.4163291,-0.239475 0.2518874,0 0.4613788,0.139498 0.4613792,0.202178 z"
           sodipodi:nodetypes="ssssss" />
        <path
           id="path48937"
           style="fill:#fafafa;stroke-width:1.96881;stroke-linecap:round;stroke-linejoin:round;paint-order:fill markers stroke"
           d="m 9.4311818,10.615098 a 0.13450064,0.08186469 0 0 1 -0.1345006,0.08187 0.13450064,0.08186469 0 0 1 -0.1345006,-0.08187 0.13450064,0.08186469 0 0 1 0.1345006,-0.08187 0.13450064,0.08186469 0 0 1 0.1345006,0.08187 z" />
      </g>
    </g>
    <path
       style="fill:#000000;stroke:none;stroke-width:0.264583px;stroke-linecap:butt;stroke-linejoin:miter;stroke-opacity:1;fill-opacity:1;opacity:0.608"
       d="m 1.0615109,25.253919 2.302416,0.194007 0.4043913,0.113347 0.2049285,1.454588 1.4931398,1.358355 -0.269858,2.321068 1.1029444,0.202547 -1.0530602,0.311271 -0.1222097,-0.221189 -0.9499796,-0.467116 -2.1241236,0.444611 0.7877259,-0.557906 -0.7881306,0.07882 0.3974328,-0.379783 z"
       id="path61728" />
    <path
       style="opacity:0.608;fill:#000000;fill-opacity:1;stroke:none;stroke-width:0.264583px;stroke-linecap:butt;stroke-linejoin:miter;stroke-opacity:1"
       d="m 16.923314,25.538795 -2.47214,0.265954 -0.707718,0.09555 -0.559619,1.715274 -0.556449,1.278947 -0.17211,2.00914 -2.167534,0.08416 0.07559,0.310467 2.246892,0.03261 1.344092,-0.657619 1.925374,0.553364 -0.732688,-0.53426 0.788131,0.07882 -0.397433,-0.379783 z"
       id="path61829"
       sodipodi:nodetypes="ccccccccccccccc" />
    <g
       transform="matrix(0.26458334,0,0,0.26458334,-152.80444,-93.25894)"
       id="g1011">
	<g
   id="g841">
		<path
   inkscape:connector-curvature="0"
   id="path833"
   d="m 146.014,554.568 c 1.591,3.545 5.165,6.132 9.438,6.83 l 42.059,6.831 c 1.581,2.84 3.243,5.638 4.911,8.414 l -18.34,33.827 c -1.888,3.447 -1.577,7.5 0.781,10.702 2.349,3.221 6.4,5.152 10.76,5.091 l 42.82,-0.495 c 2.171,2.474 4.378,4.926 6.632,7.333 l -10.506,36.433 c -1.063,3.699 0.122,7.617 3.146,10.377 3.008,2.749 7.431,3.947 11.671,3.155 l 41.844,-7.838 c 2.662,2.061 5.372,4.098 8.109,6.094 l -2.189,37.566 c -0.23,3.802 1.81,7.46 5.388,9.639 3.576,2.194 8.159,2.604 12.14,1.1 l 39.174,-14.833 c 3.104,1.573 6.225,3.132 9.381,4.642 l 6.194,37.179 c 0.626,3.767 3.436,7.009 7.425,8.542 3.976,1.538 8.571,1.153 12.125,-1.009 l 35.074,-21.251 c 3.396,1.021 6.807,2.001 10.265,2.942 l 14.3,35.416 c 1.455,3.609 4.91,6.306 9.169,7.127 4.244,0.814 8.649,-0.345 11.652,-3.066 l 29.687,-26.946 c 3.522,0.409 7.048,0.789 10.584,1.114 l 21.947,32.409 c 2.226,3.281 6.218,5.33 10.565,5.413 4.334,0.083 8.41,-1.812 10.733,-5.008 l 23.126,-31.552 c 3.547,-0.188 7.099,-0.435 10.628,-0.709 l 28.682,28.058 c 2.905,2.835 7.279,4.161 11.538,3.509 4.282,-0.666 7.842,-3.222 9.418,-6.773 l 15.601,-34.846 c 3.479,-0.81 6.926,-1.668 10.365,-2.55 l 34.257,22.572 c 3.483,2.302 8.062,2.861 12.1,1.468 4.025,-1.379 6.964,-4.513 7.725,-8.252 l 7.556,-36.917 c 3.208,-1.389 6.385,-2.818 9.552,-4.281 l 38.6,16.313 c 3.92,1.661 8.535,1.422 12.17,-0.636 3.65,-2.042 5.828,-5.619 5.732,-9.426 l -0.802,-37.625 c 2.803,-1.892 5.578,-3.823 8.327,-5.78 l 41.521,9.426 c 4.218,0.946 8.677,-0.075 11.79,-2.709 3.135,-2.644 4.454,-6.513 3.53,-10.249 l -9.146,-36.808 c 2.32,-2.329 4.618,-4.687 6.875,-7.074 l 42.77,2.125 c 4.316,0.19 8.473,-1.549 10.943,-4.679 2.478,-3.11 2.918,-7.147 1.181,-10.665 l -17.104,-34.501 c 1.774,-2.712 3.535,-5.445 5.231,-8.222 l 42.278,-5.226 c 4.297,-0.526 7.954,-2.975 9.684,-6.465 1.72,-3.5 1.257,-7.533 -1.215,-10.677 L 921.479,528.24 c 0.203,-0.531 -1.999,-32.28 -21.526,-58.158 0,0 -0.169,-0.069 -0.475,-0.191 C 855.033,407.22 716.712,359.6 552.124,356.465 378.036,353.149 231.49,400.686 193.714,467.318 176.853,484.381 172.602,512.466 173.11,513.99 l -25.495,29.958 c -2.602,3.046 -3.19,7.059 -1.601,10.62 z"
   fill="#8f1f1d" />

		<path
   inkscape:connector-curvature="0"
   id="path835"
   d="m 1006.008,420.45 c -1.728,-4.947 -19.723,-3.687 -24.194,-4.556 l -65.68,0.586 c -1.701,-3.954 -3.489,-7.85 -5.283,-11.713 l 42.551,-65.735 c 1.905,-4.904 12.443,-11.779 9.923,-16.227 -2.512,-4.469 -18.607,1.506 -23.153,1.708 l -67.827,12.061 c -2.313,-3.422 -4.662,-6.814 -7.059,-10.144 l 38.03,-84.758 c 1.039,-5.237 12.658,-26.514 9.45,-30.318 -3.189,-3.792 -18.273,9.018 -22.681,10.249 l -73.744,46.76 c -2.816,-2.829 -5.681,-5.624 -8.575,-8.362 l 20.894,-73.414 c 0.168,-5.358 11.334,-30.76 7.561,-33.733 -3.771,-2.993 -16.667,8.452 -20.79,10.675 l -65.16,50.814 c -3.268,-2.13 -6.552,-4.242 -9.872,-6.284 l 15.496,-86.805 c -0.726,-5.287 5.608,-32.964 1.417,-35.016 -4.174,-2.061 -26.104,22.056 -29.768,25.194 l -51.029,65.23 c -3.562,-1.346 -7.138,-2.635 -10.763,-3.867 L 660.92,74.281 c -1.585,-5.042 -1.212,-22.872 -5.67,-23.913 -4.442,-1.033 -10.15,14.875 -13.23,18.788 l -44.103,87.736 c -3.682,-0.482 -7.366,-0.922 -11.061,-1.283 L 564.527,54.643 C 562.143,50.081 559.614,35 555.078,35 c -4.522,0 -8.035,18.07 -10.396,22.631 l -27.077,97.982 c -3.695,0.361 -7.396,0.801 -11.07,1.283 L 468.137,67.88 c -3.084,-3.914 -8.33,-23.237 -12.758,-22.205 -4.455,1.053 -3.621,15.455 -5.197,20.497 l -11.499,106.627 c -3.614,1.232 -7.193,2.532 -10.764,3.867 l -34.912,-44.734 c -3.677,-3.148 -24.165,-34.096 -28.351,-32.026 -4.172,2.051 -1.167,34.426 -1.89,39.712 l 1.271,68.443 c -3.32,2.042 -6.606,4.14 -9.883,6.284 l -63.681,-59.354 c -4.12,-2.232 -12.786,-11.533 -16.538,-8.541 -3.769,2.974 -0.643,16.419 -0.472,21.778 l 23.196,91.775 c -2.887,2.738 -5.745,5.533 -8.575,8.362 l -69.905,-43.344 c -4.418,-1.22 -18.065,-11.905 -21.263,-8.113 -3.218,3.804 4.164,7.809 5.197,13.047 l 36.995,96.478 c -2.376,3.342 -4.729,6.721 -7.034,10.144 L 118.07,298.04 c -4.506,-0.151 -16.917,-6.178 -19.435,-1.708 -2.522,4.447 8.045,10.896 9.923,15.8 l 85.012,92.637 c -1.798,3.863 -3.583,7.759 -5.3,11.713 l -82.547,-9.979 c -4.47,0.857 -16.217,-1.544 -17.956,3.415 -1.728,4.972 9.648,11.415 12.286,15.774 l 61.741,66.493 c -0.201,0.755 2.702,45.391 23.563,81.296 0,0 0.177,0.092 0.499,0.258 47.554,87.035 192.733,150.364 364.46,150.364 181.639,0 333.578,-70.85 371.705,-165.663 17.261,-24.474 21.158,-64.123 20.598,-66.255 l 50.158,-54.084 c 2.656,-4.362 14.956,-12.68 13.231,-17.651 z"
   fill="#8f1f1d" />

		<path
   inkscape:connector-curvature="0"
   id="path837"
   d="m 195.34,493.008 c 0,0 -94.761,13.599 -116.083,18.311 -21.321,4.711 -7.095,8.297 0,9.421 24.757,3.927 146.88,7.067 149.25,7.853 2.369,0.785 -33.167,-35.585 -33.167,-35.585 z"
   fill="#8f1f1d" />

		<path
   inkscape:connector-curvature="0"
   id="path839"
   d="m 896.038,499.622 c 0,0 94.762,13.6 116.083,18.311 21.32,4.712 7.095,8.298 0,9.422 -24.758,3.927 -146.88,7.067 -149.249,7.853 -2.37,0.784 33.166,-35.586 33.166,-35.586 z"
   fill="#8f1f1d" />

	</g>

	<g
   transform="translate(-48,14)"
   id="g847">
		<path
   inkscape:connector-curvature="0"
   id="path843"
   d="m 467.982,486.018 c 0,0 -41.096,-44.997 -82.191,0 0,0 -32.292,60.001 0,89.998 0,0 52.837,41.999 82.191,0 0,0 35.226,-33.002 0,-89.998 z" />

		<path
   inkscape:connector-curvature="0"
   id="path845"
   d="m 420.404,502.71 c 0,17.521 10.329,31.727 23.066,31.727 12.735,0 23.064,-14.205 23.064,-31.727 0,-17.522 -10.329,-31.728 -23.064,-31.728 -12.738,0 -23.066,14.206 -23.066,31.728 z"
   fill="#ffffff" />

	</g>

	<g
   transform="translate(-48,14)"
   id="g853">
		<path
   inkscape:connector-curvature="0"
   id="path849"
   d="m 698.226,469.498 c 0,0 -70.494,-31.212 -89.735,38.454 0,0 -20.153,81.201 57.891,85.784 -10e-4,0 99.518,-19.168 31.844,-124.238 z" />

		<path
   inkscape:connector-curvature="0"
   id="path851"
   d="m 662.819,499.628 c 0,18.068 10.65,32.723 23.79,32.723 13.133,0 23.786,-14.654 23.786,-32.723 0,-18.072 -10.653,-32.723 -23.786,-32.723 -13.139,0 -23.79,14.651 -23.79,32.723 z"
   fill="#ffffff" />

	</g>

	
	
	
	
	
	
	
	
	
	
	
</g>
  </g>
</svg>
