<?xml version="1.0" encoding="UTF-8" standalone="no"?>
<!-- Created with Inkscape (http://www.inkscape.org/) -->

<svg
   width="64"
   height="128"
   viewBox="0 0 16.933333 33.866668"
   version="1.1"
   id="svg12297"
   inkscape:version="1.1.1 (3bf5ae0d25, 2021-09-20)"
   sodipodi:docname="wolf_V2.svg"
   inkscape:export-filename="/home/israel/programming/rs/rust_hero/assets/enemies/wolf.png"
   inkscape:export-xdpi="96"
   inkscape:export-ydpi="96"
   xmlns:inkscape="http://www.inkscape.org/namespaces/inkscape"
   xmlns:sodipodi="http://sodipodi.sourceforge.net/DTD/sodipodi-0.dtd"
   xmlns="http://www.w3.org/2000/svg"
   xmlns:svg="http://www.w3.org/2000/svg">
  <sodipodi:namedview
     id="namedview12299"
     pagecolor="#ffffff"
     bordercolor="#666666"
     borderopacity="1.0"
     inkscape:pageshadow="2"
     inkscape:pageopacity="0.0"
     inkscape:pagecheckerboard="0"
     inkscape:document-units="px"
     showgrid="false"
     units="px"
     width="64px"
     inkscape:zoom="4.3565769"
     inkscape:cx="83.896143"
     inkscape:cy="94.454892"
     inkscape:window-width="1366"
     inkscape:window-height="699"
     inkscape:window-x="0"
     inkscape:window-y="40"
     inkscape:window-maximized="1"
     inkscape:current-layer="layer1"
     inkscape:snap-global="false"
     showguides="false" />
  <defs
     id="defs12294" />
  <g
     inkscape:label="Layer 1"
     inkscape:groupmode="layer"
     id="layer1">
    <g
       id="g13265"
       transform="matrix(0.86835335,0,0,0.86835335,1.9974542,4.1282643)">
      <path
         id="path11084"
         style="fill:#7239b3;fill-opacity:1;stroke:none;stroke-width:0.999999px;stroke-linecap:butt;stroke-linejoin:miter;stroke-opacity:1"
         d="m 51.783203,38.3125 -1.484375,1.332031 0.02539,-0.591797 -2.392578,5.115235 -0.0039,-0.69336 -1.53125,3.259766 2.482422,3.123047 2.572266,-1.28711 0.779297,-3.222656 0.511719,-4.603515 -0.314454,0.515625 -0.373046,-2.285157 -0.273438,0.515625 z m -8.054687,29.525391 0.04883,1.05664 -3.556641,1.183594 2.513672,0.460937 -2.646484,5.400391 0.910156,-1.023437 -1.416016,7.412109 0.75,-1.402344 0.376953,7.273438 0.394532,-0.623047 0.591796,4.042969 0.31836,-1.078125 0.208984,4.492187 0.669922,-2.003906 1.103516,7.095703 0.328125,-1.962891 0.818359,5.634771 0.388672,-1.9336 2.042969,6.54688 0.267578,-1.2793 0.861328,1.71289 c 0,0 -0.637703,3.26912 -0.773437,4.92578 -0.09906,1.20915 -0.695828,2.62692 -0.0293,3.64063 0.9901,1.50581 3.17842,2.12352 4.980468,2.10351 1.850839,-0.0204 4.173482,-0.65406 5.066407,-2.27539 0.697024,-1.26562 -0.07846,-2.94683 -0.613282,-4.28906 -0.430424,-1.08022 -2.017578,-2.84766 -2.017578,-2.84766 l -2.402344,-3.72461 1.378907,0.80078 -2.199219,-3.60937 1.861328,1.11523 -3.642578,-6.169918 0.802734,0.742187 -3.794922,-6.265625 1.53125,0.560547 -1.001953,-1.15625 0.90625,-0.234375 -0.96875,-0.396484 0.875,-3.234375 0.482422,1.644531 0.232422,-5.320312 0.480469,1.476562 -0.195313,-5.3125 1.048829,1.816406 -1.185547,-5.314453 1.123047,0.810547 -1.830079,-4.27539 1.013672,0.951171 -2.158203,-4.099609 1.160156,0.431641 -2.294922,-1.871094 0.783204,-0.775391 -2.152344,0.449219 z m -17.804688,16.015625 -2.591797,1.748046 0.482422,-1.513671 -2.574219,2.652343 -0.236328,-0.628906 -0.07617,1.03711 -0.787109,0.501953 0.480469,-0.03711 -2.023438,2.259766 0.757813,-0.466797 -1.492188,3.517578 0.513672,-0.402344 -0.462891,2.78125 0.324219,-0.523437 0.06836,4.082031 0.263671,-0.664062 0.44336,2.667964 0.08594,-0.42773 0.732422,2.5293 v -0.61524 l 1.179688,3.07227 0.08398,-0.67774 1.388672,2.89844 -0.02734,-0.94336 0.900391,1.44531 -0.386719,0.24414 0.759766,-0.0898 -3.019531,2.72656 1.054687,-0.51953 -2.113281,2.35157 0.845703,-0.35743 c 0,0 -1.870974,0.88454 -1.984375,1.76172 -0.154465,1.19482 1.899731,2.85219 2.003906,3.00586 0.104177,0.15369 7.057782,4.35856 11.011719,5.39453 2.43471,0.63791 5.024733,0.5433 7.539062,0.42969 1.541488,-0.0697 3.175002,-0.0356 4.578125,-0.67773 1.115528,-0.51049 2.2273,-1.31174 2.789063,-2.40235 0.202507,-0.39319 0.120837,-1.12097 0.121094,-1.32226 2.57e-4,-0.20131 -0.46896,-1.70375 -1.111329,-2.23047 -1.388167,-1.13827 -4.965013,-1.45448 -5.197265,-1.41211 -0.232263,0.0424 -3.162726,-0.0147 -4.744141,-0.0352 -0.264847,-0.003 -0.794922,-0.0156 -0.794922,-0.0156 l 2.660157,-1.97461 c 0,0 -0.386505,1.29908 0.07227,1.42773 0.914023,0.25633 1.603516,-2.35351 1.603516,-2.35351 l 0.34375,1.5 1.769531,-4.64063 0.310547,1.6543 0.582031,-5.61524 0.84375,0.91407 -1.710937,-7.667972 1.019531,0.441406 -4.150391,-6.941406 1.25586,0.02344 -6.660156,-4.779297 3.705078,0.140625 -5.25,-1.078125 -1.871094,-0.07617 2.283203,-1.492187 -5.035156,0.857422 0.224609,-1.283203 -1.251953,1.023437 z"
         transform="scale(0.26458334)" />
      <path
         id="path13222"
         style="opacity:0.5;fill:#000000;fill-opacity:1;stroke:none;stroke-width:0.999999px;stroke-linecap:butt;stroke-linejoin:miter;stroke-opacity:1"
         d="m 51.783203,38.3125 -1.484375,1.332031 0.02539,-0.591797 -2.392578,5.115235 -0.0039,-0.69336 -1.53125,3.259766 2.482422,3.123047 2.572266,-1.28711 0.779297,-3.222656 0.511719,-4.603515 -0.314454,0.515625 -0.373046,-2.285157 -0.273438,0.515625 z m -8.054687,29.525391 0.04883,1.05664 -3.556641,1.183594 2.513672,0.460937 -2.646484,5.400391 0.910156,-1.023437 -1.416016,7.412109 0.75,-1.402344 0.376953,7.273438 0.394532,-0.623047 0.591796,4.042969 0.31836,-1.078125 0.208984,4.492187 0.669922,-2.003906 1.103516,7.095703 0.328125,-1.962891 0.818359,5.634771 0.388672,-1.9336 2.042969,6.54688 0.267578,-1.2793 0.861328,1.71289 c 0,0 -0.637703,3.26912 -0.773437,4.92578 -0.09906,1.20915 -0.695828,2.62692 -0.0293,3.64063 0.9901,1.50581 3.17842,2.12352 4.980468,2.10351 1.850839,-0.0204 4.173482,-0.65406 5.066407,-2.27539 0.697024,-1.26562 -0.07846,-2.94683 -0.613282,-4.28906 -0.430424,-1.08022 -2.017578,-2.84766 -2.017578,-2.84766 l -2.402344,-3.72461 1.378907,0.80078 -2.199219,-3.60937 1.861328,1.11523 -3.642578,-6.169918 0.802734,0.742187 -3.794922,-6.265625 1.53125,0.560547 -1.001953,-1.15625 0.90625,-0.234375 -0.96875,-0.396484 0.875,-3.234375 0.482422,1.644531 0.232422,-5.320312 0.480469,1.476562 -0.195313,-5.3125 1.048829,1.816406 -1.185547,-5.314453 1.123047,0.810547 -1.830079,-4.27539 1.013672,0.951171 -2.158203,-4.099609 1.160156,0.431641 -2.294922,-1.871094 0.783204,-0.775391 -2.152344,0.449219 z m -17.804688,16.015625 -2.591797,1.748046 0.482422,-1.513671 -2.574219,2.652343 -0.236328,-0.628906 -0.07617,1.03711 -0.787109,0.501953 0.480469,-0.03711 -2.023438,2.259766 0.757813,-0.466797 -1.492188,3.517578 0.513672,-0.402344 -0.462891,2.78125 0.324219,-0.523437 0.06836,4.082031 0.263671,-0.664062 0.44336,2.667964 0.08594,-0.42773 0.732422,2.5293 v -0.61524 l 1.179688,3.07227 0.08398,-0.67774 1.388672,2.89844 -0.02734,-0.94336 0.900391,1.44531 -0.386719,0.24414 0.759766,-0.0898 -3.019531,2.72656 1.054687,-0.51953 -2.113281,2.35157 0.845703,-0.35743 c 0,0 -1.870974,0.88454 -1.984375,1.76172 -0.154465,1.19482 1.899731,2.85219 2.003906,3.00586 0.104177,0.15369 7.057782,4.35856 11.011719,5.39453 2.43471,0.63791 5.024733,0.5433 7.539062,0.42969 1.541488,-0.0697 3.175002,-0.0356 4.578125,-0.67773 1.115528,-0.51049 2.2273,-1.31174 2.789063,-2.40235 0.202507,-0.39319 0.120837,-1.12097 0.121094,-1.32226 2.57e-4,-0.20131 -0.46896,-1.70375 -1.111329,-2.23047 -1.388167,-1.13827 -4.965013,-1.45448 -5.197265,-1.41211 -0.232263,0.0424 -3.162726,-0.0147 -4.744141,-0.0352 -0.264847,-0.003 -0.794922,-0.0156 -0.794922,-0.0156 l 2.660157,-1.97461 c 0,0 -0.386505,1.29908 0.07227,1.42773 0.914023,0.25633 1.603516,-2.35351 1.603516,-2.35351 l 0.34375,1.5 1.769531,-4.64063 0.310547,1.6543 0.582031,-5.61524 0.84375,0.91407 -1.710937,-7.667972 1.019531,0.441406 -4.150391,-6.941406 1.25586,0.02344 -6.660156,-4.779297 3.705078,0.140625 -5.25,-1.078125 -1.871094,-0.07617 2.283203,-1.492187 -5.035156,0.857422 0.224609,-1.283203 -1.251953,1.023437 z"
         transform="scale(0.26458334)" />
      <path
         style="fill:#7239b3;fill-opacity:1;stroke:none;stroke-width:0.264583px;stroke-linecap:butt;stroke-linejoin:miter;stroke-opacity:1"
         d="m 10.627372,12.468202 0.135702,-0.302393 -0.01387,0.420646 0.173277,-0.376472 0.0093,0.122433 0.708656,-0.904682 -0.111676,0.535323 1.4152,-0.712814 c 0,0 -0.623905,0.541001 -0.53082,0.478752 0.09308,-0.06225 2.659629,0.237911 2.659629,0.237911 l -1.555876,0.496649 1.931967,0.75211 -0.345818,0.136573 1.284021,2.283425 -0.765445,-0.681343 c 0,0 -0.354043,0.254675 -0.271856,0.516753 0.20154,0.642667 1.296534,1.187296 1.611751,1.549265 0.11031,0.126671 0.250202,0.276656 0.237968,0.444179 -0.03266,0.447218 -0.412884,0.855982 -0.800804,1.080901 -0.20785,0.120513 -0.715792,0.08465 -0.715792,0.08465 l -2.524154,-0.547912 -0.116741,0.07754 0.02026,0.417381 -0.217841,-0.352979 0.01524,0.914236 -0.202573,-0.226916 0.342772,0.863075 0.30397,1.493941 0.258718,0.663505 -0.336169,-0.225922 0.140842,1.537618 -0.151648,-0.310641 -0.532541,1.218871 -0.129964,-0.651744 -0.50825,1.981638 c 0,0 -0.322644,-0.775926 -0.339,-0.678569 -0.01636,0.09736 -0.373975,2.33336 -0.413663,2.516841 -0.03969,0.18348 -0.262936,-0.632667 -0.262936,-0.632667 l -0.681287,2.405148 c 0,0 -0.10978,-0.60147 -0.169466,-0.486725 -0.05969,0.114741 -1.2009299,1.788046 -1.2009299,1.788046 l 0.072932,-0.674913 -2.2858823,1.472859 0.2389624,-0.521623 -1.5036861,0.671025 c 0,0 0.1955213,-1.090099 0.082623,-0.925377 -0.1128977,0.164724 -0.5536642,0.532048 -0.5536642,0.532048 l -0.5675128,-1.566392 -0.3487742,0.9251 -1.299368,-1.994191 0.1475954,1.053208 c 0,0 -1.4254464,-1.806524 -1.4479662,-1.918647 -0.02252,-0.112125 -0.086453,0.684543 -0.086453,0.684543 L 0.66636786,26.937623 0.30550791,26.19738 0.41840816,27.183455 -0.32853559,25.272273 c 0,0 0.17378697,1.05403 -0.0275843,0.69302 -0.20137129,-0.36101 -0.41034903,-1.66569 -0.41034903,-1.66569 l -0.0982712,0.50659 c 0,0 -0.26602388,-1.379965 -0.35393778,-1.317481 -0.087914,0.06248 -0.119309,0.738353 -0.119309,0.738353 l -0.1889107,-1.627102 -0.1204193,0.38368 0.067778,-0.920459 -0.3730513,0.592349 0.053364,-1.160054 -0.1784051,0.245912 0.017792,-0.966849 -0.2354629,0.28462 0.322597,-1.310458 -0.3275729,0.290524 0.4865436,-1.152083 -0.2271139,0.170316 0.5186152,-1.247194 -0.2720359,0.268406 0.6073756,-1.207393 -0.5629448,0.515632 0.7015567,-1.290828 -0.5877991,0.275805 1.17214489,-1.399131 -0.67091609,0.115259 1.42006652,-0.877563 -0.78941297,0.01486 1.3731625,-0.442349 c 0,0 -0.99037489,-0.03984 -0.8136143,-0.143302 0.17676058,-0.10346 1.86331375,-0.448334 1.86331375,-0.448334 0,0 -1.14724267,0.119336 -0.496857,-0.105081 0.6503858,-0.224416 2.4739917,-0.275722 2.4739917,-0.275722 l -0.255008,0.371929 0.3186126,-0.121099 c 0,0 -0.5098966,0.89053 -0.8452708,1.274421 -0.581285,0.665376 -1.4978658,1.016085 -1.992122,1.748429 -0.15083532,0.223494 -0.20350624,0.633578 -0.26739129,0.76342 -0.0638851,0.129842 -1.01616953,2.381285 -1.07492752,3.647432 -0.0174955,0.377002 0.0695399,0.764081 0.21810659,1.111017 0.26937,0.629038 1.18500492,1.676307 1.18500492,1.676307 l 0.071924,-0.248022 0.085363,0.128262 0.030835,-0.358889 0.2146205,0.215117 0.4005238,-0.675213 -0.2713368,0.08749 1.213833,-1.38101 -0.7254363,0.283482 2.2107672,-1.437289 -0.8277921,0.31002 1.502133,-0.648658 -0.1658821,-0.190198 0.3798774,0.01347 -0.383871,-0.280181 1.1666731,-0.588368 -0.4593064,0.07892 1.4976737,-0.698548 -0.3714991,-0.04078 1.4273369,-0.593323 -0.6449473,0.0842 0.7694539,-0.432578 -0.3571875,-0.0032 1.2229449,-1.420044 c 0,0 -0.7428264,0.53778 -0.6642494,0.38083 0.078577,-0.156949 1.1419473,-1.440094 1.1419473,-1.440094 L 9.382575,14.49749 9.6590837,14.188408 9.3286617,14.170856 9.6608154,13.86666 c 0,0 -0.2098586,-0.283281 -0.2815342,-0.442841 -0.2316994,-0.515794 -0.395332,-1.070109 -0.4656984,-1.631158 -0.054107,-0.431413 -0.042351,-0.876403 0.037258,-1.303845 0.041159,-0.220994 0.224709,-0.6358446 0.224709,-0.6358446 l 0.070244,0.1588056 0.018444,-0.1269085 0.3449239,0.4650205 0.06519,-0.209834 0.2969977,1.05483 0.059,-0.148581 0.03803,0.45361 0.05025,-0.132513 0.336192,0.778681 0.07088,-0.185038 z"
         id="path9412"
         sodipodi:nodetypes="cccccccccccccccssssccccccccccccccccssccscccccscccccscccccsccsccccccccccccccccccccccccscscccsssssccccccccccccccccccccccccscccccssscccccccccccc" />
      <path
         id="path11481"
         style="opacity:0.5;fill:#000000;fill-opacity:1;stroke:none;stroke-width:0.999999px;stroke-linecap:butt;stroke-linejoin:miter;stroke-opacity:1"
         d="m 33.394531,74.458984 0.04883,1.056641 -3.55664,1.185547 2.515625,0.460937 -2.648438,5.398438 0.91211,-1.023438 -1.417969,7.414063 0.75,-1.404297 0.378906,7.273437 0.392578,-0.623046 0.59375,4.042968 0.31836,-1.078125 0.207031,4.492191 0.671875,-2.001956 c 1.270505,3.908836 2.675089,11.457286 2.675089,11.457286 l 1.545523,-0.41884 4.271248,-7.23426 -0.486001,-4.122546 0.90625,-0.232422 -0.96875,-0.398437 0.875,-3.234375 0.482422,1.644531 0.232422,-5.320312 0.480469,1.476562 -0.195313,-5.310547 1.046875,1.814454 -1.185547,-5.3125 1.123047,0.808593 -1.828125,-4.27539 1.013672,0.951171 -2.160156,-4.099609 1.160156,0.433594 -2.294922,-1.871094 0.785156,-0.775391 -2.154296,0.447266 -1.441407,-1.302734 0.0293,0.644531 -1.636718,0.339844 z m 3.095703,1.347657 0.002,0.02734 -0.04297,0.01367 z M 6.6289062,89.873047 4.0371094,91.621094 4.5195312,90.107422 1.9453125,92.759766 1.7089844,92.130859 l -0.076172,1.03711 -0.78710938,0.501953 0.48046878,-0.03711 -2.02343752,2.259766 0.75781249,-0.466797 -0.56863538,1.880174 0.33939513,0.542066 1.25687738,4.858139 0.3242188,-0.52344 0.068359,4.08203 0.2636718,-0.66406 0.4433594,2.66797 0.085937,-0.42774 0.7324219,2.5293 v -0.61524 l 1.1796875,3.07227 0.083984,-0.67774 1.3886719,2.89844 -0.027344,-0.94336 0.9003906,1.44532 -0.3867188,0.24414 0.7597657,-0.0898 -3.0195313,2.72657 1.0546875,-0.51954 -2.1132812,2.35157 0.8457031,-0.35743 c 0,0 -1.870974,0.88454 -1.984375,1.76172 1.3117467,0.61655 3.0177065,0.88054 4.8574219,0.91211 3.4914143,0.58223 12.9294063,-4.58145 14.6298263,-4.62697 l 1.128803,-0.18691 1.150103,-0.38643 1.458161,-2.08397 0.448888,0.80908 0.443691,-4.77002 0.84375,0.91407 -1.710938,-7.66797 1.019531,0.4414 -4.15039,-6.941402 1.255859,0.02344 -6.660156,-4.779297 3.705078,0.140625 -5.25,-1.078125 -1.871094,-0.07617 2.283203,-1.492188 -4.777343,0.814453 1.728515,-1.130859 -1.835937,0.3125 0.07422,-0.421875 -0.6328117,0.517578 -0.4550781,0.07617 0.3066406,-0.794922 -1.4746094,0.994141 -0.9277344,0.158203 0.2929688,-0.917969 -0.2675782,0.275391 0.109375,-0.625 -1.2519531,1.023437 z"
         transform="scale(0.26458334)"
         sodipodi:nodetypes="cccccccccccccccccccccccccccccccccccccccccccccccccccccccccccccccccccccccccccccccccccccccccccccccccccccccccc" />
      <path
         id="path10660"
         style="fill:#7239b3;fill-opacity:1;stroke:none;stroke-width:0.999999px;stroke-linecap:butt;stroke-linejoin:miter;stroke-opacity:1"
         d="m 34.689453,74.439453 0.04883,1.056641 -3.55664,1.185547 2.515625,0.460937 -2.648438,5.398438 0.91211,-1.023438 -1.417969,7.414063 0.75,-1.404297 0.378906,7.273437 0.392578,-0.623047 0.59375,4.042969 0.318359,-1.078125 0.207032,4.492192 0.671875,-2.001958 1.101562,7.093748 0.328125,-1.96289 0.81836,5.63672 0.390625,-1.93555 2.042968,6.54688 0.265625,-1.2793 0.861328,1.71289 c 0,0 -0.637703,3.26912 -0.773437,4.92578 -0.09906,1.20915 -0.693875,2.62692 -0.02734,3.64063 0.9901,1.50582 3.178421,2.12352 4.980469,2.10351 1.850838,-0.0204 4.171528,-0.65211 5.064453,-2.27343 0.697024,-1.26562 -0.07846,-2.94879 -0.613281,-4.29102 -0.430424,-1.08022 -2.015625,-2.84766 -2.015625,-2.84766 l -2.402344,-3.7246 1.376953,0.80273 -2.199218,-3.61133 1.861328,1.11524 -3.642578,-6.16993 0.804687,0.74219 -3.796875,-6.265623 1.53125,0.560543 -1,-1.156246 0.90625,-0.232422 -0.96875,-0.398438 0.875,-3.234375 0.482422,1.644532 0.232422,-5.320313 0.480468,1.476563 -0.195312,-5.310547 1.046875,1.814453 -1.185547,-5.3125 1.123047,0.808594 -1.828125,-4.275391 1.013672,0.951172 -2.160156,-4.09961 1.160156,0.433594 L 37.5,76.070312 l 0.785156,-0.77539 -2.154297,0.447266 z M 7.9238281,89.853516 5.3320312,91.601562 5.8144531,90.087891 3.2402344,92.740234 3.0039062,92.111328 l -0.076172,1.03711 -0.7871094,0.501953 0.4804688,-0.03711 -2.02343755,2.259766 0.75781255,-0.466797 -1.49218755,3.517578 0.51367187,-0.402344 -0.46289062,2.781246 0.32421875,-0.52343 0.0683594,4.08203 0.26367188,-0.66406 0.44335937,2.66796 0.085937,-0.42773 0.7324218,2.5293 v -0.61524 l 1.1796876,3.07227 0.083984,-0.67774 1.3886719,2.89844 -0.027344,-0.94336 0.9003907,1.44531 -0.3867188,0.24414 0.7597657,-0.0898 -3.0195313,2.72656 1.0546875,-0.51953 -2.1132812,2.35157 0.8457031,-0.35743 c 0,0 -1.87097405,0.88454 -1.98437499,1.76172 -0.15446438,1.19482 1.89973109,2.85219 2.00390619,3.00586 0.104177,0.15369 7.0577823,4.35856 11.0117191,5.39453 2.43471,0.63791 5.024733,0.5433 7.539062,0.42969 1.541487,-0.0697 3.175002,-0.0356 4.578125,-0.67773 1.115527,-0.51049 2.2273,-1.31174 2.789063,-2.40235 0.202507,-0.39319 0.120837,-1.12097 0.121094,-1.32226 2.57e-4,-0.20131 -0.468961,-1.70375 -1.111329,-2.23047 -1.388167,-1.13827 -4.965013,-1.45448 -5.197265,-1.41211 -0.232263,0.0424 -3.162726,-0.0147 -4.744141,-0.0352 -0.264847,-0.003 -0.794922,-0.0156 -0.794922,-0.0156 l 2.660157,-1.97461 0.07227,1.42773 1.603516,-2.35351 0.34375,1.5 1.769531,-4.64063 0.310547,1.6543 0.582031,-5.61524 0.84375,0.91407 -1.710937,-7.66797 1.019531,0.4414 -4.150391,-6.941402 1.25586,0.02344 -6.660156,-4.779297 3.705078,0.140625 -5.25,-1.078125 -1.871094,-0.07617 2.283203,-1.492187 -5.0351564,0.857422 0.2246093,-1.283203 -1.2519531,1.023437 z"
         transform="scale(0.26458334)"
         sodipodi:nodetypes="cccccccccccccccccccccsscsscccccccccccccccccccccccccccccccccccccccccccccccccccccccccccsssssssssscccccccccccccccccccccc" />
    </g>
    <ellipse
       style="opacity:1;fill:#ffe16b;fill-opacity:1;stroke:none;stroke-width:0.298676;stroke-linecap:round;stroke-linejoin:round;paint-order:fill markers stroke"
       id="path13289"
       cx="12.106339"
       cy="16.446304"
       rx="0.71881741"
       ry="0.3851417"
       transform="matrix(0.99377803,0.11137876,0.13138256,0.99133174,0,0)" />
    <path
       style="fill:#a10705;fill-opacity:1;stroke:none;stroke-width:0.264583px;stroke-linecap:butt;stroke-linejoin:miter;stroke-opacity:1"
       d="m 16.609481,18.782435 c -0.03023,-0.01211 -0.844827,0.203538 -0.844827,0.203538 0,0 -0.144732,0.447886 -0.02434,0.613315 0.05253,0.07219 0.261008,0.150581 0.348815,0.166723 0.196444,0.03611 0.505854,-0.04026 0.505854,-0.04026 0,0 -0.0022,-0.240277 0.08218,-0.239569 0.07165,6e-4 -0.01535,0.225111 -0.01535,0.225111 l 0.158087,-0.05678 c 0,0 0.152783,-0.230229 0.148497,-0.359951 -0.0056,-0.170356 -0.100754,-0.342956 -0.225788,-0.458797 -0.03507,-0.03249 -0.133129,-0.05333 -0.133129,-0.05333 z"
       id="path13508"
       sodipodi:nodetypes="scsscsccsss" />
    <g
       id="g14304">
      <ellipse
         style="opacity:1;fill:#000000;fill-opacity:1;stroke:none;stroke-width:0.173482;stroke-linecap:round;stroke-linejoin:round;paint-order:fill markers stroke"
         id="ellipse14130"
         cx="13.031376"
         cy="15.464417"
         rx="0.33732694"
         ry="0.27688393"
         transform="matrix(0.9851849,0.17149551,0.08502005,0.99637924,0,0)" />
      <path
         id="path14194"
         style="opacity:1;fill:#fafafa;stroke-width:0.999999;stroke-linecap:round;stroke-linejoin:round;paint-order:fill markers stroke"
         d="M 53.03125 65.943359 A 0.25948743 0.22795245 0 0 0 52.771484 66.171875 A 0.25948743 0.22795245 0 0 0 53.03125 66.400391 A 0.25948743 0.22795245 0 0 0 53.291016 66.171875 A 0.25948743 0.22795245 0 0 0 53.03125 65.943359 z M 53.970703 66.003906 A 0.53417699 0.56734438 0 0 0 53.4375 66.572266 A 0.53417699 0.56734438 0 0 0 53.970703 67.138672 A 0.53417699 0.56734438 0 0 0 54.505859 66.572266 A 0.53417699 0.56734438 0 0 0 53.970703 66.003906 z M 53.136719 66.910156 A 0.17971763 0.19984414 0 0 0 52.957031 67.111328 A 0.17971763 0.19984414 0 0 0 53.136719 67.310547 A 0.17971763 0.19984414 0 0 0 53.230469 67.28125 A 0.17971763 0.19984414 0 0 0 53.316406 67.111328 A 0.17971763 0.19984414 0 0 0 53.136719 66.910156 z "
         transform="scale(0.26458334)" />
    </g>
    <g
       id="g15963">
      <path
         style="fill:#d48e15;fill-opacity:1;stroke:none;stroke-width:0.264583px;stroke-linecap:butt;stroke-linejoin:miter;stroke-opacity:1"
         d="m 11.798405,32.677111 c 0.14879,0.673672 0.06239,1.190512 0.161981,0.679591 0.09959,-0.510924 0.203456,-0.551169 0.09213,-0.792803 -0.02459,-0.05338 -0.08947,-0.11311 -0.146353,-0.09834 -0.0766,0.01989 -0.107758,0.211552 -0.107758,0.211552 z"
         id="path14452"
         sodipodi:nodetypes="csssc" />
      <path
         style="fill:#d48e15;fill-opacity:1;stroke:none;stroke-width:0.264583px;stroke-linecap:butt;stroke-linejoin:miter;stroke-opacity:1"
         d="m 13.116645,32.268021 c 0.14879,0.673672 0.06239,1.190512 0.161981,0.679591 0.09959,-0.510924 0.203456,-0.551169 0.09213,-0.792803 -0.02459,-0.05338 -0.08947,-0.11311 -0.146353,-0.09834 -0.0766,0.01989 -0.107758,0.211552 -0.107758,0.211552 z"
         id="path14739"
         sodipodi:nodetypes="csssc" />
      <path
         style="fill:#d48e15;fill-opacity:1;stroke:none;stroke-width:0.264583px;stroke-linecap:butt;stroke-linejoin:miter;stroke-opacity:1"
         d="m 12.327572,32.677111 c 0.14879,0.673672 0.06239,1.190512 0.161981,0.679591 0.09959,-0.510924 0.203456,-0.551169 0.09213,-0.792803 -0.02459,-0.05338 -0.08947,-0.11311 -0.146353,-0.09834 -0.0766,0.01989 -0.107758,0.211552 -0.107758,0.211552 z"
         id="path15757"
         sodipodi:nodetypes="csssc" />
      <path
         style="fill:#d48e15;fill-opacity:1;stroke:none;stroke-width:0.264583px;stroke-linecap:butt;stroke-linejoin:miter;stroke-opacity:1"
         d="m 12.785793,32.501102 c 0.14879,0.673672 0.06239,1.190512 0.161981,0.679591 0.09959,-0.510924 0.203456,-0.551169 0.09213,-0.792803 -0.02459,-0.05338 -0.08947,-0.11311 -0.146353,-0.09834 -0.0766,0.01989 -0.107758,0.211552 -0.107758,0.211552 z"
         id="path15759"
         sodipodi:nodetypes="csssc" />
    </g>
    <g
       id="g15973"
       transform="translate(2.0755443,-1.4250159)"
       style="fill:#ad5f00">
      <path
         style="fill:#ad5f00;fill-opacity:1;stroke:none;stroke-width:0.264583px;stroke-linecap:butt;stroke-linejoin:miter;stroke-opacity:1"
         d="m 11.798405,32.677111 c 0.14879,0.673672 0.06239,1.190512 0.161981,0.679591 0.09959,-0.510924 0.203456,-0.551169 0.09213,-0.792803 -0.02459,-0.05338 -0.08947,-0.11311 -0.146353,-0.09834 -0.0766,0.01989 -0.107758,0.211552 -0.107758,0.211552 z"
         id="path15965"
         sodipodi:nodetypes="csssc" />
      <path
         style="fill:#ad5f00;fill-opacity:1;stroke:none;stroke-width:0.264583px;stroke-linecap:butt;stroke-linejoin:miter;stroke-opacity:1"
         d="m 13.116645,32.268021 c 0.14879,0.673672 0.06239,1.190512 0.161981,0.679591 0.09959,-0.510924 0.203456,-0.551169 0.09213,-0.792803 -0.02459,-0.05338 -0.08947,-0.11311 -0.146353,-0.09834 -0.0766,0.01989 -0.107758,0.211552 -0.107758,0.211552 z"
         id="path15967"
         sodipodi:nodetypes="csssc" />
      <path
         style="fill:#ad5f00;fill-opacity:1;stroke:none;stroke-width:0.264583px;stroke-linecap:butt;stroke-linejoin:miter;stroke-opacity:1"
         d="m 12.327572,32.677111 c 0.14879,0.673672 0.06239,1.190512 0.161981,0.679591 0.09959,-0.510924 0.203456,-0.551169 0.09213,-0.792803 -0.02459,-0.05338 -0.08947,-0.11311 -0.146353,-0.09834 -0.0766,0.01989 -0.107758,0.211552 -0.107758,0.211552 z"
         id="path15969"
         sodipodi:nodetypes="csssc" />
      <path
         style="fill:#ad5f00;fill-opacity:1;stroke:none;stroke-width:0.264583px;stroke-linecap:butt;stroke-linejoin:miter;stroke-opacity:1"
         d="m 12.785793,32.501102 c 0.14879,0.673672 0.06239,1.190512 0.161981,0.679591 0.09959,-0.510924 0.203456,-0.551169 0.09213,-0.792803 -0.02459,-0.05338 -0.08947,-0.11311 -0.146353,-0.09834 -0.0766,0.01989 -0.107758,0.211552 -0.107758,0.211552 z"
         id="path15971"
         sodipodi:nodetypes="csssc" />
    </g>
    <g
       id="g16001"
       transform="rotate(-35.920817,11.070251,39.712167)">
      <path
         style="fill:#d48e15;fill-opacity:1;stroke:none;stroke-width:0.264583px;stroke-linecap:butt;stroke-linejoin:miter;stroke-opacity:1"
         d="m 11.798405,32.677111 c 0.14879,0.673672 0.06239,1.190512 0.161981,0.679591 0.09959,-0.510924 0.203456,-0.551169 0.09213,-0.792803 -0.02459,-0.05338 -0.08947,-0.11311 -0.146353,-0.09834 -0.0766,0.01989 -0.107758,0.211552 -0.107758,0.211552 z"
         id="path15993"
         sodipodi:nodetypes="csssc" />
      <path
         style="fill:#d48e15;fill-opacity:1;stroke:none;stroke-width:0.264583px;stroke-linecap:butt;stroke-linejoin:miter;stroke-opacity:1"
         d="m 13.116645,32.268021 c 0.14879,0.673672 0.06239,1.190512 0.161981,0.679591 0.09959,-0.510924 0.203456,-0.551169 0.09213,-0.792803 -0.02459,-0.05338 -0.08947,-0.11311 -0.146353,-0.09834 -0.0766,0.01989 -0.107758,0.211552 -0.107758,0.211552 z"
         id="path15995"
         sodipodi:nodetypes="csssc" />
      <path
         style="fill:#d48e15;fill-opacity:1;stroke:none;stroke-width:0.264583px;stroke-linecap:butt;stroke-linejoin:miter;stroke-opacity:1"
         d="m 12.327572,32.677111 c 0.14879,0.673672 0.06239,1.190512 0.161981,0.679591 0.09959,-0.510924 0.203456,-0.551169 0.09213,-0.792803 -0.02459,-0.05338 -0.08947,-0.11311 -0.146353,-0.09834 -0.0766,0.01989 -0.107758,0.211552 -0.107758,0.211552 z"
         id="path15997"
         sodipodi:nodetypes="csssc" />
      <path
         style="fill:#d48e15;fill-opacity:1;stroke:none;stroke-width:0.264583px;stroke-linecap:butt;stroke-linejoin:miter;stroke-opacity:1"
         d="m 12.785793,32.501102 c 0.14879,0.673672 0.06239,1.190512 0.161981,0.679591 0.09959,-0.510924 0.203456,-0.551169 0.09213,-0.792803 -0.02459,-0.05338 -0.08947,-0.11311 -0.146353,-0.09834 -0.0766,0.01989 -0.107758,0.211552 -0.107758,0.211552 z"
         id="path15999"
         sodipodi:nodetypes="csssc" />
    </g>
    <g
       id="g3104"
       transform="matrix(-0.9492247,0.31459892,0.31459892,0.9492247,20.171496,3.0162006)">
      <g
         id="g841"
         transform="matrix(0.00138833,0,0,0.00138833,7.9602182,13.644542)">
        <path
           inkscape:connector-curvature="0"
           id="path833"
           d="m 146.014,554.568 c 1.591,3.545 5.165,6.132 9.438,6.83 l 42.059,6.831 c 1.581,2.84 3.243,5.638 4.911,8.414 l -18.34,33.827 c -1.888,3.447 -1.577,7.5 0.781,10.702 2.349,3.221 6.4,5.152 10.76,5.091 l 42.82,-0.495 c 2.171,2.474 4.378,4.926 6.632,7.333 l -10.506,36.433 c -1.063,3.699 0.122,7.617 3.146,10.377 3.008,2.749 7.431,3.947 11.671,3.155 l 41.844,-7.838 c 2.662,2.061 5.372,4.098 8.109,6.094 l -2.189,37.566 c -0.23,3.802 1.81,7.46 5.388,9.639 3.576,2.194 8.159,2.604 12.14,1.1 l 39.174,-14.833 c 3.104,1.573 6.225,3.132 9.381,4.642 l 6.194,37.179 c 0.626,3.767 3.436,7.009 7.425,8.542 3.976,1.538 8.571,1.153 12.125,-1.009 l 35.074,-21.251 c 3.396,1.021 6.807,2.001 10.265,2.942 l 14.3,35.416 c 1.455,3.609 4.91,6.306 9.169,7.127 4.244,0.814 8.649,-0.345 11.652,-3.066 l 29.687,-26.946 c 3.522,0.409 7.048,0.789 10.584,1.114 l 21.947,32.409 c 2.226,3.281 6.218,5.33 10.565,5.413 4.334,0.083 8.41,-1.812 10.733,-5.008 l 23.126,-31.552 c 3.547,-0.188 7.099,-0.435 10.628,-0.709 l 28.682,28.058 c 2.905,2.835 7.279,4.161 11.538,3.509 4.282,-0.666 7.842,-3.222 9.418,-6.773 l 15.601,-34.846 c 3.479,-0.81 6.926,-1.668 10.365,-2.55 l 34.257,22.572 c 3.483,2.302 8.062,2.861 12.1,1.468 4.025,-1.379 6.964,-4.513 7.725,-8.252 l 7.556,-36.917 c 3.208,-1.389 6.385,-2.818 9.552,-4.281 l 38.6,16.313 c 3.92,1.661 8.535,1.422 12.17,-0.636 3.65,-2.042 5.828,-5.619 5.732,-9.426 l -0.802,-37.625 c 2.803,-1.892 5.578,-3.823 8.327,-5.78 l 41.521,9.426 c 4.218,0.946 8.677,-0.075 11.79,-2.709 3.135,-2.644 4.454,-6.513 3.53,-10.249 l -9.146,-36.808 c 2.32,-2.329 4.618,-4.687 6.875,-7.074 l 42.77,2.125 c 4.316,0.19 8.473,-1.549 10.943,-4.679 2.478,-3.11 2.918,-7.147 1.181,-10.665 l -17.104,-34.501 c 1.774,-2.712 3.535,-5.445 5.231,-8.222 l 42.278,-5.226 c 4.297,-0.526 7.954,-2.975 9.684,-6.465 1.72,-3.5 1.257,-7.533 -1.215,-10.677 L 921.479,528.24 c 0.203,-0.531 -1.999,-32.28 -21.526,-58.158 0,0 -0.169,-0.069 -0.475,-0.191 C 855.033,407.22 716.712,359.6 552.124,356.465 378.036,353.149 231.49,400.686 193.714,467.318 176.853,484.381 172.602,512.466 173.11,513.99 l -25.495,29.958 c -2.602,3.046 -3.19,7.059 -1.601,10.62 z"
           fill="#8f1f1d" />
        <path
           inkscape:connector-curvature="0"
           id="path835"
           d="m 1006.008,420.45 c -1.728,-4.947 -19.723,-3.687 -24.194,-4.556 l -65.68,0.586 c -1.701,-3.954 -3.489,-7.85 -5.283,-11.713 l 42.551,-65.735 c 1.905,-4.904 12.443,-11.779 9.923,-16.227 -2.512,-4.469 -18.607,1.506 -23.153,1.708 l -67.827,12.061 c -2.313,-3.422 -4.662,-6.814 -7.059,-10.144 l 38.03,-84.758 c 1.039,-5.237 12.658,-26.514 9.45,-30.318 -3.189,-3.792 -18.273,9.018 -22.681,10.249 l -73.744,46.76 c -2.816,-2.829 -5.681,-5.624 -8.575,-8.362 l 20.894,-73.414 c 0.168,-5.358 11.334,-30.76 7.561,-33.733 -3.771,-2.993 -16.667,8.452 -20.79,10.675 l -65.16,50.814 c -3.268,-2.13 -6.552,-4.242 -9.872,-6.284 l 15.496,-86.805 c -0.726,-5.287 5.608,-32.964 1.417,-35.016 -4.174,-2.061 -26.104,22.056 -29.768,25.194 l -51.029,65.23 c -3.562,-1.346 -7.138,-2.635 -10.763,-3.867 L 660.92,74.281 c -1.585,-5.042 -1.212,-22.872 -5.67,-23.913 -4.442,-1.033 -10.15,14.875 -13.23,18.788 l -44.103,87.736 c -3.682,-0.482 -7.366,-0.922 -11.061,-1.283 L 564.527,54.643 C 562.143,50.081 559.614,35 555.078,35 c -4.522,0 -8.035,18.07 -10.396,22.631 l -27.077,97.982 c -3.695,0.361 -7.396,0.801 -11.07,1.283 L 468.137,67.88 c -3.084,-3.914 -8.33,-23.237 -12.758,-22.205 -4.455,1.053 -3.621,15.455 -5.197,20.497 l -11.499,106.627 c -3.614,1.232 -7.193,2.532 -10.764,3.867 l -34.912,-44.734 c -3.677,-3.148 -24.165,-34.096 -28.351,-32.026 -4.172,2.051 -1.167,34.426 -1.89,39.712 l 1.271,68.443 c -3.32,2.042 -6.606,4.14 -9.883,6.284 l -63.681,-59.354 c -4.12,-2.232 -12.786,-11.533 -16.538,-8.541 -3.769,2.974 -0.643,16.419 -0.472,21.778 l 23.196,91.775 c -2.887,2.738 -5.745,5.533 -8.575,8.362 l -69.905,-43.344 c -4.418,-1.22 -18.065,-11.905 -21.263,-8.113 -3.218,3.804 4.164,7.809 5.197,13.047 l 36.995,96.478 c -2.376,3.342 -4.729,6.721 -7.034,10.144 L 118.07,298.04 c -4.506,-0.151 -16.917,-6.178 -19.435,-1.708 -2.522,4.447 8.045,10.896 9.923,15.8 l 85.012,92.637 c -1.798,3.863 -3.583,7.759 -5.3,11.713 l -82.547,-9.979 c -4.47,0.857 -16.217,-1.544 -17.956,3.415 -1.728,4.972 9.648,11.415 12.286,15.774 l 61.741,66.493 c -0.201,0.755 2.702,45.391 23.563,81.296 0,0 0.177,0.092 0.499,0.258 47.554,87.035 192.733,150.364 364.46,150.364 181.639,0 333.578,-70.85 371.705,-165.663 17.261,-24.474 21.158,-64.123 20.598,-66.255 l 50.158,-54.084 c 2.656,-4.362 14.956,-12.68 13.231,-17.651 z"
           fill="#8f1f1d" />
        <path
           inkscape:connector-curvature="0"
           id="path837"
           d="m 195.34,493.008 c 0,0 -94.761,13.599 -116.083,18.311 -21.321,4.711 -7.095,8.297 0,9.421 24.757,3.927 146.88,7.067 149.25,7.853 2.369,0.785 -33.167,-35.585 -33.167,-35.585 z"
           fill="#8f1f1d" />
        <path
           inkscape:connector-curvature="0"
           id="path839"
           d="m 896.038,499.622 c 0,0 94.762,13.6 116.083,18.311 21.32,4.712 7.095,8.298 0,9.422 -24.758,3.927 -146.88,7.067 -149.249,7.853 -2.37,0.784 33.166,-35.586 33.166,-35.586 z"
           fill="#8f1f1d" />
      </g>
      <g
         transform="matrix(0.00138833,0,0,0.00138833,7.8935784,13.663979)"
         id="g847">
        <path
           inkscape:connector-curvature="0"
           id="path843"
           d="m 467.982,486.018 c 0,0 -41.096,-44.997 -82.191,0 0,0 -32.292,60.001 0,89.998 0,0 52.837,41.999 82.191,0 0,0 35.226,-33.002 0,-89.998 z" />
        <path
           inkscape:connector-curvature="0"
           id="path845"
           d="m 420.404,502.71 c 0,17.521 10.329,31.727 23.066,31.727 12.735,0 23.064,-14.205 23.064,-31.727 0,-17.522 -10.329,-31.728 -23.064,-31.728 -12.738,0 -23.066,14.206 -23.066,31.728 z"
           fill="#ffffff" />
      </g>
      <g
         transform="matrix(0.00138833,0,0,0.00138833,7.8935784,13.663979)"
         id="g853">
        <path
           inkscape:connector-curvature="0"
           id="path849"
           d="m 698.226,469.498 c 0,0 -70.494,-31.212 -89.735,38.454 0,0 -20.153,81.201 57.891,85.784 -10e-4,0 99.518,-19.168 31.844,-124.238 z" />
        <path
           inkscape:connector-curvature="0"
           id="path851"
           d="m 662.819,499.628 c 0,18.068 10.65,32.723 23.79,32.723 13.133,0 23.786,-14.654 23.786,-32.723 0,-18.072 -10.653,-32.723 -23.786,-32.723 -13.139,0 -23.79,14.651 -23.79,32.723 z"
           fill="#ffffff" />
      </g>
    </g>
  </g>
</svg>
